<svg width="36" height="36" viewBox="0 0 36 36" fill="none" xmlns="http://www.w3.org/2000/svg">
<path d="M31 2H5C3.343 2 2 3.343 2 5V31C2 32.657 3.343 34 5 34H31C32.657 34 34 32.657 34 31V5C34 3.343 32.657 2 31 2Z" fill="#CCD6DD"/>
<path d="M31 1H5C2.791 1 1 2.791 1 5V31C1 33.209 2.791 35 5 35H31C33.209 35 35 33.209 35 31V5C35 2.791 33.209 1 31 1ZM31 3C32.103 3 33 3.897 33 5V9H27V3H31ZM27 19H33V25H27V19ZM27 17V11H33V17H27ZM25 3V9H19V3H25ZM19 11H25V17H19V11ZM19 19H25V25H19V19ZM17 3V9H11V3H17ZM11 11H17V17H11V11ZM11 19H17V25H11V19ZM3 5C3 3.897 3.897 3 5 3H9V9H3V5ZM3 11H9V17H3V11ZM3 19H9V25H3V19ZM5 33C3.897 33 3 32.103 3 31V27H9V33H5ZM11 33V27H17V33H11ZM19 33V27H25V33H19ZM31 33H27V27H33V31C33 32.103 32.103 33 31 33Z" fill="#E1E8ED"/>
<path d="M13 33H7V16C7 14.896 7.896 14 9 14H11C12.104 14 13 14.896 13 16V33Z" fill="#5C913B"/>
<path d="M29 33H23V9C23 7.896 23.896 7 25 7H27C28.104 7 29 7.896 29 9V33Z" fill="#3B94D9"/>
<path d="M21 33H15V23C15 21.896 15.896 21 17 21H19C20.104 21 21 21.896 21 23V33Z" fill="#DD2E44"/>
</svg>
