<svg width="36" height="36" viewBox="0 0 36 36" fill="none" xmlns="http://www.w3.org/2000/svg">
<g clip-path="url(#clip0)">
<path d="M34 16C34 24.834 26.834 32 18 32C9.164 32 2 24.834 2 16C2 7.164 9.164 0 18 0C26.834 0 34 7.164 34 16Z" fill="#FFCC4D"/>
<path d="M25.861 16.1291C25.711 15.9681 25.487 15.9581 25.326 16.1001C25.293 16.1291 22.023 19.0001 18 19.0001C13.987 19.0001 10.707 16.1291 10.674 16.1001C10.512 15.9581 10.289 15.9701 10.139 16.1291C9.99001 16.2891 9.95701 16.5531 10.06 16.7571C10.168 16.9721 12.769 22.0001 18 22.0001C23.231 22.0001 25.833 16.9721 25.94 16.7571C26.043 16.5521 26.01 16.2891 25.861 16.1291Z" fill="#664500"/>
<path d="M13.393 23.1539L11.854 20.9349C11.854 20.9349 11.311 20.0679 10.443 20.6099C9.576 21.1509 10.119 22.0189 10.119 22.0189L11.877 25.3989C11.877 25.3989 12.021 26.1669 10.959 25.3079C10.496 24.9339 10.762 25.1449 10.762 25.1449L10.322 24.7839L4.831 20.2759C4.831 20.2759 4.122 19.5279 3.472 20.3179C2.824 21.1089 3.695 21.6589 3.695 21.6589L8.888 25.9249C8.768 26.0449 8.406 26.4589 8.288 26.5879L2.731 22.0279C2.731 22.0279 2.021 21.2789 1.373 22.0689C0.722997 22.8599 1.595 23.4099 1.595 23.4099L7.15 27.9719C7.047 28.1119 6.787 28.4479 6.691 28.5859L1.899 24.6519C1.899 24.6519 1.189 23.9039 0.540997 24.6939C-0.110004 25.4849 0.762996 26.0359 0.762996 26.0359L5.857 30.2199C5.793 30.3979 5.494 30.8659 5.447 31.0399L1.775 28.0279C1.775 28.0279 1.066 27.2759 0.417997 28.0689C-0.232003 28.8599 0.639996 29.4099 0.639996 29.4099L6.57 34.2779L6.965 34.6039C9.585 36.7549 13.454 36.3749 15.605 33.7549C17.576 31.3519 17.422 27.9019 15.365 25.6859C14.636 24.9039 14.005 24.0329 13.393 23.1539ZM35.583 28.0699C34.935 27.2769 34.226 28.0289 34.226 28.0289L30.554 31.0409C30.507 30.8669 30.208 30.3979 30.144 30.2209L35.238 26.0369C35.238 26.0369 36.111 25.4859 35.461 24.6949C34.813 23.9049 34.103 24.6529 34.103 24.6529L29.311 28.5869C29.215 28.4479 28.954 28.1119 28.852 27.9729L34.407 23.4109C34.407 23.4109 35.28 22.8609 34.63 22.0699C33.982 21.2799 33.273 22.0289 33.273 22.0289L27.715 26.5889C27.598 26.4599 27.236 26.0459 27.115 25.9259L32.308 21.6599C32.308 21.6599 33.178 21.1099 32.531 20.3189C31.881 19.5289 31.172 20.2769 31.172 20.2769L25.681 24.7849L25.242 25.1459C25.242 25.1459 26.232 24.3049 25.045 25.3089C23.857 26.3129 24.127 25.3999 24.127 25.3999L25.885 22.0199C25.885 22.0199 26.428 21.1519 25.561 20.6109C24.692 20.0689 24.15 20.9359 24.15 20.9359L22.612 23.1549C21.999 24.0339 21.368 24.9049 20.638 25.6879C18.58 27.9049 18.426 31.3539 20.399 33.7569C22.549 36.3769 26.419 36.7569 29.039 34.6059L29.435 34.2799L35.365 29.4119C35.36 29.4109 36.232 28.8609 35.583 28.0699Z" fill="#F4900C"/>
<path d="M27.677 10.983C27.626 10.861 26.392 8 23.856 8C21.322 8 20.088 10.861 20.037 10.983C19.957 11.171 20.009 11.389 20.16 11.519C20.309 11.647 20.525 11.651 20.683 11.531C20.693 11.522 21.764 10.715 23.856 10.715C25.935 10.715 27.005 11.512 27.03 11.531C27.105 11.59 27.195 11.62 27.285 11.62C27.38 11.62 27.474 11.586 27.552 11.521C27.705 11.392 27.757 11.171 27.677 10.983ZM16.677 10.983C16.625 10.861 15.392 8 12.856 8C10.322 8 9.08799 10.861 9.03599 10.983C8.95699 11.171 9.00799 11.389 9.15999 11.519C9.30999 11.647 9.52599 11.651 9.68299 11.531C9.69399 11.522 10.764 10.715 12.856 10.715C14.936 10.715 16.005 11.512 16.029 11.531C16.105 11.59 16.194 11.62 16.284 11.62C16.379 11.62 16.473 11.586 16.551 11.521C16.705 11.392 16.756 11.171 16.677 10.983Z" fill="#664500"/>
<path d="M11.182 25.478C11.182 25.478 8.58901 28.792 11.666 32.938C11.878 33.223 12.416 33.084 12.187 32.75C11.937 32.386 9.437 28.854 11.787 25.693C11.787 25.693 11.406 25.646 11.182 25.478ZM24.765 25.576C24.765 25.576 27.359 28.89 24.281 33.036C24.069 33.321 23.531 33.182 23.76 32.848C24.01 32.484 26.51 28.952 24.16 25.791C24.159 25.792 24.541 25.745 24.765 25.576Z" fill="#B55005"/>
</g>
<defs>
<clipPath id="clip0">
<rect width="36" height="36" fill="white"/>
</clipPath>
</defs>
</svg>
