<svg width="36" height="36" viewBox="0 0 36 36" fill="none" xmlns="http://www.w3.org/2000/svg">
<path d="M36 27C36 29.209 34.209 31 32 31H4C1.791 31 0 29.209 0 27V9C0 6.791 1.791 5 4 5H32C34.209 5 36 6.791 36 9V27Z" fill="#CCD6DD"/>
<path d="M11.949 17.636L0.636996 28.948C0.609996 28.977 0.599996 29.012 0.576996 29.04C0.916996 29.61 1.391 30.083 1.961 30.424C1.99 30.401 2.024 30.391 2.051 30.364L13.365 19.05C13.755 18.659 13.755 18.027 13.365 17.636C12.973 17.245 12.341 17.245 11.949 17.636ZM35.423 29.04C35.402 29.012 35.39 28.977 35.363 28.95L24.051 17.636C23.659 17.245 23.027 17.245 22.636 17.636C22.245 18.028 22.245 18.66 22.636 19.05L33.949 30.364C33.975 30.39 34.011 30.401 34.039 30.424C34.61 30.084 35.083 29.61 35.423 29.04Z" fill="#99AAB5"/>
<path d="M32 5H4C1.791 5 0 6.791 0 9V10.03L14.527 24.526C16.422 26.419 19.515 26.419 21.412 24.526L36 10.009V9C36 6.791 34.209 5 32 5Z" fill="#99AAB5"/>
<path d="M32 5H4C2.412 5 1.051 5.934 0.404999 7.275L15.171 22.042C16.733 23.604 19.267 23.604 20.828 22.042L35.595 7.275C34.949 5.934 33.589 5 32 5Z" fill="#E1E8ED"/>
<path d="M27 16.78C27 14.026 24.768 11.793 22.014 11.793C20.342 11.793 18.866 12.619 17.961 13.88C17.055 12.619 15.58 11.793 13.91 11.793C11.156 11.793 8.923 14.026 8.923 16.78C8.923 17.171 8.973 17.549 9.057 17.913C9.75 22.215 14.533 26.754 17.961 28C21.389 26.754 26.173 22.215 26.865 17.914C26.95 17.549 27 17.17 27 16.78Z" fill="#DD2E44"/>
</svg>
