<svg width="36" height="36" viewBox="0 0 36 36" fill="none" xmlns="http://www.w3.org/2000/svg">
<path d="M8 27C8 27 6 31 6 33C6 35 10 36 18 36C26 36 30 35 30 33C30 31 28 27 28 27H8ZM9 6C6 6 6 7 5 16C4.006 24.945 5 26 9 26C11 26 11 6 9 6ZM27 6C30 6 30 7 31 16C31.994 24.945 31 26 27 26C25 26 25 6 27 6Z" fill="#66757F"/>
<path d="M8 3C8 3 9 0 18 0C27 0 28 3 28 3C28 3 29 9 29 17C29 25 28 31 28 31C28 31 27 33 18 33C9 33 8 31 8 31C8 31 7 28 7 17C7 6 8 3 8 3Z" fill="#CCD6DD"/>
<path d="M28 8C28 7 25 4 18 4C11 4 8 7 8 8C8 8.807 12.548 9.612 14.311 9.894C14.999 12.548 15 18 15 18C15.805 14.782 15.315 10.921 15.093 9.533C15.295 8.942 15.941 8 18 8C21 8 21 10 21 10H21.002C20.768 11.657 20.436 15.089 21.164 18C21.164 18 21.166 12.509 21.861 9.866C23.727 9.562 28 8.782 28 8Z" fill="#66757F"/>
<path d="M14 20C14 19 16 17 18 17C20 17 22 19 22 20C22 21 21 21 18 21C15 21 14 21 14 20ZM12 24C12 24 14 22 18 22C22 22 24 24 24 24C24 24 22 23 18 23C14 23 12 24 12 24ZM12 26C12 25 14 24 18 24C22 24 24 25 24 26C24 27 23 27 18 27C13 27 12 27 12 26Z" fill="#66757F"/>
</svg>
