<svg width="36" height="36" viewBox="0 0 36 36" fill="none" xmlns="http://www.w3.org/2000/svg">
<path d="M19 12V5H17V12H14V15H22V12H19Z" fill="#58595B"/>
<path d="M33.2131 10.9769L3.27013 2.95389C2.73713 2.80989 2.42013 2.26289 2.56313 1.72789C2.70613 1.19489 3.25413 0.877891 3.78813 1.02089L33.7301 9.04489C34.2641 9.18889 34.5811 9.73589 34.4371 10.2699C34.2951 10.8039 33.7471 11.1209 33.2131 10.9769Z" fill="#6D6E71"/>
<path d="M23.3481 4.36095L21.4151 3.84295L21.6741 2.87795L15.8791 1.32495L15.6201 2.29095L13.6881 1.77295C12.6211 1.48795 11.5241 2.12095 11.2381 3.18795C10.9521 4.25395 11.5861 5.35095 12.6521 5.63695L22.3121 8.22495C23.3781 8.51095 24.4751 7.87695 24.7611 6.81095C25.0471 5.74495 24.4141 4.64695 23.3481 4.36095Z" fill="#A7A9AC"/>
<path d="M13.877 4.93089C13.591 5.99689 12.494 6.63089 11.427 6.34489C10.361 6.05889 9.72697 4.96189 10.013 3.89589C10.299 2.82889 11.396 2.19589 12.462 2.48089C13.53 2.76689 14.163 3.86289 13.877 4.93089ZM25.469 8.03589C25.183 9.10289 24.086 9.73589 23.02 9.44989C21.953 9.16389 21.32 8.06789 21.606 7.00089C21.891 5.93389 22.988 5.30089 24.055 5.58689C25.121 5.87289 25.755 6.96989 25.469 8.03589Z" fill="#808285"/>
<path d="M6 32C6 34.209 7.791 36 10 36H26C28.209 36 30 34.209 30 32V27H6V32ZM26 14H10C8.523 14 7.248 14.809 6.555 16H29.445C28.752 14.809 27.477 14 26 14Z" fill="#DD2E44"/>
<path d="M6 18H30V27H6V18Z" fill="#88C9F9"/>
<path d="M6.555 16C6.211 16.59 6 17.268 6 18H30C30 17.268 29.789 16.59 29.445 16H6.555Z" fill="#55ACEE"/>
<path d="M12 16H14V27H12V16ZM21 16H23V27H21V16Z" fill="#231F20"/>
</svg>
