<svg width="36" height="36" viewBox="0 0 36 36" fill="none" xmlns="http://www.w3.org/2000/svg">
<path d="M7.00009 24C8.95709 24 10.6331 25.135 11.4551 26.772L14.9321 25.033C13.4881 22.058 10.4461 20 6.91609 20C5.61509 20 4.38209 20.285 3.26709 20.787L4.93509 24.457C5.56609 24.17 6.26209 24 7.00009 24ZM29.0001 24C30.4671 24 31.7721 24.643 32.6881 25.648L35.5851 23.013C33.9521 21.169 31.5731 20 28.9161 20C25.3401 20 22.2641 22.111 20.8431 25.15L24.4911 26.872C25.2931 25.18 27.0031 24 29.0001 24Z" fill="#EA596E"/>
<path d="M7 22C3.134 22 0 25.134 0 29C0 32.866 3.134 36 7 36C10.866 36 14 32.866 14 29C14 25.134 10.867 22 7 22ZM7 34C4.239 34 2 31.762 2 29C2 26.238 4.239 24 7 24C9.761 24 12 26.238 12 29C12 31.762 9.762 34 7 34ZM29 22C25.135 22 22 25.134 22 29C22 32.866 25.135 36 29 36C32.867 36 36 32.866 36 29C36 25.134 32.867 22 29 22ZM29 34C26.239 34 24 31.762 24 29C24 26.238 26.239 24 29 24C31.762 24 34 26.238 34 29C34 31.762 31.762 34 29 34Z" fill="#292F33"/>
<path d="M29.984 28.9219C29.979 28.8549 29.963 28.7899 29.944 28.7239C29.925 28.6589 29.904 28.5979 29.873 28.5379C29.86 28.5139 29.858 28.4859 29.844 28.4629L22.844 17.4629C22.547 16.9969 21.93 16.8589 21.463 17.1559C21.164 17.3459 21.019 17.6689 21.018 17.9989H12C11.448 17.9989 11 18.4459 11 18.9989C11 19.5519 11.448 19.9989 12 19.9989H22C22.027 19.9989 22.05 19.9849 22.077 19.9829L27.178 27.9999H18C17.448 27.9999 17 28.4469 17 28.9999C17 29.5529 17.448 29.9999 18 29.9999H29.001C29.117 29.9999 29.231 29.9719 29.344 29.9309C29.378 29.9179 29.408 29.9039 29.441 29.8879C29.472 29.8709 29.507 29.8639 29.538 29.8439C29.568 29.8239 29.586 29.7929 29.613 29.7719C29.668 29.7279 29.716 29.6829 29.76 29.6289C29.801 29.5799 29.834 29.5299 29.864 29.4749C29.894 29.4189 29.919 29.3649 29.939 29.3029C29.96 29.2369 29.972 29.1709 29.979 29.1019C29.983 29.0659 30 29.0359 30 28.9999C30 28.9729 29.986 28.9489 29.984 28.9219Z" fill="#DD2E44"/>
<path d="M21.581 16L18.682 24.117L12.753 17.342C12.389 16.927 11.757 16.883 11.342 17.248C10.927 17.612 10.885 18.243 11.248 18.659L17.912 26.274L17.058 28.664C16.873 29.183 17.144 29.756 17.664 29.941C17.775 29.981 17.888 30 18 30C18.411 30 18.796 29.745 18.942 29.336L23.705 16H21.581Z" fill="#DD2E44"/>
<path d="M6.99982 30C6.84982 30 6.69682 29.966 6.55382 29.895C6.05982 29.648 5.85982 29.047 6.10682 28.553L9.16882 22.447C9.18582 22.419 10.9998 19.651 10.9998 17C10.9998 13.758 8.70682 12.957 8.68382 12.949C8.15982 12.774 7.87682 12.208 8.05182 11.684C8.22582 11.16 8.79082 10.874 9.31682 11.052C9.46682 11.102 12.9998 12.333 12.9998 17C12.9998 20.068 11.1638 23.042 10.8688 23.497L7.89482 29.446C7.71982 29.798 7.36682 30 6.99982 30Z" fill="#DD2E44"/>
<path d="M14.6121 13.6629C14.5581 13.6629 14.5021 13.6589 14.4471 13.6489L8.44712 12.6489C7.90312 12.5579 7.53412 12.0429 7.62512 11.4979C7.71612 10.9539 8.22612 10.5849 8.77612 10.6759L14.7761 11.6759C15.3201 11.7669 15.6891 12.2819 15.5981 12.8269C15.5161 13.3159 15.0921 13.6629 14.6121 13.6629ZM26.3831 16.9999C26.3531 16.9999 26.3241 16.9979 26.2941 16.9939L20.6221 16.2859C20.2501 16.2399 19.9781 15.9119 20.0021 15.5379C20.0251 15.1639 20.3351 14.8729 20.7091 14.8729C20.7501 14.8729 24.7761 14.8549 26.6981 13.5739C26.9481 13.4069 27.2801 13.4169 27.5221 13.5999C27.7611 13.7849 27.8591 14.1009 27.7631 14.3879L27.0541 16.5149C26.9581 16.8079 26.6851 16.9999 26.3831 16.9999Z" fill="#292F33"/>
<path d="M20 29C20 30.104 19.105 31 18 31C16.896 31 16 30.104 16 29C16 27.896 16.896 27 18 27C19.105 27 20 27.896 20 29Z" fill="#66757F"/>
</svg>
