<svg width="36" height="36" viewBox="0 0 36 36" fill="none" xmlns="http://www.w3.org/2000/svg">
<path d="M33.359 13.2539C34.793 9.79192 35.419 1.71992 34.621 1.24992C33.917 0.833916 28.98 2.33392 26.281 4.45492C23.883 2.90892 21.085 1.99992 18 1.99992C14.915 1.99992 12.117 2.90992 9.719 4.45492C7.02 2.33392 2.082 0.833916 1.378 1.24992C0.581 1.71992 1.207 9.79292 2.641 13.2539C1.59 15.8179 1 18.6229 1 21.4789C1 31.4679 2 35.9999 18 35.9999C34 35.9999 35 31.4679 35 21.4789C35 18.6229 34.41 15.8169 33.359 13.2539Z" fill="#C1694F"/>
<path d="M32.8781 12.157C33.8071 8.90505 33.9591 4.44905 33.4021 4.12005C32.9911 3.87705 30.6221 4.75305 28.3931 6.09205C30.2441 7.75505 31.7661 9.82805 32.8781 12.157ZM7.60707 6.09205C5.37707 4.75305 3.00807 3.87705 2.59707 4.12005C2.04007 4.44905 2.19207 8.90605 3.12207 12.158C4.23407 9.82805 5.75607 7.75605 7.60707 6.09205Z" fill="#662113"/>
<path d="M7.64988 29C7.64988 29 4.00888 26 3.00888 17.5C2.77488 15.514 4.70488 15.523 5.00888 17.5C6.00988 24 11.3589 28 13.9999 30C16.2549 31.708 7.64988 29 7.64988 29ZM28.3499 29C28.3499 29 31.9909 26 32.9909 17.5C33.2249 15.514 31.2959 15.523 30.9909 17.5C29.9899 24 24.6409 28 21.9999 30C19.7449 31.708 28.3499 29 28.3499 29Z" fill="#E1E8ED"/>
<path d="M29 29C29 30.104 25.18 32 18 32C10.82 32 7 30.104 7 29C7 27.896 10.82 30 18 30C25.18 30 29 27.896 29 29Z" fill="black"/>
<path d="M28 23.125C28 27.612 24.903 32.5 18 32.5C11.096 32.5 8 27.612 8 23.125C8 18.638 11.096 17.5 18 17.5C24.903 17.5 28 18.638 28 23.125Z" fill="#662113"/>
<path d="M15 24.5999C15 26.4569 14.66 26.9999 13.5 26.9999C12.34 26.9999 12 26.4569 12 24.5999C12 22.7439 12.34 22.2009 13.5 22.2009C14.66 22.2009 15 22.7429 15 24.5999ZM24 24.5999C24 26.4569 23.66 26.9999 22.5 26.9999C21.34 26.9999 21 26.4569 21 24.5999C21 22.7439 21.34 22.2009 22.5 22.2009C23.66 22.2009 24 22.7429 24 24.5999Z" fill="#C1694F"/>
<path d="M13 15.002C13 16.106 12.104 17.002 11 17.002C9.896 17.002 9 16.106 9 15.002C9 13.898 9.896 13 11 13C12.104 13 13 13.898 13 15.002ZM27 15.002C27 16.106 26.104 17.002 25 17.002C23.896 17.002 23 16.106 23 15.002C23 13.898 23.896 13 25 13C26.104 13 27 13.898 27 15.002Z" fill="#292F33"/>
</svg>
