<svg width="36" height="36" viewBox="0 0 36 36" fill="none" xmlns="http://www.w3.org/2000/svg">
<path d="M6 10L9 33C9 34.657 13.029 36 18 36C22.971 36 27 34.657 27 33L30 10H6Z" fill="#8899A6"/>
<path d="M7 10L10 32.644C10 33.887 13.582 34.894 18 34.894C22.418 34.894 26 33.887 26 32.644L29 10H7Z" fill="#D3A471"/>
<path d="M27.756 19.538L29 10H7L8.244 19.538H27.756Z" fill="#CCD6DD"/>
<path d="M25.982 19.538L27 10H9L10.018 19.538H25.982Z" fill="#E1E8ED"/>
<path d="M17.9998 21.8101C23.3923 21.8101 27.7638 20.7557 27.7638 19.4551C27.7638 18.1545 23.3923 17.1001 17.9998 17.1001C12.6073 17.1001 8.23584 18.1545 8.23584 19.4551C8.23584 20.7557 12.6073 21.8101 17.9998 21.8101Z" fill="#ECD2A7"/>
<path d="M21.8362 19.1439L23.4632 1.07688L20.4752 0.806885L18.8242 19.1439H21.8362Z" fill="#AA8DD8"/>
<path d="M5.69612 10.0029C5.51712 11.0529 5.53412 12.3659 6.10912 12.5299C6.56912 12.6619 7.21312 12.4399 7.74812 12.7069C8.28312 12.9739 8.71112 13.6719 9.25412 13.8579C10.2941 14.2139 10.9321 13.5589 11.5571 13.6369C12.7451 13.7849 13.2781 14.9209 14.2591 15.0099C15.2391 15.0989 16.0401 14.2719 16.9601 14.3009C17.9441 14.3329 17.8961 15.0679 19.4401 15.0979C20.9561 15.1269 21.2061 14.1389 22.0971 14.0789C22.9881 14.0199 23.5681 14.6259 24.4001 14.4779C25.2321 14.3289 25.5771 13.4609 26.2601 13.2819C26.9431 13.1039 27.3051 13.6079 27.8991 13.4589C28.4931 13.3109 28.8061 12.2889 29.1631 12.0209C29.5191 11.7539 30.7341 13.2809 30.4401 10.3579C29.9041 5.0299 11.3101 9.7949 9.55812 9.6769C7.80512 9.5579 6.06712 7.8319 5.69612 10.0029Z" fill="#55ACEE"/>
<path d="M17.9999 13.8109C24.8206 13.8109 30.3499 12.1096 30.3499 10.0109C30.3499 7.91226 24.8206 6.21094 17.9999 6.21094C11.1792 6.21094 5.6499 7.91226 5.6499 10.0109C5.6499 12.1096 11.1792 13.8109 17.9999 13.8109Z" fill="#88C9F9"/>
<path d="M23.4632 1.07711L20.4752 0.808105L19.6222 10.2821C19.6212 10.2891 19.6162 10.2951 19.6162 10.3011C19.6162 10.5771 20.2882 10.8011 21.1162 10.8011C21.9442 10.8011 22.6162 10.5771 22.6162 10.3011V10.3001H22.6332L23.4632 1.07711Z" fill="#9266CC"/>
<path d="M23.4628 1.07703C23.4378 1.35203 22.7488 1.51503 21.9238 1.44003C21.0988 1.36603 20.4498 1.08203 20.4748 0.807034C20.4998 0.532034 21.1888 0.369034 22.0138 0.444034C22.8388 0.519034 23.4878 0.802034 23.4628 1.07703Z" fill="#553788"/>
<path d="M20.314 19.6899C21.1424 19.6899 21.814 19.4661 21.814 19.1899C21.814 18.9138 21.1424 18.6899 20.314 18.6899C19.4855 18.6899 18.814 18.9138 18.814 19.1899C18.814 19.4661 19.4855 19.6899 20.314 19.6899Z" fill="#AA8DD8"/>
<path d="M11.2949 29.5541C10.9679 29.8811 10.3839 29.8291 9.99192 29.4371C9.59992 29.0451 9.54692 28.4611 9.87492 28.1341C10.2019 27.8071 10.7859 27.8591 11.1779 28.2511C11.5699 28.6431 11.6219 29.2261 11.2949 29.5541ZM14.2329 33.9021C14.1439 34.2531 13.7329 34.4511 13.3159 34.3461C12.8989 34.2401 12.6319 33.8701 12.7209 33.5191C12.8099 33.1681 13.2209 32.9691 13.6379 33.0751C14.0559 33.1811 14.3219 33.5511 14.2329 33.9021ZM17.7839 27.3111C17.6899 27.6811 17.2759 27.8941 16.8579 27.7891C16.4409 27.6831 16.1779 27.2981 16.2719 26.9281C16.3659 26.5581 16.7799 26.3451 17.1979 26.4501C17.6149 26.5561 17.8779 26.9421 17.7839 27.3111Z" fill="#292F33"/>
<path d="M17.217 34.707C17.8085 34.707 18.288 34.3018 18.288 33.802C18.288 33.3022 17.8085 32.897 17.217 32.897C16.6255 32.897 16.146 33.3022 16.146 33.802C16.146 34.3018 16.6255 34.707 17.217 34.707Z" fill="#292F33"/>
<path d="M25.1481 26.5821C25.2501 27.0321 24.9421 27.4861 24.4601 27.5951C23.9781 27.7051 23.5041 27.4291 23.4011 26.9791C23.2991 26.5291 23.6071 26.0761 24.0891 25.9661C24.5711 25.8561 25.0451 26.1321 25.1481 26.5821ZM22.1551 31.0791C21.9711 31.6401 21.4051 31.9581 20.8901 31.7891C20.3761 31.6201 20.1081 31.0291 20.2921 30.4671C20.4761 29.9051 21.0421 29.5881 21.5571 29.7571C22.0711 29.9261 22.3391 30.5171 22.1551 31.0791ZM17.0291 30.6001C17.1951 31.1311 16.9151 31.6911 16.4031 31.8511C15.8911 32.0111 15.3421 31.7101 15.1761 31.1791C15.0101 30.6481 15.2901 30.0881 15.8021 29.9281C16.3131 29.7681 16.8631 30.0691 17.0291 30.6001ZM19.4101 30.3081C18.9551 30.5461 18.4001 30.3841 18.1711 29.9471C17.9421 29.5091 18.1251 28.9611 18.5811 28.7231C19.0361 28.4851 19.5911 28.6461 19.8201 29.0841C20.0491 29.5221 19.8651 30.0701 19.4101 30.3081ZM21.1091 32.9161C21.1911 33.4171 20.7751 33.9021 20.1801 33.9991C19.5851 34.0961 19.0361 33.7691 18.9551 33.2681C18.8731 32.7671 19.2891 32.2821 19.8841 32.1851C20.4791 32.0881 21.0271 32.4151 21.1091 32.9161ZM14.3471 29.0311C13.9961 29.3201 13.4011 29.1761 13.0181 28.7101C12.6351 28.2441 12.6101 27.6331 12.9611 27.3441C13.3121 27.0551 13.9071 27.1991 14.2901 27.6641C14.6721 28.1311 14.6981 28.7431 14.3471 29.0311ZM23.8041 32.7181C24.0551 33.1121 23.8701 33.6791 23.3921 33.9841C22.9131 34.2891 22.3221 34.2161 22.0711 33.8211C21.8201 33.4271 22.0051 32.8601 22.4831 32.5551C22.9611 32.2511 23.5531 32.3231 23.8041 32.7181ZM25.5821 31.9041C25.8861 32.1121 25.9021 32.6181 25.6181 33.0341C25.3341 33.4511 24.8571 33.6201 24.5521 33.4121C24.2481 33.2041 24.2321 32.6981 24.5161 32.2821C24.8011 31.8661 25.2781 31.6961 25.5821 31.9041ZM9.72812 25.4341C10.0061 25.4191 10.2501 25.7691 10.2751 26.2171C10.2991 26.6651 10.0941 27.0401 9.81712 27.0551C9.53912 27.0701 9.29512 26.7201 9.27012 26.2721C9.24512 25.8241 9.45112 25.4491 9.72812 25.4341ZM23.8451 28.9001C24.0351 29.2261 23.8891 29.6641 23.5191 29.8801C23.1491 30.0961 22.6951 30.0071 22.5051 29.6811C22.3151 29.3551 22.4611 28.9171 22.8311 28.7011C23.2011 28.4851 23.6551 28.5741 23.8451 28.9001ZM18.5541 31.3681C18.8241 31.5521 18.8731 31.9491 18.6641 32.2551C18.4551 32.5611 18.0681 32.6591 17.7981 32.4751C17.5281 32.2911 17.4791 31.8941 17.6881 31.5881C17.8971 31.2831 18.2851 31.1841 18.5541 31.3681ZM25.8781 29.0621C26.1731 29.1401 26.3191 29.5551 26.2051 29.9901C26.0901 30.4251 25.7591 30.7151 25.4641 30.6371C25.1691 30.5591 25.0231 30.1441 25.1371 29.7091C25.2521 29.2741 25.5831 28.9841 25.8781 29.0621ZM26.0001 27.1301C26.2311 27.1911 26.3411 27.5351 26.2451 27.8991C26.1491 28.2631 25.8841 28.5091 25.6531 28.4481C25.4221 28.3871 25.3121 28.0431 25.4081 27.6791C25.5041 27.3151 25.7691 27.0701 26.0001 27.1301ZM24.7281 30.5261C25.0281 30.8001 24.9821 31.3381 24.6261 31.7291C24.2691 32.1201 23.7371 32.2151 23.4371 31.9411C23.1371 31.6671 23.1831 31.1291 23.5391 30.7381C23.8961 30.3471 24.4281 30.2521 24.7281 30.5261ZM13.2721 31.2121C13.0301 31.5681 12.4711 31.6111 12.0231 31.3071C11.5751 31.0031 11.4081 30.4681 11.6501 30.1111C11.8921 29.7541 12.4511 29.7121 12.8991 30.0161C13.3471 30.3201 13.5141 30.8561 13.2721 31.2121ZM22.2571 27.7121C22.2911 28.1691 21.8821 28.5721 21.3421 28.6131C20.8021 28.6541 20.3371 28.3161 20.3021 27.8601C20.2681 27.4031 20.6771 27.0001 21.2171 26.9591C21.7571 26.9181 22.2221 27.2551 22.2571 27.7121ZM15.1691 32.7321C14.9021 33.0701 14.3411 33.0721 13.9161 32.7361C13.4911 32.4011 13.3631 31.8551 13.6301 31.5171C13.8971 31.1791 14.4581 31.1771 14.8821 31.5131C15.3071 31.8481 15.4361 32.3941 15.1691 32.7321ZM11.7871 32.1391C12.1281 32.5901 12.1191 33.1731 11.7651 33.4401C11.4121 33.7071 10.8491 33.5581 10.5071 33.1061C10.1651 32.6541 10.1751 32.0721 10.5291 31.8051C10.8821 31.5381 11.4451 31.6871 11.7871 32.1391Z" fill="#292F33"/>
</svg>
