<svg width="36" height="36" viewBox="0 0 36 36" fill="none" xmlns="http://www.w3.org/2000/svg">
<path d="M18 25.1799C3.438 25.1799 0 29.8439 0 31.9999C0 34.1559 1.791 35.9999 4 35.9999H32C34.209 35.9999 36 34.1489 36 31.9999C36 29.8509 32.562 25.1799 18 25.1799Z" fill="#78B159"/>
<path d="M28.8038 28.1499C28.8038 29.6809 27.5618 30.2299 26.0308 30.2299C24.4998 30.2299 23.2578 29.6819 23.2578 28.1499L23.9508 21.9109C23.9508 20.3799 24.4988 20.5239 26.0308 20.5239C27.5618 20.5239 28.1108 20.3789 28.1108 21.9109L28.8038 28.1499Z" fill="#662113"/>
<path d="M34.8681 19.7169C30.2781 15.5819 28.4191 9.66089 26.0311 9.66089C23.6431 9.66089 21.7841 15.5819 17.1951 19.7169C15.2661 21.4549 16.1851 22.4599 18.8291 22.2589C21.1861 22.0799 23.3901 21.5179 26.0311 21.5179C28.6721 21.5179 30.8771 22.0809 33.2331 22.2589C35.8771 22.4599 36.7961 21.4539 34.8681 19.7169Z" fill="#5C913B"/>
<path d="M33.3769 18.0779C29.8499 14.6769 27.8679 9.80493 26.0309 9.80493C24.1949 9.80493 22.2129 14.6769 18.6859 18.0779C15.8829 20.7809 22.3589 21.3869 26.0309 18.0779C29.7019 21.3869 36.1789 20.7809 33.3769 18.0779Z" fill="#3E721D"/>
<path d="M33.3769 15.323C29.8499 12.145 27.8679 7.59399 26.0309 7.59399C24.1949 7.59399 22.2129 12.145 18.6859 15.323C15.8829 17.848 22.3589 18.414 26.0309 15.323C29.7019 18.414 36.1789 17.847 33.3769 15.323Z" fill="#5C913B"/>
<path d="M31.766 13.066C29.013 10.585 27.465 7.03198 26.031 7.03198C24.598 7.03198 23.05 10.585 20.296 13.066C18.108 15.037 23.163 15.48 26.031 13.066C28.898 15.479 33.954 15.037 31.766 13.066Z" fill="#3E721D"/>
<path d="M31.766 11.001C29.013 8.52004 27.465 4.96704 26.031 4.96704C24.598 4.96704 23.05 8.52004 20.296 11.001C18.108 12.972 23.163 13.415 26.031 11.001C28.898 13.415 33.954 12.973 31.766 11.001Z" fill="#5C913B"/>
<path d="M30.6589 9.16807C28.4369 7.16607 27.1879 4.29907 26.0309 4.29907C24.8739 4.29907 23.6249 7.16607 21.4029 9.16807C19.6369 10.7591 23.7169 11.1161 26.0309 9.16807C28.3449 11.1161 32.4259 10.7591 30.6589 9.16807Z" fill="#3E721D"/>
<path d="M30.6589 7.61412C28.4369 5.61212 27.1879 2.74512 26.0309 2.74512C24.8739 2.74512 23.6249 5.61212 21.4029 7.61412C19.6369 9.20512 23.7169 9.56212 26.0309 7.61412C28.3449 9.56212 32.4259 9.20512 30.6589 7.61412Z" fill="#5C913B"/>
<path d="M29.5528 5.32609C27.8628 3.80309 26.9118 1.62109 26.0308 1.62109C25.1508 1.62109 24.1998 3.80309 22.5088 5.32609C21.1648 6.53709 24.2698 6.80809 26.0308 5.32609C27.7918 6.80909 30.8968 6.53709 29.5528 5.32609Z" fill="#3E721D"/>
<path d="M29.5528 4.28996C27.8628 2.76696 26.9118 0.584961 26.0308 0.584961C25.1508 0.584961 24.1998 2.76696 22.5088 4.28996C21.1648 5.50096 24.2698 5.77196 26.0308 4.28996C27.7918 5.77196 30.8968 5.50096 29.5528 4.28996Z" fill="#5C913B"/>
<path d="M15.1009 33C14.6769 33 14.2989 32.733 14.1569 32.334L9.14494 18.301C9.03494 17.994 9.08194 17.673 9.26994 17.405C9.45794 17.14 9.76393 17 10.0899 17H21.8489C22.2499 17 22.6129 17.22 22.7709 17.589L28.7849 31.612C28.9179 31.922 28.8859 32.273 28.7009 32.554C28.5129 32.836 28.1989 33 27.8619 33H15.1009Z" fill="#F4900C"/>
<path d="M4.07502 32.9999C3.73802 32.9999 3.42302 32.8299 3.23802 32.5499C3.05302 32.2679 3.02202 31.9119 3.15402 31.6019L9.17202 17.5599C9.32902 17.1919 9.69302 16.9529 10.093 16.9529C10.494 16.9529 10.858 17.1929 11.015 17.5599L17.033 31.6009C17.166 31.9119 17.133 32.2669 16.948 32.5489C16.763 32.8299 16.448 32.9999 16.111 32.9999H4.07502Z" fill="#FFCC4D"/>
<path d="M10.09 19.436L8.08398 33H12.094L10.09 19.436Z" fill="#292F33"/>
<path d="M14.127 31.887L14.575 33H12.094L14.127 31.887ZM6.052 31.887L5.604 33H8.084L6.052 31.887Z" fill="#FFAC33"/>
<path d="M12.0941 33.0001C12.0941 33.0001 13.9171 32.5351 14.8081 31.7121L10.0901 19.4361L12.0941 33.0001ZM8.08412 33.0001C8.08412 33.0001 6.26112 32.5351 5.37012 31.7121L10.0891 19.4351L8.08412 33.0001Z" fill="#FFE8B6"/>
<path d="M13.625 5.62502C13.607 5.62502 13.591 5.63102 13.573 5.63102C13.607 5.46702 13.625 5.29802 13.625 5.12402C13.625 3.74302 12.506 2.62402 11.125 2.62402C10.234 2.62402 9.458 3.09302 9.015 3.79502C8.738 3.68902 8.44 3.62502 8.125 3.62502C6.85 3.62502 5.81 4.58202 5.656 5.81502C5.374 5.70202 5.073 5.62502 4.75 5.62502C3.369 5.62502 2.25 6.74402 2.25 8.12502C2.25 9.50602 3.369 10.625 4.75 10.625H13.625C15.006 10.625 16.125 9.50602 16.125 8.12502C16.125 6.74402 15.006 5.62502 13.625 5.62502Z" fill="#E1E8ED"/>
</svg>
