<svg width="36" height="36" viewBox="0 0 36 36" fill="none" xmlns="http://www.w3.org/2000/svg">
<path d="M20.1429 32.215C20.1429 33.398 19.1839 34.358 17.9999 34.358C16.8159 34.358 15.8569 33.398 15.8569 32.215C15.8569 31.031 16.8169 30.071 17.9999 30.071C19.1829 30.071 20.1429 31.031 20.1429 32.215Z" fill="#E1E8ED"/>
<path d="M27.6431 15.643C27.6431 10.317 23.3241 6 18.0001 6C12.6741 6 8.35713 10.317 8.35713 15.643C8.35713 21 7.28613 32.215 7.28613 32.215C7.28613 33.398 8.24513 34.358 9.42913 34.358C10.6121 34.358 11.5721 33.398 11.5721 32.215C11.5721 33.398 12.5321 34.358 13.7151 34.358C14.8981 34.358 15.8571 33.398 15.8571 32.215H20.1431C20.1431 33.398 21.1031 34.358 22.2871 34.358C23.4701 34.358 24.4301 33.398 24.4301 32.215C24.4301 33.398 25.3891 34.358 26.5731 34.358C27.7571 34.358 28.7161 33.398 28.7161 32.215C28.7141 32.215 27.6431 21 27.6431 15.643Z" fill="#E1E8ED"/>
<path d="M19.9998 3C19.9998 5.209 18.5528 9 17.9998 9C17.4478 9 15.9998 5.209 15.9998 3C15.9998 0.791 17.4478 0 17.9998 0C18.5528 0 19.9998 0.791 19.9998 3ZM15.6348 33C15.6348 30.388 17.3458 25 17.9998 25C18.6528 25 20.3648 30.388 20.3648 33C20.3648 35.612 18.6518 36 17.9998 36C17.3458 36 15.6348 35.612 15.6348 33Z" fill="#DD2E44"/>
<path d="M18 27C21.866 27 25 24.9853 25 22.5C25 20.0147 21.866 18 18 18C14.134 18 11 20.0147 11 22.5C11 24.9853 14.134 27 18 27Z" fill="#F4900C"/>
<path d="M25 22.5C25 24 11 24 11 22.5C11 21 15.791 18 18 18C20.209 18 25 21 25 22.5Z" fill="#FFAC33"/>
<path d="M11.5 20C12.3284 20 13 19.3284 13 18.5C13 17.6716 12.3284 17 11.5 17C10.6716 17 10 17.6716 10 18.5C10 19.3284 10.6716 20 11.5 20Z" fill="#292F33"/>
<path d="M24.5 20C25.3284 20 26 19.3284 26 18.5C26 17.6716 25.3284 17 24.5 17C23.6716 17 23 17.6716 23 18.5C23 19.3284 23.6716 20 24.5 20Z" fill="#292F33"/>
</svg>
