<svg width="36" height="36" viewBox="0 0 36 36" fill="none" xmlns="http://www.w3.org/2000/svg">
<path d="M20 2H19V1C19 0.448 18.553 0 18 0C17.447 0 17 0.448 17 1V2H16C15.447 2 15 2.448 15 3C15 3.552 15.447 4 16 4H17V10C17 10.552 17.447 11 18 11C18.553 11 19 10.552 19 10V4H20C20.553 4 21 3.552 21 3C21 2.448 20.553 2 20 2Z" fill="#BCBEC0"/>
<path d="M17.9999 9L12.8569 13H12.9999V22H22.9999V13H23.1429L17.9999 9Z" fill="#FFD983"/>
<path d="M19.999 15C19.999 13.896 19.103 13 18 13C16.895 13 16 13.896 16 15V22H20L19.999 15Z" fill="#662113"/>
<path d="M17.999 18L4 26V35C4 35.553 4.448 36 5 36H31C31.553 36 32 35.553 32 35V26L17.999 18Z" fill="#FFD983"/>
<path d="M31.9979 27C31.8299 27 31.6589 26.958 31.5029 26.868L17.9989 19.151L4.49486 26.868C4.01686 27.144 3.40486 26.975 3.13086 26.496C2.85686 26.017 3.02386 25.406 3.50286 25.132L17.5029 17.132C17.8109 16.956 18.1879 16.956 18.4949 17.132L32.4949 25.132C32.9749 25.406 33.1419 26.017 32.8669 26.496C32.6829 26.819 32.3459 27 31.9979 27ZM22.9989 14C22.7799 14 22.5599 13.928 22.3749 13.781L17.9989 10.281L13.6249 13.781C13.1929 14.124 12.5639 14.056 12.2189 13.625C11.8739 13.193 11.9439 12.564 12.3749 12.219L17.3739 8.219C17.7389 7.927 18.2579 7.927 18.6239 8.219L23.6249 12.219C24.0559 12.564 24.1259 13.193 23.7809 13.624C23.5829 13.871 23.2929 14 22.9989 14Z" fill="#DD2E44"/>
<path d="M12.999 31C12.999 29.896 12.104 29 11 29C9.895 29 9 29.896 9 31V36H13V31H12.999ZM19.999 29C19.999 27.896 19.103 27 18 27C16.895 27 16 27.896 16 29V36H20L19.999 29ZM26.999 31C26.999 29.896 26.103 29 25 29C23.895 29 23 29.896 23 31V36H27L26.999 31Z" fill="#662113"/>
</svg>
