<svg width="36" height="36" viewBox="0 0 36 36" fill="none" xmlns="http://www.w3.org/2000/svg">
<path d="M33 33C33 34.104 32.104 35 31 35H5C3.896 35 3 34.104 3 33L4 21H32L33 33Z" fill="#DD2E44"/>
<path d="M13 34.9999C12.208 33.1249 11.25 31.7089 9.58301 30.3339C11.333 28.8749 14.125 24.8339 14.833 22.0419C15.541 19.2499 17.583 30.1669 16.875 32.6669C16.167 35.1669 13 34.9999 13 34.9999ZM23.303 34.9999C24.094 33.1249 25.053 31.7089 26.719 30.3339C24.969 28.8749 22.178 24.8339 21.469 22.0419C20.762 19.2499 18.719 30.1669 19.429 32.6669C20.137 35.1669 23.303 34.9999 23.303 34.9999Z" fill="#EA596E"/>
<path d="M3.72803 24.263C4.18103 24.718 4.80703 25 5.50003 25C6.88103 25 8.00003 23.881 8.00003 22.5C8.00003 21.935 7.80503 21.419 7.48903 21H4.00003L3.72803 24.263ZM32.272 24.263L32 21H28.511C28.195 21.419 28 21.935 28 22.5C28 23.881 29.119 25 30.5 25C31.193 25 31.819 24.718 32.272 24.263Z" fill="#BE1931"/>
<path d="M14 25C15.1046 25 16 24.1046 16 23C16 21.8954 15.1046 21 14 21C12.8954 21 12 21.8954 12 23C12 24.1046 12.8954 25 14 25Z" fill="#BE1931"/>
<path d="M22 25C23.1046 25 24 24.1046 24 23C24 21.8954 23.1046 21 22 21C20.8954 21 20 21.8954 20 23C20 24.1046 20.8954 25 22 25Z" fill="#BE1931"/>
<path d="M10 25C11.1046 25 12 24.1046 12 23C12 21.8954 11.1046 21 10 21C8.89543 21 8 21.8954 8 23C8 24.1046 8.89543 25 10 25Z" fill="#BE1931"/>
<path d="M26 25C27.1046 25 28 24.1046 28 23C28 21.8954 27.1046 21 26 21C24.8954 21 24 21.8954 24 23C24 24.1046 24.8954 25 26 25Z" fill="#BE1931"/>
<path d="M23 35H13C13 35 15 29 15 22H21C21 29 23 35 23 35ZM17 2H19V9H17V2Z" fill="black"/>
<path d="M18.838 0.205975C17.667 0.0419751 17 0.317975 17 1.41798V2.41798C17 3.51798 17.865 4.17098 18.923 3.86898L24.077 2.96798C25.792 2.62498 25.625 1.37498 24.162 1.08398L18.838 0.205975Z" fill="#55ACEE"/>
<path d="M18 6L17.919 6.123C10.938 16.981 3 15.015 3 19V21.5C3 22.881 4.119 24 5.5 24C6.71 24 7.718 23.141 7.95 22H12C12 23.104 12.896 24 14 24C15.104 24 16 23.104 16 22H20C20 23.104 20.896 24 22 24C23.104 24 24 23.104 24 22H28.05C28.282 23.141 29.29 24 30.5 24C31.881 24 33 22.881 33 21.5V19C33 15 25 17 18 6Z" fill="#CCD6DD"/>
<path d="M17.948 6.07788L17.918 6.12288C17.132 11.6189 10.811 16.1259 8 17.9999V21.9999C8 23.1039 8.896 23.9999 10 23.9999C11.104 23.9999 12 23.1039 12 21.9999V17.9999C12.982 17.0179 17.813 11.2129 17.984 6.26788C17.974 6.20388 17.957 6.14188 17.948 6.07788ZM18.028 6.47588C18.324 11.3739 23.031 17.0309 24 17.9999V21.9999C24 23.1039 24.896 23.9999 26 23.9999C27.104 23.9999 28 23.1039 28 21.9999V17.9999C25.25 16.1669 19.047 11.8099 18.028 6.47588Z" fill="#F5F8FA"/>
<path d="M17.984 6.26978C17.922 8.34578 17.606 16.3938 16 17.9998V21.9998C16 23.1038 16.896 23.9998 18 23.9998C19.104 23.9998 20 23.1038 20 21.9998V17.9998C18.436 16.4358 18.095 8.75878 18.021 6.44078C18.01 6.38378 17.994 6.32778 17.984 6.26978Z" fill="#F5F8FA"/>
</svg>
