<svg width="36" height="36" viewBox="0 0 36 36" fill="none" xmlns="http://www.w3.org/2000/svg">
<path d="M32.3018 24.3471C31.6068 23.3371 31.9948 21.8771 31.8218 20.2651C31.6438 17.6351 30.5138 15.0871 28.3218 13.0491L20.8558 6.10709C20.8558 6.10709 19.3848 4.73809 18.0148 6.21009C16.6468 7.68109 18.1188 9.05009 18.1188 9.05009L21.2728 11.9841L24.0068 14.5261C24.0068 14.5261 23.3218 15.2621 20.2958 12.4481L10.0758 2.94209C10.0758 2.94209 8.60283 1.57409 7.23383 3.04609C5.86583 4.51709 7.33683 5.88609 7.33683 5.88609L17.0008 14.8751C16.9798 14.8551 16.2698 15.5671 16.2568 15.5551L5.91683 5.93809C5.91683 5.93809 4.44483 4.56909 3.07583 6.04109C1.70683 7.51309 3.17883 8.88109 3.17883 8.88109L13.5198 18.5001C13.5318 18.5121 12.8658 19.2641 12.8858 19.2831L3.96583 10.9851C3.96583 10.9851 2.49383 9.61609 1.12483 11.0881C-0.244169 12.5601 1.22783 13.9291 1.22783 13.9291L10.7118 22.7491C10.7988 22.8301 10.2118 23.6571 10.3208 23.7581L3.48683 17.4021C3.48683 17.4021 2.01483 16.0331 0.645831 17.5061C-0.723169 18.9781 0.748831 20.3471 0.748831 20.3471L11.8958 30.7101C13.7568 32.4411 15.6678 33.3171 17.9718 33.6381C18.4408 33.7031 19.0408 33.7031 19.2868 33.7341C20.0638 33.8321 20.7458 34.1081 21.6588 34.6681C22.8338 35.3881 24.5968 35.6881 25.6098 34.6051L29.0638 30.9101L32.2528 27.4981C33.2648 26.4161 33.0838 25.4821 32.3018 24.3471Z" fill="#EF9645"/>
<path d="M1.95607 35.0259C1.70007 35.0259 1.44407 34.9279 1.24907 34.7329C0.858065 34.3419 0.858065 33.7099 1.24907 33.3189L4.80007 29.7699C5.19107 29.3789 5.82307 29.3789 6.21407 29.7699C6.60507 30.1609 6.60507 30.7929 6.21407 31.1839L2.66307 34.7339C2.46807 34.9289 2.21207 35.0259 1.95607 35.0259ZM8.70207 35.9479C8.59307 35.9479 8.48107 35.9299 8.37107 35.8919C7.85007 35.7099 7.57507 35.1399 7.75807 34.6179L8.72907 31.8449C8.91107 31.3239 9.48207 31.0499 10.0031 31.2309C10.5241 31.4139 10.7991 31.9839 10.6161 32.5049L9.64507 35.2779C9.50107 35.6899 9.11507 35.9479 8.70207 35.9479ZM1.03507 28.2809C0.623065 28.2809 0.237065 28.0239 0.0920654 27.6139C-0.0919346 27.0929 0.181065 26.5219 0.702065 26.3379L3.19707 25.4569C3.72007 25.2769 4.28907 25.5479 4.47307 26.0669C4.65707 26.5879 4.38407 27.1589 3.86307 27.3429L1.36807 28.2239C1.25707 28.2629 1.14507 28.2809 1.03507 28.2809ZM30.4951 6.51388C30.2391 6.51388 29.9831 6.41588 29.7881 6.22088C29.3971 5.82988 29.3971 5.19688 29.7881 4.80588L33.3401 1.25588C33.7311 0.865878 34.3631 0.865878 34.7541 1.25588C35.1451 1.64588 35.1451 2.27988 34.7541 2.67088L31.2021 6.22088C31.0071 6.41688 30.7511 6.51388 30.4951 6.51388ZM26.3311 4.81688C26.2221 4.81688 26.1101 4.79788 26.0011 4.75988C25.4801 4.57788 25.2051 4.00788 25.3871 3.48588L26.3571 0.712878C26.5401 0.191878 27.1091 -0.0831217 27.6311 0.0988783C28.1521 0.280878 28.4271 0.850878 28.2451 1.37288L27.2751 4.14588C27.1311 4.55888 26.7441 4.81688 26.3311 4.81688ZM32.4741 10.5909C32.0621 10.5909 31.6761 10.3339 31.5311 9.92388C31.3471 9.40288 31.6211 8.83188 32.1411 8.64788L34.6351 7.76688C35.1571 7.58188 35.7271 7.85688 35.9111 8.37688C36.0951 8.89788 35.8211 9.46888 35.3011 9.65288L32.8071 10.5339C32.6961 10.5729 32.5841 10.5909 32.4741 10.5909Z" fill="#FA743E"/>
<path d="M35.3899 23.8219C34.729 22.7899 35.166 21.3429 35.048 19.7259C34.958 17.0919 33.915 14.5069 31.793 12.3959L24.565 5.20688C24.565 5.20688 23.141 3.78988 21.722 5.21488C20.305 6.63888 21.73 8.05688 21.73 8.05688L24.784 11.0959L27.43 13.7279C27.43 13.7279 26.72 14.4399 23.791 11.5259C20.86 8.61088 13.897 1.68088 13.897 1.68088C13.897 1.68088 12.472 0.263881 11.054 1.68888C9.63595 3.11288 11.061 4.52988 11.061 4.52988L20.417 13.8399C20.397 13.8199 19.663 14.5069 19.65 14.4939L9.63995 4.53388C9.63995 4.53388 8.21495 3.11588 6.79695 4.54088C5.37995 5.96588 6.80395 7.38288 6.80395 7.38288L16.815 17.3449C16.827 17.3569 16.135 18.0859 16.155 18.1059L7.51995 9.51288C7.51995 9.51288 6.09495 8.09588 4.67695 9.52088C3.25895 10.9459 4.68395 12.3639 4.68395 12.3639L13.865 21.4989C13.949 21.5819 13.335 22.3899 13.44 22.4949L6.82395 15.9119C6.82395 15.9119 5.39895 14.4949 3.98095 15.9199C2.56295 17.3449 3.98795 18.7629 3.98795 18.7629L14.778 29.4949C16.58 31.2879 18.46 32.2269 20.752 32.6259C21.219 32.7069 21.819 32.7269 22.063 32.7659C22.836 32.8899 23.508 33.1889 24.403 33.7799C25.553 34.5389 27.305 34.8979 28.354 33.8499L31.931 30.2739L35.233 26.9719C36.282 25.9219 36.1329 24.9819 35.3899 23.8219Z" fill="#FFDB5E"/>
</svg>
