<svg width="36" height="36" viewBox="0 0 36 36" fill="none" xmlns="http://www.w3.org/2000/svg">
<path d="M36 32C36 34.209 34.209 36 32 36H4C1.791 36 0 34.209 0 32V4C0 1.791 1.791 0 4 0H32C34.209 0 36 1.791 36 4V32Z" fill="#CCD6DD"/>
<path d="M27 21.2861C27.3788 21.2861 27.686 20.9789 27.686 20.6001C27.686 20.2212 27.3788 19.9141 27 19.9141C26.6211 19.9141 26.314 20.2212 26.314 20.6001C26.314 20.9789 26.6211 21.2861 27 21.2861Z" fill="#67757F"/>
<path d="M30.2002 22.2011C30.579 22.2011 30.8862 21.894 30.8862 21.5151C30.8862 21.1362 30.579 20.8291 30.2002 20.8291C29.8213 20.8291 29.5142 21.1362 29.5142 21.5151C29.5142 21.894 29.8213 22.2011 30.2002 22.2011Z" fill="#67757F"/>
<path d="M23.7998 22.2011C24.1786 22.2011 24.4858 21.894 24.4858 21.5151C24.4858 21.1362 24.1786 20.8291 23.7998 20.8291C23.4209 20.8291 23.1138 21.1362 23.1138 21.5151C23.1138 21.894 23.4209 22.2011 23.7998 22.2011Z" fill="#67757F"/>
<path d="M21.5141 24.486C21.893 24.486 22.2001 24.1789 22.2001 23.8C22.2001 23.4211 21.893 23.114 21.5141 23.114C21.1353 23.114 20.8281 23.4211 20.8281 23.8C20.8281 24.1789 21.1353 24.486 21.5141 24.486Z" fill="#67757F"/>
<path d="M20.6001 27.686C20.9789 27.686 21.2861 27.3788 21.2861 27C21.2861 26.6211 20.9789 26.314 20.6001 26.314C20.2212 26.314 19.9141 26.6211 19.9141 27C19.9141 27.3788 20.2212 27.686 20.6001 27.686Z" fill="#67757F"/>
<path d="M32.4858 24.486C32.8647 24.486 33.1718 24.1789 33.1718 23.8C33.1718 23.4211 32.8647 23.114 32.4858 23.114C32.1069 23.114 31.7998 23.4211 31.7998 23.8C31.7998 24.1789 32.1069 24.486 32.4858 24.486Z" fill="#67757F"/>
<path d="M33.4008 27.686C33.7797 27.686 34.0868 27.3788 34.0868 27C34.0868 26.6211 33.7797 26.314 33.4008 26.314C33.022 26.314 32.7148 26.6211 32.7148 27C32.7148 27.3788 33.022 27.686 33.4008 27.686Z" fill="#DA2F47"/>
<path d="M27.0001 31.8809C29.6958 31.8809 31.8811 29.6956 31.8811 26.9999C31.8811 24.3042 29.6958 22.1189 27.0001 22.1189C24.3044 22.1189 22.1191 24.3042 22.1191 26.9999C22.1191 29.6956 24.3044 31.8809 27.0001 31.8809Z" fill="black"/>
<path d="M26.9999 30.9941C29.2057 30.9941 30.9939 29.2059 30.9939 27.0001C30.9939 24.7943 29.2057 23.0061 26.9999 23.0061C24.794 23.0061 23.0059 24.7943 23.0059 27.0001C23.0059 29.2059 24.794 30.9941 26.9999 30.9941Z" fill="#292F33"/>
<path d="M28.1819 24.1181L26.4849 26.9421C26.3509 27.1651 26.4229 27.4541 26.6459 27.5881C26.8689 27.7221 27.1579 27.6501 27.2919 27.4271L28.9889 24.6031C29.1229 24.3801 29.0509 24.0911 28.8279 23.9571C28.6049 23.8241 28.3159 23.8961 28.1819 24.1181Z" fill="#E1E8ED"/>
<path d="M8.99996 21.2861C9.37883 21.2861 9.68596 20.9789 9.68596 20.6001C9.68596 20.2212 9.37883 19.9141 8.99996 19.9141C8.6211 19.9141 8.31396 20.2212 8.31396 20.6001C8.31396 20.9789 8.6211 21.2861 8.99996 21.2861Z" fill="#67757F"/>
<path d="M12.2002 22.2011C12.579 22.2011 12.8862 21.894 12.8862 21.5151C12.8862 21.1362 12.579 20.8291 12.2002 20.8291C11.8213 20.8291 11.5142 21.1362 11.5142 21.5151C11.5142 21.894 11.8213 22.2011 12.2002 22.2011Z" fill="#67757F"/>
<path d="M5.79977 22.2011C6.17864 22.2011 6.48577 21.894 6.48577 21.5151C6.48577 21.1362 6.17864 20.8291 5.79977 20.8291C5.4209 20.8291 5.11377 21.1362 5.11377 21.5151C5.11377 21.894 5.4209 22.2011 5.79977 22.2011Z" fill="#67757F"/>
<path d="M3.51412 24.486C3.89299 24.486 4.20012 24.1789 4.20012 23.8C4.20012 23.4211 3.89299 23.114 3.51412 23.114C3.13526 23.114 2.82812 23.4211 2.82812 23.8C2.82812 24.1789 3.13526 24.486 3.51412 24.486Z" fill="#67757F"/>
<path d="M2.60006 27.686C2.97893 27.686 3.28606 27.3788 3.28606 27C3.28606 26.6211 2.97893 26.314 2.60006 26.314C2.2212 26.314 1.91406 26.6211 1.91406 27C1.91406 27.3788 2.2212 27.686 2.60006 27.686Z" fill="#67757F"/>
<path d="M14.4858 24.486C14.8647 24.486 15.1718 24.1789 15.1718 23.8C15.1718 23.4211 14.8647 23.114 14.4858 23.114C14.1069 23.114 13.7998 23.4211 13.7998 23.8C13.7998 24.1789 14.1069 24.486 14.4858 24.486Z" fill="#67757F"/>
<path d="M15.4008 27.686C15.7797 27.686 16.0868 27.3788 16.0868 27C16.0868 26.6211 15.7797 26.314 15.4008 26.314C15.022 26.314 14.7148 26.6211 14.7148 27C14.7148 27.3788 15.022 27.686 15.4008 27.686Z" fill="#DA2F47"/>
<path d="M9.00014 31.8809C11.6958 31.8809 13.8811 29.6956 13.8811 26.9999C13.8811 24.3042 11.6958 22.1189 9.00014 22.1189C6.30444 22.1189 4.11914 24.3042 4.11914 26.9999C4.11914 29.6956 6.30444 31.8809 9.00014 31.8809Z" fill="black"/>
<path d="M9.00084 30.9929C11.2067 30.9929 12.9948 29.2047 12.9948 26.9989C12.9948 24.7931 11.2067 23.0049 9.00084 23.0049C6.79501 23.0049 5.00684 24.7931 5.00684 26.9989C5.00684 29.2047 6.79501 30.9929 9.00084 30.9929Z" fill="#292F33"/>
<path d="M6.09896 25.8679L8.95196 27.5149C9.17696 27.6449 9.46496 27.5679 9.59496 27.3429C9.72496 27.1179 9.64796 26.8299 9.42296 26.6999L6.56996 25.0529C6.34396 24.9229 6.05696 24.9999 5.92696 25.2249C5.79696 25.4499 5.87396 25.7379 6.09896 25.8679Z" fill="#E1E8ED"/>
<path d="M27 4.28606C27.3788 4.28606 27.686 3.97893 27.686 3.60006C27.686 3.2212 27.3788 2.91406 27 2.91406C26.6211 2.91406 26.314 3.2212 26.314 3.60006C26.314 3.97893 26.6211 4.28606 27 4.28606Z" fill="#67757F"/>
<path d="M30.2002 5.2011C30.579 5.2011 30.8862 4.89397 30.8862 4.5151C30.8862 4.13623 30.579 3.8291 30.2002 3.8291C29.8213 3.8291 29.5142 4.13623 29.5142 4.5151C29.5142 4.89397 29.8213 5.2011 30.2002 5.2011Z" fill="#67757F"/>
<path d="M23.7998 5.2011C24.1786 5.2011 24.4858 4.89397 24.4858 4.5151C24.4858 4.13623 24.1786 3.8291 23.7998 3.8291C23.4209 3.8291 23.1138 4.13623 23.1138 4.5151C23.1138 4.89397 23.4209 5.2011 23.7998 5.2011Z" fill="#67757F"/>
<path d="M21.5141 7.48601C21.893 7.48601 22.2001 7.17888 22.2001 6.80001C22.2001 6.42115 21.893 6.11401 21.5141 6.11401C21.1353 6.11401 20.8281 6.42115 20.8281 6.80001C20.8281 7.17888 21.1353 7.48601 21.5141 7.48601Z" fill="#67757F"/>
<path d="M20.6001 10.686C20.9789 10.686 21.2861 10.3788 21.2861 9.99996C21.2861 9.6211 20.9789 9.31396 20.6001 9.31396C20.2212 9.31396 19.9141 9.6211 19.9141 9.99996C19.9141 10.3788 20.2212 10.686 20.6001 10.686Z" fill="#67757F"/>
<path d="M32.4858 7.48601C32.8647 7.48601 33.1718 7.17888 33.1718 6.80001C33.1718 6.42115 32.8647 6.11401 32.4858 6.11401C32.1069 6.11401 31.7998 6.42115 31.7998 6.80001C31.7998 7.17888 32.1069 7.48601 32.4858 7.48601Z" fill="#67757F"/>
<path d="M33.4008 10.686C33.7797 10.686 34.0868 10.3788 34.0868 9.99996C34.0868 9.6211 33.7797 9.31396 33.4008 9.31396C33.022 9.31396 32.7148 9.6211 32.7148 9.99996C32.7148 10.3788 33.022 10.686 33.4008 10.686Z" fill="#DA2F47"/>
<path d="M27.0001 14.8809C29.6958 14.8809 31.8811 12.6956 31.8811 9.9999C31.8811 7.30419 29.6958 5.1189 27.0001 5.1189C24.3044 5.1189 22.1191 7.30419 22.1191 9.9999C22.1191 12.6956 24.3044 14.8809 27.0001 14.8809Z" fill="black"/>
<path d="M27.0008 13.9941C29.2067 13.9941 30.9948 12.2059 30.9948 10.0001C30.9948 7.79428 29.2067 6.0061 27.0008 6.0061C24.795 6.0061 23.0068 7.79428 23.0068 10.0001C23.0068 12.2059 24.795 13.9941 27.0008 13.9941Z" fill="#292F33"/>
<path d="M25.0112 7.60305L26.7082 10.427C26.8422 10.65 27.1312 10.7221 27.3542 10.5881C27.5772 10.4541 27.6492 10.1651 27.5152 9.94205L25.8192 7.11805C25.6852 6.89505 25.3962 6.82305 25.1732 6.95705C24.9492 7.09105 24.8772 7.38105 25.0112 7.60305Z" fill="#E1E8ED"/>
<path d="M8.99996 4.28606C9.37883 4.28606 9.68596 3.97893 9.68596 3.60006C9.68596 3.2212 9.37883 2.91406 8.99996 2.91406C8.6211 2.91406 8.31396 3.2212 8.31396 3.60006C8.31396 3.97893 8.6211 4.28606 8.99996 4.28606Z" fill="#67757F"/>
<path d="M12.2002 5.2011C12.579 5.2011 12.8862 4.89397 12.8862 4.5151C12.8862 4.13623 12.579 3.8291 12.2002 3.8291C11.8213 3.8291 11.5142 4.13623 11.5142 4.5151C11.5142 4.89397 11.8213 5.2011 12.2002 5.2011Z" fill="#67757F"/>
<path d="M5.79977 5.2011C6.17864 5.2011 6.48577 4.89397 6.48577 4.5151C6.48577 4.13623 6.17864 3.8291 5.79977 3.8291C5.4209 3.8291 5.11377 4.13623 5.11377 4.5151C5.11377 4.89397 5.4209 5.2011 5.79977 5.2011Z" fill="#67757F"/>
<path d="M3.51412 7.48601C3.89299 7.48601 4.20012 7.17888 4.20012 6.80001C4.20012 6.42115 3.89299 6.11401 3.51412 6.11401C3.13526 6.11401 2.82812 6.42115 2.82812 6.80001C2.82812 7.17888 3.13526 7.48601 3.51412 7.48601Z" fill="#67757F"/>
<path d="M2.60006 10.686C2.97893 10.686 3.28606 10.3788 3.28606 9.99996C3.28606 9.6211 2.97893 9.31396 2.60006 9.31396C2.2212 9.31396 1.91406 9.6211 1.91406 9.99996C1.91406 10.3788 2.2212 10.686 2.60006 10.686Z" fill="#67757F"/>
<path d="M14.4858 7.48601C14.8647 7.48601 15.1718 7.17888 15.1718 6.80001C15.1718 6.42115 14.8647 6.11401 14.4858 6.11401C14.1069 6.11401 13.7998 6.42115 13.7998 6.80001C13.7998 7.17888 14.1069 7.48601 14.4858 7.48601Z" fill="#67757F"/>
<path d="M15.4008 10.686C15.7797 10.686 16.0868 10.3788 16.0868 9.99996C16.0868 9.6211 15.7797 9.31396 15.4008 9.31396C15.022 9.31396 14.7148 9.6211 14.7148 9.99996C14.7148 10.3788 15.022 10.686 15.4008 10.686Z" fill="#DA2F47"/>
<path d="M9.00014 14.8799C11.6958 14.8799 13.8811 12.6946 13.8811 9.99892C13.8811 7.30322 11.6958 5.11792 9.00014 5.11792C6.30444 5.11792 4.11914 7.30322 4.11914 9.99892C4.11914 12.6946 6.30444 14.8799 9.00014 14.8799Z" fill="black"/>
<path d="M8.99888 13.9941C11.2047 13.9941 12.9929 12.2059 12.9929 10.0001C12.9929 7.79428 11.2047 6.0061 8.99888 6.0061C6.79306 6.0061 5.00488 7.79428 5.00488 10.0001C5.00488 12.2059 6.79306 13.9941 8.99888 13.9941Z" fill="#292F33"/>
<path d="M11.431 8.05294L8.57797 9.69994C8.35297 9.82994 8.27597 10.1179 8.40597 10.3429C8.53597 10.5679 8.82397 10.6449 9.04897 10.5149L11.902 8.86794C12.127 8.73794 12.204 8.44994 12.074 8.22494C11.943 7.99994 11.655 7.92294 11.431 8.05294Z" fill="#E1E8ED"/>
</svg>
