<svg width="36" height="36" viewBox="0 0 36 36" fill="none" xmlns="http://www.w3.org/2000/svg">
<path d="M4 7.99996C4 7.99996 0 9.99996 0 19C0 19 6 18 7 16C7 16 9 3.74996 4 7.99996ZM31.995 8.04296C31.995 8.04296 35.995 10.043 35.995 19.043C35.995 19.043 29.995 18.044 28.995 16.044C28.995 16.044 26.995 3.79296 31.995 8.04296Z" fill="#99AAB5"/>
<path d="M1.00007 0.99996C-0.00993001 1.98996 2.00007 8.99996 6.00007 9.99996C10.0001 11 10.0001 4.99996 9.00007 4.99996C5.00007 4.99996 3.04207 -1.00004 1.00007 0.99996ZM35.2971 0.99996C36.3081 1.98996 34.2971 8.99996 30.2971 9.99996C26.2971 11 26.2971 4.99996 27.2971 4.99996C31.2971 4.99996 33.2561 -1.00004 35.2971 0.99996Z" fill="#FFE8B6"/>
<path d="M21.976 31H14.025C8.488 31 4 26.512 4 20.976V12.025C4 6.488 8.488 2 14.025 2H21.976C27.512 2 32 6.488 32 12.025V20.976C32 26.512 27.512 31 21.976 31Z" fill="#CCD6DD"/>
<path d="M35 28C35 33.522 30.522 36 25 36H11C5.477 36 1 33.522 1 28C1 22.478 5.477 18 11 18H25C30.522 18 35 22.478 35 28Z" fill="#E6AAAA"/>
<path d="M9.5 29C10.3284 29 11 27.6569 11 26C11 24.3431 10.3284 23 9.5 23C8.67157 23 8 24.3431 8 26C8 27.6569 8.67157 29 9.5 29Z" fill="#C1694F"/>
<path d="M26.5 29C27.3284 29 28 27.6569 28 26C28 24.3431 27.3284 23 26.5 23C25.6716 23 25 24.3431 25 26C25 27.6569 25.6716 29 26.5 29Z" fill="#C1694F"/>
<path d="M11 12C11 12 11 10 13 10C15 10 15 12 15 12V14C15 14 15 16 13 16C11 16 11 14 11 14V12ZM21 12C21 12 21 10 23 10C25 10 25 12 25 12V14C25 14 25 16 23 16C21 16 21 14 21 14V12Z" fill="#272B2B"/>
</svg>
