<svg width="36" height="36" viewBox="0 0 36 36" fill="none" xmlns="http://www.w3.org/2000/svg">
<path d="M34.0002 15C34.0002 13 31.8732 10.298 30.0002 11C22.0002 14 11.0002 9 11.0002 9C8.79122 9 4.14322 18.257 6.00022 19C6.27722 19.111 6.54122 19.227 6.79922 19.343C4.64822 20.087 4.28322 21.809 6.00022 22C15.0002 23 12.8962 36 14.0002 36C15.3442 36 16.6852 33.386 17.4222 31H27.2222C27.5102 33.354 28.0882 36 29.0002 36C29.8662 36 31.6112 32.458 32.7942 26.858C33.5282 24.232 34.0002 20.326 34.0002 15Z" fill="#CCD6DD"/>
<path d="M10.0002 22.0001C8.00017 22.0001 5.05417 22.0871 3.02717 22.0871C1.00017 22.0871 -0.616832 18.6091 0.692168 17.3051C2.00017 16.0001 6.00017 15.0001 5.00017 11.0001C4.45817 8.83108 9.00017 8.00008 11.0002 9.00008C15.8162 11.4081 16.0002 19.0001 9.00017 19.0001C9.00017 19.0001 12.0002 22.0001 10.0002 22.0001ZM30.0002 11.0001C27.4142 11.9701 24.5152 12.1011 21.7742 11.8381C20.6692 13.2311 20.0002 15.0311 20.0002 17.0001C20.0002 21.4181 23.3572 25.0001 27.5002 25.0001C30.0872 25.0001 32.3662 23.6041 33.7152 21.4791C33.8962 19.6071 34.0002 17.4621 34.0002 15.0001C34.0002 13.0001 31.8732 10.2981 30.0002 11.0001Z" fill="#31373D"/>
<path d="M17.5 28C19.433 28 21 26.433 21 24.5C21 22.567 19.433 21 17.5 21C15.567 21 14 22.567 14 24.5C14 26.433 15.567 28 17.5 28Z" fill="#31373D"/>
<path d="M30 30C31.1046 30 32 29.1046 32 28C32 26.8954 31.1046 26 30 26C28.8954 26 28 26.8954 28 28C28 29.1046 28.8954 30 30 30Z" fill="#31373D"/>
<path d="M11 8.99989C11 9.55189 10.329 9.99989 9.5 9.99989C8.671 9.99989 5 7.55189 5 6.99989C5 6.44789 7.23 6.69189 8 6.99989C10.5 7.99989 11 8.44789 11 8.99989Z" fill="#CCD6DD"/>
<path d="M8 14C8.55228 14 9 13.5523 9 13C9 12.4477 8.55228 12 8 12C7.44772 12 7 12.4477 7 13C7 13.5523 7.44772 14 8 14Z" fill="#CCD6DD"/>
<path d="M35 24C34.447 24 34 23.553 34 23V18C34 16.56 33.439 16 32 16C31.447 16 31 15.552 31 15C31 14.448 31.447 14 32 14C34.542 14 36 15.458 36 18V23C36 23.553 35.553 24 35 24Z" fill="#31373D"/>
</svg>
