<svg width="36" height="36" viewBox="0 0 36 36" fill="none" xmlns="http://www.w3.org/2000/svg">
<path d="M24 29L29 24L6 1H1V6L24 29Z" fill="#CCD6DD"/>
<path d="M1 1V6L24 29L26.5 26.5L1 1Z" fill="#9AAAB4"/>
<path d="M33.4241 32.8081C33.7081 32.5241 33.8821 32.1821 33.9551 31.8401L28.7131 25.6451L28.0121 24.9431C27.4481 24.3791 26.4421 24.4701 25.7641 25.1481L25.1501 25.7601C24.4731 26.4371 24.3821 27.4431 24.9461 28.0071L25.6871 28.7481L31.8371 33.9531C32.1821 33.8811 32.5251 33.7061 32.8111 33.4211L33.4241 32.8081Z" fill="#D99E82"/>
<path d="M33.4242 32.808C33.7082 32.524 33.8822 32.182 33.9552 31.84L32.6132 30.254L31.8762 33.938C32.2072 33.861 32.5372 33.695 32.8112 33.42L33.4242 32.808ZM30.1142 27.302L29.2262 31.743L30.4862 32.809L31.3062 28.709L30.1142 27.302ZM28.7132 25.645L28.0122 24.943C27.9162 24.847 27.8042 24.777 27.6862 24.719L26.7082 29.611L27.9682 30.677L28.9252 25.894L28.7132 25.645ZM26.3122 24.757C26.1172 24.852 25.9302 24.982 25.7642 25.149L25.1502 25.76C24.8962 26.014 24.7252 26.314 24.6392 26.62C24.4972 27.13 24.5932 27.655 24.9462 28.007L25.5422 28.603L26.3122 24.757C26.3122 24.756 26.3122 24.756 26.3122 24.757Z" fill="#BF6952"/>
<path d="M33.25 36C34.7688 36 36 34.7688 36 33.25C36 31.7312 34.7688 30.5 33.25 30.5C31.7312 30.5 30.5 31.7312 30.5 33.25C30.5 34.7688 31.7312 36 33.25 36Z" fill="#8A4633"/>
<path d="M29.626 22.324C30.03 22.728 30.03 23.383 29.626 23.786L23.534 29.878C23.13 30.282 22.476 30.282 22.072 29.878C21.668 29.474 21.668 28.82 22.072 28.416L28.164 22.324C28.566 21.92 29.222 21.92 29.626 22.324Z" fill="#FFAC33"/>
<path d="M22.0718 31.627C23.0383 31.627 23.8218 30.8435 23.8218 29.877C23.8218 28.9105 23.0383 28.127 22.0718 28.127C21.1053 28.127 20.3218 28.9105 20.3218 29.877C20.3218 30.8435 21.1053 31.627 22.0718 31.627Z" fill="#FFAC33"/>
<path d="M29.626 24.073C30.5925 24.073 31.376 23.2895 31.376 22.323C31.376 21.3565 30.5925 20.573 29.626 20.573C28.6595 20.573 27.876 21.3565 27.876 22.323C27.876 23.2895 28.6595 24.073 29.626 24.073Z" fill="#FFAC33"/>
<path d="M22.0718 30.877C22.6241 30.877 23.0718 30.4292 23.0718 29.877C23.0718 29.3247 22.6241 28.877 22.0718 28.877C21.5195 28.877 21.0718 29.3247 21.0718 29.877C21.0718 30.4292 21.5195 30.877 22.0718 30.877Z" fill="#FFCC4D"/>
<path d="M29.626 23.323C30.1783 23.323 30.626 22.8753 30.626 22.323C30.626 21.7707 30.1783 21.323 29.626 21.323C29.0737 21.323 28.626 21.7707 28.626 22.323C28.626 22.8753 29.0737 23.323 29.626 23.323Z" fill="#FFCC4D"/>
<path d="M33.903 29.3419C34.201 29.6399 34.201 30.1229 33.903 30.4199L30.427 33.8949C30.129 34.1929 29.647 34.1929 29.349 33.8949C29.051 33.5969 29.051 33.1149 29.349 32.8169L32.825 29.3419C33.122 29.0439 33.605 29.0439 33.903 29.3419Z" fill="#FFAC33"/>
<path d="M12 29L7 24L30 1H35V6L12 29Z" fill="#CCD6DD"/>
<path d="M35 1V6L12 29L9.5 26.5L35 1Z" fill="#9AAAB4"/>
<path d="M2.57592 32.8081C2.29192 32.5241 2.11792 32.1821 2.04492 31.8401L7.28692 25.6451L7.98792 24.9431C8.55192 24.3791 9.55792 24.4701 10.2359 25.1481L10.8489 25.7601C11.5259 26.4371 11.6169 27.4431 11.0529 28.0071L10.3119 28.7481L4.16192 33.9531C3.81692 33.8811 3.47392 33.7061 3.18792 33.4211L2.57592 32.8081Z" fill="#D99E82"/>
<path d="M2.57592 32.808C2.29192 32.524 2.11792 32.182 2.04492 31.84L3.38692 30.254L4.12392 33.938C3.79292 33.861 3.46292 33.695 3.18892 33.42L2.57592 32.808ZM5.88592 27.302L6.77392 31.743L5.51392 32.809L4.69392 28.709L5.88592 27.302ZM7.28692 25.645L7.98792 24.943C8.08392 24.847 8.19592 24.777 8.31392 24.719L9.29192 29.611L8.03192 30.677L7.07492 25.894L7.28692 25.645ZM9.68792 24.757C9.88292 24.852 10.0699 24.982 10.2359 25.149L10.8489 25.761C11.1029 26.015 11.2739 26.315 11.3599 26.621C11.5019 27.131 11.4059 27.656 11.0529 28.008L10.4569 28.604L9.68792 24.757C9.68792 24.756 9.68792 24.756 9.68792 24.757Z" fill="#BF6952"/>
<path d="M2.75 36C4.26878 36 5.5 34.7688 5.5 33.25C5.5 31.7312 4.26878 30.5 2.75 30.5C1.23122 30.5 0 31.7312 0 33.25C0 34.7688 1.23122 36 2.75 36Z" fill="#8A4633"/>
<path d="M6.3738 22.324C5.9698 22.728 5.9698 23.383 6.3738 23.786L12.4658 29.878C12.8698 30.282 13.5238 30.282 13.9278 29.878C14.3318 29.474 14.3318 28.82 13.9278 28.416L7.8358 22.324C7.4338 21.92 6.7778 21.92 6.3738 22.324Z" fill="#FFAC33"/>
<path d="M13.9282 31.627C14.8947 31.627 15.6782 30.8435 15.6782 29.877C15.6782 28.9105 14.8947 28.127 13.9282 28.127C12.9617 28.127 12.1782 28.9105 12.1782 29.877C12.1782 30.8435 12.9617 31.627 13.9282 31.627Z" fill="#FFAC33"/>
<path d="M6.37402 24.073C7.34052 24.073 8.12402 23.2895 8.12402 22.323C8.12402 21.3565 7.34052 20.573 6.37402 20.573C5.40753 20.573 4.62402 21.3565 4.62402 22.323C4.62402 23.2895 5.40753 24.073 6.37402 24.073Z" fill="#FFAC33"/>
<path d="M13.9282 30.877C14.4805 30.877 14.9282 30.4292 14.9282 29.877C14.9282 29.3247 14.4805 28.877 13.9282 28.877C13.3759 28.877 12.9282 29.3247 12.9282 29.877C12.9282 30.4292 13.3759 30.877 13.9282 30.877Z" fill="#FFCC4D"/>
<path d="M6.37402 23.323C6.92631 23.323 7.37402 22.8753 7.37402 22.323C7.37402 21.7707 6.92631 21.323 6.37402 21.323C5.82174 21.323 5.37402 21.7707 5.37402 22.323C5.37402 22.8753 5.82174 23.323 6.37402 23.323Z" fill="#FFCC4D"/>
<path d="M2.09704 29.3419C1.79904 29.6399 1.79904 30.1229 2.09704 30.4199L5.57304 33.8949C5.87104 34.1929 6.35304 34.1929 6.65104 33.8949C6.94904 33.5969 6.94904 33.1149 6.65104 32.8169L3.17504 29.3419C2.87804 29.0439 2.39504 29.0439 2.09704 29.3419Z" fill="#FFAC33"/>
</svg>
