<svg width="36" height="36" viewBox="0 0 36 36" fill="none" xmlns="http://www.w3.org/2000/svg">
<path d="M14.1738 17.075L6.74983 7.59399L3.02783 17.075H14.1738Z" fill="#F4900C"/>
<path d="M17.938 5.53394L11.375 17.9229H24.5L17.938 5.53394Z" fill="#F4900C"/>
<path d="M21.8262 17.075L29.2502 7.59399L32.9722 17.075H21.8262Z" fill="#F4900C"/>
<path d="M28.6688 15.19L23.8868 3.52297L18.0068 15.191L17.9998 15.194L17.9928 15.19L12.1128 3.52197L7.33078 15.19C4.19678 10.833 1.27979 8.04197 1.27979 8.04197C1.27979 8.04197 2.99979 20.75 2.99979 33H32.9998C32.9998 20.75 34.7198 8.04197 34.7198 8.04197C34.7198 8.04197 31.8028 10.833 28.6688 15.19Z" fill="#FFCC4D"/>
<path d="M17.957 25.688C19.9939 25.688 21.645 24.0368 21.645 22C21.645 19.9632 19.9939 18.312 17.957 18.312C15.9202 18.312 14.269 19.9632 14.269 22C14.269 24.0368 15.9202 25.688 17.957 25.688Z" fill="#5C913B"/>
<path d="M26.4628 24.4119C27.7949 24.4119 28.8748 23.332 28.8748 21.9999C28.8748 20.6678 27.7949 19.5879 26.4628 19.5879C25.1307 19.5879 24.0508 20.6678 24.0508 21.9999C24.0508 23.332 25.1307 24.4119 26.4628 24.4119Z" fill="#981CEB"/>
<path d="M32.8522 23.9859C33.9491 23.9859 34.8382 23.0968 34.8382 21.9999C34.8382 20.9031 33.9491 20.0139 32.8522 20.0139C31.7554 20.0139 30.8662 20.9031 30.8662 21.9999C30.8662 23.0968 31.7554 23.9859 32.8522 23.9859Z" fill="#DD2E44"/>
<path d="M9.45009 24.4119C10.7822 24.4119 11.8621 23.332 11.8621 21.9999C11.8621 20.6678 10.7822 19.5879 9.45009 19.5879C8.11797 19.5879 7.03809 20.6678 7.03809 21.9999C7.03809 23.332 8.11797 24.4119 9.45009 24.4119Z" fill="#981CEB"/>
<path d="M3.0612 23.9859C4.15803 23.9859 5.0472 23.0968 5.0472 21.9999C5.0472 20.9031 4.15803 20.0139 3.0612 20.0139C1.96436 20.0139 1.0752 20.9031 1.0752 21.9999C1.0752 23.0968 1.96436 23.9859 3.0612 23.9859Z" fill="#DD2E44"/>
<path d="M33 33.9999H3C2.448 33.9999 2 33.5529 2 32.9999C2 32.4469 2.448 31.9999 3 31.9999H33C33.553 31.9999 34 32.4469 34 32.9999C34 33.5529 33.553 33.9999 33 33.9999ZM33 30.5139H3C2.448 30.5139 2 30.0669 2 29.5139C2 28.9609 2.448 28.5139 3 28.5139H33C33.553 28.5139 34 28.9609 34 29.5139C34 30.0669 33.553 30.5139 33 30.5139Z" fill="#FFAC33"/>
<path d="M1.44704 9.44901C2.2241 9.44901 2.85404 8.81907 2.85404 8.04201C2.85404 7.26494 2.2241 6.63501 1.44704 6.63501C0.669975 6.63501 0.0400391 7.26494 0.0400391 8.04201C0.0400391 8.81907 0.669975 9.44901 1.44704 9.44901Z" fill="#FFCC4D"/>
<path d="M6.75011 8.7861C7.40843 8.7861 7.94211 8.25242 7.94211 7.5941C7.94211 6.93578 7.40843 6.4021 6.75011 6.4021C6.09178 6.4021 5.55811 6.93578 5.55811 7.5941C5.55811 8.25242 6.09178 8.7861 6.75011 8.7861Z" fill="#F4900C"/>
<path d="M12.1131 5.30701C13.0984 5.30701 13.8971 4.50829 13.8971 3.52301C13.8971 2.53774 13.0984 1.73901 12.1131 1.73901C11.1278 1.73901 10.3291 2.53774 10.3291 3.52301C10.3291 4.50829 11.1278 5.30701 12.1131 5.30701Z" fill="#FFCC4D"/>
<path d="M34.553 9.44901C35.3301 9.44901 35.96 8.81907 35.96 8.04201C35.96 7.26494 35.3301 6.63501 34.553 6.63501C33.7759 6.63501 33.146 7.26494 33.146 8.04201C33.146 8.81907 33.7759 9.44901 34.553 9.44901Z" fill="#FFCC4D"/>
<path d="M29.2501 8.7861C29.9084 8.7861 30.4421 8.25242 30.4421 7.5941C30.4421 6.93578 29.9084 6.4021 29.2501 6.4021C28.5918 6.4021 28.0581 6.93578 28.0581 7.5941C28.0581 8.25242 28.5918 8.7861 29.2501 8.7861Z" fill="#F4900C"/>
<path d="M23.887 5.30701C24.8723 5.30701 25.671 4.50829 25.671 3.52301C25.671 2.53774 24.8723 1.73901 23.887 1.73901C22.9017 1.73901 22.103 2.53774 22.103 3.52301C22.103 4.50829 22.9017 5.30701 23.887 5.30701Z" fill="#FFCC4D"/>
<path d="M17.9378 7.318C18.9231 7.318 19.7218 6.51928 19.7218 5.534C19.7218 4.54872 18.9231 3.75 17.9378 3.75C16.9525 3.75 16.1538 4.54872 16.1538 5.534C16.1538 6.51928 16.9525 7.318 17.9378 7.318Z" fill="#F4900C"/>
</svg>
