<svg width="36" height="36" viewBox="0 0 36 36" fill="none" xmlns="http://www.w3.org/2000/svg">
<path d="M18 35.8999C27.9411 35.8999 36 33.5002 36 30.5399C36 27.5797 27.9411 25.1799 18 25.1799C8.05887 25.1799 0 27.5797 0 30.5399C0 33.5002 8.05887 35.8999 18 35.8999Z" fill="#3B88C3"/>
<path d="M33.8118 28.5381C33.8118 30.1541 31.3118 31.1251 19.3298 31.1251C8.40477 31.1251 5.71777 30.1541 5.71777 28.5381C5.71777 26.9221 11.4008 25.6121 19.3298 25.6121C27.2588 25.6121 33.8118 26.9221 33.8118 28.5381Z" fill="#88C9F9"/>
<path d="M7 28.25C7 27.25 8 23.25 18 23.25C30 23.25 33 27.25 33 28.25C33 29.25 33 30.25 19 30.25C7 30.25 7 29.25 7 28.25Z" fill="#F4900C"/>
<path d="M7 11.25C9.76142 11.25 12 9.01142 12 6.25C12 3.48858 9.76142 1.25 7 1.25C4.23858 1.25 2 3.48858 2 6.25C2 9.01142 4.23858 11.25 7 11.25Z" fill="#FFCC4D"/>
<path d="M7 10.25C9.20914 10.25 11 8.45914 11 6.25C11 4.04086 9.20914 2.25 7 2.25C4.79086 2.25 3 4.04086 3 6.25C3 8.45914 4.79086 10.25 7 10.25Z" fill="#FFAC33"/>
<path d="M26.949 14.4669C26.91 13.8919 26.851 13.3359 26.772 12.8049C26.677 12.1689 26.558 11.5699 26.425 11.0079C26.303 10.4909 26.17 10.0089 26.033 9.56589C25.828 8.89989 25.616 8.32289 25.424 7.84989C25.047 6.92089 24.75 6.38989 24.75 6.38989L22.167 6.72289C22.167 6.72289 22.465 7.34489 22.788 8.56389C22.919 9.05889 23.053 9.65389 23.174 10.3479C23.235 10.6989 23.292 11.0719 23.344 11.4729C23.416 12.0309 23.475 12.6399 23.517 13.2959C23.541 13.6659 23.558 14.0519 23.57 14.4539C23.574 14.5999 23.581 14.7409 23.583 14.8909C23.59 15.3599 23.557 15.8369 23.499 16.3129C23.446 16.7419 23.369 17.1689 23.276 17.5919C23.143 18.1979 22.98 18.7939 22.797 19.3619C22.648 19.8219 22.489 20.2629 22.329 20.6779C22.083 21.3149 21.836 21.8869 21.622 22.3649C21.264 23.1629 21 23.6949 21 23.8059C21 24.1569 21.25 24.8129 23 25.2499C25.736 25.9339 26 24.8059 26 24.8059C26 24.8059 26.174 24.2779 26.376 23.2389C26.476 22.7259 26.582 22.0919 26.679 21.3239C26.737 20.8649 26.791 20.3599 26.837 19.8109C26.886 19.2389 26.926 18.6189 26.955 17.9479C26.976 17.4399 26.989 16.8969 26.994 16.3329C26.996 16.1569 27 15.9869 27 15.8059C27 15.3469 26.979 14.9029 26.949 14.4669Z" fill="#C1694F"/>
<path d="M24.324 21.3621C23.321 21.1871 22.681 20.8951 22.33 20.6761C22.084 21.3131 21.837 21.8851 21.623 22.3631C22.278 22.7191 23.11 23.0031 24.012 23.1591C24.533 23.2501 25.05 23.2951 25.535 23.2951C25.831 23.2951 26.109 23.2721 26.376 23.2381C26.476 22.7251 26.582 22.0911 26.679 21.3231C26.361 21.4361 25.572 21.5801 24.324 21.3621ZM25.082 18.0201C24.3 17.9431 23.699 17.7711 23.277 17.5901C23.144 18.1961 22.981 18.7921 22.798 19.3601C23.416 19.5931 24.143 19.7611 24.904 19.8361C25.211 19.8661 25.515 19.8811 25.812 19.8811C26.171 19.8811 26.512 19.8531 26.838 19.8101C26.887 19.2381 26.927 18.6181 26.956 17.9471C26.506 18.0451 25.876 18.0991 25.082 18.0201ZM25.303 16.4961C25.891 16.4961 26.468 16.4371 26.995 16.3331C26.996 16.1571 27 15.9871 27 15.8061C27 15.3481 26.979 14.9041 26.949 14.4671C26.571 14.5661 26.03 14.6611 25.267 14.6721C24.492 14.6691 23.947 14.5611 23.569 14.4531C23.573 14.5991 23.58 14.7401 23.582 14.8901C23.589 15.3591 23.556 15.8361 23.498 16.3121C24.043 16.4271 24.646 16.4931 25.258 16.4961H25.303ZM25.125 13.2231C25.715 13.1381 26.262 12.9851 26.773 12.8051C26.678 12.1691 26.559 11.5701 26.426 11.0081C26.072 11.1541 25.569 11.3161 24.866 11.4171C24.215 11.5111 23.719 11.5051 23.344 11.4721C23.416 12.0301 23.475 12.6391 23.517 13.2951C23.626 13.2991 23.724 13.3161 23.836 13.3161C24.256 13.3161 24.693 13.2851 25.125 13.2231ZM26.034 9.5651C25.828 8.9001 25.616 8.3231 25.424 7.8501C25.107 8.0091 24.706 8.1761 24.182 8.3211C23.614 8.4791 23.155 8.5421 22.787 8.5641C22.918 9.0591 23.052 9.6541 23.173 10.3481C23.66 10.2991 24.162 10.2201 24.67 10.0791C25.156 9.9441 25.607 9.7631 26.034 9.5651Z" fill="#D99E82"/>
<path d="M34.5488 2.94304C34.5168 2.90104 31.3468 -1.33996 27.2358 0.520038C25.3888 1.35504 24.1978 2.72004 23.7668 4.48304C22.9628 3.35804 21.7408 2.64404 20.1228 2.35604C15.7018 1.56804 13.0308 6.47904 13.0048 6.52804C12.9658 6.60004 12.9828 6.68804 13.0438 6.74204C13.1058 6.79504 13.1948 6.79904 13.2608 6.75204C13.2808 6.73704 15.2978 5.32504 18.6568 5.92404C22.0898 6.53504 24.4968 7.13504 24.5208 7.14104C24.5358 7.14404 24.5488 7.14604 24.5638 7.14604C24.6118 7.14604 24.6588 7.12604 24.6928 7.09004C24.7148 7.06604 26.9958 4.61504 29.0928 3.66704C32.1968 2.26304 34.3138 3.19504 34.3328 3.20504C34.4048 3.23804 34.4908 3.21804 34.5418 3.15604C34.5928 3.09504 34.5958 3.00804 34.5488 2.94304Z" fill="#3E721D"/>
<path d="M31.129 5.40094C27.995 3.74594 25.559 4.56994 24.046 5.57494C22.233 5.22394 18.845 5.21794 15.974 8.89894C12.449 13.4169 15.541 19.0509 15.572 19.1079C15.603 19.1639 15.662 19.1969 15.725 19.1969L15.746 19.1959C15.817 19.1869 15.875 19.1359 15.893 19.0679C15.904 19.0289 16.99 15.1009 19.736 11.7979C21.237 9.99294 23.029 8.32394 24.29 7.22494C25.56 7.43594 27.426 7.90294 29.259 8.92694C32.832 10.9249 34.471 14.3059 34.487 14.3399C34.519 14.4059 34.588 14.4519 34.664 14.4389C34.738 14.4309 34.799 14.3769 34.815 14.3049C34.829 14.2419 36.207 8.08294 31.129 5.40094Z" fill="#5C913B"/>
</svg>
