<svg width="36" height="36" viewBox="0 0 36 36" fill="none" xmlns="http://www.w3.org/2000/svg">
<path d="M18 36C27.9411 36 36 27.9411 36 18C36 8.05887 27.9411 0 18 0C8.05887 0 0 8.05887 0 18C0 27.9411 8.05887 36 18 36Z" fill="#CCD6DD"/>
<path d="M18 32C25.732 32 32 25.732 32 18C32 10.268 25.732 4 18 4C10.268 4 4 10.268 4 18C4 25.732 10.268 32 18 32Z" fill="#3B88C3"/>
<path d="M18 28C23.5228 28 28 23.5228 28 18C28 12.4772 23.5228 8 18 8C12.4772 8 8 12.4772 8 18C8 23.5228 12.4772 28 18 28Z" fill="#DD2E44"/>
<path d="M18 24C21.3137 24 24 21.3137 24 18C24 14.6863 21.3137 12 18 12C14.6863 12 12 14.6863 12 18C12 21.3137 14.6863 24 18 24Z" fill="#FFAC33"/>
<path d="M34.8641 29.199C34.4441 29.505 33.6071 29.791 32.9301 29.791C30.9651 29.791 28.2761 29.074 26.5961 27.405L23.6421 23.533C23.3681 23.258 23.2851 22.958 23.4321 22.601C23.5801 22.242 22.7021 22 23.0901 22H28.1481C30.0151 22 32.4561 23.256 34.0731 25.018L34.4441 25.369C35.2161 26.212 35.6271 26.998 35.6261 27.755C35.6261 28.376 35.3541 28.842 34.8641 29.199Z" fill="black"/>
<path d="M28.305 35.2039C27.534 35.2039 26.673 34.7869 25.815 33.9999L25.327 33.6219C23.532 31.9769 22 29.4909 22 27.5899V22.4259C22 22.0299 22.5 22.9399 22.865 22.7889C23.228 22.6389 23.78 22.7229 24.06 23.0029L27.226 26.1269C28.925 27.8379 30.287 30.7459 30.287 32.7469C30.287 33.4359 30.144 34.0019 29.835 34.4289C29.471 34.9279 28.938 35.2039 28.305 35.2039Z" fill="black"/>
<path d="M31.3449 31.9641C31.0889 31.9641 30.8579 31.8421 30.6619 31.6471L16.6619 17.6471C16.2709 17.2561 16.2709 16.6241 16.6619 16.2321C17.0529 15.8411 17.6849 15.8421 18.0759 16.2321L32.0759 30.2321C32.4669 30.6231 32.4539 31.2681 32.0629 31.6591C31.8689 31.8541 31.6019 31.9641 31.3449 31.9641Z" fill="#C1694F"/>
</svg>
