<svg width="36" height="36" viewBox="0 0 36 36" fill="none" xmlns="http://www.w3.org/2000/svg">
<path d="M35.3368 23.5491C34.2908 29.8191 27.6148 34.0001 18.0918 34.0001C8.56884 34.0001 1.89384 29.8191 0.84884 23.5491C0.60184 22.0701 1.00484 15.4291 1.90284 14.1431C4.46184 10.4791 5.37684 24.5081 18.0918 24.5081C31.9388 24.5081 31.7318 10.4801 34.2908 14.1431C35.1888 15.4291 35.5828 22.0701 35.3368 23.5491Z" fill="#FFAC33"/>
<path d="M18.0918 5.99512C8.76078 5.99512 1.19678 10.5791 1.19678 16.2341C1.19678 21.8891 8.76078 26.4741 18.0918 26.4741C27.4218 26.4741 34.9868 21.8891 34.9868 16.2341C34.9868 10.5791 27.4218 5.99512 18.0918 5.99512ZM18.0918 19.3691C14.9178 19.3691 12.3438 18.6671 12.3438 17.8011C12.3438 16.9351 14.9178 16.2341 18.0918 16.2341C21.2648 16.2341 23.8388 16.9351 23.8388 17.8011C23.8398 18.6671 21.2658 19.3691 18.0918 19.3691Z" fill="#8A4B38"/>
<path d="M1.72006 14.623C1.06706 15.668 0.800064 20.117 2.19906 22.2C4.33306 25.38 5.37806 23.767 6.94606 24.247C9.28106 24.962 9.45406 26.807 11.3001 27.73C13.3901 28.775 14.6061 28.471 17.5701 27.73C21.7511 26.685 24.4071 28.818 26.9751 27.73C29.0821 26.837 30.2871 23.593 31.4611 23.202C35.1891 21.96 35.9761 16.078 33.2021 13.665C32.3321 15.494 28.0641 22.069 25.3211 22.375C22.5771 22.68 14.3471 23.375 10.8641 21.591C7.38006 19.806 3.85406 17.585 3.41806 16.975C2.98206 16.364 1.72006 14.623 1.72006 14.623Z" fill="#8A4B38"/>
<path d="M18.0918 13.8821C14.3398 13.8821 11.2988 15.1101 11.2988 16.6251C11.2988 17.2141 11.7618 17.7581 12.5438 18.2051C12.4178 18.0761 12.3438 17.9411 12.3438 17.8011C12.3438 16.9351 14.9178 16.2341 18.0918 16.2341C21.2648 16.2341 23.8388 16.9351 23.8388 17.8011C23.8388 17.9411 23.7658 18.0751 23.6388 18.2051C24.4208 17.7581 24.8848 17.2141 24.8848 16.6251C24.8858 15.1101 21.8438 13.8821 18.0918 13.8821Z" fill="#F4900C"/>
<path d="M4.42004 18.15C4.04504 18.15 3.68304 17.947 3.49504 17.593C3.22504 17.083 3.42004 16.45 3.93104 16.181L6.23904 14.961C6.74804 14.689 7.38104 14.886 7.65104 15.397C7.92104 15.907 7.72604 16.54 7.21504 16.809L4.90704 18.029C4.75104 18.111 4.58404 18.15 4.42004 18.15ZM16.307 25.944C15.897 25.944 15.508 25.702 15.341 25.298L14.601 23.512C14.38 22.979 14.633 22.368 15.166 22.147C15.7 21.927 16.31 22.179 16.531 22.713L17.271 24.499C17.492 25.032 17.239 25.644 16.705 25.864C16.576 25.919 16.44 25.944 16.307 25.944Z" fill="#F4ABBA"/>
<path d="M28.1511 21.7641C27.9701 21.7641 27.7871 21.7171 27.6211 21.6181C27.1241 21.3251 26.9591 20.6831 27.2531 20.1871L28.3851 18.2711C28.6781 17.7751 29.3231 17.6101 29.8161 17.9031C30.3131 18.1971 30.4781 18.8381 30.1841 19.3351L29.0521 21.2501C28.8571 21.5801 28.5091 21.7641 28.1511 21.7641Z" fill="#55ACEE"/>
<path d="M29.893 14.0001C29.333 14.0001 28.87 13.5191 28.85 12.9541C28.829 12.3781 29.281 11.8751 29.857 11.8541L31.075 11.8021C31.662 11.7951 32.137 12.2281 32.156 12.8051C32.177 13.3821 31.725 13.9011 31.149 13.9211L29.931 14.0001H29.893ZM19.792 9.87607C19.348 9.87607 18.937 9.59107 18.795 9.14607C18.621 8.59607 18.926 8.00907 19.476 7.83407L20.302 7.57307C20.858 7.39907 21.44 7.70407 21.614 8.25507C21.789 8.80507 21.483 9.39207 20.933 9.56707L20.107 9.82807C20.002 9.86107 19.896 9.87607 19.792 9.87607Z" fill="#F4ABBA"/>
<path d="M13.9978 11.5739C13.8408 11.5739 13.6818 11.5379 13.5318 11.4639L12.7478 11.0719C12.2318 10.8139 12.0218 10.1859 12.2798 9.66989C12.5378 9.15389 13.1658 8.94389 13.6818 9.20189L14.4658 9.59389C14.9818 9.85189 15.1918 10.4799 14.9338 10.9959C14.7498 11.3619 14.3808 11.5739 13.9978 11.5739ZM23.0998 24.8539C22.9438 24.8539 22.7848 24.8189 22.6348 24.7449L21.8508 24.3539C21.3338 24.0959 21.1238 23.4689 21.3808 22.9529C21.6378 22.4359 22.2648 22.2259 22.7818 22.4829L23.5658 22.8739C24.0828 23.1319 24.2928 23.7589 24.0358 24.2749C23.8538 24.6419 23.4828 24.8539 23.0998 24.8539Z" fill="#88C9F9"/>
<path d="M9.42586 22.548C9.28786 22.548 9.14886 22.522 9.01386 22.463C8.48386 22.235 8.23786 21.621 8.46586 21.091L8.85786 20.177C9.08586 19.648 9.70086 19.398 10.2309 19.629C10.7609 19.856 11.0069 20.471 10.7789 21.001L10.3869 21.915C10.2169 22.31 9.83186 22.548 9.42586 22.548ZM25.0179 12.663C24.6149 12.663 24.2309 12.429 24.0599 12.036C23.8279 11.507 24.0699 10.891 24.5979 10.66L25.2939 10.355C25.8239 10.123 26.4399 10.365 26.6699 10.893C26.9009 11.422 26.6599 12.038 26.1319 12.27L25.4359 12.575C25.2989 12.635 25.1569 12.663 25.0179 12.663ZM8.03486 12.62C7.95686 12.62 7.87786 12.611 7.79986 12.593L7.23386 12.463C6.67186 12.333 6.31986 11.772 6.44986 11.21C6.57886 10.647 7.14086 10.297 7.70286 10.426L8.26886 10.556C8.83086 10.686 9.18286 11.247 9.05286 11.809C8.94086 12.292 8.50986 12.62 8.03486 12.62Z" fill="#55ACEE"/>
</svg>
