<svg width="36" height="36" viewBox="0 0 36 36" fill="none" xmlns="http://www.w3.org/2000/svg">
<path d="M18 36C27.9411 36 36 27.9411 36 18C36 8.05887 27.9411 0 18 0C8.05887 0 0 8.05887 0 18C0 27.9411 8.05887 36 18 36Z" fill="#88C9F9"/>
<path d="M25.7159 1.7561C24.6939 2.3241 23.8439 3.2841 22.6879 2.9371C20.8129 2.3751 18.3129 1.1251 16.6879 2.6871C15.0629 4.2491 14.6879 5.6871 16.6879 5.6251C18.6879 5.5631 20.0629 3.1871 21.0629 4.1871C22.0629 5.1871 21.8119 6.0001 19.4379 6.3121C17.0639 6.6241 14.4999 7.0001 13.1249 7.0001C11.7499 7.0001 11.4369 7.8121 12.3749 8.6881C13.3129 9.5641 11.8119 9.6251 10.2499 10.5001C8.68789 11.3751 10.6249 11.7501 11.9379 12.5001C13.2509 13.2501 14.2499 12.3121 14.8129 11.0621C15.3759 9.8121 17.7939 8.3121 18.8029 8.5001C19.8129 8.6881 19.8129 9.1881 19.6249 10.0621C19.4369 10.9361 20.3749 10.6871 20.4369 9.6871C20.4989 8.6871 21.6249 7.9371 22.4989 7.8751C23.3729 7.8131 24.1239 9.0631 23.1239 9.6871C22.1239 10.3111 21.1239 10.8121 22.3739 11.1251C23.6239 11.4381 24.4989 13.0631 23.0619 13.7501C21.6249 14.4371 19.1249 14.8751 17.9999 14.3121C16.8749 13.7491 14.3119 12.9371 13.6249 13.3741C12.9379 13.8111 12.5629 14.2641 11.7499 14.5691C10.9379 14.8741 7.62489 16.3741 7.56189 18.3121C7.49889 20.2501 7.43789 22.4381 8.74989 22.5001C10.0619 22.5621 13.2499 21.6881 14.2499 20.8751C15.2499 20.0621 16.6249 20.2501 17.0619 21.1871C17.4989 22.1241 17.1869 22.6871 16.7499 24.1871C16.3129 25.6871 17.0359 26.4371 17.7369 27.7491C18.4379 29.0611 18.9999 29.8111 18.9999 30.7491C18.9999 31.6871 19.9999 32.6241 21.4999 31.0611C22.9999 29.4981 24.3749 26.4361 24.9999 25.3111C25.6249 24.1861 26.1249 21.6861 26.8749 21.1861C27.6249 20.6861 28.8129 19.4981 27.9369 19.6861C27.0609 19.8741 25.3119 19.6241 24.8749 18.3741C24.4379 17.1241 22.5629 14.7491 23.4369 14.4991C24.3109 14.2491 25.3119 15.8891 25.6869 16.6631C26.0619 17.4371 26.5619 18.3741 27.3119 18.6241C28.0619 18.8741 29.6869 16.9511 30.1869 16.6631C30.6869 16.3741 30.3119 15.1871 29.3119 15.3121C28.3119 15.4371 26.9999 15.3121 26.9999 14.6881C26.9999 14.0641 28.2499 13.2501 29.2499 13.4381C30.2499 13.6261 30.9999 13.9381 31.6249 14.6881C32.2499 15.4381 33.4999 16.8131 33.9999 17.6881C34.4999 18.5631 34.8749 18.6881 35.1249 17.1261C35.2909 16.0881 35.5119 15.5171 35.7149 14.9041C34.7019 9.0751 30.8949 4.2211 25.7159 1.7561Z" fill="#5C913B"/>
</svg>
