<svg width="36" height="36" viewBox="0 0 36 36" fill="none" xmlns="http://www.w3.org/2000/svg">
<path d="M18 36C27.9411 36 36 27.9411 36 18C36 8.05887 27.9411 0 18 0C8.05887 0 0 8.05887 0 18C0 27.9411 8.05887 36 18 36Z" fill="#88C9F9"/>
<path d="M2.812 25.3749C2.75 24.3749 2.75 24.1879 2.75 22.9999C2.75 21.8119 3.312 21.9999 3.875 21.4379C4.438 20.8759 4.313 20.8129 5.25 20.1969C6.187 19.5809 5.688 18.8759 5.625 18.5009C5.562 18.1259 5 18.4379 4.062 18.5619C3.124 18.6859 3.438 18.2499 2.875 17.9999C2.312 17.7499 2.063 17.3749 1.687 16.2499C1.311 15.1249 1.249 14.8119 1.375 13.8749C1.501 12.9379 1.938 13.8119 2 14.8119C2.062 15.8119 2.938 15.4369 2.938 16.0619C2.938 16.6869 4.188 17.3739 4.5 17.5619C4.812 17.7499 5.688 16.6239 6 16.3119C6.312 15.9999 6.688 15.5619 6.812 15.3119C6.936 15.0619 8.5 14.8739 8.812 14.8739C9.124 14.8739 9.874 15.8119 9.874 16.2489C9.874 16.6859 10.249 17.8739 10.562 18.5609C10.875 19.2479 11.562 19.3729 12.187 19.8729C12.812 20.3729 13.125 19.9349 13.125 19.9349C13.125 19.9349 12.875 18.8729 12.875 17.9969C12.875 17.1209 13.625 16.3719 13.625 16.3719C13.625 16.3719 14.813 17.2469 14.875 17.4969C14.937 17.7469 15.875 18.6219 15.937 19.0589C15.999 19.4959 16.499 20.0589 17.42 20.1839C18.341 20.3089 17.687 19.1219 17.999 18.3089C18.311 17.4959 18.749 17.3709 19.311 17.2469C19.873 17.1229 20.311 16.6219 20.686 16.1219C21.061 15.6219 21.748 14.9339 21.686 14.3719C21.624 13.8099 21.436 13.4339 21.186 12.7469C20.936 12.0599 21.936 11.8089 22.374 10.9969C22.812 10.1849 22.374 10.9969 23.374 10.7469C24.374 10.4969 23.936 10.4969 24.124 10.1219C24.312 9.74692 24.436 9.37192 24.249 8.68392C24.062 7.99592 23.374 8.68392 22.687 8.68392C22 8.68392 22.938 7.74992 23 6.99992C23.062 6.24992 23.938 6.43792 24.562 6.37492C25.186 6.31192 25.374 7.18692 25.562 7.37492C25.75 7.56292 27.687 6.12492 28.187 5.43692C28.687 4.74892 27.75 4.93792 28 4.64792C28.25 4.35792 26.5 4.29892 25.812 4.18792C25.124 4.07692 23.375 3.99992 22.688 3.57592C22.001 3.15192 19.376 3.47192 18.688 3.81292C18 4.15392 17.563 3.78392 17.25 3.31292C16.937 2.84192 15.625 3.07792 15.25 2.81292C14.875 2.54792 14.5 3.24992 14 3.43792C13.5 3.62592 13.312 3.68792 12.688 3.31292C12.064 2.93792 12.875 2.49992 12 2.18792C11.414 1.97892 10.712 2.10092 9.62 2.07692C3.902 5.09192 0 11.0869 0 17.9999C0 21.4199 0.971 24.6049 2.627 27.3269C2.935 26.8089 2.858 26.1099 2.812 25.3749ZM17.312 24.1879C17.75 24.2499 19 24.1879 18 23.3759C17 22.5639 16.438 23.1879 16.562 22.2509C16.686 21.3139 15.937 21.3129 15.937 21.3129C15.937 22.0009 15.437 22.7509 15.937 23.4379C16.437 24.1249 16.875 24.1249 17.312 24.1879Z" fill="#5C913B"/>
<path d="M23.6881 13.75C22.6881 12.938 23.4381 13.188 23.5631 12.25C23.6881 11.312 22.9381 11.312 22.9381 11.312C22.9381 12 22.4381 12.75 22.9381 13.437C23.4381 14.124 21.9381 14.687 22.3761 14.749C22.8141 14.811 24.6881 14.562 23.6881 13.75ZM19.8081 23.5C20.4281 24.188 20.1881 23.5 21.0001 23.188C21.8121 22.876 20.3121 22.188 19.8121 21.813C19.3121 21.438 18.8151 21.424 18.3781 22.251C17.8821 23.188 19.1881 22.812 19.8081 23.5ZM27.1251 24.75C26.8131 24.375 26.1251 24.188 25.3751 24.205C24.6251 24.223 24.6871 23.375 23.9371 23.437C23.1871 23.499 22.6511 22.933 22.3121 22.758C21.5751 22.378 22.0621 23.249 22.3121 24.204C22.5621 25.159 23.5001 24.436 24.3741 24.936C25.2481 25.436 25.3121 24.748 26.1241 24.998C26.9361 25.248 27.2491 25.81 28.0281 25.748C28.8071 25.686 27.4381 25.125 27.1251 24.75ZM25.5001 27.5C25.1881 26.875 24.2741 26.312 23.8991 25.995C23.5241 25.678 22.9371 25.571 22.4371 25.755C21.9371 25.939 21.6251 25.755 21.3751 25.26C21.1251 24.765 20.6871 24.938 20.3131 25C19.9391 25.062 18.4381 25.688 17.5631 26.125C16.6881 26.562 16.2901 26.942 15.7161 27.5C14.8181 28.374 15.3131 27.812 15.7161 28.375C16.1191 28.937 15.2741 30.687 15.2121 31.687C15.1501 32.687 16.8141 31.375 17.4391 31.249C18.0641 31.123 17.8801 30.749 18.3801 30.374C18.8801 29.999 19.2051 29.911 19.7541 30.411C20.3031 30.911 21.0221 31.374 21.0221 31.936C21.0221 32.498 23.0011 33.436 23.7511 33.061C24.5011 32.686 24.9391 31.936 25.6261 31.311C26.3131 30.686 26.0641 29.499 26.2511 28.749C26.4381 27.999 25.8121 28.125 25.5001 27.5Z" fill="#5C913B"/>
</svg>
