<svg width="36" height="36" viewBox="0 0 36 36" fill="none" xmlns="http://www.w3.org/2000/svg">
<path d="M18 36C27.9411 36 36 27.9411 36 18C36 8.05887 27.9411 0 18 0C8.05887 0 0 8.05887 0 18C0 27.9411 8.05887 36 18 36Z" fill="#88C9F9"/>
<path d="M30.1301 23.7479C29.1131 23.3579 29.2941 23.4999 28.6671 22.1669C28.0401 20.8349 27.6601 20.4059 26.2501 20.2499C24.8391 20.0949 24.8921 20.2049 24.5001 19.4999C24.1081 18.7939 22.5181 19.6909 21.5001 20.0839C20.4791 20.4759 20.7311 21.3299 20.4171 21.2499C20.1021 21.1719 19.3101 20.9689 18.5241 20.3429C17.7401 19.7149 19.1071 19.2249 19.5001 18.8339C19.8931 18.4409 18.7601 18.6549 18.3671 18.4179C17.9741 18.1839 17.2711 18.8889 16.6441 18.2599C16.0161 17.6329 16.4091 16.6919 16.3311 15.9079C16.2521 15.1229 17.3491 14.9669 18.0551 14.8099C18.7601 14.6539 19.3081 14.8109 19.3081 15.7509C19.3081 16.6919 20.1711 17.0059 19.9361 15.9069C19.7011 14.8079 20.1711 14.4959 20.4861 13.9469C20.7991 13.3979 21.3481 12.6129 22.0531 11.4369C22.7591 10.2609 23.2301 10.8089 24.0921 10.8929C24.9551 10.9779 25.1901 10.8099 25.8171 10.8889C26.4421 10.9679 25.8171 10.1049 26.0531 9.24291C26.2871 8.38091 27.1501 8.53691 28.0141 8.77291C28.8761 9.00791 27.1501 7.67391 26.8371 6.96891C26.5221 6.26291 25.6601 6.96891 25.1131 5.79291C24.5601 4.61691 23.7891 3.85591 23.0831 3.75091C22.3771 3.64491 23.3081 5.24491 22.7591 6.10691C22.2081 6.96891 21.3641 6.83391 20.4991 6.83391C19.6381 6.83391 18.8381 6.10691 19.4661 5.00891C20.0921 3.91191 21.2891 4.02491 21.9161 3.08391C22.5441 2.14391 19.6861 2.22991 18.6661 1.91691C17.6461 1.60291 16.4221 1.60591 15.4031 2.38991C14.3831 3.17291 12.2021 3.41791 11.3391 3.73091C10.4771 4.04391 10.3221 3.21091 10.1661 2.58291C10.0961 2.30391 9.77806 2.21591 9.33006 2.22591C7.11006 3.44991 5.18706 5.13791 3.66406 7.14691C3.90106 7.95391 5.04906 6.95791 5.27406 6.73291C5.50906 6.49791 6.68506 6.81191 6.84106 7.67391C6.99806 8.53591 6.92006 9.47891 6.60706 10.2629C6.29306 11.0459 7.39106 12.1439 8.01806 13.2419C8.64606 14.3409 9.35106 14.3399 9.66506 14.3399C9.97806 14.3399 11.7821 15.0459 11.7031 15.9079C11.6251 16.7709 13.3501 17.5539 14.0561 18.1029C14.7621 18.6539 15.2081 19.1949 16.1241 19.3529C17.0411 19.5109 18.1131 21.0099 18.5831 21.1679C18.9441 21.2879 19.5551 21.8649 19.9241 22.0439C19.4391 22.6579 18.5001 23.9189 18.5001 24.4999C18.5001 25.2859 19.5251 26.5209 19.9171 26.8339C20.3081 27.1459 21.4341 27.3839 21.6671 28.1669C21.9031 28.9509 21.5031 31.5899 20.7991 32.2949C20.0911 32.9999 19.8341 34.6669 19.8341 34.6669C19.8341 34.6669 20.0831 35.2079 20.9171 34.6669C21.8391 34.0699 23.3831 32.3699 24.0001 31.9999C25.1761 31.2929 26.3191 30.4349 27.4171 29.4169C28.5151 28.3979 28.1171 27.6839 28.6671 26.6669C29.2161 25.6479 29.9261 25.6939 30.8661 24.8339C31.8081 23.9699 31.1501 24.1409 30.1301 23.7479Z" fill="#5C913B"/>
</svg>
