<svg width="36" height="36" viewBox="0 0 36 36" fill="none" xmlns="http://www.w3.org/2000/svg">
<g clip-path="url(#clip0)">
<path d="M34.4528 15.5731C33.5888 8.27308 28.7238 5.12608 20.5228 5.12608C20.1318 5.12608 19.7598 5.14308 19.3838 5.15708C19.3708 5.14708 19.3618 5.13608 19.3488 5.12608C14.6548 1.60508 4.09082 2.77908 1.74482 6.30008C-1.51018 11.1831 0.570819 28.6001 1.74482 30.9461C2.91782 33.2961 6.43882 34.4671 7.61282 33.2961C8.78682 32.1201 7.61282 32.1201 6.43982 29.7751C5.58982 28.0741 5.97382 23.9161 6.69482 21.3041C6.72282 21.4721 6.76282 21.6261 6.79482 21.7901C7.18482 24.6611 8.78782 29.2021 8.78782 31.5341C8.78782 35.0981 10.8898 35.6411 13.4818 35.6411C16.0748 35.6411 18.1768 35.0981 18.1768 31.5341C18.1768 31.2941 18.1688 31.0711 18.1648 30.8391C18.9218 30.9031 19.6998 30.9461 20.5238 30.9461C21.0208 30.9461 21.5008 30.9301 21.9718 30.9071C21.9678 31.1161 21.9588 31.3171 21.9588 31.5341C21.9588 35.0981 24.0618 35.6411 26.6528 35.6411C29.2458 35.6411 31.3478 35.0981 31.3478 31.5341C31.3478 29.7331 32.5398 26.9091 33.3868 24.5521C33.5458 24.1981 33.6778 23.8201 33.8068 23.4351C33.9248 24.7421 33.9998 26.1411 33.9998 27.6411C33.9998 28.1941 34.4468 28.6411 34.9998 28.6411C35.5528 28.6411 35.9998 28.1941 35.9998 27.6411C35.9998 22.4881 35.2288 18.3931 34.4528 15.5731Z" fill="#99AAB5"/>
<path d="M19.3499 5.12598C19.3499 5.12598 22.9999 10.641 19.9999 15.641C16.9999 20.641 12.1619 20.641 8.99992 20.641C6.99992 20.641 7.99992 22.641 8.99992 22.641C10.4139 22.641 17.3949 23.852 20.9999 16.641C23.9999 10.641 19.3499 5.12598 19.3499 5.12598Z" fill="#66757F"/>
<path d="M6.5 15.6411C7.32843 15.6411 8 14.9695 8 14.1411C8 13.3127 7.32843 12.6411 6.5 12.6411C5.67157 12.6411 5 13.3127 5 14.1411C5 14.9695 5.67157 15.6411 6.5 15.6411Z" fill="#292F33"/>
</g>
<defs>
<clipPath id="clip0">
<rect width="36" height="36" fill="white"/>
</clipPath>
</defs>
</svg>
