<svg width="36" height="36" viewBox="0 0 36 36" fill="none" xmlns="http://www.w3.org/2000/svg">
<path d="M30.8061 15.3469H19.2011L27.4061 7.14189L26.6991 6.43489L18.4941 14.6399V3.03589H17.4941V14.6399L9.28813 6.43489L8.58113 7.14189L16.7871 15.3469H5.18213V16.3469H16.7871L8.58113 24.5529L9.28813 25.2599L17.4941 17.0539V28.6589H18.4941V17.0549L26.6991 25.2599L27.4061 24.5529L19.2011 16.3469H30.8061V15.3469Z" fill="#CCD6DD"/>
<path d="M17.994 1.39404C10.012 1.39404 3.54102 7.86504 3.54102 15.847C3.54102 23.829 10.012 30.3 17.994 30.3C25.977 30.3 32.448 23.829 32.448 15.847C32.447 7.86504 25.976 1.39404 17.994 1.39404ZM17.994 28.077C11.239 28.077 5.76402 22.602 5.76402 15.847C5.76402 9.09204 11.239 3.61704 17.994 3.61704C24.748 3.61704 30.224 9.09204 30.224 15.847C30.224 22.602 24.749 28.077 17.994 28.077Z" fill="#AAB8C2"/>
<path d="M17.9928 23.374C13.8428 23.374 10.4668 19.997 10.4668 15.847C10.4668 11.697 13.8428 8.32104 17.9928 8.32104C22.1438 8.32104 25.5208 11.697 25.5208 15.847C25.5208 19.997 22.1448 23.374 17.9928 23.374ZM17.9928 9.82104C14.6698 9.82104 11.9668 12.525 11.9668 15.847C11.9668 19.169 14.6708 21.874 17.9928 21.874C21.3168 21.874 24.0208 19.17 24.0208 15.847C24.0208 12.524 21.3168 9.82104 17.9928 9.82104Z" fill="#AAB8C2"/>
<path d="M27.2791 34.4291L18.9031 16.0851C18.8821 16.0391 18.8451 16.0091 18.8181 15.9681C18.7801 15.9091 18.7461 15.8501 18.6951 15.7991C18.6441 15.7481 18.5851 15.7141 18.5251 15.6761C18.4841 15.6491 18.4541 15.6121 18.4081 15.5911C18.3961 15.5861 18.3841 15.5881 18.3731 15.5831C18.3091 15.5561 18.2411 15.5491 18.1721 15.5361C18.1111 15.5251 18.0511 15.5061 17.9901 15.5061C17.9361 15.5061 17.8841 15.5241 17.8291 15.5331C17.7541 15.5461 17.6801 15.5551 17.6101 15.5841C17.5991 15.5891 17.5871 15.5871 17.5761 15.5921C17.5321 15.6121 17.5021 15.6491 17.4621 15.6741C17.4011 15.7131 17.3411 15.7481 17.2891 15.7991C17.2381 15.8501 17.2031 15.9101 17.1651 15.9701C17.1391 16.0101 17.1021 16.0401 17.0821 16.0851L8.70906 34.4291C8.48006 34.9311 8.70106 35.5251 9.20306 35.7541C9.33806 35.8151 9.47906 35.8441 9.61806 35.8441C9.99706 35.8441 10.3601 35.6271 10.5281 35.2591L17.9931 18.9081L25.4581 35.2591C25.6261 35.6271 25.9891 35.8441 26.3691 35.8441C26.5081 35.8441 26.6481 35.8151 26.7831 35.7531C27.2871 35.5241 27.5081 34.9311 27.2791 34.4291Z" fill="#8899A6"/>
<path d="M12.9001 36H7.0791C6.5271 36 6.0791 35.553 6.0791 35C6.0791 34.447 6.5271 34 7.0791 34H12.9001C13.4521 34 13.9001 34.447 13.9001 35C13.9001 35.553 13.4521 36 12.9001 36ZM28.8991 36H23.0791C22.5261 36 22.0791 35.553 22.0791 35C22.0791 34.447 22.5261 34 23.0791 34H28.8991C29.4521 34 29.8991 34.447 29.8991 35C29.8991 35.553 29.4521 36 28.8991 36Z" fill="#553788"/>
<path d="M21.2838 29.819C21.2838 31.354 20.0398 32.598 18.5048 32.598H17.3928C15.8578 32.598 14.6138 31.354 14.6138 29.819C14.6138 28.284 15.8578 27.04 17.3928 27.04H18.5048C20.0388 27.04 21.2838 28.284 21.2838 29.819Z" fill="#744EAA"/>
<path d="M21.227 29.2631C20.97 27.9941 19.849 27.0391 18.504 27.0391H17.392C16.047 27.0391 14.926 27.9931 14.668 29.2631H21.227Z" fill="#CBB7EA"/>
<path d="M11.0172 26.527C11.0172 28.062 9.77317 29.306 8.23817 29.306H7.12617C5.59117 29.306 4.34717 28.062 4.34717 26.527C4.34717 24.992 5.59117 23.748 7.12617 23.748H8.23817C9.77317 23.748 11.0172 24.992 11.0172 26.527Z" fill="#5C913B"/>
<path d="M10.9599 25.9711C10.7029 24.7021 9.58186 23.7471 8.23686 23.7471H7.12586C5.78086 23.7471 4.65986 24.7011 4.40186 25.9711H10.9599Z" fill="#C6E5B3"/>
<path d="M34.9771 17.633C34.9771 19.168 33.7331 20.412 32.1981 20.412H31.0861C29.5511 20.412 28.3071 19.168 28.3071 17.633C28.3071 16.098 29.5511 14.854 31.0861 14.854H32.1981C33.7331 14.853 34.9771 16.097 34.9771 17.633Z" fill="#3B94D9"/>
<path d="M34.9208 17.077C34.6638 15.808 33.5428 14.853 32.1978 14.853H31.0858C29.7418 14.853 28.6198 15.807 28.3628 17.077H34.9208Z" fill="#BBDDF5"/>
<path d="M31.6441 7.88691C31.6441 9.42191 30.4001 10.6659 28.8651 10.6659H27.7531C26.2181 10.6659 24.9741 9.42191 24.9741 7.88691C24.9741 6.35191 26.2181 5.10791 27.7531 5.10791H28.8651C30.4001 5.10791 31.6441 6.35191 31.6441 7.88691Z" fill="#5C913B"/>
<path d="M31.5878 7.33093C31.3308 6.06193 30.2098 5.10693 28.8648 5.10693H27.7528C26.4088 5.10693 25.2868 6.06093 25.0298 7.33093H31.5878Z" fill="#C6E5B3"/>
<path d="M31.6441 26.527C31.6441 28.062 30.4001 29.306 28.8651 29.306H27.7531C26.2181 29.306 24.9741 28.062 24.9741 26.527C24.9741 24.992 26.2181 23.748 27.7531 23.748H28.8651C30.4001 23.748 31.6441 24.992 31.6441 26.527Z" fill="#BE1931"/>
<path d="M31.5878 25.9711C31.3308 24.7021 30.2098 23.7471 28.8648 23.7471H27.7528C26.4088 23.7471 25.2868 24.7011 25.0298 25.9711H31.5878Z" fill="#F4ABBA"/>
<path d="M11.0172 7.88691C11.0172 9.42191 9.77317 10.6659 8.23817 10.6659H7.12617C5.59117 10.6659 4.34717 9.42191 4.34717 7.88691C4.34717 6.35191 5.59117 5.10791 7.12617 5.10791H8.23817C9.77317 5.10791 11.0172 6.35191 11.0172 7.88691Z" fill="#BE1931"/>
<path d="M10.9599 7.33093C10.7029 6.06193 9.58186 5.10693 8.23686 5.10693H7.12586C5.78086 5.10693 4.65986 6.06093 4.40186 7.33093H10.9599Z" fill="#F4ABBA"/>
<path d="M21.2838 2.87592C21.2838 4.41092 20.0398 5.65492 18.5048 5.65492H17.3928C15.8578 5.65492 14.6138 4.41092 14.6138 2.87592C14.6138 1.34092 15.8578 0.0969244 17.3928 0.0969244H18.5048C20.0388 0.0959244 21.2838 1.33992 21.2838 2.87592Z" fill="#744EAA"/>
<path d="M21.227 2.31995C20.97 1.05095 19.849 0.0959473 18.504 0.0959473H17.392C16.047 0.0959473 14.926 1.04995 14.668 2.31995H21.227Z" fill="#CBB7EA"/>
<path d="M7.68223 17.633C7.68223 19.168 6.43823 20.412 4.90323 20.412H3.79023C2.25523 20.412 1.01123 19.168 1.01123 17.633C1.01123 16.098 2.25523 14.854 3.79023 14.854H4.90223C6.43723 14.853 7.68223 16.097 7.68223 17.633Z" fill="#3B94D9"/>
<path d="M7.62492 17.077C7.36792 15.808 6.24692 14.853 4.90192 14.853H3.78992C2.44492 14.853 1.32392 15.807 1.06592 17.077H7.62492Z" fill="#BBDDF5"/>
<path d="M14.9521 15.8469C14.9521 14.1669 16.3141 12.8059 17.9931 12.8059C19.6731 12.8059 21.0351 14.1679 21.0351 15.8469C21.0351 17.5259 19.6731 18.8879 17.9931 18.8879C16.3141 18.8889 14.9521 17.5269 14.9521 15.8469Z" fill="#553788"/>
</svg>
