<svg width="36" height="36" viewBox="0 0 36 36" fill="none" xmlns="http://www.w3.org/2000/svg">
<path d="M34.074 18L29.242 21H28V17C28 16.912 27.98 16.831 27.974 16.744C31.436 15.864 34 12.735 34 9C34 4.582 30.418 1 26 1C21.582 1 17.999 4.582 17.999 9C17.999 10.463 18.411 11.822 19.098 13H14.92C14.967 12.672 15 12.34 15 12C15 8.134 11.866 5 8 5C4.135 5 1 8.134 1 12C1 14.79 2.638 17.193 5 18.317V29C5 31.209 6.791 33 9 33H24C26.209 33 28 31.209 28 29V26H29.242L34.074 29H35V18H34.074ZM28.727 3.977C30.489 4.936 31.688 6.796 31.711 8.938L28.18 8.35C28.068 7.974 27.87 7.635 27.597 7.368L28.727 3.977ZM27.827 10.319L31.379 10.911C30.719 12.768 29.125 14.171 27.165 14.58C26.795 14.097 26.322 13.705 25.773 13.432L26.398 11.242C26.954 11.129 27.474 10.79 27.827 10.319ZM26 3.285C26.282 3.285 26.557 3.312 26.828 3.352L25.697 6.744C25.293 6.798 24.925 6.954 24.616 7.19L21.42 5.592C22.462 4.195 24.123 3.285 26 3.285ZM20.285 9C20.285 8.437 20.37 7.894 20.521 7.38L23.715 8.977L23.713 9C23.713 9.657 24.026 10.245 24.484 10.662L23.816 13H21.945C20.925 11.97 20.285 10.564 20.285 9ZM11.197 8.615C12.098 9.466 12.667 10.663 12.667 12C12.667 12.344 12.624 12.677 12.554 13H10.1C10.245 12.696 10.333 12.359 10.333 12C10.333 11.522 10.188 11.078 9.941 10.708L11.197 8.615ZM8 7.333C8.519 7.333 9.01 7.438 9.476 7.594L8.22 9.688C8.147 9.681 8.075 9.666 8 9.666C7.522 9.666 7.078 9.811 6.708 10.058L4.615 8.803C5.466 7.902 6.663 7.333 8 7.333ZM3.333 12C3.333 11.481 3.438 10.99 3.594 10.523L5.689 11.78C5.682 11.853 5.667 11.924 5.667 12C5.667 12.75 6.027 13.41 6.577 13.837C5.953 14.316 5.48 14.971 5.224 15.732C4.083 14.881 3.333 13.533 3.333 12Z" fill="#31373D"/>
<path d="M24 21C25.1046 21 26 20.1046 26 19C26 17.8954 25.1046 17 24 17C22.8954 17 22 17.8954 22 19C22 20.1046 22.8954 21 24 21Z" fill="#8899A6"/>
<path d="M9 21C10.1046 21 11 20.1046 11 19C11 17.8954 10.1046 17 9 17C7.89543 17 7 17.8954 7 19C7 20.1046 7.89543 21 9 21Z" fill="#8899A6"/>
<path d="M24 27C24 25.896 23.104 25 22 25H11C9.896 25 9 25.896 9 27V33C9 34.104 9.896 35 11 35H22C23.104 35 24 34.104 24 33V27Z" fill="#8899A6"/>
</svg>
