<svg width="36" height="36" viewBox="0 0 36 36" fill="none" xmlns="http://www.w3.org/2000/svg">
<path d="M3.99987 36H31.9999C33.9999 36 35.7309 34 35.7309 32C35.7309 27.645 31.0969 21 17.9999 21C4.50787 21 0.192871 27.459 0.192871 32C0.192871 34 1.99987 36 3.99987 36Z" fill="#77B255"/>
<path d="M11.292 29.5001C11.292 29.5001 12.25 30.1671 13.25 30.1671C15.458 25.2921 26.25 22.6671 27.25 22.6671C27.4 22.6671 27.58 22.6491 27.762 22.6201C27.046 22.3401 26.26 22.0991 25.432 21.8831C20.806 21.9461 12.401 25.8001 11.292 29.5001Z" fill="#5C913B"/>
<path d="M12.5 33C16.0899 33 19 31.8807 19 30.5C19 29.1193 16.0899 28 12.5 28C8.91015 28 6 29.1193 6 30.5C6 31.8807 8.91015 33 12.5 33Z" fill="#292F33"/>
<path d="M10 4V30C10 30.553 10.448 30.844 11 30.844C11.552 30.844 12 30.553 12 30V4H10Z" fill="#FFAC33"/>
<path d="M10 2.99998C10 0.799977 11.695 -0.395023 13.767 0.344977L23.233 3.72598C25.304 4.46598 25.304 5.67698 23.233 6.41598L13.767 9.79698C11.695 10.538 10 9.34298 10 7.14298V2.99998Z" fill="#DD2E44"/>
</svg>
