<svg width="36" height="36" viewBox="0 0 36 36" fill="none" xmlns="http://www.w3.org/2000/svg">
<g clip-path="url(#clip0)">
<path d="M32 0H4C1.791 0 0 1.791 0 4V10H36V4C36 1.791 34.209 0 32 0Z" fill="#88C9F9"/>
<path d="M36 16.368V9.257C35.362 8.863 34.617 8.625 33.812 8.625C32.487 8.625 31.321 9.252 30.553 10.213C29.75 9.466 28.683 9 27.5 9C26.779 9 26.108 9.185 25.504 9.486C24.763 8.018 23.257 7 21.5 7C20.893 7 20.316 7.124 19.788 7.342C19.308 5.981 18.024 5 16.5 5C15.293 5 14.227 5.611 13.599 6.542C12.97 6.207 12.263 6 11.5 6C9.859 6 8.438 6.887 7.652 8.198C6.928 6.33 5.125 5 3 5C1.869 5 0.838 5.389 0 6.022V13.977C0.838 14.611 24.5 18 24.5 18C24.5 18 35.362 16.762 36 16.368Z" fill="#E1E8ED"/>
<path d="M36 14.771C35.157 13.7 33.864 13 32.396 13C30.399 13 28.715 14.279 28.078 16.059C27.888 16.026 27.698 16 27.5 16C26.68 16 25.935 16.294 25.338 16.767C24.679 16.289 23.876 16 23 16C22.647 16 22.311 16.06 21.985 16.146C21.987 16.097 22 16.05 22 16C22 13.791 20.209 12 18 12C16.785 12 15.709 12.554 14.976 13.409C14.369 13.148 13.702 13 13 13C12.82 13 12.65 13.034 12.475 13.053C11.429 10.505 8.926 8.70898 6 8.70898C3.449 8.70898 1.223 10.078 0 12.117V25.661L32.396 24.209C32.396 24.209 35.157 22.866 36 21.243V14.771Z" fill="#CCD6DD"/>
<path d="M36 30.499V20.422C35.387 20.154 34.712 20 34 20C31.875 20 30.072 21.33 29.348 23.198C28.562 21.887 27.141 21 25.5 21C24.737 21 24.03 21.207 23.401 21.542C22.773 20.611 21.707 20 20.5 20C18.976 20 17.692 20.981 17.212 22.342C16.684 22.124 16.107 22 15.5 22C13.743 22 12.237 23.018 11.496 24.486C10.892 24.185 10.221 24 9.50002 24C8.31702 24 7.25002 24.466 6.44602 25.213C5.67802 24.252 4.51202 23.625 3.18702 23.625C1.90302 23.625 0.768023 24.216 -0.000976562 25.126V30.499H36Z" fill="#E1E8ED"/>
<path d="M36 24.059C32.465 22.229 25.013 17.594 20 9C20 9 20 7 18 7C16 7 16 9 16 9C10.987 17.594 3.535 22.229 0 24.059V26.127C1.044 25.632 2.422 24.923 4 23.958V24H6V22.659C7.284 21.779 8.637 20.751 10 19.565V27H12V17.708C13.384 16.333 14.74 14.785 16 13.053V24H20V13.054C21.26 14.785 22.616 16.334 24 17.709V26H26V19.565C27.362 20.751 28.716 21.779 30 22.66V25H32V23.958C33.578 24.923 34.956 25.632 36 26.127V24.059Z" fill="#FE5011"/>
<path d="M25 25C24.179 25 23.418 25.249 22.783 25.673C22.119 23.834 20.283 22.603 18.249 22.81C16.366 23.002 14.901 24.37 14.472 26.108C14.291 26.096 14.109 26.089 13.922 26.108C13.149 26.187 12.474 26.535 11.957 27.038C11.29 26.651 10.505 26.456 9.679 26.54C9.346 26.574 9.035 26.663 8.737 26.776C8.734 26.729 8.741 26.683 8.737 26.637C8.525 24.554 6.664 23.038 4.582 23.25C3.437 23.367 2.475 23.992 1.866 24.869C1.28 24.683 0.649 24.611 0 24.672V32C0 32.773 0.23 33.489 0.61 34.101C0.715 34.098 29 31.209 29 29C29 26.791 27.209 25 25 25Z" fill="#F5F8FA"/>
<path d="M32 36C34.209 36 36 34.209 36 32V24.392C35.09 23.959 34.075 23.709 33 23.709C30.074 23.709 27.571 25.505 26.525 28.053C26.35 28.034 26.18 28 26 28C25.298 28 24.631 28.147 24.024 28.409C23.291 27.554 22.215 27 21 27C18.791 27 17 28.791 17 31C17 31.05 17.013 31.097 17.015 31.146C16.689 31.06 16.353 31 16 31C15.124 31 14.321 31.289 13.662 31.767C13.065 31.294 12.32 31 11.5 31C11.302 31 11.112 31.026 10.923 31.059C10.286 29.279 8.602 28 6.604 28C4.617 28 2.939 29.266 2.294 31.03C2.195 31.022 2.101 31 2 31C1.268 31 0.59 31.211 0 31.555V32C0 34.209 1.791 36 4 36H32Z" fill="#CCD6DD"/>
</g>
<defs>
<clipPath id="clip0">
<rect width="36" height="36" fill="white"/>
</clipPath>
</defs>
</svg>
