<svg width="36" height="36" viewBox="0 0 36 36" fill="none" xmlns="http://www.w3.org/2000/svg">
<path d="M15 22C15 22 13.85 24.749 12.85 26.749C11.85 28.749 11.184 31.976 13.175 32.994C16.208 34.547 21.753 33.568 25 32C27.724 30.684 30.179 28.915 32 26C33.746 23.206 35 20 35 18C35 16 34.853 14.409 34.138 12.29C33.608 10.72 32.746 8.827 31.198 7.213C29.379 5.317 28.563 3.408 27.616 2.055C26.806 0.896 26 0 24 0C22 0 17 3 14 4C11 5 7 6 4 10C1 14 1 18 1 20C1 22 1.062 24.885 3 26C5.305 27.327 8.575 24.366 11.045 23.644C13.392 22.958 15 22 15 22Z" fill="#FCAB40"/>
<path d="M33.7168 21.334C33.7168 21.334 31.1038 24.888 29.6688 25.812C28.8948 26.31 28.0488 26.822 26.9658 27.327C26.2718 27.651 23.1738 28.877 22.3448 29.132C20.9368 29.565 19.0598 29.962 18.0848 29.998C17.1098 30.034 16.2798 29.994 14.8618 30.177C13.9898 30.289 12.7058 30.792 12.6698 31.37C12.6338 31.948 13.6808 32.995 15.7748 33.103C17.8688 33.211 21.7718 32.926 24.1498 31.876C27.4708 30.409 29.4568 28.591 30.4318 27.436C31.4058 26.28 33.1388 23.428 33.7168 21.334Z" fill="#F4900C"/>
<path d="M33.717 21.334C33.717 21.334 31.984 23.5 30.568 24.687C29.632 25.472 27.631 26.868 26.172 27.58C24.692 28.302 21.857 29.231 19.854 29.529C18.157 29.782 15.509 30.055 14.619 30.251C13.76 30.44 13.332 30.709 13.572 31.009C13.934 31.461 14.808 31.349 16.135 31.181C19.249 30.787 22.067 30.193 24.472 29.204C26.929 28.193 29.348 26.93 30.323 25.774C31.298 24.618 32.673 23.319 33.717 21.334Z" fill="#BF6952"/>
<path d="M22.8502 3.96912C22.1692 5.32912 20.1372 8.48612 19.0002 10.3951C17.6472 12.6661 15.8832 15.4131 14.9262 18.0001C14.6312 18.7981 13.9912 21.7681 14.1072 22.4661C14.6672 22.1951 15.0002 22.0001 15.0002 22.0001C15.0002 22.0001 16.1722 19.7451 17.1822 18.1931C18.1932 16.6411 21.5862 10.7201 22.8502 8.62612C24.1142 6.53212 24.6132 4.46612 24.4382 3.40812C24.1862 1.87312 23.3522 2.96712 22.8502 3.96912Z" fill="#F4900C"/>
<path d="M22.8858 5.73795C22.1718 7.22695 20.1748 10.3949 19.2488 12.1639C18.3228 13.933 15.8288 18.3119 14.8358 20.8279C14.6588 21.2769 14.4768 21.805 14.4058 22.3169C14.8188 22.1099 14.9998 22 14.9998 22C14.9998 22 16.1718 19.745 17.1818 18.193C18.1928 16.641 21.5858 10.72 22.8498 8.62595C23.8238 7.01195 24.3388 5.41995 24.4458 4.28895C24.1588 2.97695 23.3568 4.75595 22.8858 5.73795Z" fill="#BF6952"/>
<path d="M29.0691 25.8149C28.1421 26.4619 27.0581 27.1469 26.1711 27.5789C25.1711 28.0669 23.5561 28.6439 21.9941 29.0629L21.9951 29.0659C21.9951 29.0659 24.4861 34.5929 27.9641 35.8349L34.0321 29.9799C34.0321 29.9799 30.1751 27.3279 29.0691 25.8149Z" fill="#CCD6DD"/>
<path d="M25.4541 27.8999C25.3051 27.9619 25.1491 28.0249 24.9871 28.0879C24.8651 28.1359 24.7401 28.1829 24.6131 28.2299C24.4891 28.2759 24.3641 28.3219 24.2351 28.3679C24.0891 28.4199 23.9421 28.4699 23.7911 28.5209L23.6461 28.5689C23.1061 28.7479 22.5501 28.9149 21.9941 29.0639L21.9951 29.0669C21.9951 29.0669 22.1461 29.4009 22.4231 29.9199C23.1331 29.7059 23.8201 29.4719 24.4721 29.2039C26.4651 28.3839 28.4181 27.3989 29.6111 26.4389C29.3951 26.2179 29.2101 26.0069 29.0691 25.8149L29.0671 25.8169C28.8551 25.9649 28.6351 26.1139 28.4101 26.2629L28.2551 26.3639C28.0791 26.4789 27.9031 26.5909 27.7251 26.7019L27.5171 26.8309C27.3501 26.9319 27.1871 27.0279 27.0241 27.1219L26.8191 27.2399C26.5961 27.3639 26.3781 27.4809 26.1721 27.5809C26.0101 27.6599 25.8261 27.7419 25.6341 27.8249L25.4541 27.8999Z" fill="#9AAAB4"/>
</svg>
