<svg width="36" height="36" viewBox="0 0 36 36" fill="none" xmlns="http://www.w3.org/2000/svg">
<g clip-path="url(#clip0)">
<path d="M18 36C27.9411 36 36 31.5228 36 26C36 20.4772 27.9411 16 18 16C8.05887 16 0 20.4772 0 26C0 31.5228 8.05887 36 18 36Z" fill="#99AAB5"/>
<path d="M18 34C27.9411 34 36 29.5228 36 24C36 18.4772 27.9411 14 18 14C8.05887 14 0 18.4772 0 24C0 29.5228 8.05887 34 18 34Z" fill="#CCD6DD"/>
<path d="M18 31C3.042 31 1 16 1 12H35C35 14 33.042 31 18 31Z" fill="#F5F8FA"/>
<path d="M34.385 9.64395C36.827 -0.479053 24.604 1.93795 22.181 3.84495C20.841 3.69695 19.445 3.61095 18 3.61095C8.611 3.61095 1 6.83995 1 12.0549C1 17.2709 8.611 21.4999 18 21.4999C27.389 21.4999 35 17.2709 35 12.0559C35 11.1929 34.774 10.3919 34.385 9.64395ZM31.882 6.95195C30.525 6.01395 28.78 5.25795 26.761 4.70195C28.636 4.12595 31.312 4.39295 31.882 6.95195Z" fill="#CCD6DD"/>
<path d="M18 20C26.2843 20 33 16.866 33 13C33 9.13401 26.2843 6 18 6C9.71573 6 3 9.13401 3 13C3 16.866 9.71573 20 18 20Z" fill="#8A4B38"/>
<path d="M19.9998 17C19.7438 17 19.4878 16.902 19.2928 16.707C16.9558 14.37 16.9168 11.822 19.1678 8.44502C19.9068 7.33602 20.0678 6.19902 19.6458 5.06802C19.1848 3.83202 18.2078 3.07202 17.9148 2.99102C17.3618 2.99102 16.9568 2.54802 16.9568 1.99502C16.9568 1.44302 17.4478 1.00002 17.9998 1.00002C18.9968 1.00002 20.3948 2.15302 21.1828 3.62502C22.2168 5.55802 22.0928 7.66402 20.8318 9.55402C18.8708 12.496 19.3008 13.886 20.7068 15.292C21.0978 15.683 21.0978 16.315 20.7068 16.706C20.5118 16.902 20.2558 17 19.9998 17ZM13.9998 15C13.7438 15 13.4878 14.902 13.2928 14.707C10.9558 12.37 10.9168 9.82202 13.1678 6.44502C13.8948 5.35402 14.0608 4.36202 13.6618 3.49802C13.2178 2.53702 12.2308 2.02902 11.9778 1.99902C11.4258 1.99902 10.9888 1.55202 10.9888 0.999023C10.9888 0.447023 11.4468 -0.000976562 11.9998 -0.000976562C12.9968 -0.000976562 14.5848 0.973023 15.3598 2.42202C15.8408 3.32102 16.4118 5.18302 14.8318 7.55302C12.8708 10.495 13.3008 11.885 14.7068 13.291C15.0978 13.682 15.0978 14.314 14.7068 14.705C14.5118 14.902 14.2558 15 13.9998 15Z" fill="#D99E82"/>
</g>
<defs>
<clipPath id="clip0">
<rect width="36" height="36" fill="white"/>
</clipPath>
</defs>
</svg>
