<svg width="36" height="36" viewBox="0 0 36 36" fill="none" xmlns="http://www.w3.org/2000/svg">
<path d="M16 9H20V26H16V9Z" fill="#99AAB5"/>
<path d="M10 24.5C10 25.328 9.328 26 8.5 26H5.5C4.672 26 4 25.328 4 24.5C4 23.672 4.672 23 5.5 23H8.5C9.328 23 10 23.672 10 24.5Z" fill="#DA2F47"/>
<path d="M34 33C34 34.104 33.104 35 32 35H4C2.896 35 2 34.104 2 33V27C2 25.896 2.896 25 4 25H32C33.104 25 34 25.896 34 27V33Z" fill="#31373D"/>
<path d="M10 34.5C10 35.328 9.329 36 8.5 36H5.5C4.671 36 4 35.328 4 34.5C4 33.672 4.671 33 5.5 33H8.5C9.329 33 10 33.672 10 34.5ZM32 34.5C32 35.328 31.328 36 30.5 36H27.5C26.672 36 26 35.328 26 34.5C26 33.672 26.672 33 27.5 33H30.5C31.328 33 32 33.672 32 34.5Z" fill="#31373D"/>
<path d="M18 12C20.7614 12 23 9.76142 23 7C23 4.23858 20.7614 2 18 2C15.2386 2 13 4.23858 13 7C13 9.76142 15.2386 12 18 12Z" fill="#DA2F47"/>
<path d="M25 26C25 27.104 24.104 28 23 28H13C11.896 28 11 27.104 11 26V25C11 23.896 14.896 19 16 19H20C21.104 19 25 23.896 25 25V26Z" fill="#31373D"/>
<path d="M33 28C33 28.553 32.553 29 32 29H4C3.448 29 3 28.553 3 28C3 27.447 3.448 27 4 27H32C32.553 27 33 27.447 33 28Z" fill="#66757F"/>
</svg>
