<svg width="36" height="36" viewBox="0 0 36 36" fill="none" xmlns="http://www.w3.org/2000/svg">
<path d="M19.4689 8.319L15.6149 3.648C15.2599 3.218 14.6239 3.157 14.1939 3.512L10.8179 6.297L15.9559 12.525L19.3319 9.74C19.7629 9.385 19.8239 8.749 19.4689 8.319Z" fill="#CCD6DD"/>
<path d="M29.5431 25.0211L23.3151 19.8831C23.3151 19.8831 20.9201 23.0151 18.3091 26.0351C16.3231 28.3331 12.2161 28.2501 9.90315 25.9371C7.59015 23.6241 7.50815 19.5171 9.80515 17.5311C12.8251 14.9201 15.9571 12.5251 15.9571 12.5251L10.8191 6.29712C10.8191 6.29712 5.69715 10.2251 4.20615 11.7271C-1.26185 17.2351 -1.28085 26.1451 4.20715 31.6331C9.69515 37.1211 18.6051 37.1011 24.1131 31.6341C25.6151 30.1431 29.5431 25.0211 29.5431 25.0211Z" fill="#BE1931"/>
<path d="M27.5209 16.3711L32.1919 20.2251C32.6219 20.5801 32.6829 21.2161 32.3279 21.6461L29.5429 25.0221L23.3149 19.8841L26.0999 16.5081C26.4549 16.0771 27.0919 16.0161 27.5209 16.3711Z" fill="#CCD6DD"/>
<path d="M23.7169 4.22302L21.9599 2.43002L23.8959 0.535018C23.9019 0.529018 23.8999 0.520018 23.9049 0.514018C23.9209 0.495018 23.9259 0.475018 23.9319 0.451018C23.9389 0.427018 23.9449 0.407018 23.9419 0.383018C23.9409 0.375018 23.9469 0.368018 23.9459 0.360018C23.9419 0.343018 23.9259 0.336018 23.9179 0.322018C23.9099 0.306018 23.9129 0.287018 23.8999 0.274018C23.8939 0.268018 23.8849 0.270018 23.8779 0.265018C23.8579 0.249018 23.8359 0.244018 23.8109 0.237018C23.7889 0.231018 23.7699 0.225018 23.7479 0.227018C23.7399 0.228018 23.7319 0.221018 23.7239 0.223018L18.5879 1.48002C18.5239 1.49602 18.4729 1.54502 18.4539 1.60902C18.4359 1.67302 18.4539 1.74202 18.4999 1.78902L20.2569 3.58302L18.3219 5.47902C18.3159 5.48502 18.3179 5.49402 18.3129 5.50002C18.2969 5.51902 18.2919 5.54002 18.2849 5.56402C18.2779 5.58802 18.2719 5.60702 18.2749 5.63102C18.2759 5.63902 18.2689 5.64602 18.2709 5.65502C18.2769 5.68002 18.2939 5.69802 18.3089 5.71702C18.3139 5.72402 18.3119 5.73302 18.3179 5.74002L18.3289 5.75102C18.3709 5.78702 18.4239 5.79502 18.4759 5.78702C18.4829 5.78602 18.4869 5.79302 18.4939 5.79102L23.6279 4.53402C23.6919 4.51802 23.7429 4.46902 23.7619 4.40502C23.7799 4.33902 23.7619 4.27002 23.7169 4.22302ZM21.5619 2.56202L21.5669 2.55702L21.5619 2.56202ZM35.8279 15.105L33.7729 13.662L35.3299 11.445C35.3349 11.438 35.3309 11.43 35.3349 11.423C35.3469 11.401 35.3479 11.381 35.3499 11.356C35.3519 11.331 35.3549 11.311 35.3479 11.287C35.3459 11.279 35.3509 11.272 35.3469 11.264C35.3399 11.248 35.3229 11.244 35.3129 11.231C35.3019 11.217 35.3009 11.199 35.2859 11.188C35.2789 11.183 35.2699 11.187 35.2629 11.183C35.2399 11.171 35.2179 11.17 35.1919 11.168C35.1689 11.166 35.1489 11.164 35.1279 11.17C35.1199 11.172 35.1119 11.167 35.1039 11.171L30.2849 13.344C30.2249 13.371 30.1839 13.429 30.1769 13.495C30.1709 13.561 30.2019 13.626 30.2549 13.664L32.3099 15.107L30.7539 17.324C30.7489 17.331 30.7529 17.339 30.7489 17.346C30.7369 17.368 30.7359 17.389 30.7339 17.414C30.7319 17.438 30.7289 17.459 30.7359 17.482C30.7379 17.49 30.7329 17.498 30.7369 17.506C30.7479 17.529 30.7679 17.544 30.7859 17.56C30.7919 17.566 30.7919 17.575 30.7989 17.58L30.8119 17.588C30.8599 17.616 30.9139 17.614 30.9629 17.596C30.9689 17.594 30.9749 17.6 30.9809 17.597L35.7989 15.423C35.8589 15.396 35.8999 15.338 35.9069 15.272C35.9109 15.208 35.8809 15.143 35.8279 15.105ZM33.4059 13.865L33.4099 13.859L33.4059 13.865Z" fill="#FFAC33"/>
</svg>
