<svg width="36" height="36" viewBox="0 0 36 36" fill="none" xmlns="http://www.w3.org/2000/svg">
<path d="M36 25V4C36 4 36 0 32 0H4C4 0 0 0 0 4V24.922L36 25Z" fill="#88C9F9"/>
<path d="M27 10H22L17 24H36V5C35 5 30.581 5.419 29 7C28 8 28 9 27 10Z" fill="#292F33"/>
<path d="M24 11C25 10 26.497 10.502 27 10C27.51 9.49005 27.76 8.98105 28.015 8.47105C24.278 8.35005 21.185 8.52605 20 9.00005C15 11 16 20 9 25C9 25 14 26.999 18 23C20.621 20.378 21.21 13.79 24 11Z" fill="#66757F"/>
<path d="M4 36H32C36 36 36 32 36 32V23H0V32C0 36 4 36 4 36Z" fill="#5C913B"/>
<path d="M28 23C28 24 18 24 18 26C18 28 22 28 22 29C22 30 8.083 32 8 36H25C25 34 30 33 30 30C30 27 23 27 23 26C23 25 30 24 30 23H28Z" fill="#55ACEE"/>
<path d="M28 23V18C28 11 30 10 30 10H31C31 10 30 11 30 17V23H28Z" fill="#226699"/>
<path d="M11.5301 28.5031C11.5301 29.6061 10.6371 30.0001 9.53409 30.0001C8.43209 30.0001 7.53809 29.6051 7.53809 28.5031L8.03709 24.0141C8.03709 22.9121 8.43209 23.0171 9.53409 23.0171C10.6371 23.0171 11.0311 22.9131 11.0311 24.0141L11.5301 28.5031Z" fill="#662113"/>
<path d="M16.2221 25.658C15.9701 25.442 15.7321 25.218 15.5011 24.991C15.4191 24.833 15.2981 24.666 15.0951 24.479C14.9161 24.315 14.7431 24.145 14.5741 23.973C15.5941 23.827 16.0341 23.301 15.0951 22.497C14.7881 22.234 14.4981 21.957 14.2201 21.674C14.3421 21.475 14.2641 21.206 13.8761 20.873C13.7481 20.764 13.6241 20.651 13.5031 20.537C14.2761 20.417 14.5991 20.007 13.8761 19.388C13.6551 19.198 13.4461 18.999 13.2441 18.796C13.4311 18.632 13.4091 18.385 13.0381 18.068C12.9601 18.001 12.8921 17.928 12.8171 17.859C13.3791 17.746 13.5941 17.426 13.0381 16.949C12.6861 16.647 12.3721 16.317 12.0781 15.985C12.4571 15.894 12.5931 15.667 12.2341 15.337C12.4971 15.22 12.5481 15.004 12.2011 14.707C10.9211 13.611 10.2021 12.041 9.53507 12.041C8.86807 12.041 8.14907 13.611 6.87007 14.707C6.52307 15.005 6.57407 15.221 6.83707 15.337C6.47807 15.667 6.61407 15.894 6.99307 15.985C6.69907 16.317 6.38507 16.647 6.03307 16.949C5.47707 17.426 5.69207 17.745 6.25407 17.859C6.17907 17.928 6.11107 18.001 6.03307 18.068C5.66207 18.386 5.64007 18.632 5.82707 18.796C5.62507 18.999 5.41707 19.198 5.19507 19.388C4.47207 20.007 4.79507 20.417 5.56807 20.537C5.44707 20.652 5.32307 20.764 5.19507 20.873C4.80707 21.206 4.72807 21.475 4.85107 21.674C4.57307 21.957 4.28307 22.234 3.97607 22.497C3.03707 23.301 3.47707 23.828 4.49707 23.973C4.32807 24.145 4.15507 24.315 3.97607 24.479C3.77307 24.665 3.65207 24.833 3.57007 24.99C3.33907 25.218 3.10007 25.442 2.84807 25.658C1.38907 26.909 2.08307 27.633 4.08407 27.488C5.86807 27.359 7.53607 26.954 9.53507 26.954C11.5341 26.954 13.2021 27.359 14.9861 27.488C16.9861 27.633 17.6821 26.909 16.2221 25.658Z" fill="#3E721D"/>
<path d="M11.314 3.6779C11.04 3.6779 10.775 3.7199 10.527 3.7969C10.231 2.9539 9.431 2.3479 8.487 2.3479C7.474 2.3479 6.627 3.0449 6.391 3.9849C6.141 3.7959 5.832 3.6789 5.493 3.6789C4.666 3.6789 3.996 4.3489 3.996 5.1759C3.996 5.3769 4.037 5.5679 4.11 5.7429C3.966 5.7029 3.818 5.6749 3.664 5.6749C2.744 5.6739 2 6.4179 2 7.3369C2 8.2559 2.744 8.9999 3.663 8.9999H11.313C12.782 8.9999 13.974 7.8089 13.974 6.3389C13.975 4.8699 12.782 3.6779 11.314 3.6779Z" fill="#F5F8FA"/>
</svg>
