<svg width="36" height="36" viewBox="0 0 36 36" fill="none" xmlns="http://www.w3.org/2000/svg">
<path d="M32 0H4C1.791 0 0 1.791 0 4V26H36V4C36 1.791 34.209 0 32 0Z" fill="#226699"/>
<path d="M10 36V7L14 3H16L20 7V36H10ZM33 11C33 10 32 10 32 10H25C25 10 24 10 24 11V36H33V11Z" fill="#3F484C"/>
<path d="M28 19C28 18 27 18 27 18H19C18 18 18 19 18 19V36H28V19ZM11 21H6V14C6 14 6 13 5 13H0V32C0 34.209 1.791 36 4 36H12V22C12 22 12 21 11 21ZM32 25C31 25 31 26 31 26V36H32C34.209 36 36 34.209 36 32V25H32Z" fill="#292F33"/>
<path d="M8 31H10V33H8V31ZM8 23H10V25H8V23ZM6 27H8V29H6V27ZM16 9H18V11H16V9ZM16 13H18V15H16V13ZM14 17H16V19H14V17ZM24 20H26V22H24V20ZM22 24H24V26H22V24ZM20 30H22V32H20V30ZM29 12H31V14H29V12ZM29 16H31V18H29V16Z" fill="#FFCC4D"/>
<path d="M10.5 3C10.7761 3 11 2.77614 11 2.5C11 2.22386 10.7761 2 10.5 2C10.2239 2 10 2.22386 10 2.5C10 2.77614 10.2239 3 10.5 3Z" fill="white"/>
<path d="M7.5 12C7.77614 12 8 11.7761 8 11.5C8 11.2239 7.77614 11 7.5 11C7.22386 11 7 11.2239 7 11.5C7 11.7761 7.22386 12 7.5 12Z" fill="white"/>
<path d="M22 6C22.5523 6 23 5.55228 23 5C23 4.44772 22.5523 4 22 4C21.4477 4 21 4.44772 21 5C21 5.55228 21.4477 6 22 6Z" fill="white"/>
<path d="M26.5 6C26.7761 6 27 5.77614 27 5.5C27 5.22386 26.7761 5 26.5 5C26.2239 5 26 5.22386 26 5.5C26 5.77614 26.2239 6 26.5 6Z" fill="white"/>
<path d="M31 4C31.5523 4 32 3.55228 32 3C32 2.44772 31.5523 2 31 2C30.4477 2 30 2.44772 30 3C30 3.55228 30.4477 4 31 4Z" fill="white"/>
<path d="M31.5 8C31.7761 8 32 7.77614 32 7.5C32 7.22386 31.7761 7 31.5 7C31.2239 7 31 7.22386 31 7.5C31 7.77614 31.2239 8 31.5 8Z" fill="white"/>
<path d="M6.5 7C5.119 7 4 5.881 4 4.5C4 3.37 4.755 2.426 5.784 2.117C5.533 2.048 5.273 2 5 2C3.343 2 2 3.343 2 5C2 6.657 3.343 8 5 8C5.959 8 6.803 7.542 7.353 6.841C7.085 6.938 6.801 7 6.5 7Z" fill="white"/>
</svg>
