<svg width="36" height="36" viewBox="0 0 36 36" fill="none" xmlns="http://www.w3.org/2000/svg">
<g clip-path="url(#clip0)">
<path d="M9.99987 12C12.9999 17 9.99986 22.692 6.99986 21.692C3.99986 20.692 2.99986 23.692 5.99986 24.692C8.99986 25.692 15.4649 24.227 18.9999 20.692C19.9999 19.692 20.9999 19.692 20.9999 19.692L9.99987 12Z" fill="#553788"/>
<path d="M26 12C23 17 26 22.692 29 21.692C32 20.692 33 23.692 30 24.692C27 25.692 20.535 24.227 17 20.692C16 19.692 15 19.692 15 19.692L26 12Z" fill="#553788"/>
<path d="M30.1879 16C27.1879 21 30.1879 26.692 33.1879 25.692C36.1879 24.692 37.1879 27.692 34.1879 28.692C31.1879 29.692 24.7229 28.227 21.1879 24.692C20.1879 23.692 19.1879 23.692 19.1879 23.692L30.1879 16ZM5.81188 16C8.81188 21 5.81188 26.692 2.81188 25.692C-0.188123 24.692 -1.18812 27.692 1.81188 28.692C4.81188 29.692 11.2769 28.227 14.8119 24.692C15.8119 23.692 16.8119 23.692 16.8119 23.692L5.81188 16Z" fill="#744EAA"/>
<path d="M33.1879 31.375C30.4589 32.285 26.7629 25.749 28.3759 20.797C30.0219 17.554 30.9999 13.94 30.9999 11C30.9999 3.82 25.1799 0 17.9999 0C10.8199 0 4.99988 3.82 4.99988 11C4.99988 13.94 5.97788 17.554 7.62388 20.797C9.23688 25.749 5.54088 32.285 2.81188 31.375C-0.188123 30.375 -1.18812 34.375 1.81188 35.375C4.81188 36.375 10.1219 34.748 13.8119 31.375C16.0009 29.375 18.0009 29.375 18.0009 29.375C18.0009 29.375 20.0009 29.375 22.1889 31.375C25.8789 34.748 31.1889 36.375 34.1889 35.375C37.1889 34.375 36.1879 30.375 33.1879 31.375Z" fill="#9266CC"/>
<path d="M14 23C15.1046 23 16 22.1046 16 21C16 19.8954 15.1046 19 14 19C12.8954 19 12 19.8954 12 21C12 22.1046 12.8954 23 14 23Z" fill="#292F33"/>
<path d="M22 23C23.1046 23 24 22.1046 24 21C24 19.8954 23.1046 19 22 19C20.8954 19 20 19.8954 20 21C20 22.1046 20.8954 23 22 23Z" fill="#292F33"/>
</g>
<defs>
<clipPath id="clip0">
<rect width="36" height="36" fill="white"/>
</clipPath>
</defs>
</svg>
