<svg width="36" height="36" viewBox="0 0 36 36" fill="none" xmlns="http://www.w3.org/2000/svg">
<path d="M36 32C36 20 34 4 18 4C2 4 0 20 0 32H8V27C8 26 9 26 9 27C9 34 13 33 13 33L15 35L16 34C16 33.448 17.448 33 18 33C18.552 33 20 33.448 20 34L21 35L23 33C23 33 27 34 27 27C27 26 28 26 28 27V32H36Z" fill="#E26000"/>
<path d="M18 25C24.3513 25 29.5 19.8513 29.5 13.5C29.5 7.14873 24.3513 2 18 2C11.6487 2 6.5 7.14873 6.5 13.5C6.5 19.8513 11.6487 25 18 25Z" fill="#E26000"/>
<path d="M32 31C29 31 28 32 28 32V33C28 33.552 28.448 34 29 34C29.552 34 30 33.552 30 33C30 33.552 30.448 34 31 34C31.552 34 32 33.552 32 33C32 33.552 32.448 34 33 34C33.552 34 34 33.552 34 33C34 33.552 34.448 34 35 34C35.552 34 36 33.552 36 33V32C36 32 35 31 32 31ZM4 31C1 31 0 32 0 32V33C0 33.552 0.448 34 1 34C1.552 34 2 33.552 2 33C2 33.552 2.448 34 3 34C3.552 34 4 33.552 4 33C4 33.552 4.448 34 5 34C5.552 34 6 33.552 6 33C6 33.552 6.448 34 7 34C7.552 34 8 33.552 8 33V32C8 32 7 31 4 31Z" fill="#D9B981"/>
<path d="M6.5 19.607C6.5 25.051 14.167 27 18 27C21.833 27 29.5 25.051 29.5 19.607C29.5 17.241 28.526 15.071 26.905 13.372C26.928 13.128 26.945 12.881 26.945 12.625C26.944 7.862 24.9 4 18 4C11.1 4 9.056 7.862 9.056 12.625C9.056 12.881 9.073 13.128 9.096 13.372C7.474 15.071 6.5 17.241 6.5 19.607Z" fill="#C45400"/>
<path d="M8 17.571C8 22.305 14.667 24 18 24C21.333 24 28 22.305 28 17.571C28 15.514 27.153 13.627 25.743 12.149C25.763 11.937 25.778 11.722 25.778 11.499C25.778 7.358 24 4 18 4C12 4 10.222 7.358 10.222 11.5C10.222 11.723 10.237 11.938 10.257 12.15C8.847 13.627 8 15.514 8 17.571Z" fill="#D9B981"/>
<path d="M16 12C16.5523 12 17 11.5523 17 11C17 10.4477 16.5523 10 16 10C15.4477 10 15 10.4477 15 11C15 11.5523 15.4477 12 16 12Z" fill="#292F33"/>
<path d="M20 12C20.5523 12 21 11.5523 21 11C21 10.4477 20.5523 10 20 10C19.4477 10 19 10.4477 19 11C19 11.5523 19.4477 12 20 12Z" fill="#292F33"/>
<path d="M12.6699 11.073C12.6279 11.073 12.5859 11.068 12.5429 11.057C12.2759 10.987 12.1159 10.714 12.1859 10.447C12.6739 8.57999 14.5909 7.45899 16.4569 7.94399C16.7239 8.01399 16.8839 8.28699 16.8139 8.55399C16.7439 8.82099 16.4709 8.97799 16.2039 8.91099C14.8719 8.56399 13.5019 9.36599 13.1539 10.699C13.0949 10.924 12.8919 11.073 12.6699 11.073ZM23.3299 11.073C23.1069 11.073 22.9049 10.924 22.8469 10.699C22.6779 10.053 22.2679 9.51099 21.6919 9.17399C21.1159 8.83499 20.4429 8.74199 19.7959 8.91199C19.5269 8.98099 19.2559 8.82099 19.1869 8.55499C19.1169 8.28699 19.2769 8.01399 19.5439 7.94499C20.4449 7.70899 21.3899 7.83899 22.1969 8.31199C23.0039 8.78499 23.5779 9.54299 23.8129 10.448C23.8829 10.715 23.7229 10.988 23.4559 11.058C23.4139 11.067 23.3709 11.073 23.3299 11.073Z" fill="#FFE8B6"/>
<path d="M13 5L15 8L16 7L18 10L20 7L21 8L23 5C23 5 21 4 18 4C15 4 13 5 13 5Z" fill="#C09154"/>
<path d="M13 5L15 7L16 5L18 8L20 5L21 7L23 5C23 5 21 3 18 3C15 3 13 5 13 5Z" fill="#E26000"/>
<path d="M17.5 14C17.7761 14 18 13.7761 18 13.5C18 13.2239 17.7761 13 17.5 13C17.2239 13 17 13.2239 17 13.5C17 13.7761 17.2239 14 17.5 14Z" fill="#C09154"/>
<path d="M18.5 14C18.7761 14 19 13.7761 19 13.5C19 13.2239 18.7761 13 18.5 13C18.2239 13 18 13.2239 18 13.5C18 13.7761 18.2239 14 18.5 14Z" fill="#C09154"/>
<path d="M17.9998 21.0001C14.3348 21.0001 12.7138 19.4211 12.6458 19.3541C12.4508 19.1591 12.4508 18.8421 12.6458 18.6471C12.8408 18.4531 13.1558 18.4521 13.3508 18.6451C13.3648 18.6581 14.7828 20.0001 17.9998 20.0001C21.2178 20.0001 22.6348 18.6581 22.6478 18.6441C22.8448 18.4531 23.1618 18.4551 23.3538 18.6501C23.5468 18.8451 23.5468 19.1591 23.3528 19.3531C23.2858 19.4211 21.6648 21.0001 17.9998 21.0001Z" fill="#292F33"/>
<path d="M17.2948 33.0001C17.0598 35.2241 12.2948 37.0001 11.2948 35.0001C11.0478 34.5061 8.95378 30.0641 8.75978 29.5471C8.56578 29.0301 8.82778 28.4531 9.34578 28.2601C9.86378 28.0671 10.4398 28.3281 10.6328 28.8461C10.4388 28.3291 10.7008 27.7521 11.2188 27.5591C11.7358 27.3651 12.3128 27.6271 12.5058 28.1451C12.3118 27.6281 12.5738 27.0511 13.0918 26.8581C13.6088 26.6641 14.1858 26.9261 14.3788 27.4441C14.1848 26.9271 14.4468 26.3501 14.9648 26.1571C15.4828 25.9641 16.0588 26.2251 16.2518 26.7431C16.4448 27.2571 17.3998 32.0061 17.2948 33.0001ZM18.7048 33.0001C18.9398 35.2241 23.7048 37.0001 24.7048 35.0001C24.9518 34.5061 27.0458 30.0641 27.2398 29.5471C27.4338 29.0301 27.1718 28.4531 26.6538 28.2601C26.1358 28.0671 25.5598 28.3281 25.3668 28.8461C25.5608 28.3291 25.2988 27.7521 24.7808 27.5591C24.2638 27.3651 23.6868 27.6271 23.4938 28.1451C23.6878 27.6281 23.4258 27.0511 22.9078 26.8581C22.3908 26.6641 21.8138 26.9261 21.6208 27.4441C21.8148 26.9271 21.5528 26.3501 21.0348 26.1571C20.5168 25.9641 19.9408 26.2251 19.7478 26.7431C19.5548 27.2571 18.5998 32.0061 18.7048 33.0001Z" fill="#D9B981"/>
</svg>
