<svg width="36" height="36" viewBox="0 0 36 36" fill="none" xmlns="http://www.w3.org/2000/svg">
<path d="M7.31692 11C1.59392 20.083 8.27492 29 8.27492 29C8.27492 29 11.1489 28.558 15.1499 23.8C19.1499 19.042 7.31692 11 7.31692 11ZM28.6589 11C34.3819 20.083 27.7009 29 27.7009 29C27.7009 29 24.8269 28.558 20.8259 23.8C16.8249 19.042 28.6589 11 28.6589 11Z" fill="#662113"/>
<path d="M15.2031 31.557C15.0801 31.328 14.8861 31.1731 14.6721 31.0611C12.6401 28.8891 14.0831 26.344 14.0831 26.344C14.0831 25.641 15.3541 23.8 14.0831 23.8L12.8111 25.0721C11.5391 26.3431 11.5391 30.161 11.5391 30.161H8.99514C8.29214 30.161 7.72314 30.7291 7.72314 31.4331C7.72314 32.1341 8.29214 32.704 8.99514 32.704H10.4031L10.1211 32.857C9.50314 33.191 9.27314 33.962 9.60714 34.583C9.94114 35.199 10.7131 35.431 11.3311 35.097L14.6881 33.281C15.3071 32.947 15.5341 32.176 15.2031 31.557ZM20.7991 31.557C20.9221 31.328 21.1161 31.1731 21.3291 31.0611C23.3621 28.8891 21.9181 26.344 21.9181 26.344C21.9181 25.641 20.6471 23.8 21.9181 23.8L23.1901 25.0721C24.4631 26.3431 24.4631 30.161 24.4631 30.161H27.0071C27.7111 30.161 28.2781 30.7291 28.2781 31.4331C28.2781 32.1341 27.7121 32.704 27.0071 32.704H25.5991L25.8801 32.857C26.5001 33.191 26.7281 33.962 26.3951 34.583C26.0591 35.199 25.2901 35.431 24.6691 35.097L21.3131 33.281C20.6941 32.947 20.4661 32.176 20.7991 31.557Z" fill="#FFAC33"/>
<path d="M28.2782 11.292C31.1692 5.2 28.2782 0.75 28.2782 0.75C28.2782 0.75 22.4972 1.709 21.5342 3.625C20.3152 6.049 28.2782 11.292 28.2782 11.292Z" fill="#662113"/>
<path d="M29.562 12.738C29.562 23.035 26.41 33.333 18 33.333C9.59101 33.333 6.43701 23.035 6.43701 12.738C6.43701 2.44001 11.614 2.08301 18 2.08301C24.387 2.08301 29.562 2.44001 29.562 12.738Z" fill="#662113"/>
<path d="M27.666 17.7379C27.666 28.0349 19.892 32.3329 18 32.3329C16.108 32.3329 8.33398 28.0349 8.33398 17.7379C8.33398 7.4399 27.666 7.4399 27.666 17.7379Z" fill="#C1694F"/>
<path d="M7.7219 11.292C4.8309 5.2 7.7219 0.75 7.7219 0.75C7.7219 0.75 13.5039 1.709 14.4679 3.625C15.6859 6.049 7.7219 11.292 7.7219 11.292Z" fill="#662113"/>
<path d="M14.9288 4.373C10.7018 2.789 7.72182 0.75 7.72182 0.75C7.72182 0.75 5.64582 3.971 6.79382 8.676C7.23982 10.813 8.73381 12.871 10.6978 13.338C13.3348 13.965 17.9998 13.289 17.9998 9.375C17.9998 6.68 16.9258 5.123 14.9288 4.373ZM21.0708 4.373C25.2978 2.789 28.2768 0.75 28.2768 0.75C28.2768 0.75 30.3528 3.971 29.2048 8.676C28.7598 10.813 27.2658 12.871 25.3028 13.338C22.6648 13.965 17.9998 13.289 17.9998 9.375C17.9998 6.68 19.0738 5.123 21.0708 4.373Z" fill="#C1694F"/>
<path d="M16.083 8.41698C16.083 10.534 14.367 12.25 12.25 12.25C10.133 12.25 8.41699 10.534 8.41699 8.41698C8.41699 6.29998 10.134 4.58398 12.25 4.58398C14.367 4.58298 16.083 6.29998 16.083 8.41698ZM27.583 8.41698C27.583 10.534 25.867 12.25 23.75 12.25C21.633 12.25 19.917 10.534 19.917 8.41698C19.917 6.29998 21.633 4.58398 23.75 4.58398C25.867 4.58398 27.583 6.29998 27.583 8.41698Z" fill="#FFD983"/>
<path d="M14.167 8.417C14.167 9.476 13.309 10.334 12.25 10.334C11.191 10.334 10.333 9.476 10.333 8.417C10.333 7.359 11.191 6.5 12.25 6.5C13.309 6.5 14.167 7.358 14.167 8.417ZM25.667 8.417C25.667 9.476 24.809 10.334 23.75 10.334C22.691 10.334 21.833 9.476 21.833 8.417C21.833 7.359 22.691 6.5 23.75 6.5C24.809 6.5 25.667 7.358 25.667 8.417Z" fill="#292F33"/>
<path d="M20.875 12.729C20.875 15.111 18 16.083 18 16.083C18 16.083 15.125 15.11 15.125 12.729C15.125 10.348 18 9.375 18 9.375C18 9.375 20.875 10.347 20.875 12.729Z" fill="#FFCC4D"/>
<path d="M20.875 12.729C20.875 15.111 18 16.083 18 16.083C18 16.083 15.125 15.11 15.125 12.729C16.323 13.927 18 14.167 18 14.167C18 14.167 19.677 13.927 20.875 12.729Z" fill="#F4900C"/>
</svg>
