<svg width="36" height="36" viewBox="0 0 36 36" fill="none" xmlns="http://www.w3.org/2000/svg">
<g clip-path="url(#clip0)">
<path d="M3 26H11V36H3V26ZM25 26H33V36H25V26Z" fill="#FFDC5D"/>
<path d="M33 28.7202C33 28.7202 30 30.7202 25 29.7202V24.7202H33V28.7202ZM3 28.7202C3 28.7202 6 30.7202 11 29.7202V24.7202H3V28.7202Z" fill="#F9CA55"/>
<path d="M3.98291 18.604H11.9829V26.604H3.98291V18.604ZM24.0059 18.104H32.0059V26.104H24.0059V18.104Z" fill="#EF9645"/>
<path d="M0.372812 11.835C0.372812 11.835 0.375812 10.61 1.59981 10.613C2.82581 10.617 2.82181 11.842 2.82181 11.842L2.80281 17.526C2.99781 17.436 3.20181 17.355 3.41581 17.285L3.44081 9.39598C3.44081 9.39598 3.44481 8.17098 4.66781 8.17498C5.89181 8.17798 5.88881 9.40398 5.88881 9.40398L5.86781 16.824C6.06681 16.806 6.27181 16.792 6.47781 16.782L6.50581 8.17998C6.50581 8.17998 6.50881 6.95498 7.73381 6.95998C8.95881 6.96398 8.95381 8.18898 8.95381 8.18898L8.92581 16.789C9.13581 16.801 9.33781 16.822 9.53981 16.841L9.56481 8.80198C9.56481 8.80198 9.56881 7.57698 10.7918 7.58198C12.0158 7.58498 12.0108 8.80898 12.0108 8.80898L11.9868 17.31L11.9838 17.991V18.602C8.30981 18.593 5.85081 21.644 5.83981 24.706C5.83981 25.318 6.45181 25.322 6.45181 25.322C6.46181 21.644 8.91881 19.207 12.5938 19.218L14.3948 15.03C14.3948 15.03 14.7898 13.871 15.9508 14.268C17.1088 14.66 16.7158 15.821 16.7158 15.821L15.8228 18.926C15.4688 20.16 15.1378 21.402 14.9638 22.67C14.4658 26.254 11.3828 29.01 7.66481 29C3.60981 28.983 0.329812 25.685 0.342812 21.63C0.343812 21.416 0.356812 21.212 0.376812 21.02L0.344812 21.016L0.372812 11.835ZM35.6168 11.835C35.6168 11.835 35.6138 10.61 34.3898 10.613C33.1638 10.617 33.1668 11.842 33.1668 11.842L33.1858 17.526C32.9918 17.436 32.7868 17.355 32.5738 17.285L32.5488 9.39598C32.5488 9.39598 32.5448 8.17098 31.3218 8.17498C30.0968 8.17798 30.0998 9.40398 30.0998 9.40398L30.1218 16.824C29.9238 16.806 29.7188 16.792 29.5118 16.782L29.4848 8.17998C29.4848 8.17998 29.4808 6.95498 28.2558 6.95998C27.0308 6.96398 27.0358 8.18898 27.0358 8.18898L27.0638 16.789C26.8538 16.801 26.6518 16.822 26.4498 16.841L26.4248 8.80198C26.4248 8.80198 26.4198 7.57698 25.1968 7.58198C23.9728 7.58498 23.9778 8.80898 23.9778 8.80898L24.0018 17.31L24.0048 17.991V18.602C27.6788 18.593 30.1378 21.644 30.1498 24.706C30.1498 25.318 29.5378 25.322 29.5378 25.322C29.5268 21.644 27.0698 19.207 23.3958 19.218L21.5948 15.03C21.5948 15.03 21.2008 13.871 20.0388 14.268C18.8818 14.66 19.2738 15.821 19.2738 15.821L20.1668 18.926C20.5208 20.16 20.8518 21.402 21.0258 22.67C21.5238 26.254 24.6058 29.01 28.3248 29C32.3798 28.983 35.6608 25.685 35.6468 21.63C35.6458 21.416 35.6328 21.212 35.6128 21.02L35.6448 21.016L35.6168 11.835Z" fill="#FFDC5D"/>
<path d="M23.541 6.458C23.328 6.458 23.112 6.39 22.931 6.25C22.493 5.912 22.413 5.284 22.751 4.847L25.73 0.992C26.065 0.556 26.695 0.472 27.132 0.812C27.57 1.15 27.65 1.778 27.312 2.215L24.333 6.07C24.137 6.325 23.841 6.458 23.541 6.458ZM12.521 6.458C12.222 6.458 11.926 6.324 11.729 6.069L8.75002 2.215C8.41302 1.778 8.49402 1.15 8.93102 0.812C9.36802 0.475 9.99502 0.555 10.334 0.992L13.313 4.847C13.65 5.284 13.57 5.912 13.133 6.25C12.95 6.391 12.735 6.458 12.521 6.458ZM18 6C17.448 6 17 5.552 17 5V1C17 0.448 17.448 0 18 0C18.553 0 19 0.448 19 1V5C19 5.552 18.553 6 18 6Z" fill="#1BACAC"/>
</g>
<defs>
<clipPath id="clip0">
<rect width="36" height="36" fill="white"/>
</clipPath>
</defs>
</svg>
