<svg width="36" height="36" viewBox="0 0 36 36" fill="none" xmlns="http://www.w3.org/2000/svg">
<g clip-path="url(#clip0)">
<path d="M25.0002 34.9999C22.2502 34.9999 23.0002 28.9999 23.0002 28.9999C23.0002 27.8959 25.6462 26.9999 26.7502 26.9999C27.8542 26.9999 30.0002 26.8959 30.0002 27.9999C30.0002 27.9999 27.7502 34.9999 25.0002 34.9999Z" fill="#292F33"/>
<path d="M28.0002 35.9999C25.2502 35.9999 26.0002 29.9999 26.0002 29.9999C26.0002 28.8959 28.6462 27.9999 29.7502 27.9999C30.8542 27.9999 33.0002 27.8959 33.0002 28.9999C33.0002 28.9999 30.7502 35.9999 28.0002 35.9999Z" fill="#66757F"/>
<path d="M14 34.9999C11.25 34.9999 10 28.9999 10 28.9999C10 27.8959 12.646 26.9999 13.75 26.9999C14.854 26.9999 17 26.8959 17 27.9999C17 27.9999 16.75 34.9999 14 34.9999Z" fill="#292F33"/>
<path d="M17 35.9999C14.25 35.9999 13 29.9999 13 29.9999C13 28.8959 15.646 27.9999 16.75 27.9999C17.854 27.9999 20 27.8959 20 28.9999C20 28.9999 19.75 35.9999 17 35.9999Z" fill="#66757F"/>
<path d="M35.75 21.3841C35.75 29.1661 31.255 32.792 21.231 32.792C11.208 32.792 7.75 29.1661 7.75 21.3841C7.75 13.6011 11.208 9.97705 21.231 9.97705C31.255 9.97705 35.75 13.6011 35.75 21.3841Z" fill="#E1E8ED"/>
<path d="M17 17.667C17 27 12.345 29 8.042 29C3.738 29 1 22.36 1 17.667C1 12.973 3.738 12 8.042 12C12.345 12 17 12.973 17 17.667Z" fill="#99AAB5"/>
<path d="M4.5 22C5.32843 22 6 21.3284 6 20.5C6 19.6716 5.32843 19 4.5 19C3.67157 19 3 19.6716 3 20.5C3 21.3284 3.67157 22 4.5 22Z" fill="#292F33"/>
<path d="M15.75 12.7499C14 15.9999 13.622 15.3559 8.622 17.3559C5.545 18.5869 0 18.2499 0 13.4999C0 11.5669 3.687 10.9999 7 10.9999C10.314 10.9999 17.409 9.66794 15.75 12.7499Z" fill="#E1E8ED"/>
<path d="M15.9998 13.6959C19.3528 16.1229 21.4298 19.8349 19.7238 24.7849C18.3568 28.7519 12.9078 27.8999 10.1078 25.9119C7.30883 23.9239 7.46483 21.1199 8.37483 19.6209C9.28383 18.1239 12.5328 18.3919 14.3988 19.7179C15.3328 20.3809 14.6858 21.2769 13.6778 20.7859C11.3858 19.6679 10.6408 22.2289 12.4318 23.6679C13.6978 24.6839 15.7068 24.7169 16.0868 22.6579C16.7578 19.0279 12.5818 16.3839 8.62183 17.3559C10.9998 15.9999 13.1608 11.6409 15.9998 13.6959Z" fill="#FFCC4D"/>
</g>
<defs>
<clipPath id="clip0">
<rect width="36" height="36" fill="white"/>
</clipPath>
</defs>
</svg>
