<svg width="36" height="36" viewBox="0 0 36 36" fill="none" xmlns="http://www.w3.org/2000/svg">
<g clip-path="url(#clip0)">
<path d="M27.295 7.52598C26.143 4.47198 24.645 0.725984 18.996 0.610984C17.237 0.574984 17.476 1.14998 18.649 1.63098C20.897 2.55298 16.175 7.06898 23.408 9.03098C29.056 10.562 28.447 10.58 27.295 7.52598Z" fill="#66757F"/>
<path d="M36.004 3.90308C28.267 3.90308 21.593 6.41708 17.899 9.66008C13.024 13.9401 12.519 19.9661 3.86501 25.3201C1.01801 27.0811 3.44201 32.8371 5.01801 34.9381C6.92601 37.4821 33.635 35.1761 36.005 26.1611L36.004 3.90308Z" fill="#99AAB5"/>
<path d="M8.67584 29.6519C9.68684 30.1589 10.4628 30.7029 9.99384 31.6379C9.52484 32.5739 8.82084 31.8879 7.80884 31.3809C6.79684 30.8729 5.52384 31.3629 5.99284 30.4269C6.46284 29.4919 7.66484 29.1459 8.67584 29.6519ZM34.2018 6.3259C34.4398 3.7629 32.0238 1.3269 28.2518 0.419896C26.5668 0.0138957 24.9708 0.0698957 25.9068 0.897896C27.6998 2.4829 25.8248 4.9039 27.1808 8.0219C27.9088 9.6959 30.4188 11.7749 31.8998 11.8419C32.9558 11.8899 33.9538 8.9949 34.2018 6.3259Z" fill="#66757F"/>
<path d="M33.2471 6.32588C33.4851 3.76288 30.9751 0.880879 27.0771 0.318879C25.3621 0.0718793 24.7901 0.405879 25.7261 1.23288C27.5191 2.81788 25.0881 4.85988 26.4441 7.97788C27.1721 9.65188 29.8371 11.8179 31.3191 11.8849C32.3741 11.9339 32.9991 8.99488 33.2471 6.32588Z" fill="#99AAB5"/>
<path d="M2.6391 26.8981C0.0871 22.9151 -0.9879 14.9271 1.1471 9.30106C1.4681 8.45606 2.2301 8.23006 2.3261 9.43106C2.5071 11.7131 4.7431 16.2641 10.2921 20.3991C11.5331 21.3231 4.5791 29.9261 2.6391 26.8981Z" fill="#CCD6DD"/>
<path d="M13.248 15.387C11.2 14.535 9.63899 12.198 9.15599 10.726C8.57899 8.96803 7.00399 14.653 10.008 19.618C11.215 21.611 14.661 15.974 13.248 15.387Z" fill="#CCD6DD"/>
<path d="M16.7891 23.0061C17.8936 23.0061 18.7891 22.1107 18.7891 21.0061C18.7891 19.9015 17.8936 19.0061 16.7891 19.0061C15.6845 19.0061 14.7891 19.9015 14.7891 21.0061C14.7891 22.1107 15.6845 23.0061 16.7891 23.0061Z" fill="#292F33"/>
<path d="M30.2929 9.4099C31.6239 9.5149 32.2469 7.6729 31.5089 4.7199C30.8649 2.1439 27.2569 1.4719 27.2819 1.6509C27.3069 1.8299 28.3389 3.1999 27.2959 4.5899C26.2819 5.9419 28.6429 9.2799 30.2929 9.4099Z" fill="#E6AAAA"/>
</g>
<defs>
<clipPath id="clip0">
<rect width="36" height="36" fill="white"/>
</clipPath>
</defs>
</svg>
