<svg width="36" height="36" viewBox="0 0 36 36" fill="none" xmlns="http://www.w3.org/2000/svg">
<g clip-path="url(#clip0)">
<path d="M32.6121 16.645V15.645H28.5291V8.33301H27.5291V15.645H24.4191V16.645H27.5291V20.645H18.5501V16.041H17.5501V20.645H12.8001V21.645H17.5501V25.645H8.61208V22.437H7.61208V25.645H2.20508V26.645H7.61208V30.645H2.20508V31.645H7.61208V36H8.61208V31.645H17.5501V36H18.5501V31.645H27.5291V36H28.5291V31.645H32.6121V30.645H28.5291V26.645H32.6121V25.645H28.5291V21.645H32.6121V20.645H28.5291V16.645H32.6121ZM8.61208 30.645V26.645H17.5501V30.645H8.61208ZM27.5291 30.645H18.5501V26.645H27.5291V30.645ZM27.5291 25.645H18.5501V21.645H27.5291V25.645Z" fill="#E1E8ED"/>
<path d="M31.0498 6.59497H35.0498V36H31.0498V6.59497Z" fill="#CCD6DD"/>
<path d="M34.0498 6.59497H35.0498V36H34.0498V6.59497Z" fill="#8899A6"/>
<path d="M25.0498 10.208L21.0498 12.625V36H25.0498V10.208ZM11.0498 20.917H15.0498V36H11.0498V20.917ZM1.0498 25.708H5.0498V36H1.0498V25.708Z" fill="#CCD6DD"/>
<path d="M4.0498 25.708H5.0498V36H4.0498V25.708ZM14.0498 20.917H15.0498V36H14.0498V20.917ZM24.0498 10.208H25.0498V36H24.0498V10.208Z" fill="#8899A6"/>
<path d="M18.804 16.378C12.948 21.327 6.491 26.771 0 29.035V30.851C7.387 28.186 14.422 22.191 20.363 17.126C25.152 13.043 29.676 9.18699 32.127 9.18699C33.587 9.18699 34.873 9.69999 36 10.524V8.73799C34.89 8.08699 33.61 7.68799 32.127 7.68799C29.086 7.68799 24.092 11.909 18.804 16.378Z" fill="#CCD6DD"/>
<path d="M32.127 4.68799C27.988 4.68799 22.835 9.04299 16.867 14.087C11.523 18.603 5.653 23.558 0 25.84V29.036C6.491 26.771 12.948 21.328 18.804 16.379C24.092 11.91 29.086 7.68899 32.127 7.68899C33.61 7.68899 34.89 8.08799 36 8.73899V5.37899C34.846 4.94099 33.561 4.68799 32.127 4.68799Z" fill="#DD2E44"/>
<path d="M10.9119 14.4221L10.5439 14.7121C10.4019 14.8241 10.1959 14.7991 10.0849 14.6581L9.16686 13.4941C9.05486 13.3521 9.07986 13.1461 9.22086 13.0351L9.58886 12.7451C9.73086 12.6331 9.93686 12.6581 10.0479 12.7991L10.9659 13.9631C11.0779 14.1051 11.0539 14.3101 10.9119 14.4221ZM14.3499 11.7901L13.9819 12.0801C13.8399 12.1921 13.6339 12.1671 13.5229 12.0261L12.6049 10.8621C12.4929 10.7201 12.5179 10.5141 12.6589 10.4031L13.0269 10.1131C13.1689 10.0011 13.3749 10.0261 13.4859 10.1671L14.4039 11.3311C14.5159 11.4731 14.4919 11.6781 14.3499 11.7901ZM20.8699 6.58208L20.5019 6.87208C20.3599 6.98408 20.1539 6.95908 20.0429 6.81808L19.1249 5.65408C19.0129 5.51208 19.0379 5.30608 19.1789 5.19508L19.5469 4.90508C19.6889 4.79308 19.8949 4.81808 20.0059 4.95908L20.9239 6.12308C21.0369 6.26408 21.0119 6.47008 20.8699 6.58208ZM24.3409 3.91808L23.9729 4.20808C23.8309 4.32008 23.6249 4.29508 23.5139 4.15408L22.5959 2.99008C22.4839 2.84808 22.5089 2.64208 22.6499 2.53108L23.0179 2.24108C23.1599 2.12908 23.3659 2.15408 23.4769 2.29508L24.3949 3.45908C24.5069 3.60008 24.4829 3.80608 24.3409 3.91808ZM15.8089 13.5961C15.5919 13.5961 15.3759 13.5021 15.2279 13.3211C14.9659 13.0011 15.0129 12.5281 15.3339 12.2661L16.7429 11.1141C17.0639 10.8521 17.5369 10.8981 17.7989 11.2201C18.0609 11.5401 18.0139 12.0131 17.6929 12.2751L16.2839 13.4271C16.1439 13.5401 15.9759 13.5961 15.8089 13.5961Z" fill="#1C6399"/>
<path d="M8.20822 14.542L5.55722 12.791C5.44422 12.715 5.28822 12.747 5.21022 12.862C5.13422 12.977 5.16622 13.132 5.28122 13.208L7.93222 14.959C7.97422 14.987 8.02222 15.001 8.07022 15.001C8.15122 15.001 8.23022 14.961 8.27922 14.889C8.35522 14.773 8.32322 14.619 8.20822 14.542ZM11.6402 11.865L8.97022 9.95299C8.85822 9.87199 8.70122 9.89699 8.62122 10.011C8.54122 10.123 8.56622 10.28 8.67922 10.36L11.3492 12.272C11.3932 12.304 11.4442 12.319 11.4952 12.319C11.5732 12.319 11.6492 12.283 11.6982 12.215C11.7782 12.102 11.7532 11.945 11.6402 11.865ZM18.2132 6.64799L15.4652 5.17199C15.3452 5.10699 15.1942 5.15199 15.1262 5.27399C15.0622 5.39599 15.1062 5.54699 15.2292 5.61199L17.9772 7.08799C18.0142 7.10799 18.0552 7.11799 18.0952 7.11799C18.1842 7.11799 18.2702 7.06999 18.3162 6.98599C18.3802 6.86499 18.3352 6.71299 18.2132 6.64799ZM21.4932 3.86599L18.8602 2.51899C18.7352 2.45699 18.5862 2.50499 18.5232 2.62799C18.4602 2.75099 18.5092 2.90099 18.6312 2.96399L21.2642 4.31099C21.3012 4.32999 21.3402 4.33799 21.3782 4.33799C21.4692 4.33799 21.5572 4.28799 21.6012 4.20199C21.6642 4.07899 21.6152 3.92899 21.4932 3.86599Z" fill="#FFE8B6"/>
<path d="M10.349 15.0689C11.169 16.1129 11.025 16.7999 10.503 17.2099C9.98097 17.6199 9.27897 17.5969 8.45897 16.5539C7.63897 15.5109 7.39697 14.3319 7.91897 13.9219C8.44197 13.5109 9.52897 14.0249 10.349 15.0689Z" fill="#BE1931"/>
<path d="M13.745 12.4009C14.565 13.4449 14.421 14.1319 13.899 14.5419C13.377 14.9519 12.675 14.9289 11.855 13.8859C11.035 12.8429 10.793 11.6639 11.315 11.2539C11.838 10.8429 12.925 11.3569 13.745 12.4009Z" fill="#5C913B"/>
<path d="M13.5989 11.67L7.70686 16.299C6.18486 17.495 7.10286 20.309 7.37486 20.655C7.66586 21.026 8.20386 21.091 8.57486 20.799L16.0339 14.939C16.7759 14.356 16.9049 13.282 16.3219 12.54L15.9159 12.023C15.3329 11.28 14.2959 11.122 13.5989 11.67Z" fill="#3B94D9"/>
<path d="M20.1778 7.10793C20.9978 8.15193 20.8538 8.83893 20.3318 9.24893C19.8098 9.65893 19.1078 9.63593 18.2888 8.59193C17.4688 7.54793 17.2268 6.36993 17.7498 5.95993C18.2708 5.54993 19.3578 6.06393 20.1778 7.10793Z" fill="#FA743E"/>
<path d="M23.628 4.38699C24.448 5.43099 24.304 6.11799 23.782 6.52799C23.26 6.93799 22.558 6.91499 21.739 5.87099C20.919 4.82699 20.677 3.64899 21.2 3.23899C21.721 2.82899 22.809 3.34299 23.628 4.38699Z" fill="#744EAA"/>
<path d="M23.429 3.70899L17.536 8.33799C16.014 9.53299 16.932 12.348 17.204 12.694C17.495 13.065 18.033 13.13 18.404 12.838L25.864 6.97899C26.606 6.39599 26.735 5.32199 26.152 4.57999L25.746 4.06299C25.163 3.31999 24.125 3.16199 23.429 3.70899Z" fill="#3B94D9"/>
<path d="M9.09584 20.838C8.94784 20.838 8.80084 20.772 8.70184 20.646C8.53084 20.429 8.56984 20.114 8.78784 19.944L15.8468 14.429C16.0618 14.261 16.3768 14.297 16.5478 14.515C16.7188 14.732 16.6798 15.047 16.4618 15.217L9.40284 20.732C9.31284 20.804 9.20484 20.838 9.09584 20.838ZM18.8828 12.932C18.7348 12.932 18.5878 12.866 18.4888 12.74C18.3178 12.523 18.3568 12.208 18.5748 12.038L25.6338 6.52301C25.8498 6.35401 26.1638 6.39101 26.3348 6.60901C26.5058 6.82601 26.4668 7.14101 26.2488 7.31101L19.1898 12.826C19.0988 12.897 18.9908 12.932 18.8828 12.932Z" fill="#E1E8ED"/>
<path d="M21.2921 1.93597C21.6721 2.38397 21.6631 3.01797 21.2711 3.35097C20.8791 3.68397 20.0571 3.54597 19.6761 3.09797C19.5801 2.98497 19.5041 2.86497 19.4431 2.77197C19.0471 2.16597 19.5531 2.01597 19.8931 1.72697C20.2851 1.39397 20.9121 1.48697 21.2921 1.93597Z" fill="#FFDC5D"/>
<path d="M20.982 1.36689C20.982 1.36689 20.692 1.12989 21.056 0.764887C21.357 0.462887 21.743 0.744887 22.084 0.671887C22.342 0.616887 22.546 0.448887 22.607 0.233887C22.607 0.233887 22.612 0.632887 22.471 0.906887C22.287 1.26289 21.875 1.48389 21.633 1.53589C21.255 1.61789 20.982 1.36689 20.982 1.36689Z" fill="#FFAC33"/>
<path d="M19.256 1.88909C19.314 1.59209 19.77 1.14509 20.239 1.04209C20.768 0.925092 21.16 1.20209 21.409 1.61909C21.638 2.00209 21.566 2.57609 21.566 2.57609C21.566 2.57609 21.063 2.38009 21.109 2.33209C21.194 2.24209 21.005 1.90609 20.862 1.89609C20.711 1.88509 20.7 2.03409 20.748 2.13209L20.937 2.50709C20.937 2.50709 20.705 2.19809 20.545 2.18109C20.282 2.15309 19.676 2.95109 19.442 2.77109C19.298 2.65909 19.183 2.25609 19.256 1.88909Z" fill="#FFAC33"/>
<path d="M7.88719 12.7571C8.30619 13.1691 8.35319 13.8011 7.99319 14.1681C7.63219 14.5351 6.80219 14.4711 6.38219 14.0591C6.27619 13.9551 6.19019 13.8421 6.12119 13.7551C5.67219 13.1871 6.16319 12.9921 6.47519 12.6741C6.83519 12.3081 7.46819 12.3451 7.88719 12.7571Z" fill="#FFDC5D"/>
<path d="M7.52701 12.2181C7.52701 12.2181 7.21601 12.0081 7.54701 11.6111C7.82001 11.2841 8.22901 11.5291 8.56301 11.4261C8.81501 11.3491 9.00401 11.1621 9.04401 10.9431C9.04401 10.9431 9.08501 11.3401 8.96901 11.6261C8.81801 11.9971 8.42701 12.2541 8.19101 12.3281C7.82201 12.4441 7.52701 12.2181 7.52701 12.2181Z" fill="#FFAC33"/>
<path d="M5.85391 12.894C5.88491 12.593 6.29891 12.107 6.75691 11.962C7.27291 11.798 7.68891 12.039 7.97391 12.432C8.23591 12.793 8.21591 13.371 8.21591 13.371C8.21591 13.371 7.69791 13.221 7.73891 13.168C7.81591 13.071 7.59791 12.753 7.45291 12.756C7.30091 12.759 7.30391 12.908 7.36091 13.001C7.41791 13.095 7.58291 13.358 7.58291 13.358C7.58291 13.358 7.32391 13.071 7.16391 13.069C6.89991 13.065 6.36791 13.914 6.11891 13.756C5.96491 13.657 5.81491 13.266 5.85391 12.894Z" fill="#FFAC33"/>
<path d="M17.8179 4.69599C18.1979 5.14399 18.1889 5.77799 17.7969 6.11099C17.4049 6.44399 16.5829 6.30598 16.2019 5.85799C16.1059 5.74498 16.0299 5.62499 15.9689 5.53199C15.5729 4.92599 16.0789 4.77599 16.4189 4.48699C16.8109 4.15499 17.4369 4.24799 17.8179 4.69599Z" fill="#FFDC5D"/>
<path d="M15.781 4.65008C15.839 4.35308 16.295 3.90608 16.764 3.80308C17.293 3.68608 17.685 3.96308 17.934 4.38008C18.163 4.76308 18.091 5.33708 18.091 5.33708C18.091 5.33708 17.588 5.14108 17.634 5.09308C17.719 5.00308 17.53 4.66708 17.387 4.65708C17.236 4.64608 17.225 4.79508 17.273 4.89308C17.322 4.99108 17.338 5.05608 17.291 5.11008C17.244 5.16508 16.964 4.92308 16.805 4.90608C16.542 4.87808 16.203 5.71208 15.969 5.53208C15.823 5.42008 15.709 5.01708 15.781 4.65008Z" fill="#FFAC33"/>
<path d="M11.4122 10.0561C11.7922 10.5041 11.7832 11.1381 11.3912 11.4711C10.9992 11.8041 10.1772 11.6661 9.79618 11.2181C9.70018 11.1051 9.62418 10.9851 9.56318 10.8921C9.16718 10.2861 9.67318 10.1361 10.0132 9.84708C10.4052 9.51408 11.0312 9.60708 11.4122 10.0561Z" fill="#FFDC5D"/>
<path d="M9.37521 10.0099C9.43321 9.71294 9.88921 9.26594 10.3582 9.16294C10.8872 9.04594 11.2792 9.32294 11.5282 9.73994C11.7572 10.1229 11.6852 10.6969 11.6852 10.6969C11.6852 10.6969 11.1822 10.5009 11.2282 10.4529C11.3132 10.3629 11.1242 10.0269 10.9812 10.0169C10.8302 10.0059 10.8192 10.1549 10.8672 10.2529C10.9162 10.3509 10.9322 10.4159 10.8852 10.4699C10.8382 10.5239 10.5582 10.2829 10.3992 10.2659C10.1362 10.2379 9.79721 11.0719 9.56321 10.8919C9.41721 10.7789 9.30321 10.3759 9.37521 10.0099Z" fill="#FFAC33"/>
<path d="M21.7668 3.65012L18.9998 1.25512C18.8948 1.16512 18.7368 1.17712 18.6458 1.28012C18.5558 1.38412 18.5678 1.54212 18.6718 1.63312L21.4388 4.02812C21.4868 4.06912 21.5448 4.08912 21.6028 4.08912C21.6728 4.08912 21.7428 4.06012 21.7918 4.00312C21.8828 3.89812 21.8718 3.74012 21.7668 3.65012ZM18.2948 6.26412L15.7228 4.19312C15.6148 4.10712 15.4568 4.12412 15.3708 4.23112C15.2838 4.33812 15.3008 4.49612 15.4078 4.58312L17.9818 6.65412C18.0278 6.69112 18.0838 6.70912 18.1378 6.70912C18.2108 6.70912 18.2838 6.67712 18.3318 6.61612C18.4198 6.50812 18.4028 6.35112 18.2948 6.26412ZM8.46377 14.3161L5.69377 11.8441C5.59277 11.7531 5.43477 11.7611 5.34077 11.8641C5.24877 11.9671 5.25777 12.1251 5.36177 12.2171L8.13177 14.6891C8.17877 14.7311 8.23777 14.7521 8.29777 14.7521C8.36577 14.7521 8.43477 14.7241 8.48477 14.6691C8.57577 14.5661 8.56677 14.4081 8.46377 14.3161ZM11.8928 11.6381L9.24977 9.15612C9.15077 9.06212 8.99277 9.06612 8.89577 9.16712C8.80177 9.26812 8.80677 9.42612 8.90777 9.52012L11.5518 12.0021C11.5998 12.0471 11.6608 12.0701 11.7228 12.0701C11.7888 12.0701 11.8558 12.0441 11.9058 11.9911C11.9988 11.8911 11.9938 11.7321 11.8928 11.6381Z" fill="#FFE8B6"/>
</g>
<defs>
<clipPath id="clip0">
<rect width="36" height="36" fill="white"/>
</clipPath>
</defs>
</svg>
