<svg width="36" height="36" viewBox="0 0 36 36" fill="none" xmlns="http://www.w3.org/2000/svg">
<path d="M36 32C36 34.209 34.209 36 32 36H4C1.791 36 0 34.209 0 32V4C0 1.791 1.791 0 4 0H32C34.209 0 36 1.791 36 4V32Z" fill="#226699"/>
<path d="M11 9.00002C11 9.00002 18.29 4.44302 32 4.03102C32.652 4.01102 34 4.00002 34 5.00002C28 14 25 28 25 28L11 9.00002Z" fill="#F4900C"/>
<path d="M12 16C12 16 24 4.99999 32 4.03099C32.647 3.95199 34 3.99999 34 4.99999C27 8.99999 22 24 22 24L12 16Z" fill="#FFAC33"/>
<path d="M15.1562 12.4379C15.9822 13.1649 17.5442 13.6019 18.6272 13.4099L23.5192 12.5439C24.6032 12.3519 25.1322 13.0219 24.6972 14.0319L22.7292 18.5949C22.2932 19.6049 22.3602 21.2249 22.8772 22.1969L25.2122 26.5809C25.7302 27.5529 25.2562 28.2629 24.1612 28.1609L19.2142 27.6979C18.1192 27.5959 16.5982 28.1599 15.8352 28.9519L12.3852 32.5289C11.6222 33.3209 10.8002 33.0909 10.5582 32.0169L9.46924 27.1699C9.22824 26.0969 8.22124 24.8249 7.23224 24.3429L2.76524 22.1679C1.77624 21.6869 1.74124 20.8329 2.68724 20.2719L6.96124 17.7379C7.90724 17.1769 8.80624 15.8269 8.95824 14.7369L9.64724 9.8169C9.79924 8.7269 10.6002 8.4299 11.4262 9.1569L15.1562 12.4379Z" fill="#FFD983"/>
</svg>
