<svg width="36" height="36" viewBox="0 0 36 36" fill="none" xmlns="http://www.w3.org/2000/svg">
<path d="M18 35C27.9411 35 36 30.5228 36 25C36 19.4772 27.9411 15 18 15C8.05887 15 0 19.4772 0 25C0 30.5228 8.05887 35 18 35Z" fill="#939598"/>
<path d="M18 33C27.9411 33 36 28.5228 36 23C36 17.4772 27.9411 13 18 13C8.05887 13 0 17.4772 0 23C0 28.5228 8.05887 33 18 33Z" fill="#F1F2F2"/>
<path d="M18.0002 30.222C26.174 30.222 32.8002 26.8144 32.8002 22.611C32.8002 18.4076 26.174 15 18.0002 15C9.82638 15 3.2002 18.4076 3.2002 22.611C3.2002 26.8144 9.82638 30.222 18.0002 30.222Z" fill="white"/>
<path d="M8 28C8 24.956 8.417 20.792 8.042 14.125C8.643 12.748 14.188 11.653 14.667 10.333C15.954 6.78702 13.458 4.41702 16 2.00002C18.05 0.0510176 21 1.7643e-05 22 3.00002C24 1.00002 28 2.00002 28 5.00002C32 4.00002 34 8.00002 31 11C31 12 30 20 30 22C30 24 29.792 23.792 24.792 24.792C19.792 25.792 8 28 8 28Z" fill="#E1E8ED"/>
<path d="M8 26.9999V14.9999C8 14.9999 29 7.9999 29 12.5419V22.9999L8 26.9999Z" fill="#FFAC33"/>
<path d="M8 25.9999V15.9999C8 15.9999 20.375 11.7919 28 11.9999V21.9999L8 25.9999Z" fill="#FFD983"/>
<path d="M8 21V20L29 16V17L8 21Z" fill="#FFAC33"/>
<path d="M8 14L17 5C19 5 25 6 28 10L8 14Z" fill="#E1E8ED"/>
<path d="M30 9.99992C31 8.99992 31 4.99992 27 5.99992C27 4.99992 25 1.99992 22 3.99992C22 2.99992 17 1.99992 16 3.99992C26 6.99992 30 9.99992 30 9.99992Z" fill="white"/>
<path d="M17.958 10.4581C16.125 10.2501 13.541 9.37512 14.041 6.95812C14.541 4.54112 16.515 2.07712 17.791 1.41612C18.917 0.833115 20.117 1.26011 21 4.66711C21.583 6.91711 23.75 9.79212 19.333 10.4171C18.875 10.4171 17.958 10.4581 17.958 10.4581Z" fill="#DD2E44"/>
<path d="M18.3749 5.04194C18.2229 5.04194 18.0729 4.97294 17.9749 4.84194L17.4749 4.17494C17.3089 3.95394 17.3539 3.64094 17.5749 3.47494C17.7959 3.30794 18.1089 3.35294 18.2749 3.57494L18.7749 4.24194C18.9409 4.46294 18.8959 4.77594 18.6749 4.94194C18.5849 5.00894 18.4799 5.04194 18.3749 5.04194ZM15.9589 8.54194C15.9169 8.54194 15.8749 8.53694 15.8319 8.52594C15.5649 8.45594 15.4049 8.18294 15.4749 7.91594L15.7249 6.95794C15.7939 6.69094 16.0689 6.53194 16.3349 6.60094C16.6019 6.67094 16.7619 6.94394 16.6919 7.21094L16.4419 8.16894C16.3839 8.39294 16.1809 8.54194 15.9589 8.54194ZM20.3329 8.62494C20.2439 8.62494 20.1529 8.60194 20.0719 8.55194L19.3219 8.09394C19.0869 7.94994 19.0119 7.64194 19.1559 7.40594C19.3019 7.16994 19.6089 7.09594 19.8439 7.23994L20.5939 7.69794C20.8289 7.84194 20.9029 8.14994 20.7599 8.38594C20.6649 8.53994 20.5009 8.62494 20.3329 8.62494Z" fill="#F4ABBA"/>
</svg>
