<svg width="36" height="36" viewBox="0 0 36 36" fill="none" xmlns="http://www.w3.org/2000/svg">
<g clip-path="url(#clip0)">
<path d="M18 8L11 0H0L14 17L25.521 12.25L18 8Z" fill="#84D8D8"/>
<path d="M25 0L18 8L23.39 15.312L24.617 13.823L36 0H25Z" fill="#1BACAC"/>
<path d="M23.2601 16.026C23.3401 15.809 23.3911 15.578 23.3911 15.333C23.3911 14.229 22.4951 13.333 21.3911 13.333H14.7241C13.6191 13.333 12.7241 14.229 12.7241 15.333C12.7241 15.578 12.7741 15.809 12.8551 16.026C9.59711 17.852 7.39111 21.333 7.39111 25.333C7.39111 31.224 12.1661 36 18.0581 36C23.9491 36 28.7251 31.224 28.7251 25.333C28.7241 21.333 26.5191 17.852 23.2601 16.026Z" fill="#FFAC33"/>
<path d="M18.0581 33.333C22.4764 33.333 26.0581 29.7513 26.0581 25.333C26.0581 20.9147 22.4764 17.333 18.0581 17.333C13.6398 17.333 10.0581 20.9147 10.0581 25.333C10.0581 29.7513 13.6398 33.333 18.0581 33.333Z" fill="#FFD983"/>
<path d="M21.2783 30.6343C21.1363 30.6343 20.9943 30.5903 20.8723 30.5033L18.0003 28.4443L15.1293 30.5033C14.8843 30.6783 14.5563 30.6783 14.3133 30.5003C14.0703 30.3243 13.9683 30.0113 14.0583 29.7263L15.1293 26.2703L12.2843 24.2653C12.0423 24.0873 11.9423 23.7733 12.0343 23.4873C12.1273 23.2023 12.3923 23.0083 12.6933 23.0063L16.2173 23.0013L17.3393 19.6313C17.4343 19.3463 17.7003 19.1543 18.0013 19.1543C18.3013 19.1543 18.5683 19.3463 18.6633 19.6313L19.7663 23.0013L23.3083 23.0063C23.6093 23.0083 23.8753 23.2023 23.9673 23.4873C24.0603 23.7733 23.9593 24.0863 23.7173 24.2653L20.8713 26.2703L21.9423 29.7263C22.0343 30.0123 21.9303 30.3243 21.6883 30.5003C21.5653 30.5903 21.4213 30.6343 21.2783 30.6343Z" fill="#FFAC33"/>
</g>
<defs>
<clipPath id="clip0">
<rect width="36" height="36" fill="white"/>
</clipPath>
</defs>
</svg>
