<svg width="36" height="36" viewBox="0 0 36 36" fill="none" xmlns="http://www.w3.org/2000/svg">
<g clip-path="url(#clip0)">
<path d="M32 11.9999C34.122 9.87792 37 26.3119 29 32.9999C26.243 35.3049 23 35.9689 21 35.9689C18.629 35.9689 10.971 35.9999 8 35.9999C0.82 35.9999 0 31.0749 0 24.9999C0 18.9249 0.82 13.9999 8 13.9999C14 13.9999 18 15.9999 21 17.9959C25.977 21.3079 26.992 21.8569 29 19.9999C32.213 17.0299 30 13.9999 32 11.9999Z" fill="#3B88C3"/>
<path d="M34.0028 23C33.5378 26.727 31.9618 30.523 28.9998 33C26.2428 35.305 22.9998 35.969 20.9998 35.969C18.6288 35.969 10.9708 36 7.99979 36C3.96479 36 1.93779 34.445 0.937791 32.004C0.156791 30.102 3.99979 33 14.9998 33C28.9998 33 31.9998 28 34.0028 23Z" fill="#55ACEE"/>
<path d="M31.9999 13.9999C36.1229 13.9999 35.9999 8.99992 35.9999 6.99992C35.9999 4.99992 33.9999 7.99992 30.9999 8.99992C27.9999 9.99992 23.9999 6.99992 24.9999 8.99992C25.9999 10.9999 27.9999 13.9999 31.9999 13.9999Z" fill="#3B88C3"/>
<path d="M10 6.99992C10 9.20892 9.104 12.9999 8 12.9999C6.896 12.9999 6 9.20892 6 6.99992C6 4.79092 6.896 4.99992 8 4.99992C9.104 4.99992 10 4.79092 10 6.99992Z" fill="#55ACEE"/>
<path d="M8 5.00008C8 2.00008 2 3.00008 2 5.00008C2 7.00008 5 6.00008 6 8.00008C7 10.0001 8 5.00008 8 5.00008ZM8 5.00008C8 2.00008 14 3.00008 14 5.00008C14 7.00008 11 6.00008 10 8.00008C9 10.0001 8 5.00008 8 5.00008Z" fill="#55ACEE"/>
<path d="M6.5 27C7.32843 27 8 26.3284 8 25.5C8 24.6716 7.32843 24 6.5 24C5.67157 24 5 24.6716 5 25.5C5 26.3284 5.67157 27 6.5 27Z" fill="#292F33"/>
</g>
<defs>
<clipPath id="clip0">
<rect width="36" height="36" fill="white"/>
</clipPath>
</defs>
</svg>
