<svg width="36" height="36" viewBox="0 0 36 36" fill="none" xmlns="http://www.w3.org/2000/svg">
<path d="M18 36C3.042 36 1 22 1 18H35C35 20 33.042 36 18 36Z" fill="#CCD6DD"/>
<path d="M35 17.0561C35 22.2721 27.389 26.5001 18 26.5001C8.611 26.5001 1 22.2711 1 17.0561C1 11.8401 8.611 8.61206 18 8.61206C27.389 8.61106 35 11.8401 35 17.0561Z" fill="#99AAB5"/>
<path d="M19.5 32.9999H17C16.724 32.9999 16.5 32.7759 16.5 32.4999C16.5 32.2239 16.724 31.9999 17 31.9999H19V28.9999H15V29.9999H18C18.276 29.9999 18.5 30.2239 18.5 30.4999C18.5 30.7759 18.276 30.9999 18 30.9999H14.5C14.224 30.9999 14 30.7759 14 30.4999V28.4999C14 28.2239 14.224 27.9999 14.5 27.9999H19.5C19.776 27.9999 20 28.2239 20 28.4999V32.4999C20 32.7759 19.776 32.9999 19.5 32.9999ZM25 31.9999C24.802 31.9999 24.614 31.8809 24.536 31.6849C24.433 31.4289 24.557 31.1379 24.814 31.0359L26.99 30.1649L26.925 27.9159L23 28.8909V29.8399C23.734 29.6339 24.958 29.2869 25.858 29.0209C26.12 28.9449 26.401 29.0929 26.479 29.3589C26.557 29.6239 26.406 29.9019 26.141 29.9799C24.763 30.3869 22.634 30.9819 22.634 30.9819C22.48 31.0239 22.322 30.9929 22.196 30.8989C22.073 30.8039 22 30.6559 22 30.4999V28.4999C22 28.2709 22.156 28.0699 22.38 28.0149L27.286 26.7959C27.43 26.7599 27.589 26.7919 27.708 26.8829C27.829 26.9749 27.901 27.1149 27.906 27.2669L28 30.4849C28.006 30.6949 27.881 30.8859 27.685 30.9639L25.185 31.9639C25.125 31.9879 25.062 31.9999 25 31.9999ZM29.573 29.2879C29.461 29.2879 29.372 29.2579 29.285 29.2099C29.127 29.1219 29 28.8999 29 28.7189V26.1569C29 25.9719 29.103 25.8029 29.266 25.7159C29.856 25.4029 30.545 24.9899 31.104 24.6559C31.494 24.4229 31.822 24.2259 32.015 24.1229C32.164 24.0449 32.344 24.0459 32.491 24.1259C32.639 24.2069 32.736 24.3569 32.749 24.5259C32.783 24.9639 32.636 26.0709 32.605 26.2889C32.584 26.4419 32.493 26.5779 32.358 26.6549L31.155 27.3429C30.917 27.4749 30.61 27.3969 30.472 27.1569C30.335 26.9179 30.418 26.6119 30.658 26.4739L31.645 25.9099C31.663 25.7699 31.68 25.6169 31.697 25.4659L31.617 25.5139C31.127 25.8069 30.539 26.1599 30 26.4559V28.0809C30.173 27.9869 30.407 27.8519 30.724 27.6539L31.063 28.0329L31.253 28.5039C30.304 29.0909 29.861 29.2879 29.573 29.2879ZM11.875 32.2809C11.824 32.2809 11.773 32.2729 11.723 32.2579L8.504 31.2269C8.241 31.1419 8.096 30.8609 8.18 30.5979C8.264 30.3339 8.547 30.1939 8.808 30.2739L11.393 31.1019L11.458 28.7459L8.602 27.9099L8.576 28.6449L10.161 29.1819C10.422 29.2709 10.562 29.5539 10.474 29.8159C10.385 30.0779 10.102 30.2149 9.84 30.1289L7.902 29.4729C7.693 29.4019 7.555 29.2019 7.563 28.9819L7.625 27.2319C7.63 27.0779 7.707 26.9339 7.832 26.8439C7.957 26.7529 8.116 26.7259 8.265 26.7699L12.109 27.8949C12.327 27.9579 12.474 28.1619 12.468 28.3879L12.374 31.7939C12.37 31.9509 12.291 32.0979 12.163 32.1889C12.079 32.2499 11.977 32.2809 11.875 32.2809ZM5.844 29.4999C5.753 29.4999 5.663 29.4759 5.582 29.4259L4.207 28.5819C3.972 28.4369 3.898 28.1299 4.042 27.8939C4.186 27.6589 4.493 27.5829 4.73 27.7299L5.338 28.1029L5.33 26.4799L4 25.7299V26.1549L4.743 26.6029C4.979 26.7459 5.055 27.0519 4.913 27.2889C4.77 27.5249 4.464 27.5999 4.226 27.4589L3.242 26.8649C3.092 26.7749 3 26.6119 3 26.4379V24.8759C3 24.6979 3.094 24.5339 3.248 24.4439C3.401 24.3539 3.591 24.3519 3.746 24.4399L6.074 25.7519C6.23 25.8399 6.327 26.0049 6.328 26.1849L6.344 28.9969C6.345 29.1789 6.247 29.3469 6.09 29.4349C6.013 29.4789 5.928 29.4999 5.844 29.4999Z" fill="#EA596E"/>
<path d="M18 25C26.2843 25 33 21.866 33 18C33 14.134 26.2843 11 18 11C9.71573 11 3 14.134 3 18C3 21.866 9.71573 25 18 25Z" fill="#FFAC33"/>
<path d="M22 24C20.82 24 19.878 23.804 19.199 23.416C18.432 22.978 17.991 22.273 17.991 21.483C17.992 19.628 20.332 18 23 18C23.553 18 24 18.448 24 19C24 19.553 23.553 20 23 20C21.128 20 19.992 21.03 19.992 21.483C19.992 21.559 20.144 21.652 20.191 21.679C20.401 21.799 20.915 22 22 22C24.404 22 27 20.471 27 18C27 17.279 26.06 16.817 25.657 16.652C23.637 15.826 20.366 16.073 18.713 17.756C17.272 19.223 14.921 19.712 12.423 19.057C10.885 18.655 9.104 17.719 8.718 16.296C8.522 15.571 8.726 14.86 9.293 14.292C11.586 12 15.871 12 19 12C19.553 12 20 12.448 20 13C20 13.552 19.553 14 19 14C16.221 14 12.414 14 10.707 15.707C10.655 15.76 10.643 15.788 10.643 15.789C10.666 15.946 11.214 16.553 12.45 16.978C14.021 17.519 16.126 17.537 17.287 16.355C19.606 13.994 23.748 13.711 26.415 14.801C28.058 15.473 29 16.639 29 18C29 21.706 25.366 24 22 24ZM15 24C7.395 24 5 18.544 5 17C5 16.448 5.448 16 6 16C6.551 16 6.998 16.445 7 16.995C7.036 17.658 8.701 22 15 22C15.552 22 16 22.447 16 23C16 23.553 15.552 24 15 24Z" fill="#FFD983"/>
<path d="M35.0921 3.05293L12.0871 3.93893C11.5371 3.98793 11.0511 3.58293 11.0021 3.03193C10.9531 2.48193 11.3581 1.99593 11.9081 1.94693L34.8241 0.0659323C35.3751 0.0159323 35.8601 0.421932 35.9101 0.971932C35.9581 1.52093 35.6431 3.00293 35.0921 3.05293ZM35.0001 7.99993L12.0001 6.99993C11.4481 6.99993 11.0001 6.55193 11.0001 5.99993C11.0001 5.44793 11.4481 4.99993 12.0001 4.99993H35.0001C35.5531 4.99993 36.0001 5.44793 36.0001 5.99993C36.0001 6.55193 35.5531 7.99993 35.0001 7.99993Z" fill="#AA695B"/>
<path d="M14 15C13.448 15 13 14.552 13 14V2C13 1.448 13.448 1 14 1C14.552 1 15 1.448 15 2V14C15 14.552 14.552 15 14 15ZM18 17C17.448 17 17 16.552 17 16V1C17 0.448 17.448 0 18 0C18.552 0 19 0.448 19 1V16C19 16.552 18.552 17 18 17Z" fill="#FFD983"/>
</svg>
