<svg width="36" height="36" viewBox="0 0 36 36" fill="none" xmlns="http://www.w3.org/2000/svg">
<path d="M29.4618 7.96908C29.0668 7.73908 28.5478 7.63208 27.8288 7.63208C22.2478 7.63208 3.24677 14.7201 2.44077 15.0221C2.26377 15.0881 2.10877 15.2031 1.99477 15.3541C0.754773 16.9881 0.999773 23.0001 2.99977 26.0001C5.75477 30.1331 9.82077 31.3041 11.7778 31.4951C11.8098 31.4981 11.8858 31.5021 11.9178 31.5021C14.3758 31.5021 30.2498 20.7411 31.4418 18.2681C32.8128 15.4251 32.7228 9.86808 29.4618 7.96908Z" fill="#EEEEEE"/>
<path d="M25.9998 9.99999C21.9998 13 12.9998 19 12.9998 19C12.2858 21.141 11.0768 27.343 12.2518 31.454C15.5418 30.709 30.2938 20.649 31.4418 18.268C32.4768 16.123 32.6768 12.434 31.3118 9.93599C29.5638 8.90399 27.6928 8.72999 25.9998 9.99999Z" fill="#CCD6DD"/>
<path d="M32.0178 6.52112C31.7908 6.30812 31.4768 6.21212 31.1718 6.26412L1.79584 11.0971C1.30284 11.1781 0.94584 11.6111 0.95884 12.1101C0.98484 13.1201 0.97784 13.8561 0.96884 14.6831C0.96384 15.1431 0.95884 15.6311 0.95884 16.2081C0.95884 16.5051 1.09084 16.7881 1.31984 16.9781C3.35284 18.6651 10.0338 23.1351 11.5528 23.8951C11.6938 23.9651 11.8478 24.0001 11.9998 24.0001C12.2158 24.0001 12.4318 23.9301 12.6098 23.7931C15.1658 21.8261 29.0928 13.8631 31.2728 12.9181C31.6078 12.7731 31.8378 12.4551 31.8708 12.0911C31.9958 10.7191 32.3288 7.35012 32.3288 7.35012C32.3588 7.03912 32.2448 6.73312 32.0178 6.52112Z" fill="#A0041E"/>
<path d="M32.0849 6.58896C30.0649 4.29396 22.4579 1.01496 21.1679 0.958964C21.0869 0.954964 21.0089 0.960964 20.9299 0.976964C10.8239 2.99096 4.21092 8.78296 1.72092 10.964L1.30492 11.326C1.07292 11.526 0.945917 11.822 0.958917 12.128C0.972917 12.434 1.12592 12.717 1.37492 12.896C1.71392 13.139 9.69092 18.856 11.6319 19.954C11.7859 20.04 11.9549 20.083 12.1239 20.083C12.3639 20.083 12.6029 19.996 12.7909 19.829C16.7059 16.33 29.8909 8.86796 31.6899 8.18496C31.9969 8.06796 32.2259 7.80896 32.3049 7.49096C32.3839 7.17196 32.3019 6.83496 32.0849 6.58896Z" fill="#DD2E44"/>
<path d="M9.1659 17.4169C8.6879 17.4169 8.2659 17.0739 8.1819 16.5869L8.1359 16.3199C7.7379 14.0119 7.2869 11.3949 6.4669 8.89495C6.2939 8.37095 6.5809 7.80595 7.1049 7.63295C7.6289 7.45995 8.1949 7.74695 8.3669 8.27195C9.2329 10.9109 9.6969 13.6039 10.1059 15.9799L10.1519 16.2459C10.2459 16.7899 9.8809 17.3079 9.3369 17.4009C9.2799 17.4119 9.2219 17.4169 9.1659 17.4169ZM15.2079 17.1669C14.6789 17.1669 14.2369 16.7509 14.2099 16.2169C14.1329 14.6769 13.0239 8.24395 12.0199 5.51195C11.8299 4.99295 12.0949 4.41895 12.6129 4.22795C13.1349 4.03695 13.7069 4.30295 13.8969 4.82095C14.9609 7.71595 16.1139 14.2559 16.2069 16.1159C16.2349 16.6669 15.8099 17.1369 15.2579 17.1639C15.2419 17.1659 15.2249 17.1669 15.2079 17.1669ZM20.8329 13.3749C20.3459 13.3749 19.9199 13.0199 19.8449 12.5229L19.7319 11.7359C19.4389 9.67495 18.8929 5.83895 18.0519 3.31595C17.8769 2.79195 18.1599 2.22595 18.6839 2.05095C19.2099 1.87595 19.7739 2.15995 19.9489 2.68295C20.8469 5.37795 21.4099 9.32995 21.7119 11.4539L21.8239 12.2259C21.9059 12.7719 21.5289 13.2809 20.9829 13.3629C20.9329 13.3719 20.8819 13.3749 20.8329 13.3749ZM26.4989 9.95795C25.9909 9.95795 25.5569 9.57295 25.5049 9.05695C25.3189 7.19395 25.0319 5.83695 24.5159 4.37295C24.3319 3.85195 24.6059 3.28095 25.1259 3.09795C25.6489 2.91395 26.2179 3.18695 26.4019 3.70795C26.9669 5.31195 27.2949 6.85195 27.4949 8.85795C27.5499 9.40695 27.1479 9.89695 26.5989 9.95195C26.5649 9.95695 26.5319 9.95795 26.4989 9.95795Z" fill="#EA596E"/>
<path d="M32.136 23C30.422 21.765 28.081 21 25.5 21C22.919 21 20.578 21.765 18.864 23H16V28C16 31.859 20.262 35 25.5 35C30.738 35 35 31.859 35 28V23H32.136Z" fill="#292F33"/>
<path d="M25.5 30C30.7467 30 35 26.866 35 23C35 19.134 30.7467 16 25.5 16C20.2533 16 16 19.134 16 23C16 26.866 20.2533 30 25.5 30Z" fill="#292F33"/>
<path d="M32.583 23C32.583 25.762 29.412 28 25.5 28C21.588 28 18.417 25.762 18.417 23C18.417 20.238 21.588 18 25.5 18C29.412 18 32.583 20.238 32.583 23Z" fill="#E1E8ED"/>
<path d="M25.5 28.833C21.135 28.833 17.583 26.217 17.583 23C17.583 19.783 21.135 17.167 25.5 17.167C29.865 17.167 33.416 19.784 33.416 23C33.416 26.216 29.865 28.833 25.5 28.833ZM25.5 18.833C22.054 18.833 19.25 20.702 19.25 23C19.25 25.298 22.054 27.167 25.5 27.167C28.946 27.167 31.75 25.298 31.75 23C31.75 20.702 28.946 18.833 25.5 18.833Z" fill="#E1E8ED"/>
<path d="M21.209 22.5419C21.209 22.1199 23.015 22.2069 25.5 22.2069C27.985 22.2069 29.709 21.6609 29.709 22.0829C29.709 23.8579 27.985 25.6349 25.5 25.6349C23.015 25.6349 21.209 24.3169 21.209 22.5419Z" fill="#77B255"/>
<path d="M25.5 26.135C22.724 26.135 20.709 24.624 20.709 22.542C20.709 22.37 20.778 22.206 20.904 22.081C21.282 21.704 22.101 21.688 24.407 21.703L25.5 21.707C26.594 21.707 27.554 21.597 28.256 21.516C29.249 21.403 29.699 21.351 30.002 21.62L30.17 21.769L30.209 22.082C30.209 24.031 28.408 26.135 25.5 26.135ZM21.723 22.777C21.88 24.157 23.42 25.134 25.5 25.134C27.546 25.134 28.974 23.791 29.183 22.427C28.963 22.44 28.655 22.476 28.371 22.508C27.645 22.592 26.652 22.706 25.501 22.706L24.402 22.702C23.352 22.696 22.183 22.691 21.723 22.777Z" fill="#77B255"/>
<path d="M30 22C30 22 28 21 25 22C22.643 22.786 21 24.56 21 22.785C21 21.01 23.015 19.572 25.5 19.572C27.985 19.572 30 21 30 22Z" fill="#F4900C"/>
<path d="M21.446 24.05C21.279 24.05 21.124 24.011 20.978 23.923C20.5 23.635 20.5 22.995 20.5 22.785C20.5 20.738 22.743 19.072 25.5 19.072C28.27 19.072 30.5 20.674 30.5 22C30.5 22.173 30.41 22.334 30.263 22.426C30.117 22.515 29.933 22.525 29.779 22.448C29.746 22.431 27.892 21.562 25.159 22.474C24.402 22.726 23.724 23.084 23.127 23.401C22.445 23.762 21.902 24.05 21.446 24.05ZM25.5 20.072C23.294 20.072 21.5 21.289 21.5 22.785C21.5 22.912 21.51 22.993 21.521 23.042C21.753 22.997 22.27 22.724 22.659 22.518C23.26 22.201 24.008 21.804 24.843 21.526C26.539 20.961 27.94 20.997 28.886 21.16C28.21 20.617 27.016 20.072 25.5 20.072Z" fill="#F4900C"/>
</svg>
