<svg width="36" height="36" viewBox="0 0 36 36" fill="none" xmlns="http://www.w3.org/2000/svg">
<path d="M3.42707 7.03406C2.37807 5.94806 1.89207 4.13106 3.62707 1.92806C5.36207 -0.274939 12.7711 -0.941939 12.2371 6.86706C12.1701 8.70206 11.4691 11.4721 9.63407 15.2431C9.16707 16.2111 8.36607 17.7791 8.03207 20.0821C9.00007 19.2811 11.9361 17.8461 14.9401 18.2471C17.9431 18.6471 32.9941 25.3891 35.9971 22.5521C36.0971 23.7201 32.3601 35.3331 17.4421 35.3331C2.52407 35.3331 0.12207 27.8241 0.12207 24.4211C0.12207 21.0181 0.99007 19.2481 3.49307 16.8791C5.99607 14.5101 9.83507 8.87006 8.09907 6.36706C7.73207 7.03406 5.33007 9.00306 3.42707 7.03406Z" fill="#E1E8ED"/>
<path d="M10.2021 26.5571C9.63514 28.6931 13.1691 33.1461 18.9121 33.1651C27.2971 33.1931 31.7931 28.4601 34.2961 22.4191C31.8601 21.3511 20.4701 19.1651 17.1671 20.5001C13.8641 21.8351 13.5001 22.0831 9.86914 24.0201C11.0361 24.2211 10.1691 26.5571 10.2021 26.5571Z" fill="#CCD6DD"/>
<path d="M5.47485 7.37708C5.57285 7.29208 5.62985 7.19008 5.62985 7.06808C5.62985 6.10008 5.69685 4.56508 6.02985 4.16508C6.81485 4.24808 7.14785 3.43008 6.64785 2.89608C6.14785 2.36208 5.22985 2.96308 5.29585 3.53008C3.88185 3.15308 2.85385 3.38808 2.51185 4.44208C2.40785 5.50808 2.81385 6.39908 3.42685 7.03408C3.72185 7.33908 5.20285 7.46108 5.47485 7.37708Z" fill="#292F33"/>
<path d="M7.71912 4.76196C7.71512 5.74796 6.97912 6.91096 5.47512 7.37596C5.31612 7.51196 5.04612 7.59896 4.72412 7.64396C4.85512 7.73196 4.99212 7.80896 5.13512 7.87396C6.54512 7.96996 7.83912 6.84196 8.10012 6.36696C8.10612 6.37496 8.10812 6.38496 8.11312 6.39296C8.14312 5.50296 7.71912 4.76196 7.71912 4.76196Z" fill="#CCD6DD"/>
<path d="M9.30081 24.0869C9.33381 22.6189 10.6688 16.7119 18.3778 16.5449C26.0868 16.3779 26.6878 21.2169 32.7938 16.0779C32.6938 17.3789 30.5248 31.0949 18.9448 31.0949C9.73481 31.0949 9.26681 25.5549 9.30081 24.0869Z" fill="#E1E8ED"/>
<path d="M0.754191 10.571C1.60419 10.307 4.52919 8.60296 5.59719 7.40096C5.89719 7.06696 4.10219 4.99596 2.43319 4.76196C2.53319 5.29596 2.49319 7.33396 0.858191 9.13596C0.424191 9.46996 -0.167809 10.738 0.754191 10.571Z" fill="#F4900C"/>
</svg>
