<svg width="36" height="36" viewBox="0 0 36 36" fill="none" xmlns="http://www.w3.org/2000/svg">
<path d="M34 7H2L5 36H31L34 7Z" fill="#E1E8ED"/>
<path d="M14 7H2L5 36H15L14 7Z" fill="#99AAB5"/>
<path d="M34.901 0.567C34.734 0.22 34.385 0 34 0H16C15.696 0 15.409 0.138 15.219 0.375L9.43896 7H12L16.48 2H31.918L25.218 10.375C24.873 10.806 24.944 11.436 25.374 11.78C25.56 11.928 25.78 12 25.999 12C26.293 12 26.583 11.872 26.781 11.625L34.781 1.625C35.021 1.325 35.067 0.913 34.901 0.567Z" fill="#66757F"/>
<path d="M30.4951 32H16.4951L18.6541 29H28.6541L30.4951 32ZM27.4221 28H19.9931L20.7611 27H26.7611L27.4221 28ZM28.8141 26H18.8141L20.9731 23H26.9731L28.8141 26ZM27.0271 22H21.0271L22.0801 21H26.0801L27.0271 22ZM27.1331 20H21.1331L23.2921 17H25.2921L27.1331 20ZM25.3461 16H23.3461L24.5051 13L25.3461 16Z" fill="#DD2E44"/>
<path d="M14.0079 32H5.16895L6.11295 29H12.4269L14.0079 32ZM11.5089 28H6.81894L7.16395 27H10.9519L11.5089 28ZM12.1079 26H5.79495L6.73895 23H10.5279L12.1079 26ZM10.4219 22H6.63295L7.15895 21H9.68395L10.4219 22ZM10.2089 20H6.42095L7.36595 17H8.62795L10.2089 20ZM8.52195 16H7.25995L7.57295 13L8.52195 16Z" fill="#BE1931"/>
</svg>
