<svg width="36" height="36" viewBox="0 0 36 36" fill="none" xmlns="http://www.w3.org/2000/svg">
<g clip-path="url(#clip0)">
<path d="M18 36C27.9411 36 36 31.5228 36 26C36 20.4772 27.9411 16 18 16C8.05887 16 0 20.4772 0 26C0 31.5228 8.05887 36 18 36Z" fill="#292F33"/>
<path d="M18 34C27.9411 34 36 29.5228 36 24C36 18.4772 27.9411 14 18 14C8.05887 14 0 18.4772 0 24C0 29.5228 8.05887 34 18 34Z" fill="#66757F"/>
<path d="M18 31C3.042 31 1 16 1 12H35C35 14 33.042 31 18 31Z" fill="#E1E8ED"/>
<path d="M35 12.0561C35 17.2721 27.389 21.5001 18 21.5001C8.611 21.5001 1 17.2711 1 12.0561C1 6.84008 8.611 3.61108 18 3.61108C27.389 3.61108 35 6.84008 35 12.0561Z" fill="#77B255"/>
<path d="M18 20C26.2843 20 33 16.866 33 13C33 9.13401 26.2843 6 18 6C9.71573 6 3 9.13401 3 13C3 16.866 9.71573 20 18 20Z" fill="#A6D388"/>
<path d="M20.9998 17C20.7438 17 20.4878 16.902 20.2928 16.707C17.9558 14.37 17.9168 11.822 20.1678 8.44502C20.9068 7.33602 21.0678 6.19902 20.6458 5.06802C20.1848 3.83202 19.2078 3.07202 18.9148 2.99102C18.3618 2.99102 17.9568 2.54802 17.9568 1.99502C17.9568 1.44302 18.4478 1.00002 18.9998 1.00002C19.9968 1.00002 21.3948 2.15302 22.1828 3.62502C23.2168 5.55802 23.0928 7.66402 21.8318 9.55402C19.8708 12.496 20.3008 13.886 21.7068 15.292C22.0978 15.683 22.0978 16.315 21.7068 16.706C21.5118 16.902 21.2558 17 20.9998 17ZM14.9998 15C14.7438 15 14.4878 14.902 14.2928 14.707C11.9558 12.37 11.9168 9.82202 14.1678 6.44502C14.8948 5.35402 15.0608 4.36202 14.6618 3.49802C14.2178 2.53702 13.2308 2.02902 12.9778 1.99902C12.4258 1.99902 11.9888 1.55202 11.9888 0.999023C11.9888 0.447023 12.4468 -0.000976562 12.9998 -0.000976562C13.9968 -0.000976562 15.5848 0.973023 16.3598 2.42202C16.8408 3.32102 17.4118 5.18302 15.8318 7.55302C13.8708 10.495 14.3008 11.885 15.7068 13.291C16.0978 13.682 16.0978 14.314 15.7068 14.705C15.5118 14.902 15.2558 15 14.9998 15Z" fill="#5C913B"/>
</g>
<defs>
<clipPath id="clip0">
<rect width="36" height="36" fill="white"/>
</clipPath>
</defs>
</svg>
