<svg width="36" height="36" viewBox="0 0 36 36" fill="none" xmlns="http://www.w3.org/2000/svg">
<path d="M0 34H36V36H0V34Z" fill="#939598"/>
<path d="M10 32C10 30.343 8.656 29 7 29C5.344 29 4 30.343 4 32C4 33.657 5.343 35 7 35C8.657 35 10 33.657 10 32Z" fill="#58595B"/>
<path d="M9 32C9 30.895 8.104 30 7 30C5.896 30 5 30.895 5 32C5 33.105 5.896 34 7 34C8.104 34 9 33.105 9 32Z" fill="#292F33"/>
<path d="M29 35C30.6569 35 32 33.6569 32 32C32 30.3431 30.6569 29 29 29C27.3431 29 26 30.3431 26 32C26 33.6569 27.3431 35 29 35Z" fill="#58595B"/>
<path d="M29 34C30.1046 34 31 33.1046 31 32C31 30.8954 30.1046 30 29 30C27.8954 30 27 30.8954 27 32C27 33.1046 27.8954 34 29 34Z" fill="#292F33"/>
<path d="M34 2H2C1.448 2 1 1.552 1 1C1 0.448 1.448 0 2 0H34C34.553 0 35 0.448 35 1C35 1.552 34.553 2 34 2Z" fill="#E6E7E8"/>
<path d="M22.9981 4.94405C22.9821 4.66005 22.8471 4.39605 22.6251 4.21805L18.9421 1.27305C19.0291 0.971054 18.9911 0.638054 18.7801 0.375054C18.4661 -0.018946 17.9211 -0.092946 17.4991 0.154054C17.0791 -0.093946 16.5331 -0.019946 16.2181 0.375054C16.0071 0.639054 15.9681 0.972054 16.0561 1.27305L12.3741 4.21805C12.1521 4.39605 12.0161 4.65905 12.0001 4.94405C11.9841 5.22805 12.0901 5.50505 12.2911 5.70605L16.1261 9.54005C15.9281 9.91705 15.9741 10.3881 16.2911 10.7051C16.4881 10.9021 16.7441 11.0001 17.0001 11.0001C17.1761 11.0001 17.3441 10.9371 17.5001 10.8451C17.6561 10.9361 17.8241 11.0001 18.0001 11.0001C18.2561 11.0001 18.5121 10.9021 18.7071 10.7071C19.0241 10.3901 19.0701 9.91905 18.8721 9.54205L22.7071 5.70705C22.9081 5.50505 23.0151 5.22805 22.9981 4.94405ZM17.5001 8.08505L14.4971 5.08205L17.5001 2.68005L20.5031 5.08305L17.5001 8.08505Z" fill="#66757F"/>
<path d="M30 10C30 11.104 29.104 12 28 12H8C6.896 12 6 11.104 6 10C6 8.896 6.896 8 8 8H28C29.104 8 30 8.896 30 10Z" fill="#BCBEC0"/>
<path d="M36 22C36 24.209 34.209 26 32 26H4C1.791 26 0 24.209 0 22V14C0 11.791 1.791 10 4 10H32C34.209 10 36 11.791 36 14V22ZM0 28H36V32H0V28Z" fill="#E6E7E8"/>
<path d="M0 14H36V28H0V14Z" fill="#BE1931"/>
<path d="M36 14H0V24H6V30H13V24H23V30H30V24H36V14Z" fill="#DD2E44"/>
<path d="M2 16H0V26H2C3.104 26 4 25.104 4 24V18C4 16.896 3.104 16 2 16ZM36 16H34C32.896 16 32 16.896 32 18V24C32 25.104 32.896 26 34 26H36V16ZM21 22C21 22.553 20.552 23 20 23H16C15.447 23 15 22.553 15 22V18C15 17.447 15.448 17 16 17H20C20.552 17 21 17.447 21 18V22ZM12 23C12 23.553 11.552 24 11 24H8C7.448 24 7 23.553 7 23V18C7 17.448 7.448 17 8 17H11C11.552 17 12 17.448 12 18V23ZM29 23C29 23.553 28.553 24 28 24H25C24.447 24 24 23.553 24 23V18C24 17.448 24.447 17 25 17H28C28.553 17 29 17.448 29 18V23Z" fill="#55ACEE"/>
<path d="M0 28H36V30H0V28Z" fill="#A0041E"/>
</svg>
