<svg width="36" height="36" viewBox="0 0 36 36" fill="none" xmlns="http://www.w3.org/2000/svg">
<g clip-path="url(#clip0)">
<path d="M35.9998 19.8541C33.5178 9.92311 25.0058 1.90911 16.0308 6.83211C16.0308 6.83211 11.5088 5.33611 10.8568 4.88411C10.2218 4.44411 9.22181 3.98011 9.94481 5.32011C10.3678 6.10211 10.8198 6.99211 12.3478 8.63711C7.99981 12.9581 9.27881 18.2621 7.74281 21.7501C6.43881 24.7121 5.16581 26.4831 6.43281 28.7261C7.74981 31.0561 11.1618 32.1881 13.4508 29.7861C14.6948 28.4791 13.9218 27.8491 16.5828 25.5841C19.3058 25.0411 20.9768 23.7931 20.9768 21.2091C20.9768 21.2091 21.7718 20.8271 22.8028 27.2181C23.2588 30.0361 22.6458 32.8501 22.7638 36.0011H35.9998V19.8541Z" fill="#C1CDD5"/>
<path d="M31.906 6.06209C32.437 7.37409 32.754 9.77209 32.501 11.3801C32.351 7.45709 29.313 4.79909 28.125 4.18709C25.923 3.05009 23.753 3.20809 21.326 3.41509C21.437 3.58309 21.729 4.22909 21.646 4.96209C21.167 4.08709 20.042 3.54209 19.313 3.69109C17.953 3.96809 16.752 4.36809 15.838 4.84709C15.334 4.94909 14.589 5.26009 13.466 5.94809C11.555 7.11909 9.291 10.2861 6.729 9.45909C7.771 11.9591 10.36 11.3041 10.36 11.3041C11.567 9.35409 14.427 7.52509 16.528 6.85209C24.147 5.10709 29.142 10.2911 31.959 16.2501C32.727 17.8751 34.57 23.3821 36 26.5421V10.9561C35.251 9.91809 34.719 7.93809 31.906 6.06209Z" fill="#60379A"/>
<path d="M13.7889 3.662C14.3619 4.45 17.0249 4.456 18.3849 7.482C19.7439 10.508 16.4419 10.112 15.2449 8.712C13.9109 7.151 13.3139 5.849 13.0799 4.72C12.9559 4.124 12.6289 2.071 13.7889 3.662Z" fill="#C1CDD5"/>
<path d="M14.2092 4.96191C15.1652 5.53491 16.3732 6.47691 16.7262 7.55791C17.0772 8.63891 16.0192 8.44891 15.3772 7.51591C14.7362 6.58191 14.4372 5.54091 14.0922 5.25291C13.7462 4.96391 14.2092 4.96191 14.2092 4.96191Z" fill="#758795"/>
<path d="M15.2551 15.5109C15.7775 15.5109 16.2011 15.0874 16.2011 14.5649C16.2011 14.0424 15.7775 13.6189 15.2551 13.6189C14.7326 13.6189 14.3091 14.0424 14.3091 14.5649C14.3091 15.0874 14.7326 15.5109 15.2551 15.5109Z" fill="#292F33"/>
<path d="M8.63007 26.877C8.74907 27.535 8.44907 28.14 7.96007 28.228C7.47007 28.317 6.97607 27.856 6.85607 27.198C6.73707 26.539 7.03807 25.933 7.52707 25.844C8.01707 25.756 8.51107 26.217 8.63007 26.877Z" fill="#53626C"/>
<path d="M13.8439 8.12403L13.8469 8.12203L13.8419 8.11503L13.8259 8.10103C13.8179 8.09403 13.8149 8.08203 13.8069 8.07603C13.7979 8.06903 13.7859 8.06503 13.7759 8.05803C12.6209 7.07803 0.932898 -0.494966 0.218898 0.219034C-0.510101 0.948034 10.4429 9.74203 11.1489 10.28L11.1599 10.286L11.7009 10.725C11.7089 10.732 11.7109 10.743 11.7189 10.749C11.7319 10.759 11.7469 10.764 11.7609 10.773L11.8079 10.811L11.7989 10.795C12.3639 11.156 13.2259 10.909 13.7779 10.203C14.3369 9.48803 14.3549 8.57803 13.8439 8.12403Z" fill="#EE7C0E"/>
<path d="M4.67721 2.2501L4.68621 2.2251C4.38521 2.0511 4.09221 1.8841 3.80821 1.7251C3.79221 1.7631 3.78621 1.7941 3.76721 1.8351C3.65521 2.0781 3.51121 2.3191 3.33821 2.5511C3.17221 2.7751 2.98921 2.9751 2.79721 3.1461C2.77721 3.1641 2.76121 3.1721 2.74121 3.1891C2.97921 3.4091 3.23021 3.6351 3.48621 3.8651C3.72021 3.6551 3.94221 3.4161 4.14021 3.1481C4.35421 2.8611 4.53521 2.5591 4.67721 2.2501ZM6.95221 5.1951C7.25821 4.7851 7.47321 4.3731 7.61221 3.9831C7.32021 3.8021 7.02821 3.6231 6.73621 3.4451C6.66021 3.7431 6.48921 4.1441 6.15021 4.5971C5.84021 5.0141 5.53721 5.2781 5.28621 5.4421C5.54521 5.6651 5.80621 5.8871 6.06521 6.1071C6.37921 5.8631 6.68421 5.5551 6.95221 5.1951ZM9.87021 7.3201C10.2352 6.8301 10.4792 6.3371 10.6042 5.8831L9.69821 5.2971C9.67521 5.5931 9.52621 6.1071 9.06721 6.7221C8.65521 7.2761 8.24621 7.5691 7.96721 7.7001L8.78121 8.3711C9.16221 8.1151 9.54221 7.7601 9.87021 7.3201Z" fill="#C43512"/>
</g>
<defs>
<clipPath id="clip0">
<rect width="36" height="36" fill="white"/>
</clipPath>
</defs>
</svg>
