<svg width="36" height="36" viewBox="0 0 36 36" fill="none" xmlns="http://www.w3.org/2000/svg">
<path d="M2.1302 14.856L2.1262 14.854C2.1262 14.854 0.0751953 27.271 0.0751953 29.061C0.0751953 30.885 1.4182 32.363 3.0752 32.363C3.7552 32.363 4.3752 32.105 4.8782 31.685L15.0442 22.747L2.1302 14.856ZM33.8202 14.856L33.8242 14.854C33.8242 14.854 35.8752 27.271 35.8752 29.061C35.8752 30.885 34.5322 32.363 32.8752 32.363C32.1952 32.363 31.5752 32.105 31.0722 31.685L20.9062 22.747L33.8202 14.856Z" fill="#31373D"/>
<path d="M25.9751 24.051C30.6695 24.051 34.4751 20.2454 34.4751 15.551C34.4751 10.8566 30.6695 7.05103 25.9751 7.05103C21.2807 7.05103 17.4751 10.8566 17.4751 15.551C17.4751 20.2454 21.2807 24.051 25.9751 24.051Z" fill="#14171A"/>
<path d="M9.9751 24.051C14.6695 24.051 18.4751 20.2454 18.4751 15.551C18.4751 10.8566 14.6695 7.05103 9.9751 7.05103C5.28068 7.05103 1.4751 10.8566 1.4751 15.551C1.4751 20.2454 5.28068 24.051 9.9751 24.051Z" fill="#14171A"/>
<path d="M9.9751 7.05103H25.9751V23.921H9.9751V7.05103Z" fill="#14171A"/>
<path d="M13.0752 28.301C15.8366 28.301 18.0752 26.0624 18.0752 23.301C18.0752 20.5396 15.8366 18.301 13.0752 18.301C10.3138 18.301 8.0752 20.5396 8.0752 23.301C8.0752 26.0624 10.3138 28.301 13.0752 28.301Z" fill="#14171A"/>
<path d="M22.875 28.301C25.6364 28.301 27.875 26.0624 27.875 23.301C27.875 20.5396 25.6364 18.301 22.875 18.301C20.1136 18.301 17.875 20.5396 17.875 23.301C17.875 26.0624 20.1136 28.301 22.875 28.301Z" fill="#14171A"/>
<path d="M22.875 26.301C24.5319 26.301 25.875 24.9579 25.875 23.301C25.875 21.6442 24.5319 20.301 22.875 20.301C21.2181 20.301 19.875 21.6442 19.875 23.301C19.875 24.9579 21.2181 26.301 22.875 26.301Z" fill="#67757F"/>
<path d="M13.0752 26.301C14.732 26.301 16.0752 24.9579 16.0752 23.301C16.0752 21.6442 14.732 20.301 13.0752 20.301C11.4183 20.301 10.0752 21.6442 10.0752 23.301C10.0752 24.9579 11.4183 26.301 13.0752 26.301Z" fill="#67757F"/>
<path d="M25.7348 12.736C26.6201 12.736 27.3378 12.0183 27.3378 11.133C27.3378 10.2477 26.6201 9.53003 25.7348 9.53003C24.8495 9.53003 24.1318 10.2477 24.1318 11.133C24.1318 12.0183 24.8495 12.736 25.7348 12.736Z" fill="#FFCC4D"/>
<path d="M25.7348 19.2099C26.6201 19.2099 27.3378 18.4922 27.3378 17.6069C27.3378 16.7216 26.6201 16.0039 25.7348 16.0039C24.8495 16.0039 24.1318 16.7216 24.1318 17.6069C24.1318 18.4922 24.8495 19.2099 25.7348 19.2099Z" fill="#77B255"/>
<path d="M22.498 15.9731C23.3833 15.9731 24.101 15.2554 24.101 14.3701C24.101 13.4848 23.3833 12.7671 22.498 12.7671C21.6127 12.7671 20.895 13.4848 20.895 14.3701C20.895 15.2554 21.6127 15.9731 22.498 15.9731Z" fill="#50A5E6"/>
<path d="M28.9721 15.9731C29.8575 15.9731 30.5751 15.2554 30.5751 14.3701C30.5751 13.4848 29.8575 12.7671 28.9721 12.7671C28.0868 12.7671 27.3691 13.4848 27.3691 14.3701C27.3691 15.2554 28.0868 15.9731 28.9721 15.9731Z" fill="#DD2E44"/>
<path d="M11.148 12.5141V10.3461C11.148 10.0671 10.922 9.84106 10.643 9.84106H9.085C8.806 9.84106 8.58 10.0671 8.58 10.3461V12.5141L9.864 13.7991L11.148 12.5141ZM8.579 16.1441V18.3121C8.579 18.5911 8.805 18.8171 9.084 18.8171H10.642C10.921 18.8171 11.147 18.5911 11.147 18.3121V16.1441L9.863 14.8591L8.579 16.1441ZM13.848 13.0441H11.68L10.395 14.3291L11.68 15.6141H13.848C14.127 15.6141 14.353 15.3871 14.353 15.1091V13.5501C14.353 13.2711 14.127 13.0441 13.848 13.0441ZM8.049 13.0441H5.88C5.601 13.0441 5.375 13.2711 5.375 13.5491V15.1071C5.375 15.3861 5.601 15.6121 5.88 15.6121H8.048L9.333 14.3271L8.049 13.0441Z" fill="#8899A6"/>
</svg>
