<svg width="36" height="36" viewBox="0 0 36 36" fill="none" xmlns="http://www.w3.org/2000/svg">
<path d="M12 7.60707L3 5.19607C1.343 4.75207 0 5.73507 0 7.39307V27.3931C0 29.0491 1.343 30.7521 3 31.1971L12 33.6081V7.60707ZM24 30.3931L33 32.8041C34.656 33.2471 36 32.2641 36 30.6081V10.6081C36 8.95107 34.656 7.24807 33 6.80407L24 4.39307V30.3931Z" fill="#CCD6DD"/>
<path d="M24 30.3921L12 33.6071V7.60709L24 4.39209V30.3921Z" fill="#E1E8ED"/>
<path d="M12 9.60711L4 7.46311C2.896 7.16711 2 7.82311 2 8.92711V26.9271C2 28.0311 2.896 29.1671 4 29.4621L12 31.6071V9.60711ZM32 8.53511L24 6.39111V28.3911L32 30.5351C33.104 30.8311 34 30.1761 34 29.0701V11.0701C34 9.96711 33.104 8.83111 32 8.53511Z" fill="#55ACEE"/>
<path d="M24 28.3921L12 31.6071V9.60709L24 6.39209V28.3921Z" fill="#88C9F9"/>
<path d="M11.9998 21.506C11.7318 21.512 11.4048 21.61 11.1548 21.651C10.7188 21.724 10.8258 22.168 10.6918 22.094C10.5568 22.02 10.2168 21.829 9.8798 21.436C9.5428 21.042 10.1298 20.959 10.2978 20.814C10.4658 20.669 9.9818 20.642 9.8128 20.482C9.6438 20.323 9.3418 20.586 9.0738 20.206C8.8038 19.83 8.9728 19.416 8.9408 19.026C8.9068 18.636 9.3768 18.685 9.6798 18.692C9.9828 18.695 10.2178 18.836 10.2178 19.294C10.2178 19.75 10.5878 20.002 10.4868 19.44C10.3858 18.879 10.5878 18.783 10.7218 18.55C10.8558 18.32 11.0918 18 11.3938 17.51C11.6148 17.152 11.7828 17.227 11.9998 17.346V14.001C11.9448 13.957 11.8898 13.911 11.8348 13.888C11.5318 13.756 11.9308 14.641 11.6958 14.997C11.4588 15.353 11.0978 15.19 10.7258 15.091C10.3568 14.992 10.0128 14.546 10.2828 14.084C10.5508 13.622 11.0648 13.816 11.3338 13.431C11.6028 13.046 10.3768 12.759 9.9398 12.49C9.5018 12.219 8.9768 12.081 8.5398 12.344C8.1028 12.608 7.1668 12.477 6.7968 12.53C6.4268 12.584 6.3608 12.161 6.2938 11.837C6.2268 11.515 5.6408 11.508 5.0368 11.499C4.4308 11.489 3.2958 11.78 3.4898 13.258C3.5578 13.772 4.0948 13.382 4.1968 13.294C4.2978 13.206 4.8018 13.494 4.8678 13.931C4.9358 14.37 4.9028 14.818 4.7688 15.163C4.6318 15.508 5.1048 16.169 5.3728 16.775C5.6418 17.38 5.9458 17.461 6.0798 17.498C6.2148 17.534 6.9878 18.085 6.9548 18.494C6.9218 18.905 7.6608 19.485 7.9638 19.834C8.2668 20.184 8.4578 20.496 8.8508 20.68C9.2438 20.863 9.7028 21.715 9.9048 21.845C10.0598 21.945 10.3228 22.296 10.4808 22.425C10.2728 22.667 9.8688 23.173 9.8688 23.454C9.8688 23.837 10.3088 24.557 10.4768 24.754C10.6438 24.95 11.1268 25.196 11.2278 25.604C11.3288 26.011 11.1578 27.25 10.8558 27.511C10.5518 27.773 10.4418 28.554 10.4418 28.554C10.4418 28.554 10.5488 28.847 10.9068 28.678C11.2158 28.534 11.6828 28.112 12.0008 27.877V21.506H11.9998Z" fill="#5C913B"/>
<path d="M12.268 17.413C12.168 17.429 12.081 17.425 12 17.424V14.079C12.254 14.144 12.512 14.396 12.707 14.815C12.941 15.324 13.311 14.881 13.446 15.189C13.58 15.497 14.321 15.947 13.951 15.931C13.58 15.916 13.21 15.939 13.11 16.385C13.008 16.833 13.278 17.179 13.008 17.213C12.738 17.246 12.638 17.355 12.268 17.413ZM14.858 22.971C14.422 22.897 14.499 22.948 14.23 22.372C13.962 21.795 13.799 21.629 13.194 21.716C12.589 21.803 12.611 21.852 12.443 21.553C12.371 21.425 12.202 21.471 12 21.584V27.954C12.09 27.84 12.17 27.743 12.228 27.687C12.733 27.21 13.224 26.661 13.694 26.041C14.164 25.42 13.994 25.117 14.229 24.56C14.465 24.002 14.77 23.943 15.173 23.415C15.578 22.885 15.295 23.047 14.858 22.971ZM24 15.731V9.41699C23.96 9.42099 23.932 9.42899 23.89 9.43199C23.681 9.44299 23.408 9.56699 23.111 9.75199C23.087 9.74699 23.065 9.73599 23.041 9.73099C22.145 9.55599 21.729 10.936 21.002 10.883C20.273 10.83 19.302 10.539 18.67 11.397C18.039 12.254 17.893 12.927 18.67 12.691C19.447 12.455 19.982 11.266 20.37 11.602C20.758 11.938 20.66 12.323 19.738 12.707C18.816 13.092 17.82 13.524 17.286 13.667C16.752 13.81 16.631 14.201 16.994 14.489C17.358 14.777 16.775 14.96 16.168 15.509C15.561 16.056 16.314 16.021 16.824 16.214C17.334 16.407 17.722 15.891 17.941 15.282C18.158 14.674 19.099 13.761 19.491 13.738C19.883 13.715 19.883 13.935 19.809 14.34C19.796 14.411 19.81 14.443 19.82 14.478C19.65 15.018 19.51 15.508 19.455 15.784C19.429 15.919 19.424 16.135 19.428 16.379C19.342 16.383 19.245 16.4 19.18 16.38C18.742 16.251 17.746 16.16 17.479 16.423C17.212 16.688 17.067 16.925 16.751 17.146C16.434 17.365 15.148 18.37 15.124 19.23C15.099 20.089 15.075 21.06 15.585 20.951C16.095 20.842 17.334 20.125 17.722 19.663C18.109 19.2 18.643 19.141 18.814 19.507C18.984 19.876 18.862 20.156 18.694 20.861C18.523 21.569 18.804 21.824 19.075 22.329C19.348 22.833 19.566 23.104 19.566 23.518C19.566 23.93 19.955 24.241 20.536 23.395C20.724 23.125 20.903 22.789 21.072 22.438C21.481 21.969 21.84 21.515 21.83 21.342C21.814 21.061 21.809 20.908 21.806 20.718L21.897 20.498C22.024 20.205 22.138 19.752 22.259 19.343C22.266 19.333 22.272 19.326 22.279 19.319C22.516 18.982 22.464 18.966 22.859 18.563C23.123 18.293 23.113 18.051 23.073 17.885C23.178 17.71 23.207 17.605 23.04 17.65L23.024 17.654C23.022 17.654 23.019 17.673 23.018 17.668C22.995 17.519 22.812 17.671 22.517 17.816C22.233 17.824 21.951 17.75 21.849 17.448C21.716 17.052 21.247 16.452 21.21 16.112C21.213 16.071 21.215 16.035 21.22 15.988C21.234 15.952 21.253 15.922 21.289 15.9C21.327 15.878 21.364 15.87 21.401 15.865C21.442 15.976 21.476 16.144 21.487 16.329C21.513 16.806 21.881 16.525 21.881 16.827C21.881 17.13 22.411 17.319 22.542 17.375C22.579 17.391 22.636 17.348 22.701 17.277C22.732 17.288 22.761 17.31 22.794 17.314C23.086 17.345 23.716 16.33 23.911 16.15C24.013 16.055 24.015 15.881 23.944 15.756L24 15.731Z" fill="#77B255"/>
<path d="M27.634 20.221C27.581 20.661 27.818 20.422 28.24 20.926C28.663 21.434 28.136 21.32 27.951 21.242C27.766 21.162 27.581 21.111 27.372 20.724C27.159 20.333 27.372 20.029 27.372 19.697C27.372 19.697 27.688 19.781 27.634 20.221ZM27.996 19.32C28.385 19.486 28.11 18.838 28.24 18.479C28.372 18.123 28.556 18.111 28.795 18.116C29.031 18.118 29.217 17.925 29.376 17.727C29.533 17.528 29.824 17.273 29.798 16.994C29.772 16.715 29.694 16.512 29.586 16.151C29.481 15.791 29.902 15.783 30.088 15.44C30.272 15.097 30.088 15.44 30.509 15.432C30.931 15.424 30.747 15.374 30.825 15.214C30.905 15.055 30.958 14.887 30.879 14.534C30.801 14.181 30.509 14.434 30.219 14.357C29.93 14.28 30.325 13.932 30.351 13.577C30.377 13.221 30.748 13.412 31.012 13.452C31.275 13.491 31.354 13.936 31.433 14.049C31.514 14.161 32.328 13.684 32.541 13.408C32.752 13.133 32.355 13.117 32.462 13.005C32.568 12.894 31.83 12.668 31.537 12.536C31.248 12.403 30.509 12.169 30.219 11.887C29.93 11.604 28.823 11.461 28.531 11.55C28.24 11.636 28.055 11.407 27.925 11.144C27.794 10.882 27.239 10.847 27.081 10.677C26.923 10.507 26.765 10.804 26.552 10.837C26.342 10.872 26.263 10.88 25.998 10.628C25.735 10.376 26.078 10.257 25.71 10.007C25.355 9.76902 24.897 9.82502 24 9.41602V15.73C24.157 15.744 24.309 15.766 24.364 15.781C24.495 15.816 24.812 16.354 24.812 16.565C24.812 16.776 24.97 17.393 25.103 17.76C25.234 18.126 25.523 18.266 25.789 18.578C26.053 18.89 26.183 18.715 26.183 18.715C26.183 18.715 26.078 18.171 26.078 17.75C26.078 17.326 26.394 17.049 26.394 17.049C26.394 17.049 26.894 17.607 26.922 17.734C26.948 17.862 27.343 18.39 27.371 18.61C27.397 18.829 27.608 19.156 27.996 19.32ZM30.088 17.252C30.272 17.332 31.064 17.423 30.642 16.918C30.219 16.412 30.536 16.619 30.589 16.18C30.642 15.74 30.325 15.656 30.325 15.656C30.325 15.988 30.114 16.294 30.325 16.682C30.535 17.072 29.902 17.172 30.088 17.252ZM32.092 22.623C31.961 22.406 31.671 22.238 31.354 22.162C31.039 22.086 31.064 21.682 30.748 21.629C30.432 21.574 30.204 21.24 30.062 21.117C29.75 20.851 29.956 21.326 30.062 21.816C30.168 22.304 30.563 22.062 30.931 22.402C31.3 22.742 31.328 22.418 31.671 22.631C32.013 22.842 32.146 23.151 32.475 23.209C32.804 23.268 32.225 22.84 32.092 22.623ZM29.004 21.191C29.266 21.593 29.163 21.234 29.508 21.175C29.851 21.116 29.217 20.614 29.006 20.376C28.795 20.138 28.586 20.075 28.401 20.425C28.191 20.824 28.743 20.789 29.004 21.191ZM31.407 23.77C31.274 23.432 30.889 23.057 30.732 22.86C30.573 22.667 30.325 22.548 30.114 22.581C29.902 22.612 29.771 22.489 29.666 22.22C29.56 21.954 29.376 21.987 29.217 21.976C29.06 21.964 28.426 22.095 28.056 22.206C27.688 22.319 27.519 22.458 27.278 22.663C26.896 22.983 27.108 22.768 27.278 23.087C27.446 23.405 27.091 24.153 27.065 24.63C27.038 25.107 27.741 24.661 28.004 24.669C28.268 24.681 28.19 24.48 28.4 24.355C28.612 24.23 28.749 24.226 28.979 24.527C29.212 24.832 29.516 25.138 29.516 25.41C29.516 25.68 30.35 26.357 30.667 26.262C30.983 26.164 31.168 25.854 31.458 25.627C31.749 25.402 31.644 24.803 31.722 24.459C31.803 24.115 31.537 24.105 31.407 23.77Z" fill="#5C913B"/>
</svg>
