<svg width="306" height="83" viewBox="0 0 306 83" fill="none" xmlns="http://www.w3.org/2000/svg">
<path d="M70.1021 27.5873L65.0615 26.8497V23.7761H73.36C74.7533 23.7761 76.5155 23.6942 78.6465 23.5303C80.6135 23.3663 82.0683 23.2844 83.0109 23.2844C88.6662 23.2844 92.7027 24.1655 95.1206 25.9276C97.5794 27.6898 98.8088 30.2715 98.8088 33.6729C98.8088 36.5825 97.9687 39.0823 96.2885 41.1723C94.6083 43.2623 92.3134 44.5737 89.4038 45.1064C93.3379 45.0245 96.432 45.9465 98.6859 47.8726C100.94 49.7987 102.067 52.4214 102.067 55.7408C102.067 59.8799 100.591 63.2607 97.6409 65.8835C94.7313 68.5062 89.8956 69.8176 83.1338 69.8176C81.6585 69.8176 80.2447 69.7561 78.8924 69.6332C75.6959 69.5103 73.7903 69.4488 73.1756 69.4488H65V66.4367L70.1021 65.822V27.5873ZM76.6179 43.9385C77.1917 43.9795 78.3596 44 80.1218 44H83.5026C86.3713 44 88.5432 43.2008 90.0185 41.6026C91.4938 40.0044 92.2315 37.73 92.2315 34.7794C92.2315 31.9107 91.4938 29.8207 90.0185 28.5094C88.5432 27.157 86.0229 26.4808 82.4576 26.4808C80.9824 26.4808 79.4661 26.5628 77.9088 26.7267L76.6179 26.8497V43.9385ZM76.6179 66.0064C77.5605 66.3343 79.6915 66.4982 83.0109 66.4982C87.1499 66.4982 90.1415 65.6581 91.9856 63.9779C93.8707 62.2567 94.8132 59.7979 94.8132 56.6014C94.8132 53.4459 93.9936 51.151 92.3544 49.7167C90.7562 48.2824 88.1539 47.5653 84.5476 47.5653C80.3676 47.5653 77.7244 47.6062 76.6179 47.6882V66.0064Z" fill="#4A4A4A"/>
<path d="M110.92 29.1855C109.609 29.1855 108.625 28.8167 107.969 28.0791C107.314 27.3414 106.986 26.3989 106.986 25.2514C106.986 23.9401 107.375 22.8541 108.154 21.9935C108.973 21.1329 110.08 20.7026 111.473 20.7026C112.867 20.7026 113.891 21.0714 114.547 21.8091C115.203 22.5467 115.53 23.4893 115.53 24.6367C115.53 26.0301 115.121 27.1365 114.301 27.9561C113.522 28.7757 112.416 29.1855 110.982 29.1855H110.92ZM108.461 40.0658L103.789 38.9594V35.7014L113.317 34.5335H113.44L114.854 35.64V65.945L119.772 66.4367V69.4488H103.482V66.4367L108.461 65.8835V40.0658Z" fill="#4A4A4A"/>
<path d="M117.895 20.2723L127.73 19.1044H127.853L129.267 20.0264V38.5291C130.496 37.3406 131.951 36.3571 133.631 35.5785C135.352 34.7999 137.258 34.4105 139.348 34.4105C141.807 34.4105 144.04 35.0048 146.048 36.1932C148.097 37.3816 149.716 39.2257 150.904 41.7255C152.134 44.2254 152.748 47.3808 152.748 51.192C152.748 54.7163 152.011 57.9128 150.536 60.7814C149.101 63.6501 147.032 65.9245 144.327 67.6047C141.622 69.2849 138.487 70.125 134.922 70.125C132.094 70.125 129.513 69.8586 127.177 69.3258C124.841 68.7521 123.427 68.2399 122.935 67.7891V23.5303L117.895 22.8541V20.2723ZM136.828 38.775C135.27 38.775 133.816 39.1438 132.463 39.8814C131.152 40.5781 130.086 41.3772 129.267 42.2788V64.9C129.513 65.4737 130.209 65.945 131.357 66.3138C132.545 66.6416 133.877 66.8056 135.352 66.8056C138.508 66.8056 141.049 65.5352 142.975 62.9944C144.901 60.4536 145.864 56.7449 145.864 51.8682C145.864 47.4833 145.024 44.2049 143.343 42.0329C141.663 39.8609 139.491 38.775 136.828 38.775Z" fill="#4A4A4A"/>
<path d="M159.257 23.5917L154.278 22.9155V20.2723L164.174 19.1044H164.297L165.65 20.0264V65.945L170.875 66.4367V69.4488H154.278V66.4367L159.257 65.8835V23.5917Z" fill="#4A4A4A"/>
<path d="M187.008 70.125C182.05 70.125 178.259 68.5062 175.636 65.2688C173.055 62.0313 171.764 57.7079 171.764 52.2985C171.764 48.7332 172.44 45.5982 173.792 42.8935C175.145 40.1888 177.03 38.0988 179.448 36.6235C181.906 35.1482 184.693 34.4105 187.808 34.4105C191.619 34.4105 194.569 35.476 196.659 37.607C198.79 39.697 199.917 42.7091 200.04 46.6432C200.04 49.143 199.897 51.0486 199.61 52.36H178.464C178.546 56.417 179.489 59.6955 181.292 62.1953C183.095 64.6541 185.656 65.8835 188.975 65.8835C190.615 65.8835 192.315 65.5966 194.078 65.0229C195.881 64.4082 197.274 63.691 198.258 62.8714L199.425 65.5761C198.237 66.8056 196.475 67.871 194.139 68.7726C191.803 69.6742 189.426 70.125 187.008 70.125ZM193.278 49.102C193.401 48.2414 193.463 47.3604 193.463 46.4588C193.422 43.7951 192.848 41.7051 191.742 40.1888C190.676 38.6315 188.975 37.8529 186.64 37.8529C184.263 37.8529 182.357 38.7135 180.923 40.4347C179.53 42.1558 178.73 45.045 178.525 49.102H193.278Z" fill="#4A4A4A"/>
<path d="M223.205 46.7803C224.785 48.9039 226.193 51.6943 227.427 55.1513C228.711 58.6084 229.427 62.8309 229.576 67.819C229.576 68.3623 229.477 68.7573 229.279 69.0043C229.131 69.2512 228.761 69.4241 228.168 69.5228C227.575 69.6216 226.612 69.671 225.279 69.671C223.946 69.671 222.341 69.5969 220.464 69.4488C220.365 64.3125 219.846 60.1394 218.908 56.9292C217.97 53.6697 216.883 51.151 215.649 49.3731C215.352 49.4225 214.908 49.4472 214.315 49.4472H213.723V67.9672C213.723 68.5104 213.574 68.8808 213.278 69.0784C213.031 69.2265 212.241 69.3253 210.908 69.3747C209.574 69.4241 207.771 69.4488 205.5 69.4488V19.0744C205.5 18.8275 205.598 18.5311 205.796 18.1854C205.994 17.7903 206.389 17.5928 206.981 17.5928H213.945C217.254 17.5928 219.945 18.0373 222.019 18.9262C224.094 19.8152 225.674 21.3709 226.761 23.5933C227.847 25.8157 228.39 28.9023 228.39 32.8533C228.39 39.4217 226.662 44.064 223.205 46.7803ZM213.723 41.8169H215.278C216.562 41.8169 217.525 41.1502 218.167 39.8168C218.809 38.4833 219.13 36.014 219.13 32.4088C219.13 29.7419 218.859 27.7911 218.315 26.5565C217.822 25.3218 216.982 24.7045 215.797 24.7045H213.723V41.8169Z" fill="#1BACAC"/>
<path d="M243.668 70.1896C239.47 70.1896 236.557 69.2759 234.927 67.4486C233.297 65.5719 232.482 62.7569 232.482 59.0035V33.8904C232.482 33.3471 232.606 33.0014 232.853 32.8533C233.099 32.6557 233.914 32.5322 235.297 32.4829C236.729 32.4335 238.631 32.4088 241.001 32.4088V59.522C241.001 60.8061 241.174 61.7444 241.52 62.3371C241.866 62.8803 242.557 63.152 243.594 63.152C244.779 63.152 245.718 62.8309 246.409 62.1889V33.8904C246.409 33.3471 246.508 33.0014 246.705 32.8533C246.952 32.6557 247.743 32.5322 249.076 32.4829C250.459 32.4335 252.311 32.4088 254.632 32.4088V67.3745C253.299 68.1647 251.644 68.8314 249.669 69.3747C247.743 69.9179 245.742 70.1896 243.668 70.1896Z" fill="#1BACAC"/>
<path d="M267.105 70.1896C261.278 70.1896 258.364 68.7326 258.364 65.8188C258.364 64.3866 258.808 62.8556 259.697 61.2259C261.722 62.3124 263.895 62.8556 266.216 62.8556C267.5 62.8556 268.463 62.584 269.105 62.0408C269.747 61.4481 270.068 60.6579 270.068 59.6702C270.068 58.1886 269.5 56.8058 268.365 55.5217L261.92 48.7064C260.685 47.4223 259.771 46.0889 259.179 44.7061C258.586 43.3232 258.29 42.0392 258.29 40.8539C258.29 38.0389 259.253 35.8165 261.179 34.1867C263.105 32.5076 266.216 31.668 270.513 31.668C274.168 31.668 276.587 32.1372 277.773 33.0755C279.007 33.9645 279.625 35.051 279.625 36.335C279.625 36.977 279.477 37.6685 279.18 38.4093C278.933 39.1007 278.563 39.718 278.069 40.2613C276.143 39.2241 273.995 38.7056 271.624 38.7056C269.254 38.7056 268.068 39.4711 268.068 41.0021C268.068 41.4959 268.216 42.0145 268.513 42.5577C268.809 43.101 269.402 43.8171 270.291 44.7061L275.773 50.2621C277.205 51.9412 278.168 53.4475 278.662 54.7809C279.205 56.065 279.477 57.6454 279.477 59.522C279.477 62.8309 278.365 65.4484 276.143 67.3745C273.921 69.2512 270.908 70.1896 267.105 70.1896Z" fill="#1BACAC"/>
<path d="M283.057 18.6299C283.057 17.3952 283.255 16.5557 283.65 16.1112C284.094 15.6173 284.811 15.321 285.798 15.2222C286.835 15.0741 288.663 15 291.28 15V34.2608C292.12 33.4212 293.182 32.7792 294.466 32.3347C295.799 31.8902 297.108 31.668 298.392 31.668C301.108 31.668 302.911 32.4088 303.8 33.8904C304.738 35.372 305.207 37.8166 305.207 41.2243V67.9672C305.207 68.5104 305.034 68.8808 304.689 69.0784C304.392 69.2265 303.553 69.3253 302.17 69.3747C300.787 69.4241 298.96 69.4488 296.688 69.4488V43.8171C296.688 42.3355 296.54 41.1996 296.244 40.4094C295.947 39.6192 295.305 39.2241 294.317 39.2241C293.28 39.2241 292.268 39.5452 291.28 40.1872V67.9672C291.28 68.5104 291.157 68.8808 290.91 69.0784C290.663 69.2265 289.873 69.3253 288.539 69.3747C287.206 69.4241 285.378 69.4488 283.057 69.4488V18.6299Z" fill="#1BACAC"/>
<path fill-rule="evenodd" clip-rule="evenodd" d="M20.7675 39C19.5477 39 18.5588 39.9889 18.5588 41.2087V67.7129C18.5588 68.9327 19.5477 69.9216 20.7675 69.9216H56.1064C57.3263 69.9216 58.3151 68.9327 58.3151 67.7129V41.2087C58.3151 39.9889 57.3263 39 56.1064 39H20.7675ZM26.1744 45.0672C25.6592 44.7272 24.966 44.8692 24.626 45.3844C24.286 45.8996 24.428 46.5928 24.9432 46.9328L37.722 55.366L38.3376 55.7722L38.9532 55.366L51.7321 46.9328C52.2472 46.5928 52.3893 45.8996 52.0493 45.3844C51.7093 44.8692 51.016 44.7272 50.5008 45.0672L38.3376 53.0941L26.1744 45.0672Z" fill="#1BACAC"/>
<path d="M2.28132 23.6048L2.67647 24L2.67647 24L2.28132 23.6048ZM3.07162 23.6048L3.46677 23.2097V23.2097L3.07162 23.6048ZM2.28132 24.3951L2.67647 24L2.67647 24L2.28132 24.3951ZM13.2366 35.3504L12.8414 35.7455L13.2965 36.2006L13.6833 35.6862L13.2366 35.3504ZM13.9681 34.5013L14.3663 34.8934L14.7554 34.4983L14.3633 34.1062L13.9681 34.5013ZM19.4412 32.0147H18.8824V32.6073L19.474 32.5725L19.4412 32.0147ZM20.5588 32.0224L20.5182 32.5797L21.1176 32.6234V32.0224H20.5588ZM25.9723 34.5609L25.5772 34.1657L25.1889 34.554L25.5703 34.949L25.9723 34.5609ZM26.696 35.4179L26.2459 35.7492L26.6314 36.2727L27.0911 35.813L26.696 35.4179ZM36.601 25.5128L36.2059 25.1176L36.2059 25.1176L36.601 25.5128ZM36.601 24.7225L36.2059 25.1176V25.1176L36.601 24.7225ZM35.8107 24.7225L35.4156 24.3273L35.4156 24.3273L35.8107 24.7225ZM14.9767 47.1371L15.3718 47.5323L15.8316 47.0725L15.308 46.6871L14.9767 47.1371ZM14.1197 46.4135L14.5079 46.0115L14.1128 45.6301L13.7246 46.0183L14.1197 46.4135ZM1.16368 59.3695L0.768528 58.9744L0.768527 58.9744L1.16368 59.3695ZM1.16368 60.1598L0.768527 60.555L0.76853 60.555L1.16368 60.1598ZM1.95397 60.1598L2.34912 60.555H2.34912L1.95397 60.1598ZM11.6927 41.8823V42.4412H12.3615L12.2426 41.783L11.6927 41.8823ZM11.5674 40.7647L12.1256 40.7396L12.1017 40.2059H11.5674V40.7647ZM2.67647 24L2.67647 24L3.46677 23.2097C3.0303 22.7732 2.32264 22.7732 1.88617 23.2097L2.67647 24ZM2.67647 24V24L1.88617 23.2097C1.44971 23.6462 1.44971 24.3538 1.88617 24.7903L2.67647 24ZM13.6317 34.9552L2.67647 24L1.88617 24.7903L12.8414 35.7455L13.6317 34.9552ZM13.6833 35.6862C13.8933 35.4068 14.1215 35.142 14.3663 34.8934L13.5699 34.1092C13.2904 34.3931 13.0297 34.6955 12.7899 35.0146L13.6833 35.6862ZM2.67647 24L13.573 34.8965L14.3633 34.1062L3.46677 23.2097L2.67647 24ZM19.474 32.5725C19.6285 32.5634 19.7843 32.5588 19.9412 32.5588V31.4412C19.7624 31.4412 19.5847 31.4464 19.4084 31.4568L19.474 32.5725ZM19.9412 32.5588C20.1354 32.5588 20.3278 32.5659 20.5182 32.5797L20.5994 31.465C20.382 31.4492 20.1625 31.4412 19.9412 31.4412V32.5588ZM20 24V32.0224H21.1176V24H20ZM20 24H20H21.1176C21.1176 23.3827 20.6173 22.8823 20 22.8823V24ZM20 24V22.8823C19.3827 22.8823 18.8824 23.3827 18.8824 24H20ZM20 32.0147V24H18.8824V32.0147H20ZM25.5703 34.949C25.8128 35.2002 26.0386 35.4675 26.2459 35.7492L27.146 35.0865C26.9091 34.7648 26.6512 34.4595 26.3744 34.1728L25.5703 34.949ZM36.2059 25.1176L26.3008 35.0227L27.0911 35.813L36.9962 25.9079L36.2059 25.1176ZM36.2059 25.1176V25.1176L36.9962 25.9079C37.4326 25.4715 37.4326 24.7638 36.9962 24.3273L36.2059 25.1176ZM36.2059 25.1176H36.2059L36.9962 24.3273C36.5597 23.8909 35.8521 23.8909 35.4156 24.3273L36.2059 25.1176ZM26.3675 34.956L36.2059 25.1176L35.4156 24.3273L25.5772 34.1657L26.3675 34.956ZM15.308 46.6871C15.0263 46.4797 14.759 46.2539 14.5079 46.0115L13.7316 46.8155C14.0184 47.0924 14.3236 47.3503 14.6454 47.5871L15.308 46.6871ZM1.55882 59.7647L14.5149 46.8086L13.7246 46.0183L0.768528 58.9744L1.55882 59.7647ZM1.55882 59.7647V59.7647L0.768527 58.9744C0.33206 59.4109 0.33206 60.1185 0.768527 60.555L1.55882 59.7647ZM1.55883 59.7647H1.55882L0.76853 60.555C1.205 60.9915 1.91265 60.9915 2.34912 60.555L1.55883 59.7647ZM14.5815 46.742L1.55882 59.7647L2.34912 60.555L15.3718 47.5323L14.5815 46.742ZM12.2426 41.783C12.1811 41.4426 12.1416 41.0943 12.1256 40.7396L11.0091 40.7898C11.0273 41.1944 11.0724 41.5924 11.1427 41.9817L12.2426 41.783ZM2.67647 41.3235H11.5674V40.2059H2.67647V41.3235ZM2.67647 41.3235V41.3235V40.2059C2.05921 40.2059 1.55882 40.7063 1.55882 41.3235H2.67647ZM2.67647 41.3235H1.55882C1.55882 41.9408 2.05921 42.4412 2.67647 42.4412V41.3235ZM11.6927 41.3235H2.67647V42.4412H11.6927V41.3235Z" fill="#1BACAC"/>
</svg>
