<svg width="36" height="36" viewBox="0 0 36 36" fill="none" xmlns="http://www.w3.org/2000/svg">
<path d="M5 36C3.896 36 3 35.104 3 34V3C3 1.896 3.896 1 5 1C6.104 1 7 1.896 7 3V34C7 35.104 6.104 36 5 36Z" fill="#8899A6"/>
<path d="M5 1C3.895 1 3 1.895 3 3V34C3 34.276 3.224 34.5 3.5 34.5C3.776 34.5 4 34.276 4 34V4.414C4 3.633 4.633 3 5.414 3H7C7 1.895 6.105 1 5 1Z" fill="#AAB8C2"/>
<path d="M5 36C3.896 36 3 35.104 3 34V3C3 1.896 3.896 1 5 1C6.104 1 7 1.896 7 3V34C7 35.104 6.104 36 5 36Z" fill="#8899A6"/>
<path d="M5 1C3.895 1 3 1.895 3 3V34C3 34.276 3.224 34.5 3.5 34.5C3.776 34.5 4 34.276 4 34V4.414C4 3.633 4.633 3 5.414 3H7C7 1.895 6.105 1 5 1Z" fill="#AAB8C2"/>
<path d="M32.396 3.082C30.732 2.363 28.959 2.006 27 1.974L25.625 2.354L21 3L20 2.872C19.763 2.923 19.524 2.971 19.289 3.022C17.12 3.491 15.059 3.916 13 4.004L12 5L6 4V23H12L13 25H13.077C15.321 24.904 17.549 24.444 19.71 23.978L20 23.917L20.646 23.272L26.084 22.564L27 22.974C28.68 23.006 30.193 23.309 31.604 23.918C31.913 24.051 32.269 24.021 32.549 23.836C32.831 23.65 33 23.337 33 23V4C33 3.601 32.763 3.24 32.396 3.082Z" fill="#31373D"/>
<path d="M13 4.004C12.761 4.014 12.522 4.039 12.283 4.039C10.486 4.039 8.887 3.726 7.396 3.082C7.088 2.947 6.731 2.979 6.451 3.165C6.169 3.349 6 3.664 6 4V10C6 10 9.292 11 13 11V4.004ZM20 10C20 10 16.25 11 13 11V18C16 18 20 17 20 17V10ZM27 9V1.974C26.904 1.972 26.814 1.961 26.717 1.961C24.45 1.961 22.196 2.403 20 2.872V10C20 10 22.167 9 27 9ZM6.604 23.918C8.104 24.566 9.694 24.911 11.424 25H13V18C8.833 18 6 17 6 17V23C6 23.399 6.237 23.76 6.604 23.918ZM20 17V23.916C22.313 23.417 24.511 22.961 26.717 22.961C26.814 22.961 26.904 22.972 27 22.974V16C22.5 16 20 17 20 17ZM27 16C29.676 16 31.82 16.56 33 16.954V9.908C31.853 9.527 29.769 9 27 9V16Z" fill="#E1E8ED"/>
</svg>
