<svg width="36" height="36" viewBox="0 0 36 36" fill="none" xmlns="http://www.w3.org/2000/svg">
<path d="M29.9999 23.828C29.6089 24.22 28.9769 24.22 28.5859 23.828L27.1719 22.414C26.7799 22.023 26.7799 21.39 27.1719 21L29.9999 18.172C30.3909 17.781 31.0229 17.781 31.4139 18.172L32.8279 19.586C33.2199 19.977 33.2199 20.61 32.8279 21L29.9999 23.828ZM14.9999 8.82803C14.6089 9.22003 13.9769 9.22003 13.5859 8.82803L12.1719 7.41403C11.7799 7.02303 11.7799 6.39103 12.1719 6.00003L14.9999 3.17203C15.3909 2.78103 16.0229 2.78103 16.4139 3.17203L17.8279 4.58603C18.2199 4.97703 18.2199 5.60903 17.8279 6.00003L14.9999 8.82803Z" fill="#66757F"/>
<path d="M1.99963 22C3.99963 22 12.9996 23 12.9996 23C12.9996 23 13.9996 32 13.9996 34C13.9996 36 11.9996 36 10.9996 35C9.99963 34 6.99963 29 6.99963 29C6.99963 29 1.99963 26 0.999628 25C-0.000372291 24 -0.000372291 22 1.99963 22ZM3.99963 6.03895C6.99963 5.99995 28.9996 6.99995 28.9996 6.99995C28.9996 6.99995 29.9236 29 29.9616 32C29.9996 35 27.1986 36.002 26.0996 32.001C25.0006 28 20.9996 15 20.9996 15C20.9996 15 7.04463 10.583 3.99463 9.89795C-0.00037241 8.99995 0.998628 6.07695 3.99963 6.03895Z" fill="#55ACEE"/>
<path d="M27.0005 2.99997C29.0005 0.999971 34.0005 -2.91467e-05 35.0005 0.999971C36.0005 1.99997 35.0005 6.99997 33.0005 8.99997C31.0005 11 14.0005 27 14.0005 27C14.0005 27 7.50046 31.5 6.00046 30C4.50046 28.5 9.00046 22 9.00046 22C9.00046 22 25.0005 4.99997 27.0005 2.99997Z" fill="#CCD6DD"/>
<path d="M13.9999 22C13.9999 22 14.4999 22.5 9.99993 27C5.49993 31.5 4.99993 31 4.99993 31C4.99993 31 4.49993 30.5 8.99993 26C13.4999 21.5 13.9999 22 13.9999 22ZM28.9999 4C30.6569 4 31.9999 5.343 31.9999 7H32.8049C32.9189 6.685 32.9999 6.355 32.9999 6C32.9999 4.343 31.6569 3 29.9999 3C29.6449 3 29.3149 3.081 28.9999 3.195V4Z" fill="#66757F"/>
</svg>
