<svg width="36" height="36" viewBox="0 0 36 36" fill="none" xmlns="http://www.w3.org/2000/svg">
<path d="M1 12C1 11 2 8 5 8H26.599C27.976 8 29.889 9.791 30.901 12L34 17C35.453 17.599 36 19.331 36 21V27C36 29.209 34.209 31 32 31H4C1.791 31 0 29.209 0 27V19C0 17.973 1 12 1 12Z" fill="#CCD6DD"/>
<path d="M27.0002 25C30.2672 25 32.9182 27.612 32.9932 30.861C32.6732 30.942 32.3452 31 32.0002 31H21.0002C21.0002 27.687 23.6862 25 27.0002 25ZM3.00716 30.86C3.08216 27.612 5.73216 25 9.00016 25C12.3122 25 15.0002 27.687 15.0002 31H4.00016C3.65516 31 3.32616 30.942 3.00716 30.86V30.86Z" fill="#E1E8ED"/>
<path d="M27 35C24.7909 35 23 33.2091 23 31C23 28.7909 24.7909 27 27 27C29.2091 27 31 28.7909 31 31C31 33.2091 29.2091 35 27 35Z" fill="#292F33"/>
<path d="M27 33C25.8954 33 25 32.1046 25 31C25 29.8954 25.8954 29 27 29C28.1046 29 29 29.8954 29 31C29 32.1046 28.1046 33 27 33Z" fill="#99AAB5"/>
<path d="M9 35C6.79086 35 5 33.2091 5 31C5 28.7909 6.79086 27 9 27C11.2091 27 13 28.7909 13 31C13 33.2091 11.2091 35 9 35Z" fill="#292F33"/>
<path d="M9 33C7.89543 33 7 32.1046 7 31C7 29.8954 7.89543 29 9 29C10.1046 29 11 29.8954 11 31C11 32.1046 10.1046 33 9 33Z" fill="#99AAB5"/>
<path d="M36 21H0V24H36V21ZM5 13H8V10H10V13H13V15H10V18H8V15H5V13Z" fill="#DD2E44"/>
<path d="M28 10H23V17H32L28 10Z" fill="#55ACEE"/>
<path d="M21 6.5C21 7.329 21.671 8 22.5 8H24.5C25.329 8 26 7.329 26 6.5C26 5.671 25.329 5 24.5 5H22.5C21.671 5 21 5.671 21 6.5Z" fill="#DD2E44"/>
<path d="M18 6.5C18 7.329 18.671 8 19.5 8H21.5C22.329 8 23 7.329 23 6.5C23 5.671 22.329 5 21.5 5H19.5C18.671 5 18 5.671 18 6.5Z" fill="#55ACEE"/>
</svg>
