<svg width="36" height="36" viewBox="0 0 36 36" fill="none" xmlns="http://www.w3.org/2000/svg">
<path d="M23 32H3C3 32 0 32 0 28C0 26 0 22 1 21C2 20 9 14 12 14H18C21 14 28 21 28 21L32 22C32 22 35 23 35 25V28C35 28 36 28.338 36 29.957C36 32 34 32 34 32H23Z" fill="#DD2E44"/>
<path d="M16 16H18C20 16 26 22 26 22C26 22 21.003 21.737 16 21.481V16ZM6 19C7 18 11 16 13 16H14V21.379C9.989 21.175 6.418 21 6 21C5 21 5 20 6 19V19Z" fill="#BBDDF5"/>
<path d="M26 35C23.7909 35 22 33.2091 22 31C22 28.7909 23.7909 27 26 27C28.2091 27 30 28.7909 30 31C30 33.2091 28.2091 35 26 35Z" fill="#292F33"/>
<path d="M26 33C24.8954 33 24 32.1046 24 31C24 29.8954 24.8954 29 26 29C27.1046 29 28 29.8954 28 31C28 32.1046 27.1046 33 26 33Z" fill="#CCD6DD"/>
<path d="M9 35C6.79086 35 5 33.2091 5 31C5 28.7909 6.79086 27 9 27C11.2091 27 13 28.7909 13 31C13 33.2091 11.2091 35 9 35Z" fill="#292F33"/>
<path d="M9 33C7.89543 33 7 32.1046 7 31C7 29.8954 7.89543 29 9 29C10.1046 29 11 29.8954 11 31C11 32.1046 10.1046 33 9 33Z" fill="#CCD6DD"/>
</svg>
