<svg width="36" height="36" viewBox="0 0 36 36" fill="none" xmlns="http://www.w3.org/2000/svg">
<path d="M17 9H15V20H17V9Z" fill="#99AAB5"/>
<path d="M26 9C28 11 30 14 30 16C30 20 25 17 25 17V9H26Z" fill="#55ACEE"/>
<path d="M31 36C28.7909 36 27 34.2091 27 32C27 29.7909 28.7909 28 31 28C33.2091 28 35 29.7909 35 32C35 34.2091 33.2091 36 31 36Z" fill="#292F33"/>
<path d="M31 34C29.8954 34 29 33.1046 29 32C29 30.8954 29.8954 30 31 30C32.1046 30 33 30.8954 33 32C33 33.1046 32.1046 34 31 34Z" fill="#99AAB5"/>
<path d="M7 23H9C10.105 23 11 23.895 11 25V30C11 31.105 10.105 32 9 32H7C5.895 32 5 31.105 5 30V25C5 23.895 5.895 23 7 23ZM17 23H19C20.105 23 21 23.895 21 25V30C21 31.105 20.105 32 19 32H17C15.895 32 15 31.105 15 30V25C15 23.895 15.895 23 17 23Z" fill="#1E5200"/>
<path d="M34.0002 28.3771C35.3872 28.6021 36.5812 27.2251 35.0002 25.9421C33.0002 24.3191 28.0002 23.5071 26.0002 24.3191C24.0002 25.1311 24.0002 33.0001 25.0002 33.0001C26.0002 33.0001 29.0002 27.5651 34.0002 28.3771Z" fill="#5C913B"/>
<path d="M25 33H12C11 33 10 33 10 31C10 30 9 27 7 27C5 27 2 30 2 31C2 32 2 33 1 33C0 33 0 32 0 31V19H8C8 22 9 27 9 27C9 27 10 26 10 28C10 28.606 11 30 12 30H13C14 30 15 29.334 15 28.328V19C15 18 17 18 17 19V28.328C17 29.334 17.738 30 18.659 30H21.989C23 30 24 29 24 28V19H31C31 25 26 33 25 33Z" fill="#3E721D"/>
<path d="M2 32C2 33 1 32 1 30C1 27 1.833 25 6 25C10.167 25 11 28 11 30C11 31 10 33 10 32C10 31 9.333 30 6 30C2.667 30 2 31 2 32Z" fill="#5C913B"/>
<path d="M24 19H31C31 18 30 16 30 16H26C25.448 16 25 15.552 25 15V11C25 11 27 11 27 9C27 8.674 26.894 8.348 26.75 8.056C26.427 7.4 25.742 7 25.01 7H3C1 7 0 12 0 19H8C8 19 8 11 11 11H24V19Z" fill="#FFAC33"/>
<path d="M6 36C3.79086 36 2 34.2091 2 32C2 29.7909 3.79086 28 6 28C8.20914 28 10 29.7909 10 32C10 34.2091 8.20914 36 6 36Z" fill="#292F33"/>
<path d="M6 34C4.89543 34 4 33.1046 4 32C4 30.8954 4.89543 30 6 30C7.10457 30 8 30.8954 8 32C8 33.1046 7.10457 34 6 34Z" fill="#99AAB5"/>
<path d="M27 18.5V17.5C27 17.224 27.224 17 27.5 17H30.448C30.714 17.648 31 18.464 31 19H27.5C27.224 19 27 18.776 27 18.5Z" fill="#F4900C"/>
</svg>
