<svg width="36" height="36" viewBox="0 0 36 36" fill="none" xmlns="http://www.w3.org/2000/svg">
<path d="M29.0004 24C27.0434 24 25.3674 25.135 24.5454 26.772L21.0684 25.033C22.5124 22.058 25.5544 20 29.0844 20C30.3854 20 31.6184 20.285 32.7334 20.787L31.0654 24.457C30.4344 24.17 29.7384 24 29.0004 24ZM7.0004 24C5.5334 24 4.2284 24.643 3.3124 25.648L0.415398 23.013C2.0484 21.169 4.4274 20 7.0844 20C10.6604 20 13.7364 22.111 15.1574 25.15L11.5094 26.872C10.7074 25.18 8.9974 24 7.0004 24Z" fill="#EA596E"/>
<path d="M29 22C32.866 22 36 25.134 36 29C36 32.866 32.866 36 29 36C25.134 36 22 32.866 22 29C22 25.134 25.133 22 29 22ZM29 34C31.761 34 34 31.762 34 29C34 26.238 31.761 24 29 24C26.239 24 24 26.238 24 29C24 31.762 26.238 34 29 34ZM7 22C10.865 22 14 25.134 14 29C14 32.866 10.865 36 7 36C3.133 36 0 32.866 0 29C0 25.134 3.133 22 7 22ZM7 34C9.761 34 12 31.762 12 29C12 26.238 9.761 24 7 24C4.238 24 2 26.238 2 29C2 31.762 4.238 34 7 34Z" fill="#292F33"/>
<path d="M6.016 28.922C6.021 28.855 6.037 28.79 6.056 28.724C6.075 28.659 6.096 28.598 6.127 28.538C6.14 28.514 6.142 28.486 6.156 28.463L13.156 17.463C13.453 16.997 14.07 16.859 14.537 17.156C14.836 17.346 14.981 17.669 14.982 17.999H24C24.552 17.999 25 18.446 25 18.999C25 19.552 24.552 19.999 24 19.999H14C13.973 19.999 13.95 19.985 13.923 19.983L8.822 28H18C18.552 28 19 28.447 19 29C19 29.553 18.552 30 18 30H6.999C6.883 30 6.769 29.972 6.656 29.931C6.622 29.918 6.592 29.904 6.559 29.888C6.528 29.871 6.493 29.864 6.462 29.844C6.432 29.824 6.414 29.793 6.387 29.772C6.332 29.728 6.284 29.683 6.24 29.629C6.199 29.58 6.166 29.53 6.136 29.475C6.106 29.419 6.081 29.365 6.061 29.303C6.04 29.237 6.028 29.171 6.021 29.102C6.017 29.066 6 29.036 6 29C6 28.973 6.014 28.949 6.016 28.922V28.922Z" fill="#DD2E44"/>
<path d="M14.419 16L17.318 24.117L23.247 17.342C23.611 16.927 24.243 16.883 24.658 17.248C25.073 17.612 25.115 18.243 24.752 18.659L18.088 26.274L18.942 28.664C19.127 29.183 18.856 29.756 18.336 29.941C18.225 29.981 18.112 30 18 30C17.589 30 17.204 29.745 17.058 29.336L12.295 16H14.419Z" fill="#DD2E44"/>
<path d="M29.0002 30C29.1502 30 29.3032 29.966 29.4462 29.895C29.9402 29.648 30.1402 29.047 29.8932 28.553L26.8312 22.447C26.8142 22.419 25.0002 19.651 25.0002 17C25.0002 13.758 27.2932 12.957 27.3162 12.949C27.8402 12.774 28.1232 12.208 27.9482 11.684C27.7742 11.16 27.2092 10.874 26.6832 11.052C26.5332 11.102 23.0002 12.333 23.0002 17C23.0002 20.068 24.8362 23.042 25.1312 23.497L28.1052 29.446C28.2802 29.798 28.6332 30 29.0002 30Z" fill="#DD2E44"/>
<path d="M21.3879 13.663C21.4419 13.663 21.4979 13.659 21.5529 13.649L27.5529 12.649C28.0969 12.558 28.4659 12.043 28.3749 11.498C28.2839 10.954 27.7739 10.585 27.2239 10.676L21.2239 11.676C20.6799 11.767 20.3109 12.282 20.4019 12.827C20.4839 13.316 20.9079 13.663 21.3879 13.663V13.663ZM9.61688 17C9.64688 17 9.67588 16.998 9.70588 16.994L15.3779 16.286C15.7499 16.24 16.0219 15.912 15.9979 15.538C15.9749 15.164 15.6649 14.873 15.2909 14.873C15.2499 14.873 11.2239 14.855 9.30188 13.574C9.05188 13.407 8.71988 13.417 8.47788 13.6C8.23888 13.785 8.14088 14.101 8.23688 14.388L8.94588 16.515C9.04188 16.808 9.31488 17 9.61688 17V17Z" fill="#292F33"/>
<path d="M16 29C16 30.104 16.895 31 18 31C19.104 31 20 30.104 20 29C20 27.896 19.104 27 18 27C16.895 27 16 27.896 16 29Z" fill="#66757F"/>
</svg>
