<svg width="36" height="36" viewBox="0 0 36 36" fill="none" xmlns="http://www.w3.org/2000/svg">
<path d="M36 21V28C36 29.657 34.657 31 33 31H3C1.343 31 0 29.657 0 28V21H36Z" fill="#808285"/>
<path d="M0 22V13C0 11.343 3.343 10 5 10H25C33 10 36 12.343 36 14V22H0Z" fill="#CCD6DD"/>
<path d="M36 22H0V25H36V22Z" fill="#939598"/>
<path d="M29.0002 25C32.0632 25 34.5862 27.298 34.9502 30.263C34.4242 30.716 33.7482 31 33.0002 31H23.0002C23.0002 27.687 25.6862 25 29.0002 25V25ZM1.05019 30.263C1.41419 27.298 3.93719 25 7.00019 25C10.3132 25 13.0002 27.687 13.0002 31H3.00019C2.25119 31 1.57519 30.716 1.05019 30.263V30.263Z" fill="#BCBEC0"/>
<path d="M29 35C26.7909 35 25 33.2091 25 31C25 28.7909 26.7909 27 29 27C31.2091 27 33 28.7909 33 31C33 33.2091 31.2091 35 29 35Z" fill="black"/>
<path d="M29 33C27.8954 33 27 32.1046 27 31C27 29.8954 27.8954 29 29 29C30.1046 29 31 29.8954 31 31C31 32.1046 30.1046 33 29 33Z" fill="#99AAB5"/>
<path d="M7 35C4.79086 35 3 33.2091 3 31C3 28.7909 4.79086 27 7 27C9.20914 27 11 28.7909 11 31C11 33.2091 9.20914 35 7 35Z" fill="black"/>
<path d="M7 33C5.89543 33 5 32.1046 5 31C5 29.8954 5.89543 29 7 29C8.10457 29 9 29.8954 9 31C9 32.1046 8.10457 33 7 33Z" fill="#99AAB5"/>
<path d="M36 25H35V27H36V25ZM1 23H0V25H1V23Z" fill="#F4900C"/>
<path d="M35 13H0V23H35V13Z" fill="#58595B"/>
<path d="M34 13H35.658C35.89 13.344 36 13.685 36 14V25H34C32.896 25 32 24.104 32 23V15C32 13.896 32.896 13 34 13Z" fill="#292F33"/>
<path d="M5 20C5 20.553 5.447 21 6 21H29C29.552 21 30 20.553 30 20V16C30 15.448 29.552 15 29 15H6C5.447 15 5 15.448 5 16V20Z" fill="#55ACEE"/>
<path d="M1 19H0V21H1V19Z" fill="#FFAC33"/>
<path d="M35 15H36V23H35C34.448 23 34 22.553 34 22V16C34 15.448 34.448 15 35 15Z" fill="#55ACEE"/>
</svg>
