<svg width="36" height="36" viewBox="0 0 36 36" fill="none" xmlns="http://www.w3.org/2000/svg">
<path d="M2.20748 17C2.20748 17 3.52448 20 18.0005 20C32.4775 20 34.0275 17 34.0275 17C34.0275 17 37.0005 22.117 31.1985 25C26.9605 27.105 20.2825 24.869 18.4755 24.186C16.4845 24.869 9.20148 27.01 4.91848 25C-0.94352 22.249 2.20748 17 2.20748 17Z" fill="#DD2E44"/>
<path d="M36 24H0V36H36V24Z" fill="#55ACEE"/>
<path d="M8.99486 25.389C8.78886 25.389 8.58286 25.31 8.42586 25.153C8.11086 24.838 8.11086 24.329 8.42586 24.014L17.2869 15.154C17.6019 14.839 18.1109 14.839 18.4259 15.154C18.7409 15.469 18.7409 15.978 18.4259 16.293L9.56486 25.153C9.40686 25.31 9.20086 25.389 8.99486 25.389Z" fill="#FFAC33"/>
<path d="M6.68419 28.5051C6.27219 28.5051 5.85919 28.3481 5.54519 28.0331C4.91619 27.4041 4.91619 26.3841 5.54519 25.7551L7.96119 23.3391C8.59019 22.7101 9.61119 22.7101 10.2392 23.3391C10.8682 23.9681 10.8682 24.9881 10.2392 25.6171L7.82319 28.0331C7.50919 28.3481 7.09619 28.5051 6.68419 28.5051Z" fill="#FFCC4D"/>
</svg>
