<svg width="36" height="36" viewBox="0 0 36 36" fill="none" xmlns="http://www.w3.org/2000/svg">
<path d="M0 27C0 29.209 1.791 31 4 31H32C34.209 31 36 29.209 36 27V24C36 21.791 34.209 20 32 20H4C1.791 20 0 21.791 0 24V27Z" fill="#DD2E44"/>
<path d="M17 13L17.979 12H28.854C32 12 33 14 33 14L36 19.959V25H17V13Z" fill="#FFCC4D"/>
<path d="M27 20H34L32 16C32 16 31 14 29 14H27V20Z" fill="#55ACEE"/>
<path d="M27 35C24.7909 35 23 33.2091 23 31C23 28.7909 24.7909 27 27 27C29.2091 27 31 28.7909 31 31C31 33.2091 29.2091 35 27 35Z" fill="#292F33"/>
<path d="M27 33C25.8954 33 25 32.1046 25 31C25 29.8954 25.8954 29 27 29C28.1046 29 29 29.8954 29 31C29 32.1046 28.1046 33 27 33Z" fill="#CCD6DD"/>
<path d="M9 35C6.79086 35 5 33.2091 5 31C5 28.7909 6.79086 27 9 27C11.2091 27 13 28.7909 13 31C13 33.2091 11.2091 35 9 35Z" fill="#292F33"/>
<path d="M9 33C7.89543 33 7 32.1046 7 31C7 29.8954 7.89543 29 9 29C10.1046 29 11 29.8954 11 31C11 32.1046 10.1046 33 9 33Z" fill="#CCD6DD"/>
<path d="M4 8H19C21.209 8 23 9.791 23 12V25H0V12C0 9.791 1.791 8 4 8Z" fill="#CCD6DD"/>
</svg>
