<svg width="36" height="36" viewBox="0 0 36 36" fill="none" xmlns="http://www.w3.org/2000/svg">
<path d="M1 8H23C23.552 8 24 8.448 24 9C24 9.552 23.552 10 23 10H21V12H19V10H17V12H15V10H13V12H11V10H9V12H7V10H5V12H3V10H1C0.447 10 0 9.552 0 9C0 8.448 0.447 8 1 8ZM0 13C0 13.552 0.447 14 1 14H23C23.552 14 24 13.552 24 13C24 12.448 23.552 12 23 12H1C0.447 12 0 12.448 0 13Z" fill="#CCD6DD"/>
<path d="M4 14H22C22 14 21.959 12 24.979 12H30.854C36 12 36 19.959 36 19.959V27C36 29.209 34.209 31 32 31H4C1.791 31 0 29.209 0 27V18C0 15.791 1.791 14 4 14Z" fill="#DD2E44"/>
<path d="M34 22H2V25H34V22Z" fill="#F5F8FA"/>
<path d="M29 35C26.7909 35 25 33.2091 25 31C25 28.7909 26.7909 27 29 27C31.2091 27 33 28.7909 33 31C33 33.2091 31.2091 35 29 35Z" fill="#292F33"/>
<path d="M29 33C27.8954 33 27 32.1046 27 31C27 29.8954 27.8954 29 29 29C30.1046 29 31 29.8954 31 31C31 32.1046 30.1046 33 29 33Z" fill="#8899A6"/>
<path d="M8 35C5.79086 35 4 33.2091 4 31C4 28.7909 5.79086 27 8 27C10.2091 27 12 28.7909 12 31C12 33.2091 10.2091 35 8 35Z" fill="#292F33"/>
<path d="M8 33C6.89543 33 6 32.1046 6 31C6 29.8954 6.89543 29 8 29C9.10457 29 10 29.8954 10 31C10 32.1046 9.10457 33 8 33Z" fill="#8899A6"/>
<path d="M29 20H34C34 20 34 14 31 14H29V20ZM24 20H27V14H26C25 14 24 15 24 16V20Z" fill="#55ACEE"/>
<path d="M28 11C28 11.552 28.448 12 29 12H31C31.552 12 32 11.552 32 11C32 10.448 31.552 10 31 10H29C28.448 10 28 10.448 28 11Z" fill="#FFAC33"/>
<path d="M26 11C26 11.552 26.448 12 27 12H29C29.552 12 30 11.552 30 11C30 10.448 29.552 10 29 10H27C26.448 10 26 10.448 26 11Z" fill="#3B88C3"/>
</svg>
