<svg width="36" height="36" viewBox="0 0 36 36" fill="none" xmlns="http://www.w3.org/2000/svg">
<g clip-path="url(#clip0)">
<path d="M3.16887 20.425C3.85787 23.666 12.3789 26.646 20.4829 24.924C28.5869 23.202 35.1589 17.013 34.4699 13.772C33.7809 10.531 25.8829 10.485 17.7799 12.208C9.67687 13.931 2.47987 17.184 3.16887 20.425Z" fill="#FFD983"/>
<path d="M9 36L11 22L28 17L36 36H9Z" fill="#FFD983"/>
<path d="M1.89075 19.2213C1.02312 15.1395 7.76461 10.248 16.9483 8.29594C26.132 6.34389 34.2801 8.07046 35.1478 12.1523C36.0154 16.2342 29.2739 21.1257 20.0902 23.0777C10.9066 25.0298 2.75838 23.3032 1.89075 19.2213Z" fill="#67757F"/>
<path d="M35.5859 10.9771L35.1719 13.2921L2.30594 20.2781L0.89394 18.1521L35.5859 10.9771Z" fill="#67757F"/>
<path d="M0.380228 16.9294C-0.538384 12.6077 6.5997 7.4287 16.3236 5.36182C26.0475 3.29495 34.6749 5.12287 35.5935 9.4446C36.5122 13.7663 29.3741 18.9453 19.6502 21.0122C9.92629 23.0791 1.29884 21.2511 0.380228 16.9294Z" fill="#9AAAB4"/>
<path d="M2.89931 14.3504C2.21035 11.1091 8.22082 7.08524 16.3241 5.36284C24.4273 3.64044 31.5548 4.87175 32.2437 8.11305C32.9327 11.3543 26.9222 15.3782 18.819 17.1006C10.7158 18.823 3.58827 17.5917 2.89931 14.3504Z" fill="#CCD6DD"/>
<path d="M8.35262 11.146C8.00814 9.52533 11.6703 7.37377 16.5322 6.34033C21.3942 5.30689 25.6148 5.78292 25.9593 7.40357C26.3038 9.02422 22.6416 11.1758 17.7797 12.2092C12.9177 13.2427 8.69709 12.7666 8.35262 11.146Z" fill="#E1E8ED"/>
<path d="M25.9589 7.40197C25.6149 5.78097 22.9629 2.92697 16.1159 4.38197C9.26894 5.83697 8.00794 9.52297 8.35194 11.144C8.69594 12.765 12.9169 13.241 17.7789 12.207C22.6409 11.173 26.3039 9.02297 25.9589 7.40197V7.40197Z" fill="#5DADEC"/>
<path d="M19.2354 20.0551C18.6831 20.0551 18.2354 19.6073 18.2354 19.0551C18.2354 18.5028 18.6831 18.0551 19.2354 18.0551C19.7876 18.0551 20.2354 18.5028 20.2354 19.0551C20.2354 19.6073 19.7876 20.0551 19.2354 20.0551Z" fill="#8CCAF7"/>
<path d="M11.2021 20.74C10.6499 20.74 10.2021 20.2923 10.2021 19.74C10.2021 19.1877 10.6499 18.74 11.2021 18.74C11.7544 18.74 12.2021 19.1877 12.2021 19.74C12.2021 20.2923 11.7544 20.74 11.2021 20.74Z" fill="#8CCAF7"/>
<path d="M3.73144 19.261C3.17916 19.261 2.73144 18.8133 2.73144 18.261C2.73144 17.7087 3.17916 17.261 3.73144 17.261C4.28373 17.261 4.73145 17.7087 4.73145 18.261C4.73145 18.8133 4.28373 19.261 3.73144 19.261Z" fill="#8CCAF7"/>
<path d="M1.04115 14.6978C0.866666 14.4837 1.07222 14.0273 1.50028 13.6783C1.92834 13.3294 2.4168 13.22 2.59129 13.434C2.76578 13.648 2.56022 14.1044 2.13216 14.4534C1.7041 14.8024 1.21564 14.9118 1.04115 14.6978Z" fill="#8CCAF7"/>
<path d="M33.0669 7.87948C32.5339 7.73478 32.1605 7.40145 32.2328 7.13495C32.3052 6.86846 32.7959 6.76971 33.3289 6.9144C33.8619 7.0591 34.2353 7.39243 34.163 7.65893C34.0906 7.92542 33.5999 8.02417 33.0669 7.87948Z" fill="#8CCAF7"/>
<path d="M33.0762 13.0229C32.5239 13.0229 32.0762 12.5752 32.0762 12.0229C32.0762 11.4707 32.5239 11.0229 33.0762 11.0229C33.6285 11.0229 34.0762 11.4707 34.0762 12.0229C34.0762 12.5752 33.6285 13.0229 33.0762 13.0229Z" fill="#8CCAF7"/>
<path d="M26.8516 17.413C26.2993 17.413 25.8516 16.9652 25.8516 16.413C25.8516 15.8607 26.2993 15.413 26.8516 15.413C27.4038 15.413 27.8516 15.8607 27.8516 16.413C27.8516 16.9652 27.4038 17.413 26.8516 17.413Z" fill="#8CCAF7"/>
<path d="M11.5365 6.89058C11.3643 6.08026 13.4143 4.95793 16.1154 4.3838C18.8165 3.80967 21.1458 4.00114 21.318 4.81147C21.4903 5.62179 19.4402 6.74411 16.7391 7.31824C14.0381 7.89238 11.7088 7.70091 11.5365 6.89058Z" fill="#8CCAF7"/>
</g>
<defs>
<clipPath id="clip0">
<rect width="36" height="36" fill="white" transform="matrix(-1 0 0 1 36 0)"/>
</clipPath>
</defs>
</svg>
