<svg width="36" height="36" viewBox="0 0 36 36" fill="none" xmlns="http://www.w3.org/2000/svg">
<path d="M19.7402 26H17.7402V31H19.7402V26ZM27.7402 26H25.7402V31H27.7402V26Z" fill="#66757F"/>
<path d="M29.7412 4C26.4275 4 23.7412 3.55228 23.7412 3C23.7412 2.44772 26.4275 2 29.7412 2C33.0549 2 35.7412 2.44772 35.7412 3C35.7412 3.55228 33.0549 4 29.7412 4Z" fill="#99AAB5"/>
<path d="M15.7412 4C12.4275 4 9.74121 3.55228 9.74121 3C9.74121 2.44772 12.4275 2 15.7412 2C19.0549 2 21.7412 2.44772 21.7412 3C21.7412 3.55228 19.0549 4 15.7412 4Z" fill="#99AAB5"/>
<path d="M23.7402 3H21.7402V9H23.7402V3Z" fill="#99AAB5"/>
<path d="M22.7412 4C21.6366 4 20.7412 3.55228 20.7412 3C20.7412 2.44772 21.6366 2 22.7412 2C23.8458 2 24.7412 2.44772 24.7412 3C24.7412 3.55228 23.8458 4 22.7412 4Z" fill="#66757F"/>
<path d="M1.74109 10C1.74109 7 1.74109 3 2.74109 3C3.74109 3 5.74109 7 6.74109 9C7.74109 11 1.74109 10 1.74109 10Z" fill="#FFCC4D"/>
<path d="M1.74121 10C1.74121 7.791 9.74121 7 20.7412 7H22.7412C29.3682 7 35.4912 12.451 35.4912 18.25C35.4912 24.049 31.7412 28 22.7412 28C13.7412 28 10.7412 23.299 10.7412 17.5C10.7412 16.619 10.8792 15.769 11.1122 14.951C6.74121 14 1.74121 12.006 1.74121 10Z" fill="#FFCC4D"/>
<path d="M31.7406 13C33.8316 15.918 34.8086 20.589 30.5276 20.784C25.7406 21 23.7406 21 22.6776 18.412C21.3136 15.092 21.7406 10.999 22.9536 10.217C25.2736 8.72004 29.6486 10.082 31.7406 13V13ZM14.8996 12.535C12.7406 16 12.8296 18.696 16.7406 20C19.7406 21 20.7406 18 20.5816 14.465C20.4696 11.982 20.3756 10.27 18.7406 10C17.2936 9.76004 16.2146 10.426 14.8996 12.535Z" fill="#3B88C3"/>
<path d="M4.55946 7.114C3.65646 8.387 3.28846 9.678 3.73946 9.998C4.18946 10.318 5.28746 9.54401 6.19046 8.27201C7.09346 6.99901 7.46146 5.708 7.01046 5.388C6.56046 5.067 5.46346 5.841 4.55946 7.114V7.114Z" fill="#99AAB5"/>
<path d="M1.28019 11.7351C0.371193 13.0141 0.000194848 14.3101 0.450195 14.6291C0.900195 14.9491 2.00319 14.1711 2.91019 12.8921C3.81919 11.6131 4.18919 10.3161 3.73919 9.99606C3.28919 9.67806 2.18819 10.4561 1.28019 11.7351Z" fill="#99AAB5"/>
<path d="M2.92387 9.419C2.60487 9.869 2.70987 10.493 3.15987 10.813C3.60987 11.133 4.23387 11.027 4.55487 10.577C4.87387 10.127 4.76887 9.503 4.31787 9.183C3.86687 8.862 3.24287 8.969 2.92387 9.419Z" fill="#66757F"/>
<path d="M10.7402 32C10.7402 33.104 11.6362 34 12.7402 34H32.7402C33.8442 34 34.7402 33.104 34.7402 32C34.7402 30.896 33.8442 30 32.7402 30H12.7402C11.6362 30 10.7402 30.896 10.7402 32Z" fill="#99AAB5"/>
</svg>
