<svg width="36" height="36" viewBox="0 0 36 36" fill="none" xmlns="http://www.w3.org/2000/svg">
<g clip-path="url(#clip0)">
<path d="M36 34H0V36H36V34Z" fill="#939598"/>
<path d="M32.9999 35H-0.000141144V8C-0.000141144 8 28.9999 9 35.9999 23.999C38.1149 28.53 29.9999 29.999 29.9999 29.999L32.9999 35Z" fill="#BCBEC0"/>
<path d="M12.9996 18L27.9996 25H36.3096C36.8936 28.748 29.9996 29.999 29.9996 29.999L32.9996 35H-0.000385284V15.29L12.9996 18Z" fill="#3B88C3"/>
<path d="M22 35L20 32H0V35H22Z" fill="#231F20"/>
<path d="M-0.000320435 14.142C4.34668 14.5 13.3877 15.762 19.5807 20.186C25.1837 24.188 31.4577 24.085 35.6137 24.015L36.0037 24.009C36.3507 24.757 36.4147 25.419 36.2867 26.007C36.0727 26.01 35.8757 26.011 35.6467 26.015C35.0937 26.024 34.4917 26.034 33.8477 26.034C29.6627 26.034 23.7397 25.614 18.4187 21.813C13.1887 18.078 4.96568 16.572 -0.000320435 16.141V14.142V14.142Z" fill="#E6E7E8"/>
<path d="M24 16L20.122 11.071C15.273 9.13202 7 8.02002 0 8.02002V10.02C7 10.019 18 12 24 16Z" fill="#A7A9AC"/>
<path d="M32.9053 19.465C31.2333 19.073 29.2883 18.742 27.4653 17.815C18.0003 13 16.9923 10.017 17.0003 10C24.0003 10 29.0003 14 32.9053 19.465V19.465Z" fill="#58595B"/>
<path d="M29.9997 29.999L-0.000282288 30V28H34.8867C33.0117 29.452 29.9997 29.999 29.9997 29.999Z" fill="#226699"/>
<path d="M32.4512 22.145C31.9812 22.179 31.4382 22.164 30.8602 22.085C29.2182 21.863 27.9472 21.239 28.0212 20.691C28.0942 20.15 29.4562 19.888 31.0732 20.097C31.7212 20.729 32.1932 21.423 32.4512 22.145V22.145Z" fill="#FFE8B6"/>
</g>
<defs>
<clipPath id="clip0">
<rect width="36" height="36" fill="white" transform="matrix(-1 0 0 1 36 0)"/>
</clipPath>
</defs>
</svg>
