<svg width="36" height="36" viewBox="0 0 36 36" fill="none" xmlns="http://www.w3.org/2000/svg">
<path d="M7.27913 12.849C7.27913 12.849 3.47013 14.492 1.74713 13.298C0.0241284 12.105 -0.362872 10.525 0.588128 8.56202C1.53913 6.60102 4.21113 5.83002 4.30013 3.27002C4.30013 3.27002 4.59813 7.41102 2.78713 8.77502C0.225126 10.708 3.23313 12.985 6.30913 12.603C9.38713 12.221 7.27913 12.849 7.27913 12.849V12.849Z" fill="#292F33"/>
<path d="M12.125 19.375C12.125 19.375 12.753 21.917 11.938 24.405C11.793 24.746 11.889 24.961 12.146 25.083C12.402 25.205 16.44 26.625 16.875 26.854C17.271 27.062 18.017 28.634 18.083 29.708C17.239 29.926 16.458 29.812 16.458 29.812C16.458 29.812 16.433 27.897 16.25 27.77C16.067 27.643 10.564 26.722 10.188 25.999C9.81201 25.276 8.57701 22.111 9.37601 20.707C9.60101 20.312 10.013 19.557 10.013 19.557L12.125 19.375V19.375Z" fill="#8A4B38"/>
<path d="M18.0831 29.708C18.0831 29.708 18.6991 31.701 18.0751 31.846C17.4701 31.987 16.3811 31.458 16.3201 31.2C16.2391 30.857 16.1041 30.021 16.2221 29.834C16.3401 29.648 18.0831 29.708 18.0831 29.708V29.708Z" fill="#292F33"/>
<path d="M24.1881 21.875L24.9381 19.313C24.9381 19.313 27.7041 21.418 28.8761 22.907C29.2201 23.344 30.7231 26.105 30.5981 27.32C30.5481 27.808 30.1241 29.903 30.1241 29.903L28.4731 29.438C28.4731 29.438 29.7851 27.542 29.4941 26.876C28.0661 23.613 24.1881 21.875 24.1881 21.875V21.875Z" fill="#8A4B38"/>
<path d="M28.321 29.4241C28.493 29.2851 30.124 29.9031 30.124 29.9031C30.124 29.9031 30.067 31.9881 29.429 31.9251C28.811 31.8641 27.949 31.0131 27.974 30.7501C28.008 30.3991 28.149 29.5631 28.321 29.4241V29.4241Z" fill="#292F33"/>
<path d="M8.81164 11.188C12.2486 11.344 16.0186 11.626 18.3116 11.626C21.9666 11.626 23.5306 10.198 24.8736 9.00099C27.1616 6.96399 27.8326 4.77899 29.9996 5.50099C29.9996 5.50099 30.6316 5.08999 31.2466 4.72299L31.5076 4.57099C31.7636 4.42299 31.9996 4.29499 32.1636 4.22399C32.3276 4.15199 32.4216 4.13699 32.3916 4.21399C32.3726 4.26499 32.2986 4.35699 32.1556 4.49999C31.6836 4.97199 31.4806 5.44999 31.4276 5.89499C33.4376 7.09699 33.5206 8.17098 34.2986 9.44698C34.7906 10.254 35.6586 11.501 35.8586 11.962C36.2706 12.91 34.8346 14.014 34.1526 13.369C33.2596 12.524 33.1916 12.247 32.1206 11.625C31.1376 11.609 30.1456 11.209 29.8126 10.605C29.8126 10.605 28.8746 12.688 27.8746 14.188C26.8746 15.688 25.3746 17.313 25.3746 17.313C25.5056 18.54 25.2546 19.489 24.8256 20.235C25.2106 20.992 25.7496 22.042 26.2426 22.98C26.8986 24.225 27.7156 26.204 27.4506 26.598C26.9166 27.396 24.7316 29.524 23.3136 29.909C22.2836 30.189 21.1736 30.346 21.1736 30.346L21.3666 28.772C21.3666 28.772 22.7096 28.985 23.2416 28.689C24.6686 27.894 25.9076 26.441 25.9496 26.147C26.0196 25.66 22.1086 23.279 20.8096 22.502C18.5436 22.599 14.7876 22.133 12.1836 20.8C11.2256 22.66 9.20564 23.313 9.20564 23.313C9.20564 23.313 8.53864 25.521 7.83064 27.438C8.84764 27.971 12.2986 30.692 12.8056 31.292C13.2616 31.832 13.6616 33.782 13.6616 33.782C12.8416 34.157 12.0916 33.969 12.0916 33.969C12.0916 33.969 12.0526 32.407 11.7066 31.896C11.3606 31.385 7.00564 29.337 5.74864 28.438C5.25664 28.086 5.34464 27.535 5.48664 26.886C5.80764 25.415 6.45664 22.105 6.45764 22.104C1.31164 19.125 -0.000358582 10.788 8.81164 11.188V11.188Z" fill="#C1694F"/>
<path d="M13.6636 33.782C13.6636 33.782 14.2796 35.775 13.6556 35.92C13.0506 36.061 11.9616 35.532 11.9006 35.274C11.8196 34.931 11.6846 34.095 11.8026 33.908C11.9206 33.721 13.6636 33.782 13.6636 33.782V33.782ZM21.3396 28.486C21.5066 28.632 21.1756 30.345 21.1756 30.345C21.1756 30.345 19.1116 30.644 19.0646 30.005C19.0196 29.385 19.7116 28.391 19.9746 28.371C20.3256 28.344 21.1726 28.34 21.3396 28.486Z" fill="#292F33"/>
<path d="M10.8967 11.282C14.1917 11.417 19.9997 11.781 21.2967 11.203C21.2337 13.125 21.9727 14.808 20.9967 18.068C20.5367 18.169 12.8747 18.312 10.0617 17.156C10.7337 14.294 10.4507 13.163 10.8967 11.282Z" fill="#FFAC33"/>
<path d="M20.1088 11.438C20.1088 11.438 20.8678 14.981 17.7008 15.068C14.5338 15.155 14.9088 12.821 14.6558 12.563C14.4028 12.305 11.9378 12.172 11.9378 11.499C11.9378 11.266 13.2068 11.372 13.8118 11.4C14.1148 11.414 17.4008 11.604 20.1088 11.438V11.438Z" fill="#623120"/>
<path d="M29.9062 5.70605C30.5882 6.17605 31.5763 5.99205 31.5763 5.99205C32.1703 6.24205 33.1003 7.14805 33.5063 7.92905C33.9123 8.71005 35.0312 10.5931 35.0312 10.5931C35.0312 10.5931 33.9373 11.4581 33.3123 12.4991C33.3123 12.4991 32.7812 11.9681 32.1202 11.6241C30.1782 11.5611 29.8122 10.6041 29.8122 10.6041C29.8122 10.6041 29.7812 7.61205 29.9062 5.70605V5.70605ZM31.6792 8.46705C31.9322 8.46705 32.1392 8.26106 32.1392 8.00806C32.1392 7.75506 31.9322 7.54905 31.6792 7.54905C31.4262 7.54905 31.2202 7.75506 31.2202 8.00806C31.2202 8.26106 31.4262 8.46705 31.6792 8.46705Z" fill="#5C913B"/>
<path d="M31.7496 8.396C31.5569 8.396 31.4006 8.23975 31.4006 8.047C31.4006 7.85425 31.5569 7.698 31.7496 7.698C31.9424 7.698 32.0986 7.85425 32.0986 8.047C32.0986 8.23975 31.9424 8.396 31.7496 8.396Z" fill="#292F33"/>
<path d="M31.6794 7.09894C32.1814 7.09894 32.5884 7.50694 32.5884 8.00794C32.5884 8.50894 32.1814 8.91694 31.6794 8.91694C31.1784 8.91694 30.7714 8.50894 30.7714 8.00794C30.7714 7.50694 31.1784 7.09894 31.6794 7.09894V7.09894ZM31.6794 8.46694C31.9324 8.46694 32.1394 8.26094 32.1394 8.00794C32.1394 7.75494 31.9324 7.54894 31.6794 7.54894C31.4264 7.54894 31.2204 7.75494 31.2204 8.00794C31.2204 8.26094 31.4264 8.46694 31.6794 8.46694ZM33.4644 12.6519L35.2354 10.8999L34.9824 10.5119L33.1414 12.3289L33.4644 12.6519ZM29.8964 5.69894L29.4474 5.68994L29.3544 10.5879L29.8034 10.5969L29.8964 5.69894Z" fill="#F5F8FA"/>
<path d="M23.3452 9.06999C21.5722 10.516 20.1982 9.39199 20.1982 9.39199C21.4932 9.12099 22.2542 8.52499 22.9062 7.82999C22.0712 7.69899 21.6192 7.16399 21.6192 7.16399C22.6802 7.15099 23.4432 6.86399 24.1042 6.46499C24.6692 5.85099 25.3372 5.26299 26.3582 4.83399C26.6522 4.70899 26.9642 4.62399 27.2802 4.55799C27.3662 4.53299 27.4582 4.49499 27.5382 4.48499C28.4442 4.37099 29.3832 4.53599 30.2752 5.08799C30.5972 5.28799 30.4892 5.72699 30.1582 5.71099C28.4172 5.62599 27.2922 6.29299 26.6882 7.34399C24.5192 11.116 21.3442 11.219 21.3442 11.219C21.3442 11.219 22.6342 10.531 23.3452 9.06999V9.06999ZM18.2352 22.4L18.5962 14.834L17.5672 15.062L17.1172 22.27C17.4942 22.341 18.2352 22.4 18.2352 22.4Z" fill="#292F33"/>
<path d="M33.6463 12.75C33.8373 12.75 34.0203 12.64 34.1033 12.454C34.2153 12.202 34.1023 11.906 33.8493 11.794C27.7103 9.058 22.6313 9.059 22.3723 9.047C22.0973 9.048 21.8743 9.273 21.8753 9.549C21.8763 9.824 22.1013 10.047 22.3753 10.047H22.3793C22.4833 10.047 27.5293 10.072 33.4423 12.707C33.5083 12.736 33.5773 12.75 33.6463 12.75V12.75Z" fill="#623120"/>
<path d="M17.1251 5.51605C17.5631 4.04705 20.3811 4.28505 20.2021 2.92505L20.3231 3.16805C20.3511 2.96105 20.4021 2.75205 20.4941 2.54805C20.9441 1.55105 22.0161 1.06205 22.8881 1.45605C23.6441 1.79705 24.6261 1.80505 24.2291 3.09205C24.1681 3.28905 24.0951 3.54305 23.9811 3.79505C23.5291 4.79105 22.1321 5.46005 21.2591 5.06605C21.2091 5.04405 21.1681 5.01105 21.1221 4.98405C20.9151 5.10705 20.2821 5.49005 19.2581 6.18905C18.0511 7.01205 16.6901 6.98605 17.1251 5.51605V5.51605Z" fill="#FFDC5D"/>
<path d="M24.1115 1.41899C23.8555 0.918995 22.8105 0.353995 21.9195 0.408995C20.9145 0.471995 20.3555 1.16899 20.1245 2.04199C20.0105 2.47199 20.0795 2.95599 20.1675 3.31199C20.1675 3.31199 21.1325 3.22499 21.0255 3.16199C20.8275 3.04499 20.9915 2.34699 21.2435 2.25499C21.5085 2.15799 21.6045 2.41799 21.5675 2.61899C21.5315 2.81999 21.5355 2.94299 21.6475 3.01699C21.7595 3.09099 22.1365 2.51499 22.4125 2.40299C22.8675 2.21799 23.9035 3.53499 24.2285 3.09299C24.4305 2.81699 24.4285 2.03799 24.1115 1.41899Z" fill="#FFAC33"/>
<path d="M22.837 2.84895C22.837 2.84895 21.255 2.09495 20.849 1.97995C20.443 1.86495 20.246 1.81395 20.178 1.72795C20.111 1.64195 20.281 1.50295 20.356 1.41195C20.431 1.32095 20.796 0.437954 21.631 0.168954C22.327 -0.0550461 22.833 0.0579539 23.214 0.213954C23.595 0.369954 24.398 0.725954 24.58 2.05595C24.676 2.80095 24.542 3.20095 24.542 3.20095C24.542 3.20095 25.018 3.33695 25.065 3.34495C25.112 3.35295 25.107 3.47095 24.886 3.52595C24.665 3.58095 23.594 3.45795 23.246 3.29495C22.898 3.13195 22.928 2.92395 22.837 2.84895Z" fill="#9266CC"/>
<path d="M15.1725 14.172C15.3585 13.64 15.4205 13.456 15.7265 12.648C15.8265 12.384 15.9455 12.063 16.0955 11.655L18.0295 12.4C17.8535 12.783 17.7165 13.088 17.6035 13.346C17.2395 14.178 17.1285 14.667 17.0115 15.223L17.8125 15.514C18.1995 15.682 18.6235 15.847 18.6705 16.447C18.7065 16.909 18.3295 16.871 18.0355 16.835C17.6025 16.783 14.9425 16.329 14.8125 16.047C14.6955 15.79 14.9515 14.804 15.1725 14.172Z" fill="black"/>
<path d="M18.0289 12.4C18.0289 12.4 18.2289 11.894 18.4239 11.231C18.7999 9.94897 18.9889 8.91697 14.9729 7.89597C14.9969 7.85397 15.0289 7.80397 15.0719 7.74397C16.3959 5.88597 19.3249 4.04797 18.5629 3.92897C14.7309 3.32797 13.5559 3.92197 11.8789 6.27797C11.0519 7.43997 10.9429 7.87097 11.0949 8.46897C11.6849 10.797 16.2449 9.74097 16.0949 11.655L18.0289 12.4Z" fill="#CCD6DD"/>
<path d="M18.5609 7.08606C17.0259 8.14106 16.2219 6.93206 14.9729 7.89606L11.6959 6.57406C12.9769 4.10906 16.5749 2.02106 19.5559 3.55006C20.2489 3.90506 20.7409 4.57406 20.5969 5.35406C20.3079 6.91406 19.1919 6.65306 18.5609 7.08606V7.08606Z" fill="#5C913B"/>
<path d="M18.063 5.15305C18.094 5.07305 18.18 4.86605 18.242 4.79705C18.542 4.37805 19.084 4.18805 19.582 4.39105C20.165 4.62905 20.446 5.29405 20.208 5.87805C19.284 8.29105 19.066 8.52905 19.176 8.71705C19.206 8.74705 19.524 9.00105 21.499 8.80705L22 9.00005V10.0001L21.695 10.7971C19.771 10.9861 18.336 10.9111 17.588 9.93205C16.709 8.78005 17.16 7.51105 18.063 5.15305V5.15305Z" fill="#A6D388"/>
<path d="M21.4977 8.80704C23.3907 7.61604 23.5327 9.05704 23.5867 9.60604C23.6407 10.156 23.6847 10.601 21.6937 10.797L21.4977 8.80704Z" fill="#FFDC5D"/>
<path d="M17.7266 15.478L17.2796 15.319C17.7676 14.101 18.3106 14.298 18.3506 14.313C18.5506 14.389 19.2756 15.366 18.6666 16.829C18.6276 16.922 18.5406 16.979 18.4466 16.983C18.4106 16.985 18.3736 16.978 18.3396 16.964C18.2126 16.91 18.1516 16.765 18.2046 16.637C18.5776 15.741 18.3466 14.986 18.1736 14.912C18.0016 14.839 17.7626 15.214 17.7266 15.478V15.478Z" fill="#AAB8C2"/>
</svg>
