<svg width="36" height="36" viewBox="0 0 36 36" fill="none" xmlns="http://www.w3.org/2000/svg">
<path d="M31.5 36C29.0147 36 27 33.9853 27 31.5C27 29.0147 29.0147 27 31.5 27C33.9853 27 36 29.0147 36 31.5C36 33.9853 33.9853 36 31.5 36Z" fill="#292F33"/>
<path d="M31.5 34.5C29.8431 34.5 28.5 33.1569 28.5 31.5C28.5 29.8431 29.8431 28.5 31.5 28.5C33.1569 28.5 34.5 29.8431 34.5 31.5C34.5 33.1569 33.1569 34.5 31.5 34.5Z" fill="#DD2E44"/>
<path d="M4.5 36C2.01472 36 0 33.9853 0 31.5C0 29.0147 2.01472 27 4.5 27C6.98528 27 9 29.0147 9 31.5C9 33.9853 6.98528 36 4.5 36Z" fill="#292F33"/>
<path d="M4.5 34.5C2.84315 34.5 1.5 33.1569 1.5 31.5C1.5 29.8431 2.84315 28.5 4.5 28.5C6.15685 28.5 7.5 29.8431 7.5 31.5C7.5 33.1569 6.15685 34.5 4.5 34.5Z" fill="#DD2E44"/>
<path d="M4.5 33H24.5C25.325 33 26 32.325 26 31.5C26 30.675 25.325 30 24.5 30H4.5C3.675 30 3 30.675 3 31.5C3 32.325 3.675 33 4.5 33Z" fill="#55ACEE"/>
<path d="M9.98809 31.746C9.99109 31.664 10.0001 31.583 10.0001 31.5C10.0001 28.462 7.53809 26 4.50009 26C3.29009 26 2.17409 26.396 1.26609 27.058L0.376093 25.853C1.53409 25.006 2.95609 24.5 4.50109 24.5C8.36709 24.5 11.5011 27.634 11.5011 31.5C11.5011 31.602 11.4901 31.701 11.4861 31.802L9.98809 31.746V31.746ZM30.3711 26.117C27.8761 26.637 26.0021 28.847 26.0001 31.495L22.5001 31.498C22.5011 27.158 25.5741 23.536 29.6631 22.688C29.8951 23.818 30.1391 24.998 30.3711 26.117Z" fill="#55ACEE"/>
<path d="M31.6051 31.998C31.8741 31.941 32.0471 31.674 31.9901 31.405L25.9881 3.16698C25.9311 2.89798 25.6641 2.72498 25.3951 2.78198C25.1261 2.83898 24.9531 3.10598 25.0101 3.37498L31.0121 31.613C31.0691 31.882 31.3361 32.055 31.6051 31.998V31.998Z" fill="#99AAB5"/>
<path d="M29.8774 26.261L30.8554 26.053C31.3934 25.939 31.7404 25.405 31.6254 24.867L30.3784 18.998C30.2644 18.46 29.7304 18.113 29.1924 18.228L28.2144 18.436C27.6764 18.55 27.3294 19.084 27.4444 19.622L28.6904 25.49C28.8054 26.028 29.3394 26.375 29.8774 26.261V26.261Z" fill="#55ACEE"/>
<path d="M26.6998 4.32398L28.6568 3.90798C29.4638 3.73598 29.9838 2.93598 29.8118 2.12898C29.6408 1.32198 28.8398 0.801978 28.0328 0.972978L26.0768 1.38898C25.2698 1.56098 24.7498 2.36098 24.9218 3.16798C25.0928 3.97498 25.8938 4.49498 26.6998 4.32398V4.32398Z" fill="#DD2E44"/>
<path d="M25.1598 1.67498C25.9668 1.50298 26.7678 2.02298 26.9388 2.82998L28.2898 9.18798C28.4038 9.72598 28.0578 10.26 27.5198 10.374L26.5418 10.582C26.0038 10.696 25.4698 10.35 25.3558 9.81198L24.0048 3.45398C23.8328 2.64698 24.3528 1.84698 25.1598 1.67498V1.67498Z" fill="#55ACEE"/>
<path d="M21.8947 5.34504L24.8287 4.72104C25.6357 4.54904 26.1557 3.74904 25.9837 2.94204C25.8117 2.13504 25.0117 1.61504 24.2047 1.78704L21.2707 2.41104C20.4637 2.58304 19.9437 3.38304 20.1157 4.19004C20.2867 4.99704 21.0877 5.51704 21.8947 5.34504V5.34504Z" fill="#DD2E44"/>
<path d="M20.0971 4.19403C20.2691 5.00403 21.0661 5.52203 21.8761 5.34903C22.6861 5.17703 23.2041 4.38003 23.0311 3.57003C22.8591 2.76003 22.0621 2.24203 21.2521 2.41503C20.4421 2.58803 19.9241 3.38303 20.0971 4.19403Z" fill="#EA596E"/>
<path d="M0.809807 27.2C0.401116 27.2 0.0698051 26.8687 0.0698051 26.46C0.0698051 26.0513 0.401116 25.72 0.809807 25.72C1.2185 25.72 1.5498 26.0513 1.5498 26.46C1.5498 26.8687 1.2185 27.2 0.809807 27.2Z" fill="#55ACEE"/>
</svg>
