<svg width="36" height="36" viewBox="0 0 36 36" fill="none" xmlns="http://www.w3.org/2000/svg">
<g clip-path="url(#clip0)">
<path d="M20.6442 15.875L17.5612 17.033L18.7172 20.117C18.7172 20.117 23.2672 19.113 23.9762 18.004C24.6852 16.893 23.3742 15.275 23.3742 15.275L20.6442 15.875V15.875Z" fill="black"/>
<path d="M34 17H2C2 17 2 19 3 24C3.86 28.302 24 25 27.601 24C30.684 23.144 34 17 34 17Z" fill="#C1694F"/>
<path d="M1 18C1 18.553 1.447 19 2 19H34C34.552 19 35 18.553 35 18C35 17.447 34.552 17 34 17H2C1.447 17 1 17.447 1 18Z" fill="#F4900C"/>
<path d="M36 23.933V34C36 35.105 35.105 36 34 36H2C0.895 36 0 35.105 0 34V24.363C0 23.726 0.584999 23.266 1.21 23.387C12.543 25.577 23.877 20.578 35.21 22.948C35.671 23.044 36 23.462 36 23.933V23.933Z" fill="#55ACEE"/>
<path d="M11.3543 13.533C11.5253 13.362 11.8023 13.362 11.9733 13.533L20.0043 21.564C22.2293 23.788 22.6953 22.163 25.0373 24.505L28.2683 27.736C28.4683 27.935 28.4673 28.259 28.2683 28.459L27.2743 29.453L26.2803 30.447C26.0803 30.647 25.7573 30.647 25.5583 30.447L22.3273 27.216C19.9853 24.874 21.6103 24.407 19.3863 22.183L11.3553 14.152C11.1833 13.981 11.1833 13.704 11.3543 13.533V13.533Z" fill="#1C6399"/>
<path d="M18.9719 9.22902C19.1479 9.01902 19.2859 8.76902 19.3599 8.45602C19.6249 7.33802 19.0149 6.23602 17.9979 5.99502C16.9809 5.75402 15.5509 6.45902 15.5379 7.60802C15.5249 8.74902 16.0939 10.455 17.0599 10.208C17.3149 10.143 17.5699 10.07 17.8139 9.98002C17.9119 10.105 17.9669 10.572 17.9099 10.967C17.7629 11.975 19.1549 12.134 19.3009 11.124C19.4169 10.326 18.9359 9.79702 18.9719 9.22902Z" fill="#FFDC5D"/>
<path d="M16.0528 6.18306C17.4788 5.38306 18.4048 5.56706 19.1528 6.22506C19.8958 6.87806 19.8788 8.04906 19.6298 8.78406C19.3808 9.51906 19.1658 9.46806 19.1658 9.46806C19.1658 9.46806 18.1258 9.65406 18.0938 8.69606C18.0838 8.39306 18.4268 8.24606 18.0828 7.78606C17.8608 7.49006 17.3308 7.60806 17.3098 8.01906C17.2878 8.43006 17.0818 8.34306 17.0818 8.34306L16.5148 7.22606C16.5148 7.22606 15.9838 7.17106 15.6648 7.64606C15.4628 7.94406 14.8078 6.88206 16.0528 6.18306V6.18306Z" fill="#FFAC33"/>
<path d="M11.7709 14.008L11.8889 13.89C12.1599 13.61 12.3829 13.749 12.5309 13.841C12.5949 13.881 12.6569 13.919 12.7029 13.919H12.7069C12.8849 13.894 15.0049 13.054 15.2689 12.803C15.3409 12.734 15.4509 12.611 15.5899 12.455C15.9889 12.006 16.5939 11.329 17.2109 10.917C17.6949 10.594 18.0689 10.598 18.2969 10.657C18.5739 10.728 18.8119 10.923 18.9519 11.191C19.2669 11.796 19.0829 12.474 18.5049 12.838C17.3699 13.554 16.4919 14.088 15.9659 14.38C15.5559 14.607 14.4609 14.845 13.7369 15.004C13.4889 15.058 13.2549 15.109 13.2109 15.127C13.1319 15.159 13.0229 15.268 12.9189 15.374C12.7559 15.539 12.5879 15.707 12.4169 15.707C12.3999 15.707 12.3839 15.706 12.3659 15.702C12.0989 15.647 11.8529 15.283 11.5829 14.848C11.3309 14.445 11.5159 14.262 11.7709 14.008Z" fill="#FFDC5D"/>
<path d="M16.4442 11.55C16.9262 10.818 17.2772 10.424 18.0122 10.262C19.2992 9.97803 20.9242 10.57 22.2342 12.189C23.0632 13.213 23.1812 14.363 24.4932 15.983C24.4932 15.983 20.2942 16.43 19.7392 16.075C19.1832 15.721 18.9812 14.81 18.7802 13.901C18.6742 13.419 18.4922 13.095 18.2892 12.979C17.8632 13.337 17.0122 13.816 17.0122 13.816L15.7062 12.309C15.7062 12.31 16.2312 11.722 16.4442 11.55V11.55Z" fill="#77B255"/>
</g>
<defs>
<clipPath id="clip0">
<rect width="36" height="36" fill="white" transform="matrix(-1 0 0 1 36 0)"/>
</clipPath>
</defs>
</svg>
