<svg width="36" height="36" viewBox="0 0 36 36" fill="none" xmlns="http://www.w3.org/2000/svg">
<path d="M25.9999 4.99997C26.9999 5.99997 25.9999 6.99997 25.9999 7.99997C25.9999 8.99997 23.9999 7.99997 23.9999 7.99997C23.9999 7.99997 22.9999 6.99997 21.9999 8.99997C20.9999 11 17.9999 9.99997 18.9999 7.99997C19.9999 5.99997 22.9999 6.99997 22.9999 4.99997C22.9999 2.99997 25.9999 4.99997 25.9999 4.99997Z" fill="#FFDC5D"/>
<path d="M20.9997 3C20.9997 4 20.9997 7 21.9997 7C22.9997 7 22.9997 6 23.9997 5C24.9997 4 20.9997 3 20.9997 3Z" fill="#FFAC33"/>
<path d="M17 16C17 16 20 18 20 19C20 20 16 23 15 24C14 25 12 25 13 23C14 21 17 16 17 16Z" fill="#F9CA55"/>
<path d="M15.3659 23.021C15.3659 23.021 14.1929 23.81 13.4039 22.636C12.6149 21.462 12.0389 24.407 12.0389 24.407C12.0389 24.407 14.5979 26.946 16.5599 27.331C18.5219 27.716 17.7329 26.542 16.9449 25.369L15.3659 23.021V23.021Z" fill="#2A6797"/>
<path d="M29 22C32.866 22 36 25.134 36 29C36 32.866 32.866 36 29 36C25.134 36 22 32.866 22 29C22 25.134 25.133 22 29 22ZM29 34C31.761 34 34 31.762 34 29C34 26.238 31.761 24 29 24C26.239 24 24 26.238 24 29C24 31.762 26.238 34 29 34ZM7 22C10.865 22 14 25.134 14 29C14 32.866 10.865 36 7 36C3.133 36 0 32.866 0 29C0 25.134 3.133 22 7 22ZM7 34C9.761 34 12 31.762 12 29C12 26.238 9.761 24 7 24C4.238 24 2 26.238 2 29C2 31.762 4.238 34 7 34Z" fill="#292F33"/>
<path d="M14 20C14 19.447 14.484 19 15.083 19H25.917C26.515 19 27 19.447 27 20C27 20.553 26.515 21 25.917 21H15.084C14.484 21 14 20.553 14 20ZM6 29C6 28.447 6.447 28 7 28H18C18.552 28 19 28.447 19 29C19 29.553 18.552 30 18 30H7C6.447 30 6 29.553 6 29Z" fill="#AAB8C2"/>
<path d="M14.7758 17L18.9418 28.664C19.1268 29.183 18.8559 29.756 18.3359 29.941C18.2249 29.981 18.1118 30 17.9998 30C17.5888 30 17.2039 29.745 17.0579 29.336L12.6519 17H14.7758Z" fill="#AAB8C2"/>
<path d="M6.99952 30C7.32952 30 7.65352 29.836 7.84452 29.537L14.8445 18.537C15.1415 18.071 15.0035 17.453 14.5375 17.156C14.0705 16.859 13.4535 16.997 13.1565 17.463L6.15652 28.463C5.85952 28.929 5.99752 29.547 6.46352 29.844C6.63052 29.949 6.81552 30 6.99952 30V30ZM17.0005 25.734L25.3875 19.21C25.8225 18.87 26.4505 18.95 26.7905 19.386C27.1295 19.823 27.0505 20.45 26.6145 20.789L17.6145 27.789C17.4325 27.932 17.2165 28 17.0015 28H17.0005V25.734V25.734Z" fill="#AAB8C2"/>
<path d="M29.0001 30C29.1041 30 29.2111 29.983 29.3161 29.948C29.8401 29.774 30.1231 29.208 29.9481 28.683L27.1761 20.367L30.5991 17.799C31.0411 17.468 31.1301 16.841 30.7991 16.399C30.4681 15.959 29.8421 15.868 29.3991 16.199L24.8221 19.632L28.0501 29.316C28.1911 29.735 28.5821 30 29.0001 30V30Z" fill="#AAB8C2"/>
<path d="M9.617 19C9.647 19 9.676 18.998 9.706 18.994L15.378 18.286C15.75 18.24 16.022 17.912 15.998 17.538C15.975 17.164 15.665 16.873 15.291 16.873C15.25 16.873 11.224 16.855 9.302 15.574C9.052 15.407 8.72 15.417 8.478 15.6C8.239 15.785 8.141 16.101 8.237 16.388L8.946 18.515C9.042 18.808 9.315 19 9.617 19V19ZM25 18H30C30.552 18 31 17.552 31 17C31 16.448 30.552 16 30 16H25C24.448 16 24 16.448 24 17C24 17.552 24.448 18 25 18Z" fill="#292F33"/>
<path d="M14.001 13L18 16L15 19L14.001 13Z" fill="#2A6797"/>
<path d="M16.001 16.9999C16.001 16.9999 18.001 19.9999 18.001 20.9999C18.001 21.9999 17.001 24.9999 17.001 27.9999C17.001 30.9999 15.001 30.9999 15.001 29.9999C15.001 28.9999 13.42 24.5809 15.001 22.9999C16.001 21.9999 13.001 18.9999 13.001 18.9999L16.001 16.9999ZM20.315 13.2969L23.065 12.5129C23.512 14.4689 26.088 16.9989 27 16.9989C28 16.9989 29 16.9989 29 17.9989C29 18.9989 29 18.9989 27 18.9989C25 18.9989 23 16.9989 22 15.9989C21.35 15.3489 20.691 14.2419 20.315 13.2969V13.2969Z" fill="#FFDC5D"/>
<path d="M14.001 13L17.001 17L13.001 20C13.001 20 8.00098 15 8.00098 13C8.00098 11 11.001 10 11.001 10L14.001 13Z" fill="#357BAA"/>
<path d="M15.001 6.99897C18.001 5.99897 20.586 6.58497 22.001 7.99897C23.001 8.99897 23.001 9.99897 23.001 11.999C23.001 12.175 23.031 12.361 23.074 12.549L20.33 13.333C20.128 12.824 20 12.349 20 11.999C20 10.999 19 10.999 18 11.999C17 12.999 16 13.999 15 13.999C14 13.999 9 9.99897 9 9.99897C12.001 8.99897 13.103 7.63097 15.001 6.99897V6.99897ZM17 29C17 29 16 30 15 29C14 28 14 31 14 31C14 31 17 33 19 33C21 33 20 32 19 31L17 29ZM25 1.99997C23 0.999971 19 1.99997 21 3.99997C22 4.99997 28 5.99997 28 5.99997C28 4.99997 27 2.99997 25 1.99997Z" fill="#4289C1"/>
</svg>
