<svg width="36" height="36" viewBox="0 0 36 36" fill="none" xmlns="http://www.w3.org/2000/svg">
<path d="M1 10C1 9 2 6 5 6H26.599C30 6 36 18 36 21V27C36 29.209 34.209 31 32 31H4C1.791 31 0 29.209 0 27V17C0 15.973 1 10 1 10Z" fill="#CCD6DD"/>
<path d="M36 23H0V26H36V23Z" fill="#66757F"/>
<path d="M27.0002 25C30.2672 25 32.9182 27.612 32.9932 30.861C32.6732 30.942 32.3452 31 32.0002 31H21.0002C21.0002 27.687 23.6862 25 27.0002 25ZM3.00716 30.86C3.08216 27.612 5.73216 25 9.00016 25C12.3122 25 15.0002 27.687 15.0002 31H4.00016C3.65516 31 3.32616 30.942 3.00716 30.86V30.86Z" fill="#E1E8ED"/>
<path d="M30.3145 26H23.6855C24.6355 25.369 25.7735 25 26.9995 25C28.2265 25 29.3655 25.368 30.3145 26ZM12.3135 26H5.68445C6.63345 25.368 7.77345 25 8.99945 25C10.2255 25 11.3635 25.369 12.3135 26Z" fill="#99AAB5"/>
<path d="M27 35C24.7909 35 23 33.2091 23 31C23 28.7909 24.7909 27 27 27C29.2091 27 31 28.7909 31 31C31 33.2091 29.2091 35 27 35Z" fill="#292F33"/>
<path d="M27 33C25.8954 33 25 32.1046 25 31C25 29.8954 25.8954 29 27 29C28.1046 29 29 29.8954 29 31C29 32.1046 28.1046 33 27 33Z" fill="#99AAB5"/>
<path d="M9 35C6.79086 35 5 33.2091 5 31C5 28.7909 6.79086 27 9 27C11.2091 27 13 28.7909 13 31C13 33.2091 11.2091 35 9 35Z" fill="#292F33"/>
<path d="M9 33C7.89543 33 7 32.1046 7 31C7 29.8954 7.89543 29 9 29C10.1046 29 11 29.8954 11 31C11 32.1046 10.1046 33 9 33Z" fill="#99AAB5"/>
<path d="M31 13H25V20H34L31 13ZM23 13H15V20H23V13ZM13 13V20H0V17C0 16.474 0.262002 14.653 0.518002 13H13Z" fill="#55ACEE"/>
<path d="M3 11H29C29.552 11 30 10.552 30 10C30 9.448 29.552 9 29 9H3C2.447 9 2 9.448 2 10C2 10.552 2.447 11 3 11Z" fill="#99AAB5"/>
</svg>
