<svg width="36" height="36" viewBox="0 0 36 36" fill="none" xmlns="http://www.w3.org/2000/svg">
<path d="M36 24H0V28H36V24Z" fill="#6D6E71"/>
<path d="M36 22H0V26H36V22ZM30 28H26V36H30V28ZM20 28H16V36H20V28ZM10 28H6V36H10V28Z" fill="#939598"/>
<path d="M30 27H26V30H30V27ZM20 27H16V30H20V27ZM10 27H6V30H10V27Z" fill="#6D6E71"/>
<path d="M0 0H6C7.104 0 8 0.896 8 2V4C8 5.104 7.104 6 6 6H0V0Z" fill="#BCBEC0"/>
<path d="M0 20V25H18C21 25 25 20 25 20H0Z" fill="#D1D3D4"/>
<path d="M25 20C25 20 24.249 20.938 23.156 22H0V20H25Z" fill="#BCBEC0"/>
<path d="M0 20H26C29 20 33 17 33 14C33 9 17 2 15 2H0V20Z" fill="#E6E7E8"/>
<path d="M32.259 12C32.72 12.686 33 13.36 33 14C33 15.655 31.78 17.308 30.184 18.459C14.769 14 0 14 0 14V12H32.259Z" fill="#5C913B"/>
<path d="M15.0002 4H20.5532C23.8802 5.524 27.8972 7.738 30.4512 10H15.0002C13.8962 10 13.0002 9.104 13.0002 8V6C13.0002 4.896 13.8962 4 15.0002 4ZM10.0002 9C10.0002 9.552 10.4472 10 11.0002 10C11.5532 10 12.0002 9.552 12.0002 9V5C12.0002 4.448 11.5532 4 11.0002 4C10.4472 4 10.0002 4.448 10.0002 5V9ZM2.00017 9C2.00017 9.552 2.44717 10 3.00017 10H7.00017C7.55317 10 8.00017 9.552 8.00017 9V5C8.00017 4.448 7.55317 4 7.00017 4H3.00017C2.44717 4 2.00017 4.448 2.00017 5V9Z" fill="#55ACEE"/>
</svg>
