<svg width="36" height="36" viewBox="0 0 36 36" fill="none" xmlns="http://www.w3.org/2000/svg">
<path d="M4 24H5C5.55 24 6 23.55 6 23C6 22.45 5.55 22 5 22H4C3.45 22 3 22.45 3 23C3 23.55 3.45 24 4 24Z" fill="#F4900C"/>
<path d="M26 31.5C26 33.985 28.015 36 30.5 36C32.985 36 35 33.985 35 31.5C35 29.015 32.985 27 30.5 27C28.015 27 26 29.015 26 31.5ZM2 31.5C2 33.985 4.015 36 6.5 36C8.985 36 11 33.985 11 31.5C11 29.015 8.985 27 6.5 27C4.015 27 2 29.015 2 31.5Z" fill="#292F33"/>
<path d="M28 31.5C28 32.881 29.119 34 30.5 34C31.881 34 33 32.881 33 31.5C33 30.119 31.881 29 30.5 29C29.119 29 28 30.119 28 31.5ZM4 31.5C4 32.881 5.119 34 6.5 34C7.881 34 9 32.881 9 31.5C9 30.119 7.881 29 6.5 29C5.119 29 4 30.119 4 31.5Z" fill="#99AAB5"/>
<path d="M30.1456 24.082L27.5306 17.093L27.9996 16C27.9996 16 28.9156 16.008 28.9996 15C29.0826 13.993 26.5916 11.921 25.9996 12C25.4066 12.08 25.9996 14 25.9996 14C25.9996 14 23.6796 14.557 23.9996 16C24.3186 17.444 26.3746 24.688 26.3746 24.688C26.3746 24.688 24.6246 25.563 23.9996 27C23.5506 28.032 22.3186 28.018 20.9996 28C19.6806 27.984 16.6066 27.993 15.9996 26C15.3936 24.009 14.9996 23 14.9996 23L15.9996 22L5.99959 20C5.99959 20 6.89059 21.982 4.99959 23C2.83159 24.169 2.13959 25.669 0.999588 28C0.250588 29.534 0.551588 29.897 1.99959 30C3.94059 30.14 6.43959 30.386 7.78959 30.535C8.98659 30.669 10.0736 32.185 11.9536 32.185C13.8336 32.185 22.0056 32.234 23.9996 31.999C27.4956 31.59 28.7576 28.999 33.9996 28.999C36.0716 28.999 35.0596 27.436 33.9716 26.334C32.7626 25.108 30.1706 23.934 30.1456 24.082" fill="#DD2E44"/>
<path d="M14 33H17C18.1 33 19 32.1 19 31C19 29.9 18.1 29 17 29H14C12.9 29 12 29.9 12 31C12 32.1 12.9 33 14 33Z" fill="#BE1931"/>
<path d="M17 33H22C22.55 33 23 32.55 23 32C23 31.45 22.55 31 22 31H17C16.45 31 16 31.45 16 32C16 32.55 16.45 33 17 33Z" fill="#BE1931"/>
<path d="M14 22C15.618 22 16.431 22.306 17 21C17.569 19.694 17.02 19 16 19C14.98 19 10.272 18.819 7.99998 18C5.72798 17.181 4.94698 17.169 4.99998 18C5.05298 18.831 5.99998 20 5.99998 20C5.99998 20 7.25398 22 14 22ZM22 16H25.251C25.801 16 26.251 15.55 26.251 15C26.251 14.45 25.801 14 25.251 14H22C21.45 14 21 14.45 21 15C21 15.55 21.45 16 22 16Z" fill="#292F33"/>
<path d="M28.5 16C28.775 16 29 15.775 29 15.5V14.5C29 14.225 28.775 14 28.5 14C28.225 14 28 14.225 28 14.5V15.5C28 15.775 28.225 16 28.5 16Z" fill="#F4900C"/>
<path d="M22.938 13H23.063C23.579 13 24 12.578 24 12.063V9.937C24 9.422 23.579 9 23.062 9H22.937C22.421 9 22 9.422 22 9.937V12.063C22 12.578 22.421 13 22.938 13" fill="#292F33"/>
<path d="M26.0177 15.0659L26.0397 15.0439C26.2277 14.8559 26.2277 14.5469 26.0397 14.3589L23.1897 11.5079C23.0007 11.3199 22.6927 11.3199 22.5047 11.5079L22.4817 11.5299C22.2937 11.7189 22.2937 12.0269 22.4817 12.2149L25.3327 15.0659C25.5207 15.2539 25.8297 15.2539 26.0177 15.0659" fill="#292F33"/>
</svg>
