<svg width="36" height="36" viewBox="0 0 36 36" fill="none" xmlns="http://www.w3.org/2000/svg">
<path d="M5 12H9L8 7H5V12Z" fill="#DD2E44"/>
<path d="M3 12H11L10.113 9H3.59L3 12Z" fill="#CCD6DD"/>
<path d="M0.417 14L0.599998 13H1.6L2 11H18L19 9H27.658L28 10H27L27.45 11H28.629L29 12H28L30 18H1.469L1.016 17.031L1.4 14H0.417Z" fill="#CCD6DD"/>
<path d="M21 10H25L24 7H21V10Z" fill="#CCD6DD"/>
<path d="M22 10H27L27.45 11H21.708L22 10ZM0.625 13H27.578L27.25 12H0.799999L0.625 13ZM1.281 15H28.25L27.906 14H1.4L1.281 15ZM1 17H28.875L28.55 16H1.125L1 17ZM3 23.964C3 23.964 1 21 1 17H35C34 19 31 20 30 22.817C27.728 29.218 3 23.964 3 23.964Z" fill="#226699"/>
<path d="M31.063 21H1.646C1.288 19.886 1 18.519 1 17H35C34.25 18.5 32.376 19.438 31.063 21V21Z" fill="#CCD6DD"/>
<path d="M36 24H0V36H36V24Z" fill="#55ACEE"/>
<path d="M20 18V18.229C20 18.655 19.655 19 19.229 19H17.771C17.345 19 17 18.655 17 18.229V18H20ZM17 18V18.229C17 18.655 16.654 19 16.229 19H14.772C14.346 19 14 18.655 14 18.229V18H17ZM14 18V18.229C14 18.655 13.654 19 13.229 19H11.772C11.346 19 11 18.655 11 18.229V18H14ZM10 18V18.229C10 18.655 9.654 19 9.229 19H7.772C7.346 19 7 18.655 7 18.229V18H10ZM7 18V18.229C7 18.655 6.654 19 6.229 19H4.772C4.346 19 4 18.655 4 18.229V18H7Z" fill="#FFAC33"/>
</svg>
