<svg width="36" height="36" viewBox="0 0 36 36" fill="none" xmlns="http://www.w3.org/2000/svg">
<path d="M0 5V32C0 32 0 36 4 36H32C36 36 36 32 36 32V27C36 27 11 25 0 5Z" fill="#4289C1"/>
<path d="M4.15581 23.243C4.15581 23.243 1.5908 21.608 1.8978 20.955C2.2068 20.301 13.6758 21.945 19.4258 23.909C28.0528 26.856 32.5698 31.431 31.9518 32.737C31.3348 34.043 24.3498 34.69 15.7238 31.744C9.97181 29.78 0.355807 24.22 0.663807 23.567C0.972807 22.914 4.15581 23.243 4.15581 23.243V23.243Z" fill="#1C6399"/>
<path d="M4.52577 22.747C4.52577 22.747 1.87577 21.128 2.17677 20.456C2.47977 19.783 14.2188 21.238 20.1258 23.131C28.9898 25.972 33.6888 30.555 33.0838 31.9C32.4788 33.245 25.3608 34.041 16.4988 31.201C10.5888 29.308 0.66577 23.818 0.96677 23.146C1.26977 22.473 4.52577 22.747 4.52577 22.747V22.747Z" fill="#A6D388"/>
<path d="M4.52594 22.747C4.52594 22.747 2.01894 21.213 2.16794 20.512L32.2439 29.978C32.9659 30.815 33.2629 31.501 33.0839 31.9C32.9279 32.248 32.3289 32.557 31.3839 32.778L0.988934 23.212C0.985934 23.192 0.959934 23.161 0.966934 23.146C1.26993 22.473 4.52594 22.747 4.52594 22.747V22.747Z" fill="#F5F8FA"/>
<path d="M21.0811 1.30895C22.5411 0.676953 24.7881 1.36995 25.1971 3.07095C25.7691 5.44495 24.4711 7.51495 22.9581 7.40195C21.3721 7.28395 20.3901 6.96595 19.6951 5.35995C19.0001 3.75495 19.6211 1.94095 21.0811 1.30895V1.30895Z" fill="#FFDC5D"/>
<path d="M20.1291 5.76495C17.8921 3.30795 23.0861 3.38195 23.0861 3.38195C24.0691 3.38495 23.4481 5.04295 23.9391 5.91995C24.2761 6.52695 22.9541 6.89895 22.9541 6.89895C22.9541 6.89895 22.3421 6.90995 22.3341 7.65395V7.66095C22.3331 7.84995 22.3601 8.07395 22.4581 8.37095C22.9471 9.84295 20.9811 10.82 20.4931 9.34595C20.3001 8.76195 20.3501 8.24195 20.4221 7.75995L20.4291 7.71695C20.5381 7.00195 20.6821 6.37295 20.1291 5.76495V5.76495Z" fill="#FFDC5D"/>
<path d="M19.2369 1.88396C19.9339 0.87196 22.3539 -0.0810403 23.9499 1.11696C25.0199 0.89496 25.4669 1.90396 25.3949 2.49596C25.3379 2.96896 24.1859 3.12896 23.9259 4.03096C23.7169 3.81396 23.6489 3.35696 23.6839 3.10996C23.3279 3.47596 23.5189 4.40196 22.0919 5.05896C20.7119 5.69296 21.0009 6.92096 21.0009 6.92096C21.0009 6.92096 20.2519 6.59696 19.7199 6.02096C18.7009 4.91996 18.4689 2.99896 19.2369 1.88396V1.88396Z" fill="#FFAC33"/>
<path d="M19.7387 28.432C20.1167 28.332 20.7097 27.852 20.8927 27.52C21.5537 26.323 20.7217 24.044 20.7027 22.743C20.6977 22.373 22.9157 20.769 23.5627 21.727C24.2097 22.685 22.5717 26.446 22.7507 27.92C22.7907 28.246 22.9777 28.734 22.8767 28.935C22.7757 29.136 22.0597 29.675 21.5757 29.774C20.3387 30.029 19.0847 29.432 18.9317 29.257C18.7097 29.003 19.3597 28.532 19.7387 28.432V28.432ZM12.2287 25.21C12.5627 25.145 13.0787 24.741 13.2447 24.457C13.5347 23.959 13.0877 20.815 13.1177 19.511C13.4677 19.277 15.5107 20.437 15.5107 20.437C15.9477 22.252 14.6937 23.3 14.8517 24.699C14.8837 24.983 15.0217 25.663 14.9227 25.831C14.8237 26 14.1707 26.425 13.7447 26.483C12.6567 26.631 11.6037 26.04 11.4807 25.879C11.3027 25.645 11.8947 25.275 12.2287 25.21V25.21ZM8.24474 12.233C8.83374 11.998 9.59274 11.957 10.3487 11.847C11.5467 11.672 13.2007 11.082 13.8777 10.761C14.7027 10.266 16.4547 9.1 16.8897 8.813C17.3247 8.526 17.9067 8.128 18.6247 8H18.7807C18.3957 8.542 18.1717 9.159 18.0327 10.841C18.0327 10.841 14.7137 12.502 14.4377 12.594C13.3127 12.969 11.2557 12.96 10.0937 13.106C9.49174 13.182 9.07274 13.092 8.59474 13.059C7.87274 13.01 7.21474 13.004 7.17274 12.688C7.12274 12.321 7.76774 12.423 8.24474 12.233V12.233ZM25.0007 8.402C26.6667 9.395 28.3687 11.451 28.9807 12.316C29.3407 12.599 29.6667 12.93 29.8777 13.052C30.2667 13.275 32.0317 14.484 33.2117 15.057C33.5657 15.223 34.6697 15.495 35.2037 15.838C35.6357 16.116 36.0487 16.1 35.9307 16.45C35.8287 16.752 35.4227 16.666 34.7037 16.582C33.9847 16.498 32.7747 16.293 32.3787 16.016C31.5787 15.485 29.0317 14.86 27.7817 13.985C27.5607 13.83 25.3967 11.822 25.0007 11.244C24.4577 9.729 24.7187 8.688 25.0007 8.402V8.402Z" fill="#FFDC5D"/>
<path d="M12.9578 19.417C13.1868 18.436 14.4578 17.37 15.6348 16.469C16.8118 15.568 18.0098 15.031 18.0098 15.031C17.9758 14.544 18.1818 13.736 18.0988 13.015C17.9998 12.162 17.8388 11.326 17.8388 11.326C17.8388 11.326 16.2058 12.053 14.4368 12.593C14.1348 12.23 13.8188 11.198 13.8778 10.76C14.7808 9.919 16.3608 9.006 16.7968 8.718C17.2328 8.43 17.6338 8.081 18.6248 8H20.2638C20.2638 8 20.3628 8.856 21.0128 8.918C21.6628 8.98 22.4398 8 22.4398 8L24.1878 8.167C26.3858 8.505 28.1878 11.191 28.9818 12.318C29.3418 12.601 29.3418 12.601 29.5078 12.765C28.5808 13.367 27.3798 13.8 27.3798 13.8C26.1918 12.776 25.3018 12.265 24.9058 11.687C24.9058 11.687 24.2468 13.043 23.9938 14.075C23.7408 15.107 23.7918 17 23.7918 17C23.7918 17 23.7968 18.674 23.7338 18.94C23.6458 19.312 23.3808 20.389 23.3808 20.824C23.3808 20.824 23.9868 22.159 23.6828 23.308C23.2798 24.837 22.7978 26.776 22.7558 27.316C21.3438 27.316 21.0888 26.957 21.0888 26.957C21.0888 26.957 21.0688 26.118 20.9548 25.179C20.8858 24.607 20.6858 23.635 20.6858 22.786C20.6858 21.937 20.4688 21.362 20.3428 21.01C20.2168 20.658 19.7418 19.558 19.6658 18.958C19.6458 18.796 19.6578 18.584 19.6878 18.358C19.1538 18.65 18.1948 19.15 17.6038 19.312C16.7548 19.544 16.1098 19.907 15.8858 20.102C15.6618 20.297 15.5098 20.437 15.5098 20.437C15.5098 20.437 15.7108 20.994 15.6508 21.953C15.5958 22.83 14.9578 23.611 14.8508 24.656C13.9578 24.523 13.3208 24.157 13.3208 24.157C13.3208 24.157 13.2418 22.821 13.2228 22.241C13.1998 21.535 12.8108 20.048 12.9578 19.417V19.417Z" fill="#292F33"/>
<path d="M28.8078 13.168C28.0128 12.042 25.7408 8.829 23.2998 8.618C23.2998 8.618 22.1818 10.077 20.7348 9.853C19.2878 9.629 19.2528 8.535 19.2528 8.535L17.5258 8.684C17.0318 8.724 16.6848 8.832 16.4058 8.965C16.5688 8.864 16.7098 8.776 16.7968 8.719C17.2318 8.432 17.6338 8.081 18.6248 8H20.2638C20.2638 8 20.5728 8.699 21.0148 8.766C21.4568 8.833 22.4398 8 22.4398 8L24.1878 8.167C26.8658 8.588 28.7538 12.108 29.5078 12.765C29.4018 12.869 29.0518 13.048 28.8078 13.168V13.168Z" fill="#67757F"/>
<path d="M22.2382 27.297C22.6402 25.937 23.5212 22.8 22.6882 21.241C22.6132 20.873 22.9182 19.884 23.0062 19.512C23.0692 19.246 23.1092 17.074 23.0782 16.795C19.2192 16.672 18.0103 15.032 18.0103 15.032C18.0103 15.032 20.1493 16.223 23.3643 15.602C23.1903 13.883 24.4983 11.265 24.4983 11.265C24.7113 11.24 24.7632 11.433 24.9062 11.689C24.9062 11.689 24.1323 13.554 23.9943 14.407C23.8573 15.259 23.7922 17 23.7922 17C23.7922 17 23.7973 18.674 23.7343 18.94C23.6463 19.312 23.3812 20.389 23.3812 20.824C24.3332 22.607 23.4802 23.804 22.7562 27.316C22.5872 27.324 22.4202 27.324 22.2382 27.297V27.297ZM14.9182 22.735C14.9782 21.777 14.8942 21.096 14.9902 20.892C15.0862 20.688 15.5103 20.437 15.5103 20.437C15.5103 20.437 15.7112 20.994 15.6512 21.953C15.5962 22.83 14.9612 23.687 14.8512 24.656C14.5422 24.61 14.4453 24.583 14.1453 24.495C14.7583 24.234 14.8802 23.341 14.9182 22.735V22.735Z" fill="#67757F"/>
</svg>
