<svg width="36" height="36" viewBox="0 0 36 36" fill="none" xmlns="http://www.w3.org/2000/svg">
<path d="M3 31C2 31 2 30 2 27C2 26.308 2 23.138 2.041 21.862C2.061 21.258 2.851 20 4 20H16V14C16 12.942 16.235 12 18 12H23C26 12 29 20 29 20C29 20 35 20 35 23V27C35 27 36 27.338 36 28.957C36 30.576 35 31 34 31H3Z" fill="#DD2E44"/>
<path d="M27 35C24.7909 35 23 33.2091 23 31C23 28.7909 24.7909 27 27 27C29.2091 27 31 28.7909 31 31C31 33.2091 29.2091 35 27 35Z" fill="#292F33"/>
<path d="M27 33C25.8954 33 25 32.1046 25 31C25 29.8954 25.8954 29 27 29C28.1046 29 29 29.8954 29 31C29 32.1046 28.1046 33 27 33Z" fill="#CCD6DD"/>
<path d="M9 35C6.79086 35 5 33.2091 5 31C5 28.7909 6.79086 27 9 27C11.2091 27 13 28.7909 13 31C13 33.2091 11.2091 35 9 35Z" fill="#292F33"/>
<path d="M9 33C7.89543 33 7 32.1046 7 31C7 29.8954 7.89543 29 9 29C10.1046 29 11 29.8954 11 31C11 32.1046 10.1046 33 9 33Z" fill="#CCD6DD"/>
<path d="M26 19C26 20 25.552 20 25 20H20C19.447 20 19 19.552 19 19V15C19 14.448 19.447 14 20 14H23C24 14 26 18 26 19Z" fill="#BBDDF5"/>
<path d="M0 21.5C0 22.328 0.672 23 1.5 23H16V20H1.5C0.672 20 0 20.671 0 21.5Z" fill="#F492A9"/>
<path d="M35 23H34V28H35V23Z" fill="#99AAB5"/>
<path d="M34 31H35C35.55 31 36 30.55 36 30V28C36 27.45 35.55 27 35 27H34C33.45 27 33 27.45 33 28V30C33 30.55 33.45 31 34 31ZM2 31H3C3.55 31 4 30.55 4 30V28C4 27.45 3.55 27 3 27H2C1.45 27 1 27.45 1 28V30C1 30.55 1.45 31 2 31Z" fill="#CCD6DD"/>
</svg>
