<svg width="36" height="36" viewBox="0 0 36 36" fill="none" xmlns="http://www.w3.org/2000/svg">
<path d="M4 22C4 22 6 14 9 14H20C23 14 27 21 27 21C27 21 35 22 35 26V28C35 28.09 34.979 28.175 34.974 28.263C35.583 28.605 36 29.251 36 30C36 31.104 35.104 32 34 32H4C1.791 32 0 30.209 0 28V26C0 23.791 1.791 22 4 22Z" fill="#E1E8ED"/>
<path d="M35 26V28C35 28.09 34.979 28.175 34.974 28.263C35.583 28.605 36 29.251 36 30C36 31.104 35.104 32 34 32H4C1.791 32 0 30.209 0 28V26C0 25.652 0.0589983 25.321 0.141998 25H34.799C34.916 25.312 35 25.641 35 26Z" fill="#292F33"/>
<path d="M20.09 32C20.035 31.674 20 31.342 20 31C20 27.687 22.686 25 26 25C29.313 25 32 27.687 32 31C32 31.342 31.965 31.674 31.91 32H20.09ZM3.09 32C3.035 31.674 3 31.342 3 31C3 27.687 5.687 25 9 25C12.313 25 15 27.687 15 31C15 31.342 14.965 31.674 14.91 32H3.09Z" fill="#66757F"/>
<path d="M26 35C23.7909 35 22 33.2091 22 31C22 28.7909 23.7909 27 26 27C28.2091 27 30 28.7909 30 31C30 33.2091 28.2091 35 26 35Z" fill="#292F33"/>
<path d="M26 33C24.8954 33 24 32.1046 24 31C24 29.8954 24.8954 29 26 29C27.1046 29 28 29.8954 28 31C28 32.1046 27.1046 33 26 33Z" fill="#E1E8ED"/>
<path d="M9 35C6.79086 35 5 33.2091 5 31C5 28.7909 6.79086 27 9 27C11.2091 27 13 28.7909 13 31C13 33.2091 11.2091 35 9 35Z" fill="#292F33"/>
<path d="M9 33C7.89543 33 7 32.1046 7 31C7 29.8954 7.89543 29 9 29C10.1046 29 11 29.8954 11 31C11 32.1046 10.1046 33 9 33Z" fill="#E1E8ED"/>
<path d="M15 13C15 13.552 15.447 14 16 14H19C19.552 14 20 13.552 20 13C20 12.448 19.552 12 19 12H16C15.447 12 15 12.448 15 13Z" fill="#DD2E44"/>
<path d="M14 13C14 13.552 14.447 14 15 14H17C17.552 14 18 13.552 18 13C18 12.448 17.552 12 17 12H15C14.447 12 14 12.448 14 13ZM13 21H6C6 21 8 16 9 16H13V21ZM15 16H20C22 16 25 21 25 21H15V16Z" fill="#55ACEE"/>
</svg>
