<svg width="36" height="36" viewBox="0 0 36 36" fill="none" xmlns="http://www.w3.org/2000/svg">
<g clip-path="url(#clip0)">
<path d="M6 23H3L1 17H4L6 23Z" fill="#414042"/>
<path d="M7.00023 19C7.00023 19 10.0002 15 11.0002 15H20.0002L26.0002 20L32.0812 21.77C32.7012 21.987 33.5312 22.406 33.6412 23L36.0002 33C36.1252 33.646 35.5522 34 35.0002 34H1.00023C0.447233 34 0.000232697 33.553 0.000232697 33V21C0.000232697 19 7.00023 19 7.00023 19Z" fill="#F4900C"/>
<path d="M19.906 20L25 34H13L8 20H19.906Z" fill="#3B88C3"/>
<path d="M28 35C25.7909 35 24 33.2091 24 31C24 28.7909 25.7909 27 28 27C30.2091 27 32 28.7909 32 31C32 33.2091 30.2091 35 28 35Z" fill="#292F33"/>
<path d="M28 33C26.8954 33 26 32.1046 26 31C26 29.8954 26.8954 29 28 29C29.1046 29 30 29.8954 30 31C30 32.1046 29.1046 33 28 33Z" fill="#58595B"/>
<path d="M7 35C4.79086 35 3 33.2091 3 31C3 28.7909 4.79086 27 7 27C9.20914 27 11 28.7909 11 31C11 33.2091 9.20914 35 7 35Z" fill="#292F33"/>
<path d="M7 33C5.89543 33 5 32.1046 5 31C5 29.8954 5.89543 29 7 29C8.10457 29 9 29.8954 9 31C9 32.1046 8.10457 33 7 33Z" fill="#58595B"/>
<path d="M16.5 30C14.567 30 13 28.433 13 26.5C13 24.567 14.567 23 16.5 23C18.433 23 20 24.567 20 26.5C20 28.433 18.433 30 16.5 30Z" fill="white"/>
<path d="M17.8301 25.242C17.8301 25.683 17.6401 26.068 17.2561 26.314C17.7601 26.544 18.1101 27.013 18.1101 27.568C18.1101 28.408 17.3411 29.115 16.3461 29.115C15.3091 29.115 14.6641 28.351 14.6641 27.799C14.6641 27.526 14.9511 27.33 15.2031 27.33C15.6801 27.33 15.5671 28.148 16.3591 28.148C16.7221 28.148 17.0171 27.869 17.0171 27.498C17.0171 26.518 15.8261 27.238 15.8261 26.412C15.8261 25.678 16.8211 26.174 16.8211 25.396C16.8211 25.13 16.6331 24.927 16.3161 24.927C15.6511 24.927 15.7421 25.613 15.2661 25.613C14.9781 25.613 14.8101 25.355 14.8101 25.095C14.8101 24.548 15.5601 23.96 16.3371 23.96C17.3461 23.961 17.8301 24.697 17.8301 25.242V25.242Z" fill="#231F20"/>
<path d="M6 18L5 17L0 16V18H6Z" fill="#F4900C"/>
<path d="M19 16H11V20H24L19 16Z" fill="#88C9F9"/>
<path d="M30 24C30 24.553 30.448 25 31 25H33C33.552 25 34 24.553 34 24C34 23.447 33.552 23 33 23H31C30.448 23 30 23.447 30 24Z" fill="#FFCC4D"/>
<path d="M0 22H1C1.553 22 2 22.447 2 23V24C2 24.553 1.553 25 1 25H0V22Z" fill="#DD2E44"/>
</g>
<defs>
<clipPath id="clip0">
<rect width="36" height="36" fill="white" transform="matrix(-1 0 0 1 36 0)"/>
</clipPath>
</defs>
</svg>
