<svg width="36" height="36" viewBox="0 0 36 36" fill="none" xmlns="http://www.w3.org/2000/svg">
<g clip-path="url(#clip0)">
<path d="M29.5 24C32.538 24 35 26.463 35 29.5C35 32.537 32.538 35 29.5 35C26.462 35 24 32.537 24 29.5C24 26.463 26.462 24 29.5 24ZM29.5 33C31.433 33 33 31.433 33 29.5C33 27.567 31.433 26 29.5 26C27.567 26 26 27.567 26 29.5C26 31.433 27.567 33 29.5 33ZM6.5 24C9.537 24 12 26.463 12 29.5C12 32.537 9.537 35 6.5 35C3.463 35 1 32.537 1 29.5C1 26.463 3.463 24 6.5 24ZM6.5 33C8.434 33 10 31.433 10 29.5C10 27.567 8.434 26 6.5 26C4.566 26 3 27.567 3 29.5C3 31.433 4.566 33 6.5 33Z" fill="#99AAB5"/>
<path d="M29.5 22.9139C33.09 22.9139 36 25.8239 36 29.4139C36 33.0039 33.09 35.9139 29.5 35.9139C25.91 35.9139 23 33.0039 23 29.4139C23 25.8239 25.91 22.9139 29.5 22.9139ZM29.5 33.9139C31.985 33.9139 34 31.8989 34 29.4139C34 26.9289 31.985 24.9139 29.5 24.9139C27.015 24.9139 25 26.9289 25 29.4139C25 31.8989 27.015 33.9139 29.5 33.9139ZM6.5 22.9139C10.09 22.9139 13 25.8239 13 29.4139C13 33.0039 10.09 35.9139 6.5 35.9139C2.91 35.9139 0 33.0039 0 29.4139C0 25.8239 2.91 22.9139 6.5 22.9139ZM6.5 33.9139C8.985 33.9139 11 31.8989 11 29.4139C11 26.9289 8.985 24.9139 6.5 24.9139C4.015 24.9139 2 26.9289 2 29.4139C2 31.8989 4.015 33.9139 6.5 33.9139Z" fill="#292F33"/>
<path d="M28.9987 27.051C30.9987 31.051 27.9997 29.638 26.9997 27.638C26.0947 25.827 23.5557 25.209 22.3397 27.263C23.2917 24.213 26.1367 22 29.4997 22C30.8737 22 32.1567 22.375 33.2637 23.02C30.4307 23.185 27.8977 24.851 28.9987 27.051V27.051Z" fill="#77B255"/>
<path d="M6 29C6 29.553 6.447 30 7 30H16C16.553 30 17 29.553 17 29C17 28.447 16.553 28 16 28H7C6.447 28 6 28.447 6 29Z" fill="#99AAB5"/>
<path d="M6.07664 30.3059C6.50964 30.6499 7.13864 30.5779 7.48164 30.1449L13.0826 23.0999C13.4266 22.6669 13.3536 22.0379 12.9226 21.6949C12.4896 21.3509 11.8606 21.4229 11.5176 21.8559L5.91664 28.9009C5.57264 29.3329 5.64564 29.9619 6.07664 30.3059V30.3059Z" fill="#99AAB5"/>
<path d="M23.5368 20.3669C23.0708 20.6639 22.9348 21.2819 23.2328 21.7479L28.0818 29.3299C28.3798 29.7949 28.9978 29.9319 29.4628 29.6329C29.9288 29.3359 30.0648 28.7179 29.7668 28.2519L24.9179 20.6699C24.6199 20.2049 24.0018 20.0679 23.5368 20.3669V20.3669Z" fill="#CCD6DD"/>
<path d="M25.4711 17.368C26.2821 17.953 30.0001 19 27.0001 21C24.0001 23 21.9061 25.125 21.9061 27C21.9061 29.665 22.5621 31 21.0001 31H14.0001C14.0001 31 15.0001 27 12.0001 24C9.00014 21 7.00014 22 4.00014 21C2.10314 20.367 0.000143051 19 0.000143051 18C0.000143051 17 0.000143051 16 2.00014 17C4.00014 18 3.00014 18.551 5.00014 17.551C7.00014 16.551 8.16014 18 9.16014 18C10.1601 18 16.7741 19.68 17.7801 17.951C18.3331 17 19.5661 16 21.3841 16C22.7021 16 24.5001 16.667 25.4711 17.368Z" fill="#77B255"/>
<path d="M15 29C15 30.104 15.895 31 17 31C18.104 31 19 30.104 19 29C19 27.896 18.104 27 17 27C15.895 27 15 27.896 15 29Z" fill="#66757F"/>
<path d="M10.2002 27.975L0.923195 24.243L-0.196804 27.026L9.08119 30.758L10.2002 27.975Z" fill="#CCD6DD"/>
<path d="M9.82715 28.902L0.550148 25.17L0.177147 26.098L9.45415 29.83L9.82715 28.902Z" fill="white"/>
<path d="M9.4541 29.83L0.177099 26.099L-0.195898 27.026L9.0811 30.758L9.4541 29.83Z" fill="#66757F"/>
<path d="M17.0002 18.137C15.6342 18.522 11.3552 18.13 10.1982 18.039C9.04118 17.949 8.60418 18.49 10.1982 19.289C12.0002 20.19 15.8122 22.45 17.0002 22.914C17.9982 23.305 21.5002 21.703 21.9172 21.218C22.3332 20.732 18.1722 17.807 17.0002 18.137ZM2.00018 17C3.54918 17.04 5.00018 17 6.00018 17C7.00018 17 7.15818 18.102 4.45118 18.102C1.74418 18.102 2.00018 17 2.00018 17Z" fill="#292F33"/>
<path d="M32.2637 16.958C32.2637 15.493 27.8077 11.824 28.2887 12.482C29.4387 14.055 28.7777 15.958 26.8017 15.958C24.8257 15.958 24.0927 22.477 26.9997 21C29.9067 19.523 32.2637 17.677 32.2637 16.958V16.958Z" fill="#77B255"/>
<path d="M27.3938 10.569C26.6898 11.179 27.0488 12.261 28.4388 14.054C29.8298 15.847 32.0218 16.575 30.7978 14.596C29.5738 12.617 27.3938 10.569 27.3938 10.569V10.569Z" fill="#CCD6DD"/>
<path d="M25.4715 17.368C25.6615 17.844 26.2015 18.074 26.6775 17.884L26.8115 17.83C27.2875 17.64 27.5185 17.1 27.3275 16.624L26.5295 14.632C26.3395 14.156 25.7995 13.925 25.3235 14.116L25.1885 14.17C24.7125 14.36 24.4815 14.9 24.6725 15.376L25.4715 17.368V17.368Z" fill="#66757F"/>
<path d="M23.0894 13.9909C22.9954 14.2509 23.1294 14.5369 23.3894 14.6309L25.2704 15.3099C25.5304 15.4039 25.8164 15.2689 25.9104 15.0089C26.0044 14.7489 25.8704 14.4629 25.6104 14.3689L23.7294 13.6899C23.4694 13.5959 23.1834 13.7309 23.0894 13.9909Z" fill="#292F33"/>
</g>
<defs>
<clipPath id="clip0">
<rect width="36" height="36" fill="white" transform="matrix(-1 0 0 1 36 0)"/>
</clipPath>
</defs>
</svg>
