<svg width="36" height="36" viewBox="0 0 36 36" fill="none" xmlns="http://www.w3.org/2000/svg">
<path d="M0 24C0 24.553 0.447 25 1 25H2C2.553 25 3 24.553 3 24V18C3 17.447 2.553 17 2 17H1C0.447 17 0 17.447 0 18V24Z" fill="#292F33"/>
<path d="M31 31H5C4 31 2 30 2 27C2 25 2 19 3 18C4 17 3 11 7 11H21C24 11 27 18 27 18L31 19C31 19 35 20 35 23V26C35 26 36 26.338 36 27.957C36 29.576 35 30 35 30L31 31Z" fill="#3B88C3"/>
<path d="M27 35C24.7909 35 23 33.2091 23 31C23 28.7909 24.7909 27 27 27C29.2091 27 31 28.7909 31 31C31 33.2091 29.2091 35 27 35Z" fill="#292F33"/>
<path d="M27 33C25.8954 33 25 32.1046 25 31C25 29.8954 25.8954 29 27 29C28.1046 29 29 29.8954 29 31C29 32.1046 28.1046 33 27 33Z" fill="#CCD6DD"/>
<path d="M9 35C6.79086 35 5 33.2091 5 31C5 28.7909 6.79086 27 9 27C11.2091 27 13 28.7909 13 31C13 33.2091 11.2091 35 9 35Z" fill="#292F33"/>
<path d="M9 33C7.89543 33 7 32.1046 7 31C7 29.8954 7.89543 29 9 29C10.1046 29 11 29.8954 11 31C11 32.1046 10.1046 33 9 33Z" fill="#CCD6DD"/>
<path d="M12 17C12 17.552 11.553 18 11 18H7C6.447 18 6 17.552 6 17V14C6 13.448 6.447 13 7 13H11C11.553 13 12 13.448 12 14V17ZM23 17C23 18 22.552 18 22 18H15C14.447 18 14 17.552 14 17V14C14 13.448 14.447 13 15 13H20C21 13 23 16 23 17Z" fill="#BBDDF5"/>
<path d="M4 23.5C4 24.328 4.672 25 5.5 25H27.5C28.329 25 29 24.328 29 23.5C29 22.671 28.329 22 27.5 22H5.5C4.672 22 4 22.671 4 23.5Z" fill="#55ACEE"/>
</svg>
