<svg width="36" height="36" viewBox="0 0 36 36" fill="none" xmlns="http://www.w3.org/2000/svg">
<path d="M1 17L9 10L25 11L26 27L19 35C19 35 19.001 29.001 13 23C6.999 16.999 1 17 1 17Z" fill="#A0041E"/>
<path d="M0.972676 35C0.972676 35 0.936676 27.021 3.95768 24C6.97868 20.979 14.9997 21.187 14.9997 21.187C14.9997 21.187 14.9987 29 11.9987 32C8.99868 35 0.972676 35 0.972676 35V35Z" fill="#FFAC33"/>
<path d="M8.99902 31C11.2082 31 12.999 29.2091 12.999 27C12.999 24.7909 11.2082 23 8.99902 23C6.78988 23 4.99902 24.7909 4.99902 27C4.99902 29.2091 6.78988 31 8.99902 31Z" fill="#FFCC4D"/>
<path d="M35.9989 0C35.9989 0 25.9989 0 13.9989 10C7.99889 15 7.99889 24 9.99889 26C11.9989 28 20.9989 28 25.9989 22C35.9989 10 35.9989 0 35.9989 0Z" fill="#55ACEE"/>
<path d="M26.9994 5C25.3764 5 23.9864 5.971 23.3584 7.36C23.8604 7.133 24.4134 7 24.9994 7C27.2084 7 28.9994 8.791 28.9994 11C28.9994 11.586 28.8664 12.139 28.6404 12.64C30.0294 12.013 30.9994 10.623 30.9994 9C30.9994 6.791 29.2084 5 26.9994 5V5Z" fill="black"/>
<path d="M8 28C8 28 8 24 9 23C10 22 22.001 12.001 23 13C23.999 13.999 13.999 26 12.999 27C11.999 28 8 28 8 28Z" fill="#A0041E"/>
</svg>
