<svg width="36" height="36" viewBox="0 0 36 36" fill="none" xmlns="http://www.w3.org/2000/svg">
<path d="M16 26C16 26.553 16.447 27 17 27C17.552 27 18 26.553 18 26V1C18 0.448 17.552 0 17 0C16.447 0 16 0.448 16 1V26Z" fill="#A7A9AC"/>
<path d="M33 24H2V32H24C30 32 33 24 33 24Z" fill="#D1D3D4"/>
<path d="M36 30H0V36H36V30Z" fill="#55ACEE"/>
<path d="M31 22C31 22 29 17 26 13C23 9 18 5 18 5C18 5 19 16 19 21V22C19 22 22 21 25 21C28 21 31 22 31 22Z" fill="#FFAC33"/>
<path d="M16 2C16 2 10 8 7 13C4.229 17.618 3 22 3 22C3 22 6 21 9 21C12 21 15 22 15 22V21C15 12 16 2 16 2Z" fill="#F4900C"/>
<path d="M34 24C34.552 24 35 24.447 35 25C35 25.553 34.552 26 34 26H1V24H34Z" fill="#E6E7E8"/>
</svg>
