<svg width="36" height="36" viewBox="0 0 36 36" fill="none" xmlns="http://www.w3.org/2000/svg">
<path d="M0 13.062V32C0 32 0 36 4 36H32C36 36 36 32 36 32V27.062C36 27.062 19 17.062 0 13.062V13.062Z" fill="#E1E8ED"/>
<path d="M21.2493 24.46C21.0823 24.637 21.1093 24.933 21.3113 25.122C21.5123 25.311 21.8113 25.322 21.9773 25.145L28.6243 18.093C28.7913 17.916 28.7633 17.619 28.5623 17.429C28.3613 17.24 28.0633 17.23 27.8963 17.407L21.2493 24.46Z" fill="#8899A7"/>
<path d="M9.18811 17.8091C8.75311 18.3251 9.10211 19.1101 9.96511 19.5651L29.4291 29.7831C31.2411 30.6591 34.3251 29.7431 34.7001 28.9931C35.1161 28.1611 33.5071 27.8831 32.6431 27.4301L12.3211 16.7601C11.4581 16.3071 10.4071 16.3591 9.97211 16.8731L9.18811 17.8091V17.8091Z" fill="#AA8ED6"/>
<path d="M22.4381 21.828C22.6721 22.469 23.5161 22.889 24.0631 23.296C24.6101 23.703 24.7041 24.062 24.7041 24.5C24.7041 24.938 24.3761 25.547 23.0481 25.5C21.7201 25.453 20.9231 24.797 20.6571 24.531C20.3911 24.265 20.1261 24.156 20.1101 24.203C20.0941 24.25 19.2511 23.831 19.1721 23.587C19.0941 23.344 19.1251 22.297 19.3911 21.734C19.6571 21.171 22.4381 21.828 22.4381 21.828V21.828Z" fill="#1C6399"/>
<path d="M4.17539 22.344C3.74039 22.86 4.08939 23.645 4.95239 24.1L24.4174 34.318C26.2294 35.194 29.3134 34.278 29.6884 33.528C30.1044 32.696 28.4954 32.418 27.6314 31.965L7.30939 21.295C6.44639 20.842 5.39539 20.895 4.96039 21.408L4.17539 22.344Z" fill="#AA8ED6"/>
<path d="M16.6559 26C16.8899 26.641 17.7339 27.061 18.2809 27.468C18.8279 27.875 18.9219 28.234 18.9219 28.672C18.9219 29.11 18.5939 29.719 17.2659 29.672C15.9379 29.625 15.1409 28.969 14.8749 28.703C14.6089 28.437 14.3439 28.328 14.3279 28.375C14.3119 28.422 13.4689 28.003 13.3899 27.759C13.3119 27.516 13.3429 26.469 13.6089 25.906C13.8749 25.343 16.6559 26 16.6559 26Z" fill="#1C6399"/>
<path d="M17.4418 26.942C17.0418 26.801 16.6438 26.783 16.2828 26.959C15.8468 27.171 15.6098 27.601 15.6098 27.758C15.6098 27.835 15.8758 28.149 16.0128 27.837C16.1658 27.49 16.8188 26.96 17.4418 26.942V26.942ZM18.1318 27.447C17.7718 27.32 17.4128 27.304 17.0878 27.462C16.6948 27.653 16.4818 28.04 16.4818 28.181C16.4818 28.25 16.7208 28.533 16.8448 28.252C16.9828 27.939 17.5708 27.463 18.1318 27.447V27.447Z" fill="#55ACEE"/>
<path d="M1.15569 21.326C0.927686 21.482 0.870689 21.793 1.02669 22.019C1.18369 22.247 1.49469 22.306 1.72069 22.148L10.7827 15.912C11.0107 15.755 11.0687 15.444 10.9117 15.216C10.7557 14.989 10.4437 14.931 10.2167 15.088L1.15569 21.326V21.326Z" fill="#8899A7"/>
<path d="M11.3123 14.4041C11.6243 15.3621 11.9883 16.2791 11.6243 16.8161C11.2653 17.3471 9.95226 18.1981 9.21826 18.0941C8.48426 17.9901 7.74926 16.3441 8.29126 14.8841C8.60326 14.0431 11.3123 14.4041 11.3123 14.4041V14.4041Z" fill="#1C6399"/>
<path d="M14.2675 14.605L21.7165 14.528L22.9715 16.142C23.2815 16.54 23.4385 17.152 23.4385 17.479C23.4395 18.312 22.8765 20.271 22.7065 21.766C22.5255 23.364 19.1645 22.559 19.2095 21.958C19.2825 20.986 19.0995 20.318 19.5115 19.447C19.5895 19.282 19.3125 18.785 19.3125 18.785C18.8975 19.025 18.4405 19.18 17.9595 19.234L18.5865 20.503C18.8105 20.957 18.8455 21.612 18.6725 22.087C18.6725 22.087 17.3445 25.222 17.1965 25.961C16.8735 27.563 12.9905 26.449 13.4905 25.351C14.0855 24.043 14.0435 22.397 14.9285 21.428C14.0235 20.293 12.7315 18.838 12.8875 17.449C12.8855 17.448 14.2065 14.777 14.2675 14.605V14.605Z" fill="#67757F"/>
<path d="M14.9376 7.05702C15.4616 6.94902 21.5236 9.17702 23.0456 9.74702C25.0046 10.48 24.4266 12.154 25.2836 13.691C25.7426 14.514 26.8616 14.888 27.5356 15.506C28.2356 16.149 27.8136 17.07 27.3396 17.768C26.5456 18.937 25.7546 19.012 24.5736 18.255C23.6576 17.668 22.9796 16.745 22.4116 15.833C21.6876 17.888 19.1286 18.096 17.2286 18.153C16.0356 18.189 14.8086 18.097 13.6626 17.746C12.8256 17.489 12.5436 17.349 12.5576 16.361C12.5576 16.361 12.3356 14.251 13.1016 12.342C12.7166 12.644 12.3646 12.843 12.1746 13.301C12.0226 13.67 12.0946 14.095 11.9786 14.457C11.8136 14.968 11.3936 15.157 10.8916 15.323C10.2846 15.524 9.56959 15.644 8.92859 15.575C8.05859 15.481 8.07958 15.134 8.15058 14.281C8.27958 12.72 8.69658 11.031 9.89858 9.96502C11.3096 8.71502 13.0586 7.44502 14.9376 7.05702V7.05702Z" fill="#BBDDF5"/>
<path d="M6.00402 3.93803L7.12302 1.28503C7.19902 1.10403 7.39602 0.990032 7.61002 0.999032C7.73902 1.00503 10.82 1.17303 14.779 4.11103C18.527 6.89103 19.413 6.93103 21.357 7.01703L24.354 7.15003C24.487 7.15603 24.611 7.20903 24.701 7.29803C25.207 7.79603 25.316 8.46803 24.992 9.09703C24.581 9.89303 23.369 10.711 21.197 10.614C19.76 10.55 17.715 9.41803 15.346 8.10703C12.436 6.49703 9.13802 4.67103 6.45202 4.55203C6.29102 4.54503 6.14302 4.46903 6.05602 4.34703C5.96602 4.22503 5.94602 4.07303 6.00402 3.93803V3.93803Z" fill="#1C6399"/>
<path d="M19.5948 4.29004C18.8608 6.37304 19.9548 8.65804 22.0378 9.39204C24.1208 10.126 26.4058 9.03204 27.1398 6.94904C27.8738 4.86504 26.4478 3.52404 24.3638 2.79004C22.2808 2.05504 20.3288 2.20604 19.5948 4.29004Z" fill="#FFDC5D"/>
<path d="M25.6392 6.41895C23.7532 5.75395 22.1992 4.14695 21.8672 5.08995C21.5342 6.03295 20.8702 7.91995 18.9842 7.25495C17.0982 6.58995 18.4812 -0.344053 24.1402 1.64995C29.7972 3.64395 28.4682 7.41595 25.6392 6.41895V6.41895Z" fill="#9AAAB4"/>
<path d="M25.9443 9.05701C24.8398 9.05701 23.9443 8.16158 23.9443 7.05701C23.9443 5.95244 24.8398 5.05701 25.9443 5.05701C27.0489 5.05701 27.9443 5.95244 27.9443 7.05701C27.9443 8.16158 27.0489 9.05701 25.9443 9.05701Z" fill="#67757F"/>
<path d="M25.9443 8.05701C25.3921 8.05701 24.9443 7.60929 24.9443 7.05701C24.9443 6.50472 25.3921 6.05701 25.9443 6.05701C26.4966 6.05701 26.9443 6.50472 26.9443 7.05701C26.9443 7.60929 26.4966 8.05701 25.9443 8.05701Z" fill="#BDDDF4"/>
<path d="M23.1094 8.06201C22.0048 8.06201 21.1094 7.16658 21.1094 6.06201C21.1094 4.95744 22.0048 4.06201 23.1094 4.06201C24.2139 4.06201 25.1094 4.95744 25.1094 6.06201C25.1094 7.16658 24.2139 8.06201 23.1094 8.06201Z" fill="#67757F"/>
<path d="M23.1094 7.06201C22.5571 7.06201 22.1094 6.6143 22.1094 6.06201C22.1094 5.50973 22.5571 5.06201 23.1094 5.06201C23.6617 5.06201 24.1094 5.50973 24.1094 6.06201C24.1094 6.6143 23.6617 7.06201 23.1094 7.06201Z" fill="#BDDDF4"/>
<path d="M27.6884 16.3731C28.5954 16.7551 29.2194 17.5001 29.3914 17.8901C29.5634 18.2801 29.0334 19.7051 27.6884 20.1091C26.3434 20.5131 26.2034 18.8121 25.8754 18.5001C25.5474 18.1881 26.7194 15.9651 27.6884 16.3731Z" fill="#1C6399"/>
<path d="M28.613 18.082L28.764 17.921C28.931 17.744 28.903 17.447 28.702 17.257C28.501 17.068 28.203 17.058 28.036 17.235C28.036 17.235 27.944 17.33 27.885 17.396C27.665 17.641 28.424 18.288 28.613 18.082V18.082Z" fill="#8899A7"/>
<path d="M26.1821 19.122C26.0651 18.728 26.3391 18.116 26.5201 17.873C26.8571 18.312 27.3121 18.783 27.7041 18.681C27.6201 18.995 27.1261 18.885 26.8191 18.697C26.5121 18.508 26.1821 19.122 26.1821 19.122V19.122Z" fill="#004A77"/>
<path d="M23.2241 22.771C22.8241 22.63 22.4261 22.612 22.0651 22.788C21.6291 23 21.3921 23.43 21.3921 23.587C21.3921 23.664 21.6581 23.978 21.7951 23.666C21.9471 23.318 22.6001 22.788 23.2241 22.771ZM23.9141 23.275C23.5541 23.148 23.1951 23.132 22.8701 23.29C22.4771 23.481 22.2641 23.868 22.2641 24.009C22.2641 24.078 22.5031 24.361 22.6271 24.08C22.7641 23.767 23.3521 23.291 23.9141 23.275V23.275Z" fill="#55ACEE"/>
</svg>
