<svg width="36" height="36" viewBox="0 0 36 36" fill="none" xmlns="http://www.w3.org/2000/svg">
<path d="M25.8186 10.731C25.5986 10.863 25.3136 10.792 25.1816 10.573L22.0466 5.37198C21.9136 5.15298 21.9846 4.86798 22.2036 4.73598L22.2656 4.69798C22.4856 4.56598 22.7706 4.63598 22.9026 4.85598L26.0386 10.056C26.1706 10.275 26.0996 10.56 25.8806 10.693L25.8186 10.731V10.731Z" fill="#66757F"/>
<path d="M25.2698 10.181C25.1378 10.4 25.2078 10.685 25.4278 10.817L30.6278 13.952C30.8478 14.085 31.1328 14.014 31.2648 13.795L31.3018 13.733C31.4348 13.514 31.3638 13.229 31.1438 13.096L25.9438 9.96104C25.7248 9.82904 25.4398 9.89904 25.3068 10.119L25.2698 10.181V10.181Z" fill="#66757F"/>
<path d="M13.0492 32.1439L9.51322 27.1939L8.80622 26.4869L3.85622 22.9519C3.46522 22.5609 2.83322 22.5609 2.44222 22.9519L0.320219 25.0729C-0.0707811 25.4639 -0.0697811 26.0959 0.320219 26.4869L9.51222 35.6789C9.90322 36.0699 10.5352 36.0699 10.9272 35.6789L13.0482 33.5579C13.4392 33.1669 13.4392 32.5339 13.0492 32.1439Z" fill="#BE1931"/>
<path d="M23.2044 17.7471C16.2094 24.7401 3.53543 33.3041 3.11643 32.8841C2.69643 32.4651 11.2604 19.7911 18.2544 12.7971C25.2474 5.80405 27.0754 6.19205 28.4424 7.55905C29.8094 8.92505 30.1974 10.7531 23.2044 17.7471Z" fill="#CCD6DD"/>
<path d="M32.0762 4.63201C31.0992 5.60801 30.1492 6.24101 29.9542 6.04601C29.7592 5.85101 30.3922 4.90101 31.3682 3.92401C32.3442 2.94801 33.2952 2.31501 33.4902 2.51001C33.6862 2.70601 33.0522 3.65501 32.0762 4.63201Z" fill="#BE1931"/>
<path d="M23.944 17.005C23.163 17.786 21.896 17.786 21.116 17.005L18.994 14.884C18.213 14.103 18.213 12.837 18.994 12.055L26.772 4.27704C27.553 3.49604 29.994 2.32204 30.775 3.10304L32.896 5.22404C33.677 6.00504 32.503 8.44504 31.722 9.22604L23.944 17.005V17.005Z" fill="#CCD6DD"/>
<path d="M28.5264 3.20304L32.7984 7.47404C33.1624 6.59104 33.3274 5.65604 32.8974 5.22504L30.7764 3.10404C30.3454 2.67304 29.4094 2.83804 28.5264 3.20304Z" fill="#226699"/>
<path d="M32.5921 3.73302C32.3961 3.92902 31.4471 3.29502 30.4711 2.31902C29.4941 1.34202 28.8611 0.39302 29.0571 0.19702C29.2521 0.00202021 30.2021 0.63502 31.1781 1.61202C32.1541 2.58802 32.7871 3.53802 32.5921 3.73302Z" fill="#BE1931"/>
<path d="M35.8225 6.96495C35.6275 7.15995 34.6775 6.52695 33.7015 5.55095C32.7255 4.57395 32.0915 3.62495 32.2875 3.42895C32.4825 3.23395 33.4315 3.86695 34.4085 4.84395C35.3855 5.81995 36.0185 6.76995 35.8225 6.96495Z" fill="#BE1931"/>
<path d="M24.5174 10.108L25.8924 11.483C26.4704 12.061 27.0064 12.571 27.1774 13.229L27.2384 13.168C28.1824 12.223 28.1824 10.69 27.2384 9.74605L26.2564 8.76405C25.3124 7.81905 23.7794 7.81905 22.8344 8.76405L22.7734 8.82405C23.4304 8.99505 23.9404 9.53105 24.5174 10.108V10.108Z" fill="#66757F"/>
<path d="M21.831 6.38995C21.491 6.72995 20.938 6.72995 20.598 6.38995L20.418 6.20995C20.077 5.86895 20.077 5.31695 20.417 4.97695L22.013 3.38195C22.353 3.04195 22.906 3.04195 23.246 3.38195L23.426 3.56195C23.767 3.90295 23.767 4.45495 23.427 4.79495L21.831 6.38995ZM30.99 15.616C30.668 15.938 30.146 15.938 29.824 15.616L29.576 15.368C29.254 15.046 29.254 14.524 29.576 14.201L31.238 12.539C31.56 12.217 32.082 12.217 32.404 12.539L32.652 12.787C32.974 13.109 32.974 13.631 32.652 13.953L30.99 15.616V15.616Z" fill="#292F33"/>
<path d="M3.86496 27.2021L3.14896 26.4861L1.72596 25.0631C1.33996 24.6771 0.714961 24.6771 0.328961 25.0631L0.311961 25.0801C-0.0740391 25.4671 -0.0740391 26.0921 0.311961 26.4771L1.73496 27.9001L2.44996 28.6161L3.14896 29.3141L3.84796 28.6161L3.86496 28.6001L4.56296 27.9001L3.86496 27.2021V27.2021ZM10.928 34.2651L9.48796 32.8251L8.80696 32.1441L8.09996 31.4371L6.68596 32.8511L7.39296 33.5581L8.07396 34.2391L9.51396 35.6791C9.90496 36.0701 10.537 36.0701 10.929 35.6791C11.318 35.2881 11.318 34.6551 10.928 34.2651V34.2651Z" fill="#EA596E"/>
<path d="M7.11859 29.475C5.07159 31.522 3.27859 33.048 3.11559 32.884C2.95159 32.721 4.47759 30.928 6.52559 28.881C8.57259 26.833 10.3656 25.307 10.5296 25.471C10.6926 25.635 9.16659 27.427 7.11859 29.475ZM35.1316 23.173L12.8026 0.845027C12.0216 0.0640273 10.7556 0.0640273 9.97359 0.845027L7.43759 3.79503L15.6646 14.436L21.5646 20.335L32.1816 28.539L35.1316 26.002C35.9126 25.222 35.9126 23.954 35.1316 23.173Z" fill="#BE1931"/>
<path d="M16.5255 10.4901L8.54448 2.50806L7.43848 3.79406L14.3205 12.6951L16.5255 10.4901ZM33.4685 27.4331L25.0115 18.9751L22.7425 21.2441L32.1825 28.5381L33.4685 27.4331Z" fill="#EA596E"/>
</svg>
