<svg width="36" height="36" viewBox="0 0 36 36" fill="none" xmlns="http://www.w3.org/2000/svg">
<path d="M11.5658 12.633C11.0408 12.484 10.1438 12.396 9.44482 12.432C8.78282 12.466 7.95882 13.023 7.81582 13.47C7.67282 13.918 7.72582 14.544 8.08482 14.652C8.44382 14.76 8.98582 14.401 9.67282 14.527C10.3588 14.652 10.2968 14.972 10.2878 15.261C10.2568 16.223 10.7958 16.125 10.8878 15.995C11.0908 15.709 11.4508 15.319 11.8628 14.941C12.2748 14.563 11.8958 12.727 11.5658 12.633Z" fill="#1C6399"/>
<path d="M0 16V32C0 32 0 36 4 36H32C36 36 36 32 36 32V30C36 30 19 20 0 16Z" fill="#E1E8ED"/>
<path d="M3.18432 20.98C2.72232 21.983 3.16132 23.17 4.16432 23.633L27.7793 34.511C28.7823 34.973 29.9693 34.534 30.4313 33.532L31.2683 31.715C31.7303 30.712 31.2913 29.524 30.2893 29.062L6.67432 18.185C5.67032 17.723 4.48332 18.163 4.02032 19.164L3.18432 20.98Z" fill="#EA596E"/>
<path d="M22.4996 25.438C23.3016 26.34 23.0936 27.063 23.0616 27.407C23.0296 27.751 20.7506 29.787 20.3736 29.907C19.1666 30.293 17.5686 29.376 17.5686 28.719C17.5686 28.245 17.7796 27.781 18.3116 27.094C18.8436 26.407 19.1866 25.375 19.4056 25.032C19.6246 24.689 21.9996 24.875 22.4996 25.438V25.438ZM14.2136 21.905C14.8616 22.905 14.5626 23.593 14.4856 23.93C14.4086 24.266 11.9396 25.982 11.5616 26.051C10.3486 26.274 8.93765 25.154 9.02665 24.504C9.09165 24.034 9.02765 23.841 9.63265 23.23C10.2366 22.619 11.4576 21.806 11.7146 21.494C11.9716 21.182 13.8096 21.281 14.2136 21.905V21.905Z" fill="#1C6399"/>
<path d="M11.2715 21.688C11.5015 20.665 12.3795 18.21 12.7355 17.258C12.8805 16.869 13.3415 16.347 13.8495 16.144L18.8505 14.144C19.6575 13.82 24.8765 16.083 24.3085 17.03C24.3085 17.03 24.2935 18.939 21.7065 21.367C22.2305 22.834 22.5545 25.608 22.5545 25.608C22.6885 26.688 18.6315 26.608 18.4975 25.72C18.3635 24.832 18.1825 23.191 17.5635 21.688C17.4505 21.412 17.3965 20.73 17.5635 20.209C17.7305 19.688 18.7715 18.484 18.7715 18.484C18.7715 18.484 17.2635 19.392 16.1325 19.54C16.0015 20.563 14.9095 21.842 14.6785 22.984C14.4575 24.074 10.9015 23.329 11.2715 21.688V21.688Z" fill="#67757F"/>
<path d="M11.5917 12C12.0207 11.927 13.4997 11.412 13.8957 11.083C14.2917 10.755 15.4907 9.462 15.9937 8.797C16.3597 8.311 16.9837 8 17.5917 8C17.5917 8 22.9997 8.011 23.9997 8.011C26.4057 8.011 29.1247 10.5 29.5847 11.305C30.1467 12.29 30.9377 15.521 30.0937 18.5C29.9997 18.833 26.5637 17.996 26.6947 17.368C26.9787 16 27.0207 14.288 26.8197 13.832C26.6187 13.377 26.1557 13.031 25.4997 12.734V18C25.4997 18.164 25.4187 18.317 25.2847 18.411C25.1997 18.47 25.1007 18.5 24.9997 18.5C24.9407 18.5 24.8807 18.49 24.8237 18.468L16.8237 15.468C16.6287 15.395 16.4997 15.208 16.4997 15V13.952C15.9057 14.428 14.9057 15.048 14.6697 15.162C14.4337 15.276 12.9907 15.974 11.9627 15.974C11.4127 15.974 10.5027 12.184 11.5917 12V12Z" fill="#BBDDF5"/>
<path d="M4.52471 3.842L5.52471 0.842C5.59371 0.638 5.78471 0.5 5.99971 0.5C6.12871 0.5 9.21371 0.535 13.2997 3.6C17.1667 6.5 18.0547 6.5 19.9997 6.5H22.9997C23.1327 6.5 23.2597 6.553 23.3537 6.647C23.8807 7.174 24.0197 7.915 23.7247 8.629C23.3487 9.533 22.1737 10.5 19.9997 10.5C18.5617 10.5 16.4677 9.344 14.0427 8.006C11.0647 6.363 7.68771 4.5 4.99971 4.5C4.83871 4.5 4.68771 4.423 4.59471 4.293C4.49971 4.162 4.47471 3.994 4.52471 3.842Z" fill="#1C6399"/>
<path d="M17.5918 4C17.5918 6.209 19.3828 8 21.5918 8C23.8008 8 25.5918 6.209 25.5918 4C25.5918 1.791 23.8008 1 21.5918 1C19.3828 1 17.5918 1.791 17.5918 4Z" fill="#FFDC5D"/>
<path d="M24.0001 4C22.0001 4 20.0001 3 20.0001 4C20.0001 5 20.0001 7 18.0001 7C16.0001 7 15.0001 0 21.0001 0C27.0001 0 27.0001 4 24.0001 4Z" fill="#9AAAB4"/>
<path d="M24.5 6.5C23.3954 6.5 22.5 5.60457 22.5 4.5C22.5 3.39543 23.3954 2.5 24.5 2.5C25.6046 2.5 26.5 3.39543 26.5 4.5C26.5 5.60457 25.6046 6.5 24.5 6.5Z" fill="#67757F"/>
<path d="M24.5 5.5C23.9477 5.5 23.5 5.05228 23.5 4.5C23.5 3.94772 23.9477 3.5 24.5 3.5C25.0523 3.5 25.5 3.94772 25.5 4.5C25.5 5.05228 25.0523 5.5 24.5 5.5Z" fill="#BDDDF4"/>
<path d="M21.5 6.5C20.3954 6.5 19.5 5.60457 19.5 4.5C19.5 3.39543 20.3954 2.5 21.5 2.5C22.6046 2.5 23.5 3.39543 23.5 4.5C23.5 5.60457 22.6046 6.5 21.5 6.5Z" fill="#67757F"/>
<path d="M21.5 5.5C20.9477 5.5 20.5 5.05228 20.5 4.5C20.5 3.94772 20.9477 3.5 21.5 3.5C22.0523 3.5 22.5 3.94772 22.5 4.5C22.5 5.05228 22.0523 5.5 21.5 5.5Z" fill="#BDDDF4"/>
<path d="M29.53 17.805C30.447 18.595 30.359 19.421 30.031 20C29.703 20.579 29.456 20.733 28.839 20.662C28.25 20.594 27.528 19.917 27.112 19.458C26.543 18.83 26.952 17.925 26.952 17.925C26.952 17.925 26.601 17.834 26.313 17.647C25.959 17.418 25.911 16.508 26.251 16.655C27.291 17.104 28.5 16.917 29.53 17.805V17.805Z" fill="#1C6399"/>
<path d="M20.9823 27.982C21.2583 27.759 20.8633 27.141 19.9043 26.747C19.0173 26.382 18.6373 26.806 18.6463 26.917C18.6543 27.021 19.0713 26.675 19.7593 27.1C20.4473 27.525 20.6763 28.229 20.9823 27.982V27.982ZM20.4293 28.698C20.7053 28.475 20.3103 27.857 19.3513 27.463C18.4643 27.098 18.0843 27.522 18.0933 27.633C18.1013 27.737 18.5183 27.39 19.2063 27.816C19.8943 28.242 20.1243 28.945 20.4293 28.698V28.698ZM12.4473 24.31C12.7433 24.115 12.4103 23.462 11.4953 22.975C10.6473 22.525 10.2283 22.91 10.2263 23.021C10.2243 23.125 10.6733 22.821 11.3163 23.312C11.9583 23.803 12.1183 24.526 12.4473 24.31ZM11.8263 24.969C12.1223 24.774 11.7893 24.121 10.8743 23.634C10.0263 23.184 9.60726 23.569 9.60526 23.68C9.60326 23.784 10.0523 23.48 10.6953 23.971C11.3383 24.462 11.4983 25.185 11.8263 24.969V24.969Z" fill="#55ACEE"/>
</svg>
