<svg width="36" height="36" viewBox="0 0 36 36" fill="none" xmlns="http://www.w3.org/2000/svg">
<path d="M3 27H5L4 19H2L3 27Z" fill="#5C913B"/>
<path d="M35 14C25.945 14.053 24 15 18 16C15.041 16.493 11 17 6.99995 17C4.99995 17 2.99995 18 2.99995 21C2.99995 23 2.46595 24.187 8.43295 24.815C12.41 25.233 23 23 27 21C33 18 36 13.995 35 14Z" fill="#DD2E44"/>
<path d="M36 24H0V36H36V24Z" fill="#55ACEE"/>
<path d="M30.9997 13C26.9997 13 19.9997 13 12.9997 14C5.99969 15 2.99969 15 2.99969 17V20C2.99969 21.414 9.86869 20.447 12.9997 20C19.9997 19 26.9997 17 30.9997 16C35.0467 14.989 37.9997 13 30.9997 13Z" fill="#FFCC4D"/>
<path d="M5.40766 24.322C3.28566 23.783 3.00466 23.015 2.98966 21.961C4.25266 22.58 6.68866 22.281 8.87566 22.008C16.8357 21.013 25.3567 19.073 33.5977 16.4C32.5547 17.44 31.0137 18.69 29.0297 19.883C22.3237 21.784 15.5457 23.19 9.12466 23.992C7.86566 24.149 6.59466 24.304 5.40766 24.322V24.322Z" fill="#A0041E"/>
<path d="M24 24C21 22 17 19 18 21C19 23 19.001 24 17 23C15 22 12 21 13 23C14 25 11 24 10 23C9 22 6 23 7 24C8 25 16 26 19 26C22 26 24 24 24 24Z" fill="#55ACEE"/>
<path d="M2 16H3C4.104 16 5 16.896 5 18H4C3.447 18 3 18.447 3 19V20H2C0.896 20 0 20.104 0 19C0 17.896 0.896 16 2 16Z" fill="#5C913B"/>
<path d="M6 16C5.03 16.243 6 18 7 19C8 20 17 18 17 18L15 15C15 15 10 15 6 16Z" fill="#C1694F"/>
<path d="M7 19C6.672 18.672 6.355 18.263 6.101 17.853C7.576 17.089 9.731 16.468 12.18 16.189C13.429 16.047 14.621 16.011 15.707 16.061L17 18C17 18 8 20 7 19Z" fill="#A0041E"/>
<path d="M15 15V14L19 15L21 17L17 18L15 15Z" fill="#55ACEE"/>
<path d="M13 14C13.553 14 14 15.343 14 17C14 17.612 13.938 18.181 13.833 18.656C13.331 18.783 12.798 18.877 12.241 18.934C12.093 18.41 12 17.741 12 17C12 15.344 12.447 14 13 14V14Z" fill="#292F33"/>
</svg>
