<svg width="36" height="36" viewBox="0 0 36 36" fill="none" xmlns="http://www.w3.org/2000/svg">
<path d="M36 34H0V36H36V34Z" fill="#939598"/>
<path d="M30 27H1V32H30V27Z" fill="#231F20"/>
<path d="M29.001 35C27.3441 35 26.001 33.6569 26.001 32C26.001 30.3431 27.3441 29 29.001 29C30.6578 29 32.001 30.3431 32.001 32C32.001 33.6569 30.6578 35 29.001 35Z" fill="#58595B"/>
<path d="M23.001 35C21.3441 35 20.001 33.6569 20.001 32C20.001 30.3431 21.3441 29 23.001 29C24.6578 29 26.001 30.3431 26.001 32C26.001 33.6569 24.6578 35 23.001 35Z" fill="#58595B"/>
<path d="M29.001 33.5C28.1725 33.5 27.501 32.8284 27.501 32C27.501 31.1716 28.1725 30.5 29.001 30.5C29.8294 30.5 30.501 31.1716 30.501 32C30.501 32.8284 29.8294 33.5 29.001 33.5Z" fill="#A0041E"/>
<path d="M23.001 33.5C22.1725 33.5 21.501 32.8284 21.501 32C21.501 31.1716 22.1725 30.5 23.001 30.5C23.8294 30.5 24.501 31.1716 24.501 32C24.501 32.8284 23.8294 33.5 23.001 33.5Z" fill="#A0041E"/>
<path d="M30.9996 33H34.9996C35.9996 33 36.4996 32.5 34.9996 31L30.9996 27C29.9996 26 28.9996 24.999 28.9996 27V31C28.9996 33 29.0006 33 30.9996 33Z" fill="#DD2E44"/>
<path d="M28 20C28 23.313 29.343 26 31 26C32.657 26 34 23.313 34 20C34 16.686 32.657 14 31 14C29.343 14 28 16.686 28 20Z" fill="#231F20"/>
<path d="M25 15H29L31 7H23L25 15Z" fill="#6D6E71"/>
<path d="M10 25C10 26.104 10.896 27 12 27H30C31.104 27 32 26.104 32 25V15C32 13.896 31.104 13 30 13H12C10.896 13 10 13.896 10 15V25Z" fill="#414042"/>
<path d="M23 26C23 26.553 23.448 27 24 27C24.552 27 25 26.553 25 26V13C25 12.448 24.552 12 24 12C23.448 12 23 12.448 23 13V26ZM17 26C17 26.553 17.447 27 18 27C18.553 27 19 26.553 19 26V13C19 12.448 18.553 12 18 12C17.447 12 17 12.448 17 13V26Z" fill="#C1694F"/>
<path d="M0 26C0 26.553 0.447 27 1 27H29C29.552 27 30 26.553 30 26C30 25.447 29.552 25 29 25H1C0.447 25 0 25.447 0 26Z" fill="#808285"/>
<path d="M6.00098 35C3.79184 35 2.00098 33.2091 2.00098 31C2.00098 28.7909 3.79184 27 6.00098 27C8.21012 27 10.001 28.7909 10.001 31C10.001 33.2091 8.21012 35 6.00098 35Z" fill="#58595B"/>
<path d="M14.001 35C11.7918 35 10.001 33.2091 10.001 31C10.001 28.7909 11.7918 27 14.001 27C16.2101 27 18.001 28.7909 18.001 31C18.001 33.2091 16.2101 35 14.001 35Z" fill="#58595B"/>
<path d="M6.00098 33C4.89641 33 4.00098 32.1046 4.00098 31C4.00098 29.8954 4.89641 29 6.00098 29C7.10555 29 8.00098 29.8954 8.00098 31C8.00098 32.1046 7.10555 33 6.00098 33Z" fill="#A0041E"/>
<path d="M14.001 33C12.8964 33 12.001 32.1046 12.001 31C12.001 29.8954 12.8964 29 14.001 29C15.1055 29 16.001 29.8954 16.001 31C16.001 32.1046 15.1055 33 14.001 33Z" fill="#A0041E"/>
<path d="M24 3H30C30.552 3 31 3.448 31 4V7H23V4C23 3.448 23.448 3 24 3Z" fill="#414042"/>
<path d="M13 7H1V25H13V7Z" fill="#BE1931"/>
<path d="M0 6C0 6.552 0.447 7 1 7H13C13.553 7 14 6.552 14 6C14 5.448 13.553 5 13 5H1C0.447 5 0 5.448 0 6Z" fill="#A0041E"/>
<path d="M11 18H3V23H11V18Z" fill="#EA596E"/>
<path d="M6 32H14C14.127 32 14.253 31.976 14.371 31.929L19.193 30H26C26.552 30 27 29.553 27 29C27 28.447 26.552 28 26 28H19C18.872 28 18.747 28.024 18.628 28.071L13.808 30H6C5.447 30 5 30.447 5 31C5 31.553 5.447 32 6 32Z" fill="#F4900C"/>
<path d="M3 10C3 9.448 3.447 9 4 9H10C10.553 9 11 9.448 11 10V15C11 15.552 10.553 16 10 16H4C3.447 16 3 15.552 3 15V10Z" fill="#55ACEE"/>
</svg>
