<svg width="36" height="36" viewBox="0 0 36 36" fill="none" xmlns="http://www.w3.org/2000/svg">
<path d="M6 16C6 17.104 6.896 18 8 18H18C19.104 18 20 17.104 20 16V14C20 12.896 19.104 12 18 12H8C6.896 12 6 12.896 6 14V16Z" fill="#58595B"/>
<path d="M32 14C34.209 14 36 15.791 36 18V28C36 32.418 32.418 36 28 36H0V14H32Z" fill="#F4900C"/>
<path d="M35.4127 31H-0.000335693V29H35.9307C35.8437 29.698 35.6677 30.369 35.4127 31Z" fill="#FFD983"/>
<path d="M36 2H0V8H36V2Z" fill="#808285"/>
<path d="M36 4H0V6H36V4Z" fill="#414042"/>
<path d="M8 0H18C19.657 0 21 1.343 21 3C21 4.657 19.657 6 18 6H15V10L17 12H9L11 10V6H8C6.343 6 5 4.657 5 3C5 1.343 6.343 0 8 0Z" fill="#A7A9AC"/>
<path d="M22 14H0V29H22V14Z" fill="#3B88C3"/>
<path d="M24 25C24 26.104 24.896 27 26 27H30C31.104 27 32 26.104 32 25V19C32 17.896 31.104 17 30 17H26C24.896 17 24 17.896 24 19V25Z" fill="#58595B"/>
<path d="M12 23C12 24.104 12.896 25 14 25H18C19.104 25 20 24.104 20 23V19C20 17.896 19.104 17 18 17H14C12.896 17 12 17.896 12 19V23ZM2 23C2 24.104 2.896 25 4 25H8C9.104 25 10 24.104 10 23V19C10 17.896 9.104 17 8 17H4C2.896 17 2 17.896 2 19V23Z" fill="#414042"/>
<path d="M36 17V27C34.896 27 34 26.104 34 25V19C34 17.896 34.896 17 36 17Z" fill="#58595B"/>
</svg>
