<svg width="36" height="36" viewBox="0 0 36 36" fill="none" xmlns="http://www.w3.org/2000/svg">
<path d="M14.6233 15.449C14.5343 16.265 15.4533 16.944 16.6763 16.964C17.8993 16.984 18.7713 16.329 18.6233 15.501L18.2673 13.501C18.1203 12.672 17.3293 12.001 16.5003 12.001C15.6723 12.001 14.9283 12.663 14.8393 13.479L14.6233 15.449V15.449Z" fill="#CCD6DD"/>
<path d="M3.754 21H3.889L4.333 18C4.66 15.791 6.197 14 7.766 14H19.838C21.407 14 23.412 15.791 24.316 18L25.544 21H29.089C31.162 21 33.193 22.791 33.627 25L34.215 28C34.216 28.008 34.215 28.015 34.217 28.021C35.218 28.132 36 28.97 36 30C36 31.104 35.104 32 34 32H4C1.791 32 0 30.209 0 28V25C0 22.791 1.681 21 3.754 21Z" fill="#FFCC4D"/>
<path d="M26 35C23.7909 35 22 33.2091 22 31C22 28.7909 23.7909 27 26 27C28.2091 27 30 28.7909 30 31C30 33.2091 28.2091 35 26 35Z" fill="#292F33"/>
<path d="M26 33C24.8954 33 24 32.1046 24 31C24 29.8954 24.8954 29 26 29C27.1046 29 28 29.8954 28 31C28 32.1046 27.1046 33 26 33Z" fill="#CCD6DD"/>
<path d="M9 35C6.79086 35 5 33.2091 5 31C5 28.7909 6.79086 27 9 27C11.2091 27 13 28.7909 13 31C13 33.2091 11.2091 35 9 35Z" fill="#292F33"/>
<path d="M9 33C7.89543 33 7 32.1046 7 31C7 29.8954 7.89543 29 9 29C10.1046 29 11 29.8954 11 31C11 32.1046 10.1046 33 9 33Z" fill="#CCD6DD"/>
<path d="M33.6272 25L33.8232 26H0.000244141V25C0.000244141 24.652 0.0552397 24.321 0.13324 24H33.2982C33.4392 24.321 33.5592 24.652 33.6272 25V25Z" fill="#F4900C"/>
<path d="M12.0003 21H6.08034C6.09434 20.584 6.14434 20.092 6.23634 19.5C6.63134 17 6.78834 16 9.67334 16H12.0003V21ZM14.0003 16H19.0003C20.5943 16 22.2363 17.567 22.8473 19.5C23.0413 20.099 23.2003 20.588 23.3193 21H14.0003V16Z" fill="#55ACEE"/>
</svg>
