<svg width="36" height="36" viewBox="0 0 36 36" fill="none" xmlns="http://www.w3.org/2000/svg">
<path d="M25 11H22V20H25V11Z" fill="#CCD6DD"/>
<path d="M12.0004 26.157C12.0004 28.832 13.6464 31 15.6754 31H31.2914C33.3204 31 34.7794 29.435 34.5494 27.506L33.9244 22.265C33.6944 20.335 31.9324 18.457 29.9964 18.066L15.3684 14.856C13.5044 14.413 12.0004 16.219 12.0004 18.893V26.157Z" fill="#77B255"/>
<path d="M19.4648 24.167C19.7608 26.283 18.2088 28 15.9998 28H6.99978C4.79078 28 2.99978 26.283 2.99978 24.167V8.833C2.99978 6.716 4.45278 5 6.24478 5H13.5478C15.3398 5 17.0318 6.716 17.3278 8.833L19.4648 24.167V24.167Z" fill="#292F33"/>
<path d="M17.7554 25C17.8904 26.104 17.1054 27 16.0004 27H7.00041C5.89641 27 5.00041 26.104 5.00041 25V11C5.00041 9.896 5.74341 9 6.66041 9H14.1334C15.0504 9 15.9044 9.896 16.0394 11L17.7554 25Z" fill="#BBDDF5"/>
<path d="M21 21H3V31H21V21Z" fill="#77B255"/>
<path d="M3 23H34L33 21H3V23Z" fill="#FFCC4D"/>
<path d="M28 35C25.7909 35 24 33.2091 24 31C24 28.7909 25.7909 27 28 27C30.2091 27 32 28.7909 32 31C32 33.2091 30.2091 35 28 35Z" fill="#292F33"/>
<path d="M28 33C26.8954 33 26 32.1046 26 31C26 29.8954 26.8954 29 28 29C29.1046 29 30 29.8954 30 31C30 32.1046 29.1046 33 28 33Z" fill="#FFCC4D"/>
<path d="M3 16V20L13 29L20 28L17 18L14 16H3Z" fill="#77B255"/>
<path d="M17.7783 26.111C17.7783 21.201 13.7993 17.222 8.88932 17.222C3.97932 17.222 0.000320435 21.201 0.000320435 26.111C0.000320435 31.021 3.97932 35 8.88932 35C13.7993 35 17.7783 31.021 17.7783 26.111Z" fill="#292F33"/>
<path d="M3.33331 26.1111C3.33331 29.1791 5.82031 31.6671 8.88931 31.6671C11.9573 31.6671 14.4453 29.1801 14.4453 26.1111C14.4453 23.0431 11.9583 20.5551 8.88931 20.5551C5.82031 20.5561 3.33331 23.0431 3.33331 26.1111Z" fill="#FFCC4D"/>
<path d="M5.55566 26.111C5.55566 27.952 7.04766 29.444 8.88866 29.444C10.7307 29.444 12.2227 27.952 12.2227 26.111C12.2227 24.269 10.7307 22.777 8.88866 22.777C7.04766 22.777 5.55566 24.27 5.55566 26.111V26.111Z" fill="#FFE8B6"/>
<path d="M3.41216 7C3.96416 5.813 5.01816 5 6.24516 5H13.5482C14.7752 5 15.9432 5.813 16.6602 7H3.41216Z" fill="#77B255"/>
<path d="M6.6673 26.1109C6.6673 27.3379 7.66231 28.3329 8.88931 28.3329C10.1163 28.3329 11.1123 27.3379 11.1123 26.1109C11.1123 24.8839 10.1173 23.8879 8.88931 23.8879C7.66231 23.8889 6.6673 24.8839 6.6673 26.1109Z" fill="#F4900C"/>
<path d="M28 32C27.4477 32 27 31.5523 27 31C27 30.4477 27.4477 30 28 30C28.5523 30 29 30.4477 29 31C29 31.5523 28.5523 32 28 32Z" fill="#F4900C"/>
<path d="M25 13H22V15H25V13Z" fill="#66757F"/>
<path d="M19.9995 28.75C20.0935 28.75 20.1895 28.737 20.2845 28.709C20.8135 28.552 21.1165 27.995 20.9595 27.466L18.9595 20.716C18.5785 18.796 16.8115 15 12.9995 15H2.99954C2.44654 15 1.99954 15.448 1.99954 16C1.99954 16.552 2.44654 17 2.99954 17H12.9995C16.1435 17 17.0105 21.154 17.0195 21.196L19.0405 28.034C19.1695 28.469 19.5675 28.75 19.9995 28.75Z" fill="#5C913B"/>
<path d="M33.9991 29C34.0411 29 34.0821 28.997 34.1241 28.992C34.6721 28.924 35.0611 28.424 34.9921 27.876L33.9921 19.876C33.9241 19.327 33.4231 18.94 32.8761 19.008C32.3281 19.076 31.9391 19.576 32.0081 20.124L33.0081 28.124C33.0711 28.63 33.5021 29 33.9991 29V29Z" fill="#3E721D"/>
</svg>
