<svg width="36" height="36" viewBox="0 0 36 36" fill="none" xmlns="http://www.w3.org/2000/svg">
<path d="M36 34H0V36H36V34Z" fill="#939598"/>
<path d="M26 32C26 30.343 27.344 29 29 29C30.656 29 32 30.343 32 32C32 33.657 30.657 35 29 35C27.343 35 26 33.657 26 32Z" fill="#58595B"/>
<path d="M27 32C27 30.895 27.896 30 29 30C30.104 30 31 30.895 31 32C31 33.105 30.104 34 29 34C27.896 34 27 33.105 27 32Z" fill="#292F33"/>
<path d="M7 35C5.34315 35 4 33.6569 4 32C4 30.3431 5.34315 29 7 29C8.65685 29 10 30.3431 10 32C10 33.6569 8.65685 35 7 35Z" fill="#58595B"/>
<path d="M7 34C5.89543 34 5 33.1046 5 32C5 30.8954 5.89543 30 7 30C8.10457 30 9 30.8954 9 32C9 33.1046 8.10457 34 7 34Z" fill="#292F33"/>
<path d="M2 2H34C34.552 2 35 1.552 35 1C35 0.448 34.552 0 34 0H2C1.447 0 1 0.448 1 1C1 1.552 1.447 2 2 2Z" fill="#E6E7E8"/>
<path d="M13.0024 4.94405C13.0184 4.66005 13.1534 4.39605 13.3754 4.21805L17.0584 1.27305C16.9714 0.971054 17.0094 0.638054 17.2204 0.375054C17.5344 -0.018946 18.0794 -0.092946 18.5014 0.154054C18.9214 -0.093946 19.4674 -0.019946 19.7824 0.375054C19.9934 0.639054 20.0324 0.972054 19.9444 1.27305L23.6264 4.21805C23.8484 4.39605 23.9844 4.65905 24.0004 4.94405C24.0164 5.22805 23.9104 5.50505 23.7094 5.70605L19.8744 9.54005C20.0724 9.91705 20.0264 10.3881 19.7094 10.7051C19.5124 10.9021 19.2564 11.0001 19.0004 11.0001C18.8244 11.0001 18.6564 10.9371 18.5004 10.8451C18.3444 10.9361 18.1764 11.0001 18.0004 11.0001C17.7444 11.0001 17.4884 10.9021 17.2934 10.7071C16.9764 10.3901 16.9304 9.91905 17.1284 9.54205L13.2934 5.70705C13.0924 5.50505 12.9854 5.22805 13.0024 4.94405V4.94405ZM18.5004 8.08505L21.5034 5.08205L18.5004 2.68005L15.4974 5.08305L18.5004 8.08505Z" fill="#66757F"/>
<path d="M6 10C6 11.104 6.896 12 8 12H28C29.104 12 30 11.104 30 10C30 8.896 29.104 8 28 8H8C6.896 8 6 8.896 6 10Z" fill="#BCBEC0"/>
<path d="M0 22C0 24.209 1.791 26 4 26H32C34.209 26 36 24.209 36 22V14C36 11.791 34.209 10 32 10H4C1.791 10 0 11.791 0 14V22ZM36 28H0V32H36V28Z" fill="#E6E7E8"/>
<path d="M36 14H0V28H36V14Z" fill="#BE1931"/>
<path d="M0 14H36V24H30V30H23V24H13V30H6V24H0V14Z" fill="#DD2E44"/>
<path d="M34 16H36V26H34C32.896 26 32 25.104 32 24V18C32 16.896 32.896 16 34 16ZM0 16H2C3.104 16 4 16.896 4 18V24C4 25.104 3.104 26 2 26H0V16ZM15 22C15 22.553 15.448 23 16 23H20C20.553 23 21 22.553 21 22V18C21 17.447 20.552 17 20 17H16C15.448 17 15 17.447 15 18V22ZM24 23C24 23.553 24.448 24 25 24H28C28.552 24 29 23.553 29 23V18C29 17.448 28.552 17 28 17H25C24.448 17 24 17.448 24 18V23ZM7 23C7 23.553 7.447 24 8 24H11C11.553 24 12 23.553 12 23V18C12 17.448 11.553 17 11 17H8C7.447 17 7 17.448 7 18V23Z" fill="#55ACEE"/>
<path d="M36 28H0V30H36V28Z" fill="#A0041E"/>
</svg>
