<svg width="36" height="36" viewBox="0 0 36 36" fill="none" xmlns="http://www.w3.org/2000/svg">
<path d="M36 22V28C36 29.657 34.657 31 33 31H3C1.343 31 0 29.657 0 28V22H36Z" fill="#77B255"/>
<path d="M21.0001 12C21.2261 12 21.4531 11.924 21.6401 11.768C22.0641 11.414 22.1221 10.784 21.7681 10.36C16.5821 4.136 9.44309 3.053 9.14209 3.01C9.09509 3.003 9.04709 3 9.00009 3H6.00009C5.44709 3 5.00009 3.448 5.00009 4C5.00009 4.552 5.44709 5 6.00009 5H8.91909C9.60909 5.119 15.7971 6.319 20.2311 11.641C20.4291 11.878 20.7131 12 21.0001 12V12Z" fill="#6D6E71"/>
<path d="M25 9H11V13H25V9Z" fill="#A7A9AC"/>
<path d="M0 22V14C0 12.343 1.343 11 3 11H33C34.657 11 36 12.343 36 14V22H0Z" fill="#E6E7E8"/>
<path d="M36 22H0V24H36V22ZM29 25C32.063 25 34.586 27.298 34.95 30.263C34.424 30.716 33.748 31 33 31H23C23 27.687 25.686 25 29 25V25ZM1.05 30.263C1.414 27.298 3.937 25 7 25C10.313 25 13 27.687 13 31H3C2.251 31 1.575 30.716 1.05 30.263V30.263Z" fill="#5C913B"/>
<path d="M29 35C26.7909 35 25 33.2091 25 31C25 28.7909 26.7909 27 29 27C31.2091 27 33 28.7909 33 31C33 33.2091 31.2091 35 29 35Z" fill="black"/>
<path d="M29 33C27.8954 33 27 32.1046 27 31C27 29.8954 27.8954 29 29 29C30.1046 29 31 29.8954 31 31C31 32.1046 30.1046 33 29 33Z" fill="#99AAB5"/>
<path d="M7 35C4.79086 35 3 33.2091 3 31C3 28.7909 4.79086 27 7 27C9.20914 27 11 28.7909 11 31C11 33.2091 9.20914 35 7 35Z" fill="black"/>
<path d="M7 33C5.89543 33 5 32.1046 5 31C5 29.8954 5.89543 29 7 29C8.10457 29 9 29.8954 9 31C9 32.1046 8.10457 33 7 33Z" fill="#99AAB5"/>
<path d="M9 19C9 19.553 9.447 20 10 20H13C13.553 20 14 19.553 14 19V16C14 15.448 13.553 15 13 15H10C9.447 15 9 15.448 9 16V19ZM2 19C2 19.553 2.447 20 3 20H6C6.553 20 7 19.553 7 19V16C7 15.448 6.553 15 6 15H3C2.447 15 2 15.448 2 16V19ZM23 19C23 19.553 23.448 20 24 20H27C27.552 20 28 19.553 28 19V16C28 15.448 27.552 15 27 15H24C23.448 15 23 15.448 23 16V19ZM16 19C16 19.553 16.447 20 17 20H20C20.552 20 21 19.553 21 19V16C21 15.448 20.552 15 20 15H17C16.447 15 16 15.448 16 16V19ZM31 15H36V22H31C30.448 22 30 21.553 30 21V16C30 15.448 30.448 15 31 15Z" fill="#55ACEE"/>
<path d="M36 25H35V27H36V25Z" fill="#FFE8B6"/>
<path d="M1 25H0V27H1V25Z" fill="#EA596E"/>
<path d="M1 22H0V24H1V22Z" fill="#F4ABBA"/>
</svg>
