<svg width="36" height="36" viewBox="0 0 36 36" fill="none" xmlns="http://www.w3.org/2000/svg">
<g clip-path="url(#clip0)">
<path d="M20.6442 15.875L17.5612 17.033L18.7172 20.117C18.7172 20.117 23.2672 19.113 23.9762 18.004C24.6852 16.893 23.3742 15.275 23.3742 15.275L20.6442 15.875V15.875Z" fill="black"/>
<path d="M34 17H2C2 17 2 19 3 24C3.86 28.302 24 25 27.601 24C30.684 23.144 34 17 34 17Z" fill="#C1694F"/>
<path d="M1 18C1 18.553 1.447 19 2 19H34C34.552 19 35 18.553 35 18C35 17.447 34.552 17 34 17H2C1.447 17 1 17.447 1 18Z" fill="#F4900C"/>
<path d="M36 23.933V34C36 35.105 35.105 36 34 36H2C0.895 36 0 35.105 0 34V24.363C0 23.726 0.584999 23.266 1.21 23.387C12.543 25.577 23.877 20.578 35.21 22.948C35.671 23.044 36 23.462 36 23.933V23.933Z" fill="#55ACEE"/>
<path d="M11.3543 13.533C11.5253 13.362 11.8023 13.362 11.9733 13.533L20.0043 21.564C22.2293 23.788 22.6953 22.163 25.0373 24.505L28.2683 27.736C28.4683 27.935 28.4673 28.259 28.2683 28.459L27.2743 29.453L26.2803 30.447C26.0803 30.647 25.7573 30.647 25.5583 30.447L22.3273 27.216C19.9853 24.874 21.6103 24.407 19.3863 22.183L11.3553 14.152C11.1833 13.981 11.1833 13.704 11.3543 13.533V13.533Z" fill="#1C6399"/>
<path d="M18.9719 9.22902C19.1479 9.01902 19.2859 8.76902 19.3599 8.45602C19.6249 7.33802 19.0149 6.23602 17.9979 5.99502C16.9809 5.75402 15.5509 6.45902 15.5379 7.60802C15.5249 8.74902 16.0939 10.455 17.0599 10.208C17.3149 10.143 17.5699 10.07 17.8139 9.98002C17.9119 10.105 17.9669 10.572 17.9099 10.967C17.7629 11.975 19.1549 12.134 19.3009 11.124C19.4169 10.326 18.9359 9.79702 18.9719 9.22902Z" fill="#FFDC5D"/>
<path d="M22.1908 8.25804C21.6228 8.23004 21.0738 8.16604 20.1348 6.95604C19.5108 6.15204 18.9278 5.63604 17.4858 5.64904C15.9548 5.66304 14.6718 6.96604 15.6548 7.61804C16.0838 7.90204 16.4428 7.76704 17.1308 7.96004C18.2118 8.26304 18.3758 9.41304 19.3518 9.67104C21.2638 10.177 22.7578 8.28604 22.1908 8.25804Z" fill="#FFAC33"/>
<path d="M11.9613 13.9599C12.2923 13.6189 12.4803 14.0279 12.7153 14.0179C12.8543 14.0119 15.0533 13.1459 15.3383 12.8749C15.6233 12.6039 16.4433 11.5489 17.2673 10.9999C18.0913 10.4509 18.6513 10.8289 18.8643 11.2369C19.1463 11.7779 19.0103 12.4019 18.4523 12.7539C18.0553 13.0039 16.6973 13.8599 15.9173 14.2939C15.3563 14.6049 13.3483 14.9639 13.1733 15.0349C12.9373 15.1299 12.6183 15.6529 12.3863 15.6049C12.1543 15.5569 11.9073 15.1799 11.6673 14.7959C11.4283 14.4109 11.6303 14.3009 11.9613 13.9599V13.9599Z" fill="#FFDC5D"/>
<path d="M15.7502 12.366L16.4882 11.607C16.9702 10.875 17.2772 10.424 18.0122 10.263C19.2992 9.979 20.9242 10.571 22.2342 12.19C23.0632 13.214 23.1812 14.364 24.4932 15.984C24.4932 15.984 20.0492 16.588 19.9412 16.076C19.8042 15.423 19.1882 14.823 18.8862 13.902C18.1062 13.557 18.0262 13.033 18.0062 13.047C17.5592 13.373 16.9332 13.725 16.9332 13.725L15.7502 12.366V12.366Z" fill="#9266CC"/>
</g>
<defs>
<clipPath id="clip0">
<rect width="36" height="36" fill="white" transform="matrix(-1 0 0 1 36 0)"/>
</clipPath>
</defs>
</svg>
