<svg width="36" height="36" viewBox="0 0 36 36" fill="none" xmlns="http://www.w3.org/2000/svg">
<path d="M0 5V32C0 32 0 36 4 36H32C36 36 36 32 36 32V27C36 27 11 25 0 5Z" fill="#4289C1"/>
<path d="M4.15581 23.243C4.15581 23.243 1.5908 21.608 1.8978 20.955C2.2068 20.301 13.6758 21.945 19.4258 23.909C28.0528 26.856 32.5698 31.431 31.9518 32.737C31.3348 34.043 24.3498 34.69 15.7238 31.744C9.97181 29.78 0.355807 24.22 0.663807 23.567C0.972807 22.914 4.15581 23.243 4.15581 23.243V23.243Z" fill="#1C6399"/>
<path d="M4.52577 22.747C4.52577 22.747 1.87577 21.128 2.17677 20.456C2.47977 19.783 14.2188 21.238 20.1258 23.131C28.9898 25.972 33.6888 30.555 33.0838 31.9C32.4788 33.245 25.3608 34.041 16.4988 31.201C10.5888 29.308 0.66577 23.818 0.96677 23.146C1.26977 22.473 4.52577 22.747 4.52577 22.747V22.747Z" fill="#A6D388"/>
<path d="M4.52594 22.747C4.52594 22.747 2.01894 21.213 2.16794 20.512L32.2439 29.978C32.9659 30.815 33.2629 31.501 33.0839 31.9C32.9279 32.248 32.3289 32.557 31.3839 32.778L0.988934 23.212C0.985934 23.192 0.959934 23.161 0.966934 23.146C1.26993 22.473 4.52594 22.747 4.52594 22.747V22.747Z" fill="#F5F8FA"/>
<path d="M8.24472 12.233C8.83372 11.998 9.59272 11.957 10.3487 11.847C11.5467 11.672 13.2007 11.082 13.8777 10.761C14.7027 10.266 16.4547 9.09998 16.8897 8.81298C17.3247 8.52598 17.9067 8.12798 18.6247 7.99998H18.7807C18.3957 8.54198 18.1717 9.15898 18.0327 10.841C18.0327 10.841 14.7137 12.502 14.4377 12.594C13.3127 12.969 11.2557 12.96 10.0937 13.106C9.49172 13.182 9.07272 13.092 8.59472 13.059C7.87272 13.01 7.21472 13.004 7.17272 12.688C7.12272 12.321 7.76772 12.423 8.24472 12.233V12.233ZM21.3017 0.996982C22.8947 0.369982 25.3787 1.17898 25.6667 3.03998C25.9537 4.88798 25.4277 7.78698 23.8037 7.61198C22.1017 7.42798 20.3557 7.05798 19.6657 5.30498C18.9757 3.55298 19.7087 1.62398 21.3017 0.996982V0.996982Z" fill="#FFDC5D"/>
<path d="M20.1177 5.75703C17.7997 3.03403 23.3837 3.29903 23.3837 3.29903C24.4407 3.33703 23.7127 5.09803 24.2107 6.06003C24.5517 6.72503 23.1157 7.07803 23.1157 7.07803C23.1157 7.07803 22.4567 7.06803 22.4217 7.86803V7.87503C22.4137 8.07903 22.4347 8.32003 22.5297 8.64403C23.0027 10.245 20.8527 11.226 20.3807 9.62203C20.1937 8.98703 20.2667 8.42903 20.3607 7.91403L20.3697 7.86803C20.5137 7.10203 20.6917 6.43003 20.1177 5.75703V5.75703ZM25.0007 8.40203C26.6667 9.39503 28.3687 11.451 28.9807 12.316C29.3407 12.599 29.6667 12.93 29.8777 13.052C30.2667 13.275 32.0317 14.484 33.2117 15.057C33.5657 15.223 34.6697 15.495 35.2037 15.838C35.6357 16.116 36.0487 16.1 35.9307 16.45C35.8287 16.752 35.4227 16.666 34.7037 16.582C33.9847 16.498 32.7747 16.293 32.3787 16.016C31.5787 15.485 29.0317 14.86 27.7817 13.985C27.5607 13.83 25.3967 11.822 25.0007 11.244C24.4577 9.72903 24.7187 8.68803 25.0007 8.40203V8.40203Z" fill="#FFDC5D"/>
<path d="M19.4819 1.63996C20.5429 0.397964 22.0019 -0.117037 24.5009 0.848963C26.6839 1.69296 25.9819 3.42796 25.4729 3.13096C23.6039 2.04096 22.5739 3.64496 21.7759 5.39996C21.2529 6.55096 20.2159 6.90196 20.2159 6.90196C20.2159 6.90196 19.8789 7.03396 19.3039 5.90096C18.7289 4.76796 18.4279 2.87296 19.4819 1.63996V1.63996Z" fill="#FFAC33"/>
<path d="M19.7387 28.432C20.1167 28.332 20.4087 28 20.5457 27.647C20.6047 27.495 20.9107 26.646 20.9107 26.646H22.7297C22.6867 26.86 22.7667 27.3421 22.8637 27.8431C22.9257 28.165 22.9777 28.7351 22.8767 28.9361C22.7757 29.1371 22.0597 29.676 21.5757 29.775C20.3387 30.03 19.0847 29.433 18.9317 29.258C18.7097 29.003 19.3597 28.532 19.7387 28.432V28.432ZM12.2287 25.21C12.5627 25.145 12.8357 24.874 12.9747 24.576C13.0347 24.447 13.1947 23.925 13.1947 23.925L14.8037 24.1451C14.7537 24.3281 14.8307 24.562 14.8117 24.938C14.7947 25.273 14.8697 25.686 14.7697 25.855C14.6707 26.024 14.1687 26.426 13.7427 26.484C12.6547 26.632 11.6017 26.041 11.4787 25.88C11.3027 25.645 11.8947 25.275 12.2287 25.21V25.21Z" fill="#FFDC5D"/>
<path d="M19.8115 2.21895C18.9365 0.906953 17.0375 0.780953 16.1745 1.74995C15.3115 2.71895 14.9895 3.99995 13.8365 3.99995C13.4685 3.99995 13.2845 4.34395 14.0485 4.68795C14.8125 5.03195 17.9375 5.71895 19.1245 3.49995C19.6555 2.84395 19.8115 2.21895 19.8115 2.21895V2.21895Z" fill="#FFAC33"/>
<path d="M13.223 22.241C13.2 21.535 12.811 20.048 12.958 19.417C13.187 18.436 14.458 17.37 15.635 16.469C16.812 15.568 18.01 15.031 18.01 15.031C18.312 13.135 17.768 12.135 17.775 11.315C17.781 10.631 18.208 8.667 18.781 8H20.346C20.346 8 20.1 9.013 20.993 9.112C21.888 9.211 22.44 8 22.44 8L24.188 8.167C24.466 8.21 24.737 8.292 25.001 8.403C24.625 9.042 24.771 10.688 25.001 11.244C24.178 12.432 23.465 14.247 23.855 16.5C24.201 18.502 23.382 20.389 23.382 20.824C23.382 20.824 23.885 22.573 23.582 23.722C23.179 25.251 22.814 26.606 22.772 27.145C21.36 27.145 20.791 26.755 20.791 26.755C20.791 26.755 21.069 26.117 20.956 25.178C20.887 24.606 20.605 23.723 20.605 22.874C20.605 22.025 20.627 21.413 20.501 21.062C20.375 20.711 19.981 19.486 19.689 18.358C19.155 18.65 18.196 19.15 17.605 19.312C16.756 19.544 16.111 19.907 15.887 20.102C15.663 20.297 15.511 20.437 15.511 20.437C15.511 20.437 15.581 21.062 15.521 22.02C15.466 22.897 14.991 23.571 14.885 24.616C13.992 24.483 13.146 24.088 13.146 24.088C13.146 24.088 13.242 22.821 13.223 22.241V22.241Z" fill="#292F33"/>
<path d="M23.625 8.594L22.721 8.508C22.721 8.508 21.519 9.881 20.625 9.782C19.731 9.683 19.784 8.428 19.784 8.428H18.515C18.6 8.26 18.688 8.109 18.781 8H20.346C20.346 8 20.1 9.013 20.993 9.112C21.888 9.211 22.44 8 22.44 8L24.188 8.167C24.466 8.21 24.737 8.292 25.001 8.403C24.924 8.534 24.873 8.714 24.836 8.912C24.49 8.794 23.863 8.63 23.625 8.594V8.594ZM14.958 22.448C15.018 21.49 14.948 20.865 14.948 20.865C14.948 20.865 15.099 20.724 15.324 20.53C15.392 20.471 15.51 20.394 15.65 20.312L15.511 20.438C15.511 20.438 15.581 21.063 15.521 22.021C15.466 22.898 14.991 23.572 14.885 24.617C14.727 24.593 14.572 24.56 14.421 24.524C14.596 23.761 14.913 23.167 14.958 22.448V22.448ZM23.019 24.149C23.322 23 22.819 21.251 22.819 21.251C22.819 20.816 23.617 18.46 23.271 16.458C19.271 16.437 18.011 15.031 18.011 15.031C18.011 15.031 20.73 16.291 23.212 15.564C23.286 13.776 24 11.903 24.919 10.985C24.944 11.085 24.972 11.173 25.001 11.243C24.178 12.431 23.465 14.246 23.855 16.499C24.201 18.501 23.382 20.388 23.382 20.823C23.382 20.823 23.885 22.572 23.582 23.721C23.179 25.25 22.814 26.605 22.772 27.144C22.594 27.144 22.43 27.138 22.278 27.127C22.407 26.455 22.699 25.361 23.019 24.149V24.149Z" fill="#67757F"/>
</svg>
