<svg width="142" height="38" viewBox="0 0 142 38" fill="none" xmlns="http://www.w3.org/2000/svg">
<path d="M32.8633 12.7207L30.5391 12.3805V10.9633H34.3656C35.0081 10.9633 35.8206 10.9255 36.8032 10.8499C37.7102 10.7743 38.3811 10.7366 38.8157 10.7366C41.4234 10.7366 43.2847 11.1428 44.3995 11.9554C45.5333 12.7679 46.1002 13.9584 46.1002 15.5268C46.1002 16.8684 45.7128 18.0211 44.9381 18.9848C44.1633 19.9485 43.1051 20.5532 41.7635 20.7988C43.5775 20.7611 45.0042 21.1862 46.0435 22.0743C47.0828 22.9625 47.6025 24.1718 47.6025 25.7024C47.6025 27.611 46.9222 29.1699 45.5617 30.3793C44.22 31.5886 41.9903 32.1933 38.8724 32.1933C38.1921 32.1933 37.5402 32.165 36.9166 32.1083C35.4427 32.0516 34.564 32.0233 34.2806 32.0233H30.5107V30.6344L32.8633 30.3509V12.7207ZM35.8678 20.2603C36.1324 20.2792 36.6709 20.2886 37.4835 20.2886H39.0424C40.3652 20.2886 41.3667 19.9202 42.0469 19.1832C42.7272 18.4463 43.0673 17.3975 43.0673 16.037C43.0673 14.7142 42.7272 13.7505 42.0469 13.1458C41.3667 12.5223 40.2046 12.2105 38.5606 12.2105C37.8803 12.2105 37.1811 12.2483 36.4631 12.3238L35.8678 12.3805V20.2603ZM35.8678 30.436C36.3025 30.5871 37.2851 30.6627 38.8157 30.6627C40.7242 30.6627 42.1036 30.2753 42.954 29.5006C43.8232 28.707 44.2578 27.5732 44.2578 26.0993C44.2578 24.6442 43.8799 23.5861 43.124 22.9247C42.3871 22.2633 41.1872 21.9326 39.5243 21.9326C37.5969 21.9326 36.378 21.9515 35.8678 21.9893V30.436Z" fill="#4A4A4A"/>
<path d="M51.6848 13.4576C51.0801 13.4576 50.6266 13.2876 50.3242 12.9474C50.0219 12.6073 49.8707 12.1727 49.8707 11.6436C49.8707 11.0389 50.0502 10.5381 50.4093 10.1413C50.7872 9.7445 51.2974 9.54609 51.9399 9.54609C52.5823 9.54609 53.0547 9.71616 53.3571 10.0563C53.6594 10.3964 53.8106 10.831 53.8106 11.3601C53.8106 12.0026 53.6216 12.5128 53.2437 12.8907C52.8847 13.2687 52.3745 13.4576 51.7131 13.4576H51.6848ZM50.551 18.4746L48.3968 17.9644V16.4621L52.7902 15.9236H52.8469L53.4988 16.4338V30.4076L55.7664 30.6344V32.0233H48.2551V30.6344L50.551 30.3793V18.4746Z" fill="#4A4A4A"/>
<path d="M54.9008 9.34768L59.4359 8.80913H59.4926L60.1445 9.2343V17.766C60.7114 17.218 61.3822 16.7645 62.157 16.4055C62.9506 16.0464 63.8293 15.8669 64.793 15.8669C65.9268 15.8669 66.9567 16.1409 67.8826 16.6889C68.8274 17.2369 69.5738 18.0872 70.1218 19.2399C70.6887 20.3926 70.9721 21.8476 70.9721 23.6049C70.9721 25.23 70.632 26.7039 69.9517 28.0267C69.2903 29.3494 68.3361 30.3982 67.0889 31.1729C65.8418 31.9477 64.3962 32.335 62.7522 32.335C61.4484 32.335 60.2579 32.2122 59.1808 31.9666C58.1037 31.702 57.4518 31.4658 57.225 31.258V10.8499L54.9008 10.5381V9.34768ZM63.6309 17.8794C62.9128 17.8794 62.242 18.0494 61.6184 18.3896C61.0138 18.7108 60.5225 19.0793 60.1445 19.495V29.9258C60.2579 30.1903 60.5791 30.4076 61.1082 30.5777C61.6562 30.7289 62.2704 30.8044 62.9506 30.8044C64.4056 30.8044 65.5772 30.2187 66.4653 29.0471C67.3535 27.8755 67.7975 26.1654 67.7975 23.9167C67.7975 21.8948 67.4102 20.3831 66.6354 19.3816C65.8607 18.3801 64.8592 17.8794 63.6309 17.8794Z" fill="#4A4A4A"/>
<path d="M73.9731 10.8783L71.6772 10.5665V9.34768L76.2407 8.80913H76.2974L76.921 9.2343V30.4076L79.3302 30.6344V32.0233H71.6772V30.6344L73.9731 30.3793V10.8783Z" fill="#4A4A4A"/>
<path d="M86.7696 32.335C84.4831 32.335 82.7352 31.5886 81.5259 30.0958C80.3354 28.603 79.7402 26.6095 79.7402 24.1151C79.7402 22.4712 80.0519 21.0256 80.6755 19.7784C81.2991 18.5313 82.1683 17.5676 83.2832 16.8873C84.417 16.207 85.7019 15.8669 87.1381 15.8669C88.8954 15.8669 90.256 16.3582 91.2197 17.3408C92.2023 18.3045 92.7219 19.6934 92.7786 21.5075C92.7786 22.6601 92.7125 23.5388 92.5802 24.1435H82.8297C82.8675 26.0142 83.3021 27.5259 84.1336 28.6786C84.965 29.8124 86.146 30.3793 87.6766 30.3793C88.4325 30.3793 89.2167 30.247 90.0292 29.9825C90.8606 29.699 91.5031 29.3683 91.9566 28.9904L92.4952 30.2376C91.9472 30.8044 91.1346 31.2957 90.0575 31.7115C88.9805 32.1272 87.8845 32.335 86.7696 32.335ZM89.6607 22.6412C89.7174 22.2444 89.7458 21.8381 89.7458 21.4224C89.7269 20.1942 89.4623 19.2305 88.9521 18.5313C88.4608 17.8132 87.6766 17.4542 86.5995 17.4542C85.5035 17.4542 84.6249 17.851 83.9635 18.6447C83.321 19.4383 82.9525 20.7705 82.8581 22.6412H89.6607Z" fill="#4A4A4A"/>
<path d="M103.46 21.5707C104.189 22.5499 104.838 23.8365 105.407 25.4306C105.999 27.0247 106.329 28.9717 106.398 31.2718C106.398 31.5223 106.352 31.7044 106.261 31.8183C106.193 31.9322 106.022 32.0119 105.749 32.0574C105.475 32.103 105.031 32.1257 104.417 32.1257C103.802 32.1257 103.062 32.0916 102.196 32.0233C102.151 29.6549 101.912 27.7306 101.479 26.2504C101.046 24.7474 100.545 23.5861 99.9759 22.7662C99.8393 22.789 99.6343 22.8004 99.361 22.8004H99.0878V31.3401C99.0878 31.5906 99.0194 31.7614 98.8828 31.8525C98.7689 31.9208 98.4046 31.9663 97.7897 31.9891C97.1749 32.0119 96.3437 32.0233 95.2961 32.0233V8.79532C95.2961 8.68146 95.3417 8.54483 95.4328 8.38542C95.5239 8.20324 95.706 8.11215 95.9793 8.11215H99.1902C100.716 8.11215 101.957 8.3171 102.914 8.72701C103.87 9.13691 104.599 9.85425 105.1 10.879C105.601 11.9038 105.851 13.327 105.851 15.1488C105.851 18.1776 105.054 20.3182 103.46 21.5707ZM99.0878 19.2821H99.8051C100.397 19.2821 100.841 18.9746 101.137 18.3598C101.433 17.7449 101.581 16.6063 101.581 14.9439C101.581 13.7142 101.456 12.8147 101.206 12.2454C100.978 11.676 100.591 11.3914 100.044 11.3914H99.0878V19.2821Z" fill="#1BACAC"/>
<path d="M112.896 32.3648C110.96 32.3648 109.617 31.9436 108.865 31.101C108.114 30.2356 107.738 28.9376 107.738 27.2069V15.6271C107.738 15.3766 107.795 15.2172 107.909 15.1488C108.023 15.0578 108.398 15.0008 109.036 14.9781C109.696 14.9553 110.573 14.9439 111.666 14.9439V27.446C111.666 28.0381 111.746 28.4707 111.905 28.744C112.065 28.9945 112.384 29.1198 112.862 29.1198C113.408 29.1198 113.841 28.9717 114.16 28.6757V15.6271C114.16 15.3766 114.205 15.2172 114.296 15.1488C114.41 15.0578 114.775 15.0008 115.389 14.9781C116.027 14.9553 116.881 14.9439 117.951 14.9439V31.0668C117.337 31.4312 116.574 31.7386 115.663 31.9891C114.775 32.2396 113.852 32.3648 112.896 32.3648Z" fill="#1BACAC"/>
<path d="M123.703 32.3648C121.016 32.3648 119.672 31.6931 119.672 30.3495C119.672 29.6891 119.877 28.9831 120.287 28.2316C121.221 28.7326 122.223 28.9831 123.293 28.9831C123.885 28.9831 124.329 28.8579 124.625 28.6074C124.921 28.3341 125.069 27.9698 125.069 27.5143C125.069 26.8311 124.807 26.1935 124.284 25.6014L121.312 22.4588C120.742 21.8667 120.321 21.2519 120.048 20.6142C119.775 19.9766 119.638 19.3845 119.638 18.838C119.638 17.54 120.082 16.5152 120.97 15.7637C121.858 14.9894 123.293 14.6023 125.274 14.6023C126.959 14.6023 128.075 14.8186 128.622 15.2513C129.191 15.6612 129.476 16.1622 129.476 16.7543C129.476 17.0503 129.407 17.3692 129.271 17.7108C129.157 18.0296 128.986 18.3142 128.758 18.5647C127.87 18.0865 126.88 17.8474 125.787 17.8474C124.693 17.8474 124.147 18.2004 124.147 18.9063C124.147 19.134 124.215 19.3731 124.352 19.6236C124.489 19.8741 124.762 20.2043 125.172 20.6142L127.699 23.1761C128.36 23.9504 128.804 24.645 129.032 25.2598C129.282 25.8519 129.407 26.5806 129.407 27.446C129.407 28.9717 128.895 30.1787 127.87 31.0668C126.845 31.9322 125.456 32.3648 123.703 32.3648Z" fill="#1BACAC"/>
<path d="M131.058 8.59037C131.058 8.02106 131.15 7.63393 131.332 7.42898C131.537 7.20125 131.867 7.06462 132.322 7.01907C132.801 6.95075 133.643 6.9166 134.85 6.9166V15.7979C135.237 15.4107 135.727 15.1147 136.319 14.9097C136.934 14.7048 137.537 14.6023 138.129 14.6023C139.382 14.6023 140.213 14.9439 140.623 15.6271C141.056 16.3102 141.272 17.4375 141.272 19.0088V31.3401C141.272 31.5906 141.192 31.7614 141.033 31.8525C140.896 31.9208 140.509 31.9663 139.871 31.9891C139.234 32.0119 138.391 32.0233 137.344 32.0233V20.2043C137.344 19.5212 137.275 18.9974 137.139 18.633C137.002 18.2687 136.706 18.0865 136.251 18.0865C135.772 18.0865 135.306 18.2345 134.85 18.5306V31.3401C134.85 31.5906 134.793 31.7614 134.679 31.8525C134.565 31.9208 134.201 31.9663 133.586 31.9891C132.971 32.0119 132.129 32.0233 131.058 32.0233V8.59037Z" fill="#1BACAC"/>
<path fill-rule="evenodd" clip-rule="evenodd" d="M10.1149 17.9831C9.55241 17.9831 9.09644 18.4391 9.09644 19.0016V31.2228C9.09644 31.7853 9.55241 32.2413 10.1149 32.2413H26.4099C26.9723 32.2413 27.4283 31.7853 27.4283 31.2228V19.0016C27.4283 18.4391 26.9723 17.9831 26.4099 17.9831H10.1149ZM12.6081 20.7808C12.3705 20.624 12.0509 20.6895 11.8941 20.927C11.7373 21.1646 11.8028 21.4842 12.0404 21.641L17.9328 25.5296L18.2166 25.7169L18.5005 25.5296L24.3929 21.641C24.6304 21.4842 24.6959 21.1646 24.5391 20.927C24.3824 20.6895 24.0627 20.624 23.8252 20.7808L18.2166 24.482L12.6081 20.7808Z" fill="#1BACAC"/>
<path d="M1.59083 10.8843L1.40862 10.7021L1.40862 10.7021L1.59083 10.8843ZM1.95524 10.8843L1.77303 11.0665L1.77303 11.0665L1.95524 10.8843ZM1.59083 11.2488L1.40862 11.431L1.40862 11.431L1.59083 11.2488ZM6.64237 16.3003L6.46016 16.4825L6.67001 16.6924L6.84834 16.4551L6.64237 16.3003ZM6.97968 15.9088L7.16328 16.0896L7.34268 15.9074L7.16188 15.7266L6.97968 15.9088ZM9.50334 14.7622H9.24566V15.0354L9.51847 15.0194L9.50334 14.7622ZM10.0187 14.7657L9.99998 15.0227L10.2764 15.0429V14.7657H10.0187ZM12.5149 15.9362L12.3327 15.754L12.1537 15.9331L12.3295 16.1152L12.5149 15.9362ZM12.8486 16.3314L12.6411 16.4842L12.8188 16.7256L13.0308 16.5136L12.8486 16.3314ZM17.4159 11.7641L17.2337 11.5819L17.2337 11.5819L17.4159 11.7641ZM17.4159 11.3997L17.5981 11.2175L17.5981 11.2175L17.4159 11.3997ZM17.0514 11.3997L16.8692 11.2175L16.8692 11.2175L17.0514 11.3997ZM7.44474 21.7352L7.62695 21.9174L7.83893 21.7054L7.59751 21.5277L7.44474 21.7352ZM7.04959 21.4016L7.22856 21.2162L7.04641 21.0403L6.86738 21.2193L7.04959 21.4016ZM1.07547 27.3757L0.893267 27.1935L0.893266 27.1935L1.07547 27.3757ZM1.07547 27.7401L0.893266 27.9223L0.893266 27.9223L1.07547 27.7401ZM1.43988 27.7401L1.25768 27.5579L1.25768 27.5579L1.43988 27.7401ZM5.93045 19.3122V19.5699H6.23885L6.18402 19.2664L5.93045 19.3122ZM5.87269 18.7969L6.13011 18.7853L6.11906 18.5392H5.87269V18.7969ZM1.77303 11.0665L1.77303 11.0665L2.13744 10.7021C1.93618 10.5009 1.60988 10.5009 1.40862 10.7021L1.77303 11.0665ZM1.77303 11.0665L1.77303 11.0665L1.40862 10.7021C1.20736 10.9034 1.20736 11.2297 1.40862 11.431L1.77303 11.0665ZM6.82457 16.1181L1.77303 11.0665L1.40862 11.431L6.46016 16.4825L6.82457 16.1181ZM6.84834 16.4551C6.94516 16.3263 7.05041 16.2042 7.16328 16.0896L6.79607 15.728C6.66719 15.8589 6.54699 15.9983 6.43639 16.1455L6.84834 16.4551ZM1.77303 11.0665L6.79747 16.091L7.16188 15.7266L2.13744 10.7021L1.77303 11.0665ZM9.51847 15.0194C9.58972 15.0152 9.66154 15.0131 9.7339 15.0131V14.4977C9.65144 14.4977 9.56952 14.5001 9.48821 14.5049L9.51847 15.0194ZM9.7339 15.0131C9.82343 15.0131 9.91216 15.0163 9.99998 15.0227L10.0374 14.5087C9.93715 14.5014 9.83593 14.4977 9.7339 14.4977V15.0131ZM9.76102 11.0665V14.7657H10.2764V11.0665H9.76102ZM9.76102 11.0665L9.76102 11.0665H10.2764C10.2764 10.7819 10.0456 10.5512 9.76102 10.5512V11.0665ZM9.76102 11.0665L9.76102 11.0665V10.5512C9.4764 10.5512 9.24566 10.7819 9.24566 11.0665H9.76102ZM9.76102 14.7622V11.0665H9.24566V14.7622H9.76102ZM12.3295 16.1152C12.4413 16.231 12.5454 16.3543 12.6411 16.4842L13.0561 16.1786C12.9469 16.0303 12.8279 15.8895 12.7003 15.7573L12.3295 16.1152ZM17.2337 11.5819L12.6664 16.1492L13.0308 16.5136L17.5981 11.9463L17.2337 11.5819ZM17.2337 11.5819L17.2337 11.5819L17.5981 11.9463C17.7993 11.7451 17.7993 11.4188 17.5981 11.2175L17.2337 11.5819ZM17.2337 11.5819H17.2337L17.5981 11.2175C17.3968 11.0162 17.0705 11.0162 16.8692 11.2175L17.2337 11.5819ZM12.6971 16.1185L17.2337 11.5819L16.8692 11.2175L12.3327 15.754L12.6971 16.1185ZM7.59751 21.5277C7.46763 21.4321 7.34437 21.328 7.22856 21.2162L6.87062 21.5869C7.00285 21.7146 7.14361 21.8335 7.29197 21.9427L7.59751 21.5277ZM1.25768 27.5579L7.23179 21.5838L6.86738 21.2193L0.893267 27.1935L1.25768 27.5579ZM1.25768 27.5579V27.5579L0.893266 27.1935C0.692009 27.3947 0.692009 27.721 0.893266 27.9223L1.25768 27.5579ZM1.25768 27.5579L1.25768 27.5579L0.893266 27.9223C1.09452 28.1235 1.42083 28.1235 1.62209 27.9223L1.25768 27.5579ZM7.26253 21.553L1.25768 27.5579L1.62209 27.9223L7.62695 21.9174L7.26253 21.553ZM6.18402 19.2664C6.15566 19.1094 6.13745 18.9488 6.13011 18.7853L5.61527 18.8084C5.62365 18.995 5.64445 19.1785 5.67688 19.358L6.18402 19.2664ZM1.77303 19.0545H5.87269V18.5392H1.77303V19.0545ZM1.77303 19.0545V19.0545V18.5392C1.48841 18.5392 1.25768 18.7699 1.25768 19.0545H1.77303ZM1.77303 19.0545V19.0545H1.25768C1.25768 19.3392 1.48841 19.5699 1.77303 19.5699V19.0545ZM5.93045 19.0545H1.77303V19.5699H5.93045V19.0545Z" fill="#1BACAC"/>
</svg>
